<svg width="51" height="51" viewBox="0 0 51 51" fill="none" xmlns="http://www.w3.org/2000/svg">
<path d="M34.3546 26.2796C34.9482 28.014 35.4481 29.6105 35.7067 31.2751C35.8951 32.393 35.9243 33.5321 35.7935 34.6583C35.6199 35.9774 34.7833 36.4502 33.5839 35.9442C32.2543 35.3807 30.9057 34.8572 29.6108 34.2238C26.7138 32.807 23.8516 33.1124 20.9876 34.2814C20.2933 34.5641 19.6268 34.9165 18.9377 35.2132C17.0735 36.0193 15.0583 35.2742 14.2511 33.498C13.444 31.7217 14.1939 29.7797 15.9869 28.8777C17.2019 28.2687 18.4881 27.8081 19.5764 26.9671C19.7969 26.7926 20.0156 26.6181 20.4443 26.2796H15.145C13.6141 26.2796 13.6176 26.2796 13.2479 27.7104C13.016 28.708 12.478 29.6071 11.71 30.2805C11.2483 30.6696 11.1563 31.0901 11.1598 31.6415C11.1823 34.8973 11.1806 38.1532 11.1841 41.4126C11.189 41.6736 11.1774 41.9347 11.1494 42.1942C11.1328 42.2961 11.0792 42.3881 10.9991 42.4526C10.919 42.517 10.8179 42.5493 10.7154 42.5432C10.6133 42.5617 10.508 42.5401 10.4212 42.483C10.3344 42.4259 10.2726 42.3376 10.2485 42.2361C10.1964 41.9524 10.1702 41.6644 10.1704 41.3759C10.1582 38.3242 10.1391 35.269 10.1704 32.2208C10.1704 31.5473 10.0836 31.4216 9.36674 31.6118C6.38298 32.4005 3.33848 30.5754 2.63029 27.6755C1.90996 24.6569 3.63703 21.7343 6.66418 20.9927C8.34612 20.5775 9.94821 20.8828 11.316 22.003C11.6641 22.3019 12.1117 22.4577 12.5692 22.4392C15.8932 22.4235 19.2189 22.4183 22.5445 22.4392C23.0948 22.4392 23.3447 22.2909 23.494 21.7413C23.9088 20.2041 24.3897 18.6861 24.86 17.1646C25.2436 15.9188 25.9466 15.6152 27.0974 16.2293C28.3767 16.9098 29.3192 17.9742 30.2218 19.0804C30.9494 19.9472 31.5928 20.8821 32.1432 21.8721C32.3897 22.3223 32.69 22.4532 33.1847 22.4479C35.4984 22.4253 37.8105 22.434 40.1277 22.4479C41.5024 22.4479 42.2106 23.1459 42.2297 24.5295C42.2401 25.2275 42.2297 25.9254 42.2297 26.6233C42.2297 27.0264 42.2036 27.4486 41.6864 27.4277C41.2525 27.412 41.1796 27.0386 41.1865 26.6565C41.1969 25.9289 41.1726 25.2013 41.1865 24.4754C41.2004 23.7496 40.8567 23.4565 40.1919 23.4547C38.024 23.4547 35.8525 23.4547 33.6863 23.4442C33.1517 23.4442 33.1656 23.6065 33.3253 24.0654C33.6464 24.9657 34.1151 25.4002 35.153 25.2868C36.2969 25.1664 37.4633 25.2676 38.6245 25.2571C39.1973 25.2571 39.4507 25.4752 39.449 26.0877C39.4351 31.3222 39.4351 36.5567 39.449 41.7912C39.449 42.1506 39.4629 42.5659 38.9717 42.5519C38.3781 42.5345 38.451 42.0285 38.451 41.6341C38.451 36.9254 38.451 32.2144 38.451 27.501C38.451 27.2689 38.4388 27.0369 38.451 26.8031C38.4718 26.4366 38.326 26.2796 37.9476 26.2901C36.7829 26.2901 35.6286 26.2796 34.3546 26.2796ZM31.416 33.833C28.5527 29.7624 26.4187 25.2204 25.11 20.4117C24.8461 20.4937 24.8826 20.663 24.8531 20.7903C24.2525 23.4617 22.9334 25.6759 20.755 27.3509C20.387 27.6318 20.4564 27.9477 20.5432 28.2792C20.8915 29.5979 21.4603 30.8476 22.2252 31.9747C22.5723 32.4842 22.9195 32.6099 23.5235 32.4982C24.9705 32.2131 26.4598 32.2232 27.9028 32.5279C29.064 32.7774 30.0673 33.4352 31.416 33.833ZM34.9291 33.5102C34.917 33.238 34.9187 33.0321 34.8961 32.8315C34.3754 28.3542 32.7438 24.3167 30.1471 20.6612C29.255 19.4049 28.2743 18.2185 26.9898 17.346C26.7121 17.1541 26.384 16.8575 26.0508 17.0599C25.7175 17.2623 25.8234 17.6828 25.8095 18.0248C25.8119 18.1703 25.8246 18.3155 25.8477 18.4592C26.049 20.4082 26.7156 22.2316 27.3422 24.0637C27.5678 24.7145 27.7674 24.8925 28.4635 24.5487C29.7896 23.8944 31.192 24.5749 31.5566 25.9306C31.8291 26.9479 31.2945 27.9459 30.1489 28.5235C29.8139 28.6979 29.4407 28.752 29.7583 29.3017C30.746 31.0081 31.7145 32.7268 33.0788 34.1715C33.4694 34.585 33.9154 35.2864 34.4379 35.0875C35.0072 34.8659 34.8441 34.0284 34.9291 33.5102ZM12.3887 26.3093C12.4004 25.7149 12.294 25.1242 12.0758 24.5716C11.8576 24.0191 11.532 23.5159 11.118 23.0914C10.7039 22.6669 10.2099 22.3297 9.66462 22.0995C9.11938 21.8693 8.53394 21.7507 7.94255 21.7507C7.35117 21.7507 6.76573 21.8693 6.22049 22.0995C5.67525 22.3297 5.18117 22.6669 4.76715 23.0914C4.35313 23.5159 4.0275 24.0191 3.80931 24.5716C3.59112 25.1242 3.48475 25.7149 3.49643 26.3093C3.48475 26.9036 3.59112 27.4944 3.80931 28.0469C4.0275 28.5994 4.35313 29.1027 4.76715 29.5272C5.18117 29.9516 5.67525 30.2889 6.22049 30.5191C6.76573 30.7493 7.35117 30.8678 7.94255 30.8678C8.53394 30.8678 9.11938 30.7493 9.66462 30.5191C10.2099 30.2889 10.7039 29.9516 11.118 29.5272C11.532 29.1027 11.8576 28.5994 12.0758 28.0469C12.294 27.4944 12.4004 26.9036 12.3887 26.3093ZM22.7233 23.4966H12.6976C12.8452 23.8456 13.017 24.0986 13.0552 24.369C13.1663 25.1472 13.6228 25.2711 14.3206 25.2554C16.2299 25.2118 18.1392 25.1367 20.0485 25.2746C21.4476 25.381 22.2061 24.793 22.7233 23.4966ZM18.5714 34.2395C18.1913 33.5748 17.8181 32.9571 17.4814 32.3202C17.1267 31.6597 16.8584 30.956 16.6829 30.2264C16.5319 29.5773 16.2264 29.8949 15.9626 30.0938C15.4728 30.4626 15.1364 31.0007 15.0181 31.6042C14.8998 32.2077 15.0081 32.8339 15.3221 33.3619C15.9956 34.5501 17.0839 34.8572 18.5714 34.2395ZM19.2935 28.3804C18.7433 28.6718 18.1184 28.8864 17.648 29.2877C17.3113 29.5756 17.6792 30.0589 17.799 30.4166C18.0215 31.0713 18.2979 31.7063 18.6252 32.315C19.4757 33.9133 19.4931 33.9045 21.116 33.1263C21.1411 33.1126 21.1672 33.1009 21.1941 33.0914C21.6368 32.985 21.5604 32.7634 21.3538 32.472C20.5728 31.361 19.9918 30.1208 19.6372 28.8079C19.5886 28.6316 19.592 28.3926 19.2935 28.3804ZM29.3608 25.3165C29.1647 25.3509 28.9735 25.4095 28.7915 25.4909C28.5693 25.6201 28.1545 25.5852 28.1927 25.9812C28.2361 26.4297 28.6145 26.2098 28.8644 26.2674C29.4754 26.4105 29.5587 26.7472 29.0814 27.152C28.7429 27.4486 28.8401 27.7976 29.1352 27.7976C29.3641 27.7848 29.5877 27.7232 29.7911 27.617C29.9946 27.5109 30.1733 27.3625 30.3155 27.1817C30.4645 27.0222 30.56 26.8198 30.5886 26.6029C30.6173 26.386 30.5776 26.1656 30.4752 25.9725C30.2686 25.5293 29.9093 25.3374 29.3608 25.3165Z" fill="url(#paint0_linear_75_65)" stroke="#F77415" stroke-width="0.3"/>
<path d="M24.8132 50.0494C19.9531 50.0494 15.093 50.0652 10.2329 50.0494C7.74554 50.039 5.82059 48.4163 5.29987 45.9805C5.05339 44.8202 5.24259 44.5288 6.42463 44.6056C7.26473 44.6614 7.41922 44.3421 7.4088 43.5796C7.37061 40.7599 7.39318 37.9385 7.39665 35.1189C7.39114 34.8575 7.39867 34.5961 7.41922 34.3355C7.44699 34.0493 7.59279 33.812 7.90349 33.812C8.25064 33.812 8.3895 34.0476 8.38603 34.393C8.38603 35.2934 8.38603 36.1955 8.38603 37.0975C8.38603 39.3362 8.40686 41.5748 8.37214 43.8134C8.36173 44.4311 8.54572 44.5899 9.15149 44.5881C19.566 44.5707 29.9805 44.5707 40.395 44.5881C41.058 44.5881 41.2629 44.4014 41.2021 43.7576C41.1717 43.1478 41.1717 42.537 41.2021 41.9272C41.2021 41.5608 41.3618 41.2851 41.7593 41.2991C42.1186 41.3113 42.2297 41.587 42.2331 41.9098C42.2331 42.5781 42.2574 43.2481 42.2331 43.9164C42.2123 44.3787 42.3217 44.5759 42.8441 44.5864C44.5052 44.623 44.6788 44.9127 44.1546 46.5493C43.4603 48.6989 41.6968 50.0285 39.4056 50.039C34.5316 50.0634 29.6733 50.0494 24.8132 50.0494ZM24.7698 45.6001C18.8682 45.6001 12.9667 45.6106 7.06512 45.5844C6.33264 45.5844 6.23717 45.7886 6.4715 46.4237C7.07554 48.0656 8.5544 49.0584 10.5575 49.0654C14.0862 49.0793 17.615 49.0654 21.1455 49.0654H39.0237C40.8636 49.0654 42.2713 48.343 43.0576 46.6139C43.4638 45.7205 43.3683 45.5949 42.3842 45.5949L24.7698 45.6001Z" fill="url(#paint1_linear_75_65)" stroke="#F77415" stroke-width="0.3"/>
<path d="M42.0665 16.4335C39.5792 16.4335 37.0919 16.4125 34.6028 16.4474C33.8113 16.4579 33.4659 16.252 33.4746 15.3744C33.5162 11.3356 33.5208 7.29518 33.4884 3.25298C33.4884 2.48874 33.7419 2.23923 34.4917 2.24098C39.5832 2.26424 44.6748 2.26424 49.7663 2.24098C50.5196 2.24098 50.7904 2.50445 50.7644 3.26519C50.7175 4.66106 50.7539 6.05693 50.7487 7.4528C50.7487 7.82619 50.8008 8.29555 50.2506 8.28509C49.7507 8.28509 49.7125 7.84539 49.7108 7.4528C49.7108 6.28899 49.6899 5.12519 49.7108 3.96313C49.7229 3.46585 49.6188 3.24426 49.0512 3.246C44.4225 3.26694 39.7938 3.26694 35.1652 3.246C34.6132 3.246 34.4813 3.45015 34.4848 3.95789C34.5004 6.19652 34.5091 8.43514 34.4743 10.6738C34.4639 11.3002 34.6844 11.4432 35.2711 11.4415C40.0721 11.4206 44.8715 11.4415 49.6778 11.4118C50.5283 11.4118 50.806 11.6893 50.7591 12.5181C50.7079 13.5061 50.7079 14.4962 50.7591 15.4843C50.7939 16.2241 50.4797 16.4492 49.7871 16.4439C47.2147 16.4213 44.6354 16.4335 42.0665 16.4335ZM42.1325 15.4302H47.5862C49.7142 15.4302 49.6691 15.4302 49.7246 13.3364C49.7455 12.525 49.4625 12.3907 48.7422 12.3977C44.7292 12.4291 40.7178 12.4116 36.7048 12.4116C34.424 12.4116 34.4483 12.4116 34.4709 14.7043C34.4709 15.3534 34.7278 15.4546 35.2902 15.4494C37.5709 15.4092 39.8517 15.4302 42.1325 15.4302Z" fill="url(#paint2_linear_75_65)" stroke="#F77415" stroke-width="0.3"/>
<path d="M9.39971 1.45062C8.94321 3.05761 8.49539 4.46046 7.8115 5.77257C7.62404 6.13201 7.4279 6.59265 6.91586 6.32569C6.35868 6.03255 6.74228 5.62775 6.91586 5.29449C7.66397 3.86547 8.10658 2.33874 8.51622 0.798048C8.5978 0.496192 8.58044 0.126287 8.99876 0.0652176C9.41707 0.00414836 9.72256 0.20306 9.97772 0.510151C11.3403 2.15553 11.8992 3.98586 11.2466 6.09362C11.1372 6.44259 10.9289 6.78109 10.9706 7.23998C12.9354 7.23998 14.8986 7.2487 16.8721 7.23998C17.74 7.23998 18.4083 7.54533 18.7589 8.35319C19.1095 9.16104 18.8925 9.83804 18.2607 10.3964C18.0611 10.5709 17.9587 10.7227 18.0871 10.9792C18.1321 11.087 18.1631 11.2001 18.1791 11.3159C18.3631 12.1883 17.4328 12.6647 17.3824 13.2858C17.3251 13.9838 17.5872 14.7236 17.0023 15.2959C16.8617 15.4053 16.7569 15.5545 16.7012 15.7242C16.6455 15.894 16.6416 16.0766 16.6899 16.2486C16.9363 17.5136 16.1691 18.4104 14.8847 18.4191C12.8886 18.4331 10.8925 18.4191 8.89808 18.4191C8.50928 18.4191 8.06145 18.4366 8.06319 17.9166C8.06319 17.4281 8.49018 17.3722 8.89114 17.374C10.8577 17.374 12.8243 17.374 14.7927 17.374C15.2318 17.374 15.6293 17.3077 15.7161 16.7964C15.8029 16.2852 15.5634 15.9537 15.0218 15.924C14.5323 15.8961 14.0376 15.9101 13.5499 15.8682C13.4838 15.8707 13.4179 15.859 13.3566 15.8339C13.2953 15.8088 13.24 15.771 13.1944 15.7228C13.1487 15.6746 13.1138 15.6172 13.0919 15.5545C13.07 15.4917 13.0616 15.425 13.0674 15.3587C13.076 15.0307 13.2895 14.8928 13.5759 14.8841C14.2112 14.8649 14.8482 14.8684 15.4853 14.8684C16.006 14.8684 16.4469 14.6939 16.4469 14.1094C16.4469 13.5249 16.032 13.3329 15.4957 13.3434C15.0912 13.3434 14.6851 13.3434 14.2806 13.3434C13.9144 13.3434 13.5256 13.3242 13.5134 12.8549C13.4996 12.3209 13.9248 12.314 14.3171 12.3157C14.9541 12.3157 15.5911 12.3052 16.2264 12.3157C16.7732 12.3297 17.1672 12.1168 17.1637 11.5462C17.1637 11.0228 16.768 10.7994 16.275 10.789C15.6102 10.775 14.9454 10.7785 14.2806 10.789C13.9613 10.789 13.6714 10.7105 13.6523 10.3458C13.628 9.93401 13.9318 9.80663 14.2824 9.80314C15.1207 9.79267 15.9608 9.79442 16.7992 9.79268C17.3199 9.79268 17.8684 9.68101 17.8771 9.05286C17.8875 8.35493 17.3373 8.28688 16.7645 8.29212C14.942 8.30608 13.1194 8.29212 11.2969 8.29212C9.83018 8.29212 9.50386 7.85242 10.035 6.5054C10.7241 4.75534 10.6616 3.12217 9.39971 1.45062Z" fill="url(#paint3_linear_75_65)" stroke="#F77415" stroke-width="0.3"/>
<path d="M0.904952 12.6577C0.904952 11.1187 0.925781 9.5798 0.894538 8.0426C0.882387 7.39701 1.13407 7.15273 1.76241 7.17018C2.8299 7.19112 3.89912 7.18763 4.96834 7.17018C5.56197 7.17018 5.77373 7.42493 5.77026 8.01642C5.75174 11.1222 5.75174 14.228 5.77026 17.3338C5.77026 17.9323 5.5342 18.1888 4.95619 18.1853C3.88697 18.1853 2.81775 18.1749 1.75026 18.1853C1.11845 18.1853 0.891066 17.9009 0.901481 17.2745C0.92231 15.7356 0.904952 14.1966 0.904952 12.6577ZM4.74443 12.7379V10.2167C4.74443 8.08098 4.74443 8.1089 2.61467 8.12286C2.00021 8.12286 1.92037 8.36714 1.92037 8.88884C1.94467 10.9425 1.93599 13.0014 1.93599 15.0603C1.93599 17.2187 1.93599 17.2012 4.05881 17.1629C4.57953 17.1629 4.76873 17.018 4.75311 16.4771C4.71319 15.2348 4.74443 13.9838 4.74443 12.7379Z" fill="url(#paint4_linear_75_65)" stroke="#F77415" stroke-width="0.3"/>
<path d="M30.0812 6.71484C30.0834 7.32567 29.9658 7.93096 29.7351 8.49605C29.5043 9.06114 29.165 9.57492 28.7364 10.008C28.3079 10.441 27.7986 10.7849 27.2376 11.0198C26.6767 11.2547 26.0752 11.3761 25.4675 11.377C22.883 11.377 20.8504 9.28323 20.8591 6.62759C20.8545 6.01218 20.9718 5.402 21.2042 4.83264C21.4366 4.26328 21.7795 3.74613 22.2128 3.31136C22.6461 2.87659 23.1612 2.5329 23.728 2.30033C24.2949 2.06775 24.9021 1.95096 25.5143 1.95675C26.1265 1.96254 26.7314 2.0908 27.2938 2.33406C27.8561 2.57731 28.3647 2.93069 28.7898 3.37358C29.2149 3.81647 29.548 4.34001 29.7697 4.91367C29.9914 5.48733 30.0973 6.09962 30.0812 6.71484ZM25.4936 3.05068C25.0168 3.04608 24.5439 3.13612 24.1018 3.31564C23.6598 3.49517 23.2574 3.76064 22.9176 4.09683C22.5778 4.43303 22.3074 4.83334 22.1219 5.27481C21.9363 5.71628 21.8393 6.19023 21.8364 6.66947C21.8231 7.15529 21.9065 7.63887 22.0816 8.09187C22.2567 8.54488 22.52 8.9582 22.856 9.30761C23.1921 9.65702 23.5941 9.93549 24.0386 10.1267C24.4831 10.3179 24.961 10.418 25.4445 10.4212C25.9279 10.4243 26.4072 10.3304 26.854 10.145C27.3009 9.95953 27.7065 9.6863 28.047 9.34127C28.3875 8.99625 28.6561 8.58638 28.837 8.13569C29.0179 7.68499 29.1074 7.20253 29.1005 6.71658C29.1044 6.23745 29.014 5.76228 28.8346 5.31836C28.6552 4.87445 28.3903 4.47055 28.0551 4.12989C27.72 3.78922 27.3211 3.5185 26.8815 3.3333C26.4419 3.14809 25.9702 3.05205 25.4936 3.05068Z" fill="url(#paint5_linear_75_65)" stroke="#F77415" stroke-width="0.3"/>
<path d="M49.3219 35.8815C49.3042 37.1113 48.8118 38.286 47.9488 39.1578C47.0857 40.0296 45.9195 40.5303 44.6962 40.5541C42.1602 40.5821 40.0097 38.4167 40.0183 35.8431C40.0227 34.6029 40.517 33.4152 41.3925 32.5414C42.2679 31.6676 43.4529 31.1791 44.6866 31.1835C45.9204 31.1879 47.1018 31.6848 47.9711 32.5648C48.8404 33.4449 49.3263 34.636 49.3219 35.8762V35.8815ZM48.3031 35.8553C48.2962 34.8868 47.9096 33.96 47.2271 33.2763C46.5447 32.5926 45.6215 32.207 44.658 32.2034C42.6879 32.2034 40.9973 33.9063 41.0129 35.8675C41.0327 36.8361 41.4272 37.7589 42.1125 38.44C42.7979 39.1212 43.7203 39.5071 44.684 39.516C45.6448 39.5063 46.5632 39.1169 47.2404 38.4318C47.9177 37.7467 48.2995 36.8211 48.3031 35.8553Z" fill="url(#paint6_linear_75_65)" stroke="#F77415" stroke-width="0.3"/>
<path d="M28.1337 40.5349C28.1204 40.6589 28.0742 40.7771 28 40.8772C27.9258 40.9772 27.8263 41.0554 27.7119 41.1037C26.535 41.6498 25.3582 42.1942 24.19 42.7595C23.8064 42.9445 23.6016 42.7962 23.4211 42.4734C22.3345 40.5296 21.2479 38.5859 20.1457 36.6509C19.9722 36.3473 19.9374 36.0908 20.2499 35.9111C20.6456 35.6825 20.8886 35.9111 21.0813 36.26C21.9492 37.799 22.8431 39.3187 23.6624 40.8804C24.0095 41.5312 24.3237 41.7092 24.9607 41.2887C25.5318 40.9118 26.535 40.8612 26.6791 40.2924C26.7902 39.8509 26.0716 39.1879 25.7071 38.633C25.1013 37.7152 24.4921 36.8044 23.8741 35.8901C23.6589 35.5708 23.3829 35.2044 23.7943 34.9026C24.2057 34.6007 24.4678 34.9497 24.6899 35.2812C25.7487 36.8713 26.8093 38.4603 27.8716 40.0481C27.9675 40.2055 28.055 40.368 28.1337 40.5349Z" fill="url(#paint7_linear_75_65)" stroke="#F77415" stroke-width="0.3"/>
<path d="M44.3074 7.38309C44.3074 7.90654 44.323 8.42999 44.3074 8.95345C44.2779 9.77003 43.8318 10.0806 43.1184 9.7299C42.0301 9.19598 40.9539 8.6324 39.9003 8.03392C39.2303 7.65354 39.232 6.98702 39.9003 6.59443C40.9556 5.99537 42.0289 5.43004 43.1201 4.89845C43.7693 4.58263 44.2622 4.91066 44.2987 5.64175C44.3299 6.22627 44.3074 6.80904 44.3074 7.38309ZM43.226 8.64286V5.99769L40.7109 7.32551L43.226 8.64286Z" fill="url(#paint8_linear_75_65)" stroke="#F77415" stroke-width="0.3"/>
<path d="M50.8945 9.79621C50.8529 10.2499 50.6151 10.5099 50.2297 10.4941C50.1495 10.4959 50.0697 10.4806 49.9957 10.4495C49.9216 10.4183 49.8549 10.3719 49.7998 10.3132C49.7446 10.2545 49.7024 10.1848 49.6757 10.1087C49.649 10.0326 49.6385 9.9517 49.6448 9.87124C49.6448 9.48912 49.8357 9.25182 50.195 9.21693C50.6099 9.18378 50.8095 9.4612 50.8945 9.79621Z" fill="url(#paint9_linear_75_65)" stroke="#F77415" stroke-width="0.3"/>
<path d="M41.0754 29.0191C41.1466 28.6195 41.3184 28.3368 41.7489 28.356C41.8293 28.3547 41.9091 28.37 41.9834 28.401C42.0576 28.4319 42.1248 28.4778 42.1808 28.5358C42.2367 28.5939 42.2803 28.6628 42.3087 28.7384C42.3371 28.814 42.3498 28.8947 42.346 28.9754C42.346 29.375 42.1099 29.6158 41.6881 29.6123C41.2663 29.6088 41.1639 29.3279 41.0754 29.0191Z" fill="url(#paint10_linear_75_65)" stroke="#F77415" stroke-width="0.3"/>
<path d="M25.5092 39.5649C25.4432 39.9138 25.2679 40.179 24.9086 40.1773C24.8295 40.1823 24.7503 40.1699 24.6765 40.141C24.6027 40.112 24.536 40.0673 24.4812 40.0098C24.4263 39.9524 24.3846 39.8836 24.3589 39.8082C24.3332 39.7329 24.3241 39.6528 24.3324 39.5736C24.3281 39.5022 24.3384 39.4308 24.3627 39.3636C24.3869 39.2964 24.4246 39.235 24.4734 39.183C24.5222 39.131 24.581 39.0896 24.6463 39.0613C24.7116 39.0331 24.782 39.0186 24.8531 39.0187C25.2436 38.9908 25.4085 39.2421 25.5092 39.5649Z" fill="url(#paint11_linear_75_65)" stroke="#F77415" stroke-width="0.3"/>
<path d="M4.8399 25.3653C4.8399 24.3812 5.36063 23.7461 6.14171 23.7461C6.9228 23.7461 7.41575 24.3673 7.39319 25.381C7.37236 26.3564 6.83775 26.9897 6.05666 26.9636C5.31897 26.9374 4.83296 26.3005 4.8399 25.3653ZM5.70778 25.4159C5.77547 25.6986 5.66091 26.1993 6.11915 26.1871C6.54441 26.1749 6.51143 25.6811 6.50622 25.3566C6.50101 25.032 6.57912 24.5452 6.10526 24.5592C5.6314 24.5731 5.772 25.0634 5.71125 25.4159H5.70778Z" fill="url(#paint12_linear_75_65)" stroke="#F77415" stroke-width="0.3"/>
<path d="M8.53183 27.3615C8.52142 26.325 9.03867 25.6725 9.85794 25.6899C10.613 25.7074 11.073 26.3163 11.073 27.2777C11.073 28.2391 10.5522 28.9074 9.78157 28.9109C9.0109 28.9144 8.54225 28.3211 8.53183 27.3615ZM9.38756 27.2777C9.42921 27.6075 9.33028 28.0873 9.77116 28.1135C10.2398 28.1414 10.186 27.6406 10.1947 27.3301C10.2034 27.0195 10.2572 26.5205 9.82149 26.496C9.35284 26.4699 9.44657 26.9619 9.38756 27.2742V27.2777Z" fill="url(#paint13_linear_75_65)" stroke="#F77415" stroke-width="0.3"/>
<path d="M9.71736 24.0166C9.66181 24.1195 9.59759 24.2486 9.52642 24.3655C8.75922 25.723 7.99087 27.0799 7.22135 28.4362C7.13778 28.6186 7.0108 28.7774 6.85163 28.8986C6.77425 28.9352 6.6898 28.9541 6.60429 28.9541C6.51878 28.9541 6.43433 28.9352 6.35695 28.8986C6.14171 28.7782 6.31355 28.595 6.38993 28.4589C7.21093 26.9967 8.04236 25.5415 8.85816 24.0776C8.91417 23.9427 9.0171 23.8329 9.14773 23.7687C9.27836 23.7045 9.42777 23.6903 9.56808 23.7287C9.69653 23.7653 9.75902 23.8525 9.71736 24.0166Z" fill="url(#paint14_linear_75_65)" stroke="#F77415" stroke-width="0.3"/>
<path d="M19.8854 33.17C19.5608 33.1142 19.3143 32.9554 19.3473 32.6675C19.4133 32.09 19.9479 32.0202 20.3696 31.9277C20.4348 31.9174 20.5014 31.9224 20.5642 31.9425C20.627 31.9626 20.6843 31.9971 20.7315 32.0434C20.7786 32.0897 20.8144 32.1463 20.836 32.2089C20.8576 32.2716 20.8643 32.3384 20.8557 32.404C20.8019 33.006 20.2325 32.9729 19.8854 33.17Z" fill="url(#paint15_linear_75_65)" stroke="#F77415" stroke-width="0.3"/>
<path d="M18.5645 30.4254C18.2364 30.4254 18.0108 30.2509 18.009 29.977C18.009 29.4082 18.5003 29.3261 18.9029 29.2249C19.2206 29.1464 19.507 29.3 19.4827 29.6716C19.4462 30.2404 18.9064 30.2404 18.5645 30.4254Z" fill="url(#paint16_linear_75_65)" stroke="#F77415" stroke-width="0.3"/>
<path d="M19.4289 30.5894C19.842 30.5894 20.0398 30.7359 20.0225 31.0448C19.9895 31.6537 19.4445 31.706 19.0366 31.8072C18.7832 31.8718 18.5766 31.6048 18.5974 31.2978C18.6374 30.7063 19.1807 30.7638 19.4289 30.5894Z" fill="url(#paint17_linear_75_65)" stroke="#F77415" stroke-width="0.3"/>
<path d="M24.9243 46.8635C25.445 46.8635 25.9657 46.8635 26.4778 46.8635C26.5356 46.8582 26.594 46.8649 26.6491 46.8833C26.7043 46.9016 26.7551 46.9312 26.7984 46.9702C26.8417 47.0091 26.8766 47.0566 26.9009 47.1097C26.9251 47.1628 26.9383 47.2203 26.9395 47.2787C26.9707 47.5911 26.8093 47.8196 26.5177 47.8266C25.4259 47.8528 24.3324 47.851 23.2406 47.8266C23.1746 47.8294 23.1088 47.8177 23.0477 47.7923C22.9867 47.767 22.9319 47.7285 22.8871 47.6797C22.8424 47.6309 22.8087 47.5728 22.7885 47.5096C22.7683 47.4464 22.7621 47.3795 22.7702 47.3136C22.7823 46.9961 22.9854 46.8565 23.2909 46.8547C23.8377 46.8547 24.3844 46.8547 24.9312 46.8547L24.9243 46.8635Z" fill="url(#paint18_linear_75_65)" stroke="#F77415" stroke-width="0.3"/>
<path d="M43.5072 14.4025C42.7695 14.5089 41.8495 14.16 41.0355 14.7323C40.9711 14.7658 40.8997 14.7833 40.8272 14.7833C40.7547 14.7833 40.6833 14.7658 40.6189 14.7323C40.0322 14.2961 39.3622 14.4095 38.7096 14.4042C38.3624 14.4042 38.0691 14.3222 38.0604 13.8965C38.0517 13.5144 38.3225 13.4079 38.6297 13.387C39.3344 13.3399 40.0183 13.4027 40.7248 13.0712C41.1934 12.8496 41.6742 13.455 42.2713 13.4027C43.3006 13.312 44.3438 13.38 45.3801 13.3765C45.7515 13.3765 46.1351 13.4324 46.1577 13.8686C46.1854 14.392 45.7585 14.4095 45.3644 14.4042C44.7882 14.3973 44.2119 14.4025 43.5072 14.4025Z" fill="#F77415" stroke="#F77415" stroke-width="0.3"/>
<path d="M48.0063 12.8252C48.4055 13.1375 48.8498 13.3801 48.9765 13.8721C49.0512 14.1687 48.2267 14.9836 47.9646 14.8719C47.5202 14.6834 47.0273 14.3624 47.0516 13.8581C47.0759 13.3539 47.5966 13.1166 48.0063 12.8252Z" fill="#F77415" stroke="#F77415" stroke-width="0.3"/>
<path d="M36.2257 14.4042C35.8195 14.3798 35.2919 14.5141 35.2901 13.9174C35.2901 13.2823 35.8404 13.3765 36.2535 13.3817C36.6666 13.387 37.2255 13.2613 37.1995 13.9226C37.1734 14.5839 36.5868 14.3431 36.2257 14.4042Z" fill="#F77415" stroke="#F77415" stroke-width="0.3"/>
<path d="M4.04319 15.0062C3.98244 15.5018 3.75505 15.7792 3.32459 15.7583C3.23043 15.7639 3.13618 15.7486 3.04858 15.7135C2.96098 15.6783 2.8822 15.6241 2.81786 15.5547C2.75352 15.4854 2.70521 15.4026 2.67639 15.3123C2.64756 15.222 2.63893 15.1264 2.65112 15.0324C2.64957 14.9455 2.66584 14.8592 2.69891 14.7789C2.73198 14.6985 2.78114 14.6259 2.84334 14.5655C2.90554 14.5051 2.97944 14.4582 3.06044 14.4278C3.14144 14.3974 3.22781 14.384 3.31417 14.3886C3.77415 14.3711 3.94599 14.673 4.04319 15.0062Z" fill="#F77415" stroke="#F77415" stroke-width="0.3"/>
<path d="M25.7921 5.48638C25.4971 5.4637 25.1829 5.40437 25.1117 5.74113C25.0527 6.01332 25.3322 6.1058 25.5318 6.2227C26.87 7.00264 26.9308 7.35161 25.8789 8.44213C25.7734 8.57437 25.7153 8.73849 25.714 8.908C25.681 9.08249 25.5144 9.19939 25.412 9.11564C25.0283 8.80239 24.6659 8.46372 24.3272 8.10189C24.2838 8.05652 24.374 7.79829 24.4678 7.7285C24.6569 7.58542 24.8427 7.78259 25.0301 7.82795C25.3339 7.89949 25.6359 7.92392 25.78 7.60287C25.9536 7.22947 25.6151 7.10559 25.3686 6.96426C25.1221 6.82293 24.8791 6.75662 24.6917 6.58912C24.197 6.14244 24.1987 5.62946 24.6344 5.1409C24.834 4.91582 25.1447 4.83032 25.2176 4.44297C25.2645 4.19171 25.5786 4.20567 25.7383 4.43425C25.8303 4.5686 25.8216 4.7553 26.0212 4.83207C26.2538 4.9228 26.542 5.00655 26.4083 5.36948C26.2556 5.77777 25.9796 5.48813 25.7921 5.48638Z" fill="#F77415" stroke="#F77415" stroke-width="0.3"/>
<path d="M45.2308 34.6583C45.1301 34.6443 45.0155 34.6182 44.901 34.6129C44.6979 34.6042 44.474 34.5937 44.3803 34.8258C44.2865 35.0579 44.5035 35.1748 44.6649 35.2864C44.7847 35.3649 44.9236 35.4138 45.0503 35.4819C46.0657 36.0332 46.1542 36.7713 45.2863 37.4971C45.1544 37.6053 44.9722 37.6594 44.9895 37.8793C44.9921 37.9083 44.9921 37.9375 44.9895 37.9665C44.9687 38.2509 44.6024 38.3155 44.5868 38.2387C44.4688 37.6559 43.5454 37.696 43.6443 37.033C43.712 36.5619 44.0557 36.8969 44.2536 36.9493C44.6007 37.04 44.9374 37.0662 45.0746 36.7102C45.2377 36.2862 44.8107 36.2025 44.5538 36.0594C43.3596 35.4086 43.2937 35.0125 44.2935 34.0319C44.4861 33.8435 44.3334 33.2973 44.7569 33.4526C45.1145 33.5835 45.3002 34.0336 45.6751 34.2221C45.7151 34.2413 45.6751 34.4995 45.6196 34.6182C45.5363 34.7769 45.3818 34.7525 45.2308 34.6583Z" fill="#F77415" stroke="#F77415" stroke-width="0.3"/>
<defs>
<linearGradient id="paint0_linear_75_65" x1="2.46742" y1="15.922" x2="46.2684" y2="28.4662" gradientUnits="userSpaceOnUse">
<stop stop-color="#EC9F05"/>
<stop offset="1" stop-color="#FF4E00"/>
</linearGradient>
<linearGradient id="paint1_linear_75_65" x1="5.20535" y1="33.812" x2="43.6899" y2="51.6283" gradientUnits="userSpaceOnUse">
<stop stop-color="#EC9F05"/>
<stop offset="1" stop-color="#FF4E00"/>
</linearGradient>
<linearGradient id="paint2_linear_75_65" x1="33.4744" y1="2.24097" x2="53.0174" y2="6.80284" gradientUnits="userSpaceOnUse">
<stop stop-color="#EC9F05"/>
<stop offset="1" stop-color="#FF4E00"/>
</linearGradient>
<linearGradient id="paint3_linear_75_65" x1="6.62497" y1="0.0541992" x2="21.0474" y2="1.90629" gradientUnits="userSpaceOnUse">
<stop stop-color="#EC9F05"/>
<stop offset="1" stop-color="#FF4E00"/>
</linearGradient>
<linearGradient id="paint4_linear_75_65" x1="0.894119" y1="7.16931" x2="6.66389" y2="7.65912" gradientUnits="userSpaceOnUse">
<stop stop-color="#EC9F05"/>
<stop offset="1" stop-color="#FF4E00"/>
</linearGradient>
<linearGradient id="paint5_linear_75_65" x1="20.859" y1="1.95654" x2="31.4773" y2="3.95044" gradientUnits="userSpaceOnUse">
<stop stop-color="#EC9F05"/>
<stop offset="1" stop-color="#FF4E00"/>
</linearGradient>
<linearGradient id="paint6_linear_75_65" x1="40.0183" y1="31.1835" x2="50.7183" y2="33.2208" gradientUnits="userSpaceOnUse">
<stop stop-color="#EC9F05"/>
<stop offset="1" stop-color="#FF4E00"/>
</linearGradient>
<linearGradient id="paint7_linear_75_65" x1="20.0146" y1="34.7872" x2="29.342" y2="36.5907" gradientUnits="userSpaceOnUse">
<stop stop-color="#EC9F05"/>
<stop offset="1" stop-color="#FF4E00"/>
</linearGradient>
<linearGradient id="paint8_linear_75_65" x1="39.3985" y1="4.77844" x2="45.0641" y2="5.82722" gradientUnits="userSpaceOnUse">
<stop stop-color="#EC9F05"/>
<stop offset="1" stop-color="#FF4E00"/>
</linearGradient>
<linearGradient id="paint9_linear_75_65" x1="49.643" y1="9.21423" x2="51.0839" y2="9.48431" gradientUnits="userSpaceOnUse">
<stop stop-color="#EC9F05"/>
<stop offset="1" stop-color="#FF4E00"/>
</linearGradient>
<linearGradient id="paint10_linear_75_65" x1="41.0754" y1="28.3551" x2="42.5355" y2="28.6382" gradientUnits="userSpaceOnUse">
<stop stop-color="#EC9F05"/>
<stop offset="1" stop-color="#FF4E00"/>
</linearGradient>
<linearGradient id="paint11_linear_75_65" x1="24.3294" y1="39.0166" x2="25.6841" y2="39.2804" gradientUnits="userSpaceOnUse">
<stop stop-color="#EC9F05"/>
<stop offset="1" stop-color="#FF4E00"/>
</linearGradient>
<linearGradient id="paint12_linear_75_65" x1="4.83983" y1="23.7461" x2="7.81485" y2="24.1989" gradientUnits="userSpaceOnUse">
<stop stop-color="#EC9F05"/>
<stop offset="1" stop-color="#FF4E00"/>
</linearGradient>
<linearGradient id="paint13_linear_75_65" x1="8.53168" y1="25.6896" x2="11.4926" y2="26.1376" gradientUnits="userSpaceOnUse">
<stop stop-color="#EC9F05"/>
<stop offset="1" stop-color="#FF4E00"/>
</linearGradient>
<linearGradient id="paint14_linear_75_65" x1="6.25247" y1="23.7075" x2="10.3312" y2="24.226" gradientUnits="userSpaceOnUse">
<stop stop-color="#EC9F05"/>
<stop offset="1" stop-color="#FF4E00"/>
</linearGradient>
<linearGradient id="paint15_linear_75_65" x1="19.3443" y1="31.9225" x2="21.057" y2="32.3214" gradientUnits="userSpaceOnUse">
<stop stop-color="#EC9F05"/>
<stop offset="1" stop-color="#FF4E00"/>
</linearGradient>
<linearGradient id="paint16_linear_75_65" x1="18.009" y1="29.205" x2="19.6774" y2="29.5917" gradientUnits="userSpaceOnUse">
<stop stop-color="#EC9F05"/>
<stop offset="1" stop-color="#FF4E00"/>
</linearGradient>
<linearGradient id="paint17_linear_75_65" x1="18.596" y1="30.5894" x2="20.2167" y2="30.9508" gradientUnits="userSpaceOnUse">
<stop stop-color="#EC9F05"/>
<stop offset="1" stop-color="#FF4E00"/>
</linearGradient>
<linearGradient id="paint18_linear_75_65" x1="22.7667" y1="46.8547" x2="25.7771" y2="49.2883" gradientUnits="userSpaceOnUse">
<stop stop-color="#EC9F05"/>
<stop offset="1" stop-color="#FF4E00"/>
</linearGradient>
</defs>
</svg>
