<svg width="50" height="51" viewBox="0 0 50 51" fill="none" xmlns="http://www.w3.org/2000/svg">
<path d="M13.8303 12.9566C15.4591 11.9401 17.0286 10.9603 18.598 9.99261C18.9067 9.80083 18.8491 9.4992 18.8491 9.21501C18.8491 7.58658 18.8666 5.9599 18.8491 4.33322C18.8247 4.10138 18.8722 3.86763 18.9851 3.66367C19.098 3.4597 19.2709 3.29538 19.4804 3.19297C21.1987 2.22824 22.9088 1.24955 24.6108 0.256924C24.8165 0.121672 25.0581 0.0512044 25.3043 0.0546231C25.5505 0.0580419 25.79 0.13519 25.9919 0.276102C27.6433 1.24374 29.3052 2.20615 30.9758 3.13021C31.5356 3.43881 31.7396 3.82761 31.7257 4.45875C31.6908 5.99826 31.7344 7.53777 31.703 9.07727C31.6925 9.60032 31.8338 9.91938 32.3011 10.1983C33.7677 11.0701 35.2029 11.9976 36.6398 12.8973C36.713 12.8188 36.7828 12.7752 36.7776 12.7473C36.5387 11.5007 37.1961 10.8696 38.2389 10.3483C39.6898 9.62125 41.0779 8.76693 42.4764 7.93877C42.9752 7.64412 43.4007 7.59007 43.9238 7.90913C45.5927 8.90292 47.2807 9.86533 48.981 10.8121C49.2035 10.9162 49.3887 11.086 49.5119 11.2986C49.635 11.5112 49.6901 11.7563 49.6698 12.0011C49.6477 13.6574 49.6477 15.3138 49.6698 16.9701C49.6888 17.215 49.6306 17.4598 49.5033 17.67C49.376 17.8801 49.186 18.0451 48.96 18.1417C47.4725 18.928 46.013 19.7632 44.5202 20.539C44.0721 20.7727 43.9186 21.0516 43.9238 21.552C43.9517 23.7314 43.9517 25.9102 43.9238 28.0884C43.9025 28.2994 43.949 28.5117 44.0565 28.6945C44.1641 28.8772 44.3271 29.021 44.522 29.1048C45.9938 29.9155 47.4342 30.7856 48.9095 31.5893C49.4675 31.8944 49.6855 32.2867 49.6733 32.9144C49.6407 34.5114 49.6407 36.109 49.6733 37.7072C49.6872 38.3506 49.4309 38.7167 48.8763 39.0079C47.2348 39.8727 45.6072 40.7618 43.9936 41.6754C43.7644 41.8252 43.4962 41.9043 43.2224 41.9027C42.9486 41.9012 42.6813 41.8191 42.4538 41.6667C41.1982 40.9432 39.9025 40.2859 38.6452 39.5641C38.218 39.3182 37.9076 39.2938 37.4768 39.5902C35.7818 40.7618 34.0624 41.8969 32.3325 43.0197C31.9053 43.2969 31.6123 43.5898 31.7204 44.1285C32.1093 46.0795 31.3054 47.2494 29.4656 47.9642C28.2327 48.4419 27.1045 49.1986 25.9466 49.8577C25.7548 49.9856 25.5297 50.0546 25.2992 50.0562C25.0686 50.0577 24.8426 49.9918 24.6491 49.8664C22.9553 48.9156 21.2498 47.9857 19.5327 47.0768C19.0305 46.81 18.7497 46.4526 18.8613 45.8982C19.2432 44.0013 18.4271 42.8523 16.7495 42.0032C15.4399 41.3372 14.2646 40.4027 13.0474 39.5623C12.9061 39.4436 12.7296 39.3746 12.5453 39.3661C12.3609 39.3576 12.1788 39.41 12.0272 39.5152C10.7403 40.244 9.42715 40.9275 8.14368 41.6632C7.62053 41.9666 7.15144 42.0119 6.60213 41.6929C4.96291 40.763 3.30917 39.8593 1.6409 38.9817C1.11774 38.7028 0.885812 38.3454 0.896275 37.7404C0.926502 36.1131 0.926502 34.4858 0.896275 32.8586C0.885812 32.2553 1.116 31.8962 1.63566 31.6102C3.10921 30.8012 4.55486 29.9417 6.02491 29.1223C6.43646 28.8886 6.64921 28.648 6.64921 28.125C6.61433 25.9177 6.61956 23.7087 6.64921 21.4997C6.64921 21.022 6.49226 20.7744 6.08072 20.5582C4.59148 19.7771 3.13188 18.942 1.6409 18.1609C1.39899 18.0604 1.19582 17.8848 1.06142 17.66C0.927012 17.4352 0.868502 17.1732 0.894531 16.9125C0.922433 15.2859 0.917201 13.6574 0.894531 12.0308C0.894531 11.4798 1.06892 11.1084 1.56242 10.8295C3.28534 9.87056 4.99605 8.89014 6.69455 7.88821C6.8843 7.75746 7.10932 7.68744 7.33977 7.68744C7.57023 7.68744 7.79524 7.75746 7.98499 7.88821C9.68524 8.89072 11.3803 9.90369 13.1258 10.8225C14.064 11.3089 13.642 12.1197 13.8303 12.9566ZM8.02859 24.7879C8.02859 25.9212 8.04254 27.0545 8.02859 28.1843C8.00835 28.3538 8.04276 28.5254 8.12682 28.674C8.21088 28.8227 8.34019 28.9406 8.49594 29.0107C9.86427 29.7674 11.2216 30.5444 12.5678 31.3417C12.9166 31.5527 13.1677 31.5161 13.4868 31.2912C15.1376 30.1091 16.7978 28.9409 18.4672 27.7867C18.6008 27.705 18.7088 27.5876 18.7791 27.4477C18.8493 27.3078 18.879 27.1511 18.8648 26.9952C18.8509 25.6597 18.8509 24.323 18.8648 22.9851C18.8808 22.8293 18.8508 22.6721 18.7787 22.533C18.7065 22.394 18.5952 22.279 18.4585 22.2023C16.6205 21.0365 14.7959 19.8532 12.9846 18.6526C12.6637 18.4399 12.43 18.4782 12.1127 18.6526C10.9269 19.3203 9.73581 19.9811 8.52733 20.607C8.35651 20.6748 8.21273 20.7968 8.11818 20.9544C8.02363 21.1119 7.98357 21.2962 8.00417 21.4788C8.04428 22.5824 8.02859 23.686 8.02859 24.7879ZM42.541 24.8385C42.541 23.707 42.5253 22.5719 42.5497 21.4439C42.5716 21.2744 42.5376 21.1024 42.453 20.9539C42.3683 20.8054 42.2376 20.6885 42.0806 20.621C40.8506 19.9747 39.6299 19.3081 38.4185 18.6212C38.0942 18.4468 37.8553 18.4782 37.5466 18.677C35.7644 19.8614 33.97 21.0307 32.1634 22.1849C32.0136 22.2659 31.8909 22.389 31.8103 22.539C31.7298 22.6889 31.6949 22.8592 31.71 23.0287C31.7309 24.334 31.7309 25.6405 31.71 26.9481C31.6948 27.1176 31.7276 27.2879 31.8047 27.4396C31.8818 27.5913 32.0001 27.7182 32.1459 27.8059C33.8188 28.9589 35.4784 30.1283 37.1246 31.3138C37.4734 31.5597 37.7088 31.5213 38.0436 31.3225C39.3654 30.5432 40.696 29.7778 42.0405 29.0386C42.21 28.9646 42.3513 28.838 42.4433 28.6776C42.5353 28.5171 42.5732 28.3313 42.5514 28.1476C42.5235 27.0458 42.541 25.9421 42.541 24.8385ZM31.6036 41.8602C33.4311 40.6398 34.9692 39.6111 36.5195 38.5964C36.8229 38.3959 36.8037 38.1257 36.8037 37.8363C36.8037 36.3246 36.7933 34.813 36.8037 33.3032C36.819 33.1333 36.7858 32.9626 36.708 32.8108C36.6302 32.659 36.5111 32.5323 36.3643 32.4454C34.7134 31.3121 33.076 30.1579 31.4519 28.9828C31.0926 28.723 30.8258 28.7213 30.4457 28.9374C29.1669 29.6732 27.8694 30.3822 26.5534 31.0645C26.1454 31.2772 25.9535 31.5056 25.9657 31.9938C26.0018 33.4165 26.0018 34.8403 25.9657 36.2654C25.9518 36.757 26.1541 36.9889 26.5482 37.2069C27.7933 37.892 29.0087 38.6313 30.2591 39.299C31.1973 39.8064 32.1093 40.2911 31.6036 41.8602ZM18.9625 41.8602C18.469 40.305 19.3636 39.8221 20.2965 39.32C21.5695 38.6348 22.8094 37.8851 24.0754 37.1877C24.2459 37.1144 24.3886 36.9887 24.4827 36.8288C24.5768 36.6688 24.6174 36.4831 24.5986 36.2985C24.5707 34.8491 24.5707 33.3996 24.5986 31.9502C24.6073 31.4986 24.4242 31.2859 24.051 31.0889C22.7466 30.402 21.4492 29.6941 20.1675 28.9671C19.7664 28.7387 19.4839 28.7178 19.0863 29.0072C17.4976 30.1701 15.8829 31.2999 14.2593 32.4157C13.9106 32.6546 13.7519 32.8969 13.7589 33.3276C13.7833 34.8357 13.7745 36.3438 13.7589 37.8502C13.7589 38.1884 13.8042 38.4465 14.1251 38.6557C15.6544 39.6408 17.1646 40.6572 18.9625 41.8533V41.8602ZM25.9849 15.8037C25.9849 16.5011 26.0076 17.1985 25.9745 17.8959C25.957 18.3004 26.1105 18.5218 26.4558 18.7153C27.8247 19.4737 29.1849 20.2461 30.5294 21.0446C30.6648 21.1466 30.8307 21.1997 31.0001 21.1952C31.1695 21.1908 31.3325 21.1291 31.4623 21.0202C32.6168 20.2409 33.7293 19.3779 34.9709 18.7641C36.4689 18.0127 37.0949 16.9962 36.8299 15.3364C36.7497 14.8343 36.6555 14.4995 36.2073 14.2311C35.0826 13.5703 33.9909 12.8519 32.8818 12.1668C32.1198 11.696 31.3577 10.8975 30.5782 10.8766C29.7987 10.8556 29.0262 11.7012 28.1944 12.0151C26.3947 12.695 25.3868 13.7621 25.9849 15.8037ZM24.5899 15.8787C24.5899 15.2109 24.5637 14.5414 24.6003 13.8771C24.6247 13.4116 24.48 13.1501 24.0475 12.9304C22.86 12.3289 21.6881 11.6908 20.5424 11.0126C20.1204 10.7615 19.8187 10.8155 19.4438 11.0579C18.1777 11.8738 16.9623 12.8014 15.6073 13.4343C14.0047 14.1718 13.5147 15.2824 13.7571 16.9213C13.8164 17.3258 13.8844 17.6187 14.2471 17.8453C15.884 18.8914 17.5116 19.9503 19.1299 21.022C19.2615 21.1285 19.4252 21.1876 19.5945 21.1895C19.7639 21.1914 19.9289 21.136 20.0628 21.0324C20.8284 20.5634 21.5835 20.0561 22.4031 19.7091C24.1312 18.9751 25.2072 17.929 24.5846 15.8787H24.5899ZM20.9766 22.0995C22.3717 22.8631 23.6447 23.5483 24.9037 24.2579C25.0232 24.3341 25.1624 24.3735 25.304 24.3714C25.4457 24.3692 25.5836 24.3255 25.7007 24.2457C26.9632 23.5483 28.2327 22.8509 29.6069 22.1012C28.2118 21.2957 26.8848 20.532 25.5647 19.7736C25.4781 19.7204 25.3779 19.6936 25.2763 19.6964C25.1748 19.6991 25.0762 19.7314 24.9927 19.7893C23.6883 20.539 22.3874 21.2852 20.9714 22.0995H20.9766ZM3.01504 32.4105C4.44674 33.1881 5.7459 33.8907 7.03983 34.6021C7.11965 34.6618 7.21524 34.6967 7.31474 34.7026C7.41425 34.7085 7.5133 34.6851 7.5996 34.6352C8.92492 33.8994 10.2572 33.1794 11.668 32.4087C10.306 31.6329 9.05222 30.9268 7.79491 30.1945C7.66856 30.103 7.51713 30.0526 7.36115 30.0501C7.20517 30.0476 7.0522 30.0932 6.92299 30.1806C5.67266 30.9146 4.40837 31.612 3.01679 32.4105H3.01504ZM47.5528 32.4105C46.1577 31.6189 44.8986 30.9093 43.6466 30.1823C43.4024 30.0411 43.181 29.9574 42.9194 30.1073L38.9103 32.414C40.2722 33.1602 41.5452 33.8506 42.8113 34.5567C42.9285 34.6402 43.0681 34.6867 43.212 34.6901C43.3559 34.6935 43.4976 34.6538 43.6187 34.5759C44.8742 33.8628 46.1507 33.1811 47.5545 32.4087L47.5528 32.4105ZM3.03597 11.5879L7.02588 13.7777C7.1106 13.8345 7.209 13.8676 7.31083 13.8734C7.41266 13.8792 7.51419 13.8576 7.60483 13.8109C8.91097 13.096 10.2206 12.3795 11.6593 11.5862C10.2084 10.7563 8.90749 10.017 7.60832 9.26557C7.53839 9.21462 7.45512 9.18517 7.3687 9.18083C7.28228 9.1765 7.19647 9.19746 7.12179 9.24116C5.80345 10.0013 4.48336 10.758 3.03597 11.5879ZM20.9749 40.53L24.9857 42.7302C25.0587 42.7798 25.143 42.8101 25.2308 42.8183C25.3186 42.8265 25.407 42.8124 25.4879 42.7773C26.822 42.0573 28.1508 41.3285 29.6104 40.5317C28.1717 39.7088 26.89 38.9852 25.6222 38.239C25.5137 38.1698 25.3866 38.1356 25.258 38.1413C25.1295 38.1469 25.0058 38.192 24.9037 38.2704C23.6499 39.0027 22.3944 39.7192 20.9749 40.5352V40.53ZM20.9749 3.94442C22.4101 4.73074 23.7197 5.44557 25.0276 6.16563C25.1152 6.21515 25.215 6.23896 25.3156 6.23434C25.4161 6.22971 25.5133 6.19684 25.596 6.13948L29.6069 3.94791L25.542 1.62383C25.4706 1.57521 25.3866 1.54834 25.3003 1.54649C25.2139 1.54463 25.1289 1.56786 25.0555 1.61336C23.7389 2.3683 22.4118 3.12498 20.9749 3.94965V3.94442ZM38.9103 11.5949C40.335 12.3655 41.5853 13.0333 42.8235 13.7237C43.0746 13.8632 43.2926 13.9225 43.5524 13.7795L47.544 11.5879C46.0844 10.7545 44.7644 9.99261 43.4443 9.23768C43.3691 9.19472 43.283 9.17464 43.1966 9.17991C43.1102 9.18517 43.0271 9.21555 42.9577 9.26731C41.6603 10.017 40.3612 10.7597 38.9103 11.5949ZM24.5881 11.6611V7.93354C24.5881 7.69991 24.5881 7.49592 24.323 7.3547C23.0012 6.6573 21.6898 5.92155 20.2425 5.13C20.2425 6.52479 20.2425 7.75745 20.2425 8.99359C20.2391 9.09519 20.267 9.19536 20.3226 9.28052C20.3781 9.36567 20.4585 9.43167 20.5529 9.46956L24.5881 11.6611ZM25.9832 11.6611C27.4131 10.8835 28.7018 10.1774 29.994 9.48002C30.1016 9.43695 30.193 9.36139 30.2555 9.26387C30.318 9.16635 30.3486 9.05174 30.3428 8.93605C30.3323 7.7156 30.3428 6.51085 30.3428 5.13348C28.8867 5.93026 27.5526 6.66602 26.2064 7.38783C25.9309 7.53777 25.9989 7.77837 25.9989 7.99631C25.9797 9.15747 25.9849 10.3186 25.9849 11.6611H25.9832ZM12.3847 12.7822L8.34771 14.979C8.19949 15.061 8.03208 15.1202 8.03382 15.3451C8.03382 16.6266 8.03382 17.9081 8.03382 19.3081C9.45156 18.5357 10.7158 17.8383 11.9906 17.1619C12.1216 17.1065 12.2313 17.0106 12.3035 16.8881C12.3757 16.7657 12.4066 16.6233 12.3917 16.4819C12.3742 15.2963 12.3847 14.1125 12.3847 12.7822ZM38.1936 12.7822C38.1936 14.1421 38.1936 15.3539 38.1936 16.5656C38.1936 16.7783 38.2145 16.9544 38.4342 17.073C39.7735 17.7948 41.1075 18.527 42.5497 19.3133C42.5497 17.9517 42.5392 16.7417 42.5584 15.53C42.5584 15.2109 42.4067 15.0679 42.1643 14.9372C40.8826 14.2415 39.6078 13.5511 38.1848 12.7822H38.1936ZM43.9482 19.3029L48.0986 17.0363C48.1615 17.0038 48.2134 16.9532 48.2475 16.8911C48.2817 16.8291 48.2966 16.7582 48.2904 16.6876C48.2904 15.4341 48.2904 14.1787 48.2904 12.7892C46.857 13.5703 45.5718 14.2799 44.2796 14.9668C44.0006 15.115 43.9465 15.3155 43.9482 15.5945C43.943 16.7626 43.9378 17.9482 43.9378 19.2942L43.9482 19.3029ZM24.5916 29.8162C24.5916 28.4667 24.5916 27.3073 24.5916 26.1548C24.5916 25.9317 24.6422 25.6911 24.3754 25.5446C23.0361 24.8193 21.7021 24.0853 20.2459 23.2885C20.2459 24.6729 20.2459 25.8846 20.2459 27.0981C20.2353 27.1986 20.2548 27.3001 20.302 27.3895C20.3492 27.4789 20.4219 27.5523 20.511 27.6002C21.8206 28.2993 23.1268 29.0142 24.5846 29.8074L24.5916 29.8162ZM25.9867 29.8162L30.0481 27.6019C30.1293 27.5702 30.1994 27.5152 30.2496 27.4439C30.2999 27.3726 30.328 27.2881 30.3306 27.2009C30.3306 25.9439 30.3306 24.6885 30.3306 23.2903C28.8867 24.0783 27.5962 24.7844 26.3023 25.4836C26.2082 25.5188 26.1274 25.5824 26.0709 25.6654C26.0144 25.7484 25.985 25.8469 25.9867 25.9473C25.9902 27.1783 25.9867 28.4144 25.9867 29.8074V29.8162ZM42.5392 40.1377C42.5392 38.7533 42.5392 37.5224 42.5392 36.2828C42.547 36.1958 42.5289 36.1084 42.4869 36.0317C42.445 35.9551 42.3813 35.8926 42.3038 35.8522L38.1848 33.6065C38.1848 34.9734 38.1848 36.159 38.1848 37.3446C38.1848 37.5852 38.2127 37.7839 38.4673 37.9217C39.7822 38.6191 41.0953 39.3409 42.5392 40.129V40.1377ZM24.5776 48.2554V44.4685C24.5776 44.2628 24.5776 44.0815 24.3457 43.9594C23.0064 43.2376 21.6724 42.5019 20.2285 41.712C20.2285 43.0824 20.2407 44.2942 20.2285 45.5042C20.2285 45.8267 20.3855 45.9662 20.6278 46.0969C21.8974 46.7804 23.1634 47.4778 24.5846 48.2467L24.5776 48.2554ZM30.3323 41.7277C28.8832 42.5193 27.5718 43.2428 26.2517 43.9507C26.1612 43.993 26.0863 44.0628 26.0377 44.1501C25.9892 44.2375 25.9695 44.3379 25.9814 44.4371C25.9814 45.668 25.9814 46.899 25.9814 48.2554C27.4009 47.4778 28.6861 46.7682 29.9836 46.083C30.2974 45.9174 30.341 45.6837 30.3323 45.3751C30.3271 44.2157 30.3341 43.058 30.3341 41.7243L30.3323 41.7277ZM6.63003 19.2907V15.509C6.63003 15.3033 6.61956 15.1237 6.39461 15.0034C5.05883 14.2851 3.73002 13.5546 2.2896 12.7665C2.2896 14.1404 2.30356 15.3486 2.2896 16.5586C2.2896 16.8847 2.46399 17.0172 2.69418 17.1462C3.94974 17.8383 5.21403 18.5201 6.63003 19.2907ZM12.3847 33.603C10.9146 34.4033 9.57886 35.1303 8.24482 35.8696C8.1805 35.9023 8.12653 35.9522 8.08896 36.0138C8.05139 36.0753 8.03169 36.1462 8.03208 36.2183C8.03208 37.4753 8.03208 38.7342 8.03208 40.1377C9.469 39.3513 10.756 38.64 12.0516 37.9444C12.1575 37.8998 12.2467 37.8232 12.3068 37.7253C12.3669 37.6274 12.3947 37.5132 12.3864 37.3986C12.3812 36.1869 12.3847 34.9787 12.3847 33.603ZM6.63003 37.9967C6.63003 37.4736 6.61433 36.9506 6.63003 36.4275C6.64889 36.2843 6.62065 36.1388 6.54956 36.013C6.47847 35.8872 6.36838 35.7879 6.23592 35.7301C5.08731 35.1199 3.94625 34.4963 2.81276 33.8593C2.33669 33.5943 2.2896 33.8262 2.2896 34.2324C2.30181 35.221 2.31053 36.2096 2.2896 37.1964C2.27014 37.3669 2.30676 37.5391 2.39391 37.687C2.48107 37.8348 2.61402 37.9503 2.77265 38.0158C3.85906 38.5947 4.95594 39.1979 6.04235 39.8064C6.4539 40.0383 6.67014 40.047 6.637 39.4769C6.60736 38.9852 6.63177 38.4901 6.63177 37.9967H6.63003ZM48.2817 35.7109C48.2817 35.1879 48.2817 34.6648 48.2817 34.1418C48.2817 33.807 48.2172 33.6187 47.837 33.8332C46.571 34.5306 45.0469 35.0013 44.1174 36.0126C43.4582 36.7256 43.9918 38.185 43.943 39.3095C43.943 39.3688 43.943 39.4263 43.943 39.4839C43.8837 40.0714 44.1436 40.0313 44.5377 39.8064C45.1916 39.4333 45.8281 39.0044 46.5256 38.7376C47.9504 38.1867 48.7299 37.3237 48.2834 35.7109H48.2817Z" fill="url(#paint0_linear_1_278)"/>
<defs>
<linearGradient id="paint0_linear_1_278" x1="0.888489" y1="0.0545044" x2="57.0633" y2="10.5659" gradientUnits="userSpaceOnUse">
<stop stop-color="#EC9F05"/>
<stop offset="1" stop-color="#FF4E00"/>
</linearGradient>
</defs>
</svg>
