<svg width="51" height="51" viewBox="0 0 51 51" fill="none" xmlns="http://www.w3.org/2000/svg">
<path d="M38.588 23.6083C40.3796 23.6083 42.1712 23.5957 43.9628 23.6083C44.4071 23.6083 44.5612 23.404 44.7243 23.0368C45.3997 21.5178 46.7936 20.7959 48.3522 21.1112C49.0481 21.2647 49.6727 21.6463 50.127 22.1952C50.5813 22.7441 50.8392 23.429 50.8597 24.1412C50.8803 24.8533 50.6624 25.552 50.2406 26.1262C49.8188 26.7005 49.2172 27.1174 48.5314 27.3108C47.0784 27.7318 45.6398 27.1317 44.8407 25.6897C44.7754 25.5296 44.6586 25.3957 44.5086 25.3094C44.3587 25.2231 44.1843 25.1893 44.013 25.2132C41.6552 25.2956 39.2981 25.3661 36.9415 25.4246C36.5331 25.4354 36.3629 25.5715 36.3288 25.9889C36.1881 27.9634 35.4558 29.8498 34.2273 31.4021C33.8976 31.8213 34.0159 32.0434 34.3437 32.3587C35.3094 33.2901 36.2715 34.2305 37.187 35.2122C37.5973 35.651 37.8678 35.651 38.3677 35.3161C39.2764 34.7167 40.2974 34.308 41.3688 34.1146C42.4401 33.9211 43.5396 33.947 44.6006 34.1907C45.6617 34.4344 46.6622 34.8908 47.5418 35.5323C48.4213 36.1738 49.1615 36.987 49.7176 37.9228C50.2737 38.8585 50.6342 39.8974 50.7771 40.9765C50.92 42.0555 50.8425 43.1524 50.5492 44.2006C50.2559 45.2488 49.753 46.2267 49.0708 47.075C48.3886 47.9233 47.5414 48.6243 46.5803 49.1358C43.3376 50.8339 39.3853 50.121 36.852 47.3785C34.487 44.8206 34.0875 40.7401 36.0314 37.7647C36.5313 36.9999 36.4184 36.638 35.8146 36.0953C34.883 35.257 34.023 34.347 33.1541 33.437C32.8388 33.1056 32.6166 33.1092 32.2583 33.3779C29.2968 35.5812 26.0432 36.1024 22.5389 34.9668C22.0462 34.8073 21.8222 34.9435 21.6592 35.3698C21.5895 35.5659 21.4988 35.7539 21.3886 35.9305C20.5609 37.2059 20.2062 38.1964 21.5678 39.6205C23.4006 41.53 22.976 44.7257 21.1092 46.7122C20.2064 47.6607 19.0022 48.2663 17.7023 48.4257C16.4025 48.585 15.0876 48.2882 13.9824 47.5858C12.8771 46.8834 12.0501 45.8192 11.6426 44.5748C11.2351 43.3305 11.2723 41.9833 11.748 40.7633C12.2229 39.5263 13.1212 38.4978 14.2831 37.8605C15.445 37.2232 16.7953 37.0186 18.0939 37.2829C18.6887 37.4011 18.9359 37.299 19.1689 36.7616C19.5272 35.9161 20.2743 35.1172 20.3119 34.2753C20.3513 33.3976 19.1079 33.1665 18.531 32.5235C17.6227 31.5132 16.8201 30.4527 16.2987 29.2024C16.1016 28.7295 15.901 28.5773 15.3671 28.7331C13.4805 29.2705 11.5814 29.7774 9.67874 30.2593C9.16455 30.39 8.9836 30.6283 8.92806 31.1549C8.84886 32.0858 8.43891 32.9576 7.77244 33.6125C7.10596 34.2673 6.22701 34.662 5.2947 34.7249C4.36727 34.7986 3.44342 34.5443 2.6844 34.0064C1.92539 33.4685 1.37941 32.6812 1.14177 31.7819C0.893749 30.8989 0.961495 29.9572 1.33333 29.1188C1.70517 28.2804 2.35781 27.598 3.17882 27.189C4.00607 26.7563 4.9607 26.6334 5.87063 26.8422C6.78056 27.0511 7.58593 27.5781 8.14155 28.3283C8.49987 28.7904 8.76861 28.8657 9.3258 28.7027C11.1514 28.1653 13.0004 27.7049 14.8439 27.232C15.3259 27.1084 15.6036 26.9579 15.5283 26.3364C15.3439 24.988 15.4338 23.6164 15.7924 22.3036C16.1511 20.9908 16.7712 19.7639 17.6155 18.6966C17.8574 18.3849 17.9058 18.1771 17.5922 17.8744C16.5424 16.8569 15.4961 15.8341 14.4928 14.7683C14.0467 14.2954 13.7761 14.625 13.4429 14.8489C12.173 15.6925 10.6901 16.1592 9.1659 16.195C7.64169 16.2307 6.13851 15.8342 4.83041 15.0511C3.5223 14.2681 2.46277 13.1307 1.77448 11.7705C1.0862 10.4103 0.797316 8.88302 0.941279 7.36548C1.08524 5.84793 1.65616 4.40219 2.58794 3.19564C3.51972 1.98909 4.77424 1.07109 6.20626 0.54791C7.63828 0.024734 9.18923 -0.0822135 10.6795 0.23945C12.1698 0.561114 13.5385 1.29823 14.6271 2.36546C17.3414 5.03089 17.8574 9.28339 15.7648 12.4522C15.3115 13.1364 15.4065 13.475 15.944 13.9801C16.8917 14.8435 17.7804 15.7714 18.6672 16.6993C18.9772 17.0235 19.1868 17.0575 19.563 16.7727C22.6768 14.4691 26.0701 13.9998 29.7017 15.3254C30.1335 15.483 30.3682 15.4311 30.533 15.0155C30.5788 14.9052 30.6352 14.7996 30.7014 14.7002C31.418 13.6255 31.8659 12.7621 30.7318 11.4222C29.2645 9.68822 29.8038 7.01563 31.4718 5.41959C32.2758 4.65953 33.3161 4.19802 34.4193 4.11205C35.5224 4.02608 36.6217 4.32083 37.5338 4.94716C38.4459 5.57348 39.1157 6.49351 39.4314 7.55382C39.7471 8.61412 39.6898 9.75061 39.2688 10.7737C38.8548 11.8063 38.0921 12.6613 37.1131 13.1901C36.1342 13.7189 35.0009 13.8882 33.9101 13.6684C33.3279 13.5538 33.0358 13.6953 32.794 14.2058C32.4769 14.8793 31.8247 15.5224 31.8247 16.1762C31.8247 16.83 32.7958 17.1041 33.2867 17.6093C34.7755 19.1533 35.8075 20.9285 36.1532 23.053C36.2607 23.6942 36.5277 23.8931 37.1494 23.8178C37.6265 23.7864 38.1051 23.7828 38.5826 23.8071L38.588 23.6083ZM25.8891 33.9314C27.6439 33.9367 29.3607 33.4208 30.8218 32.4491C32.2828 31.4774 33.4223 30.0936 34.0956 28.4735C34.7689 26.8533 34.9457 25.0697 34.6037 23.3489C34.2616 21.6281 33.416 20.0477 32.1742 18.8081C30.9323 17.5685 29.3502 16.7256 27.6286 16.3864C25.9069 16.0472 24.1233 16.2269 22.5039 16.9027C20.8846 17.5785 19.5025 18.72 18.5329 20.1824C17.5634 21.6447 17.0502 23.3621 17.0583 25.1165C17.0655 27.4547 17.9986 29.6948 19.6535 31.3468C21.3085 32.9988 23.5506 33.9281 25.8891 33.9314ZM17.0189 46.825C17.8119 46.8271 18.5878 46.5945 19.2487 46.1564C19.9097 45.7184 20.4262 45.0945 20.7331 44.3635C21.04 43.6324 21.1237 42.8269 20.9735 42.0484C20.8233 41.2699 20.4461 40.5533 19.8892 39.9888C19.3324 39.4244 18.6209 39.0373 17.8444 38.8765C17.0679 38.7156 16.2611 38.7882 15.5258 39.0849C14.7905 39.3817 14.1595 39.8895 13.7123 40.5442C13.2651 41.199 13.0218 41.9714 13.0129 42.7642C13.007 43.2945 13.1062 43.8206 13.3047 44.3124C13.5032 44.8041 13.7972 45.2516 14.1697 45.6292C14.5421 46.0067 14.9856 46.3068 15.4747 46.512C15.9637 46.7173 16.4886 46.8237 17.0189 46.825ZM47.7718 46.0154C49.9378 43.6867 49.7228 39.7459 47.3489 37.3975C46.1587 36.2214 44.5561 35.5566 42.8827 35.5449C41.2093 35.5332 39.5975 36.1755 38.3909 37.3348C35.9597 39.6868 35.7161 43.6581 37.8642 45.9706C38.09 45.8004 38.029 45.5389 38.0631 45.3132C38.2422 44.113 38.7797 43.0741 39.74 42.3558C40.3008 41.9384 40.4011 41.6787 40.0213 41.0535C39.319 39.9035 39.5555 38.406 40.4602 37.4065C40.896 36.9298 41.464 36.5937 42.0917 36.4412C42.7194 36.2887 43.3783 36.3267 43.9843 36.5503C45.2259 37.0124 46.0321 38.2681 46.0841 39.5954C46.1181 40.4714 45.1399 41.2613 45.4678 41.8507C45.844 42.5349 46.6986 43.006 47.1322 43.7799C47.5191 44.4785 47.5604 45.2505 47.7771 46.0154H47.7718ZM13.8675 12.2569C14.4166 11.6157 14.8333 10.8722 15.0936 10.0692C15.354 9.26625 15.4529 8.41971 15.3847 7.57837C15.3164 6.73702 15.0823 5.9175 14.6958 5.16702C14.3094 4.41653 13.7782 3.74992 13.133 3.20557C10.4599 0.914525 6.41086 1.25487 4.06924 3.96687C2.05369 6.29553 2.04115 10.3205 4.10507 12.1369C4.24661 10.6215 4.76438 9.30309 5.98625 8.40566C6.46999 8.0474 6.53986 7.8432 6.21916 7.31298C5.81383 6.64235 5.67312 5.84472 5.82452 5.07592C5.97593 4.30711 6.40857 3.62235 7.03792 3.15542C7.62433 2.70905 8.34597 2.47698 9.08268 2.49784C9.8194 2.5187 10.5267 2.79123 11.0869 3.27006C12.264 4.28213 12.5399 5.94086 11.7821 7.33806C11.6638 7.55838 11.1443 7.79304 11.6441 8.13159C13.047 9.08276 13.717 10.4531 13.8675 12.2569ZM31.5739 8.93946C31.5729 9.5721 31.759 10.1909 32.1086 10.7182C32.4583 11.2454 32.956 11.6577 33.5392 11.903C34.1224 12.1484 34.7652 12.216 35.3867 12.0973C36.0082 11.9786 36.5808 11.679 37.0325 11.236C37.4843 10.793 37.795 10.2264 37.9257 9.60744C38.0565 8.98845 38.0013 8.34464 37.7672 7.75688C37.5332 7.16912 37.1306 6.66362 36.6101 6.30386C36.0896 5.94411 35.4744 5.74616 34.8418 5.73486C34.416 5.72798 33.9931 5.80571 33.5976 5.96354C33.2021 6.12137 32.8419 6.35616 32.5379 6.65428C32.2339 6.9524 31.9922 7.30791 31.8267 7.70019C31.6612 8.09248 31.5753 8.51371 31.5739 8.93946ZM4.93996 28.3068C4.46447 28.3072 3.99971 28.4481 3.6041 28.7119C3.2085 28.9756 2.89971 29.3504 2.71655 29.7891C2.5334 30.2278 2.48405 30.7109 2.57472 31.1776C2.66538 31.6443 2.89202 32.0737 3.22612 32.412C3.56023 32.7503 3.9869 32.9822 4.45249 33.0787C4.91808 33.1752 5.40182 33.1319 5.84288 32.9543C6.28394 32.7767 6.66264 32.4727 6.93138 32.0805C7.20011 31.6883 7.34689 31.2255 7.35325 30.7501C7.35923 30.4302 7.30112 30.1123 7.18234 29.8151C7.06356 29.518 6.88652 29.2476 6.66163 29.0199C6.43675 28.7922 6.16857 28.6118 5.87289 28.4894C5.57721 28.3669 5.26 28.3048 4.93996 28.3068ZM8.94061 11.3666C9.77549 11.3666 10.6104 11.3523 11.4488 11.3666C11.9541 11.3792 12.1297 11.2072 11.8735 10.7415C11.2482 9.60402 10.2933 8.96096 8.9854 8.96096C7.67753 8.96096 6.72081 9.61298 6.09017 10.7504C5.83218 11.2198 6.02029 11.3846 6.51836 11.372C7.32996 11.3523 8.13438 11.3666 8.94061 11.3666ZM42.8377 45.2218C43.6726 45.2218 44.5093 45.2075 45.3459 45.2218C45.9193 45.2344 45.9443 44.9764 45.715 44.5662C45.1023 43.461 44.1689 42.8341 42.9004 42.8179C41.5943 42.8 40.6304 43.4216 39.9873 44.5537C39.6916 45.0732 39.8798 45.2362 40.4262 45.2236C41.227 45.2075 42.0333 45.2218 42.8377 45.2218ZM13.0057 13.0845H4.95429C7.28158 15.0549 10.7483 15.0513 13.0057 13.0845ZM38.8048 46.9021C41.0443 48.928 45.0378 48.8993 46.7971 46.9021H38.8048ZM8.99973 4.1245C8.67852 4.11594 8.36207 4.20354 8.091 4.37604C7.81992 4.54854 7.60658 4.79809 7.47833 5.09266C7.35009 5.38723 7.3128 5.7134 7.37124 6.02931C7.42969 6.34522 7.5812 6.63646 7.80635 6.86568C8.0315 7.0949 8.32 7.25163 8.63486 7.31577C8.94972 7.37992 9.27656 7.34854 9.57346 7.22567C9.87036 7.10281 10.1238 6.89405 10.3012 6.62619C10.4786 6.35833 10.5719 6.04358 10.5692 5.72232C10.572 5.30263 10.4085 4.89889 10.1144 4.59944C9.82026 4.3 9.41948 4.12923 8.99973 4.1245ZM42.818 41.1897C43.1386 41.1982 43.4545 41.111 43.7252 40.9391C43.996 40.7673 44.2093 40.5186 44.338 40.2248C44.4667 39.9311 44.5048 39.6057 44.4475 39.2902C44.3902 38.9747 44.2402 38.6834 44.0165 38.4536C43.7928 38.2239 43.5056 38.066 43.1917 38.0002C42.8778 37.9344 42.5514 37.9638 42.2543 38.0844C41.9571 38.2051 41.7027 38.4116 41.5236 38.6775C41.3444 38.9435 41.2487 39.2569 41.2485 39.5775C41.2455 39.7865 41.2836 39.994 41.3609 40.1882C41.4381 40.3823 41.553 40.5594 41.6987 40.7091C41.8445 40.8589 42.0184 40.9784 42.2105 41.0609C42.4025 41.1433 42.609 41.1871 42.818 41.1897ZM49.2677 24.2728C49.2688 23.9569 49.1758 23.6478 49.0007 23.3848C48.8255 23.1218 48.576 22.9169 48.2841 22.7961C47.9921 22.6753 47.6707 22.6441 47.361 22.7064C47.0512 22.7687 46.7669 22.9217 46.5443 23.146C46.3218 23.3703 46.171 23.6557 46.1111 23.9659C46.0513 24.2761 46.0851 24.5972 46.2082 24.8881C46.3314 25.1791 46.5383 25.4268 46.8027 25.5999C47.0671 25.7729 47.377 25.8634 47.6929 25.8599C47.9007 25.8594 48.1063 25.818 48.2979 25.7379C48.4896 25.6578 48.6636 25.5407 48.8099 25.3932C48.9562 25.2458 49.072 25.0709 49.1505 24.8787C49.2291 24.6864 49.2689 24.4805 49.2677 24.2728Z" fill="url(#paint0_linear_1_161)"/>
<path d="M27.894 25.396C30.0242 26.4027 31.298 27.9378 31.5184 30.2324C31.6187 31.2535 31.3625 31.5275 30.3395 31.5311C27.3869 31.5311 24.4344 31.5311 21.4818 31.5311C20.4624 31.5311 20.208 31.2517 20.3101 30.2235C20.5359 27.9342 21.8151 26.4045 23.9381 25.4013C22.6374 24.4896 21.8652 23.3306 21.8921 21.7615C21.8943 21.2079 22.0145 20.6612 22.2447 20.1577C22.4749 19.6543 22.8097 19.2056 23.2268 18.8417C23.6312 18.4755 24.106 18.1957 24.6222 18.0194C25.1385 17.843 25.6853 17.7739 26.2292 17.8161C26.7731 17.8584 27.3026 18.0112 27.7854 18.2651C28.2682 18.5191 28.6941 18.8689 29.037 19.2931C30.5778 21.1417 30.1299 23.6459 27.894 25.396ZM29.8056 29.8885C29.3165 27.8429 27.6754 26.6087 25.6975 26.6893C24.1567 26.752 22.2038 28.0274 22.0713 29.8885H29.8056ZM25.8641 19.4507C25.3914 19.4592 24.9317 19.6071 24.5428 19.8759C24.154 20.1447 23.8532 20.5224 23.6783 20.9616C23.5034 21.4008 23.4622 21.8818 23.5599 22.3443C23.6575 22.8068 23.8897 23.2301 24.2272 23.5611C24.5647 23.8921 24.9925 24.116 25.4569 24.2048C25.9212 24.2935 26.4015 24.243 26.8372 24.0597C27.273 23.8765 27.6449 23.5685 27.9063 23.1746C28.1676 22.7807 28.3067 22.3183 28.306 21.8457C28.3083 21.5266 28.2463 21.2103 28.1238 20.9156C28.0013 20.621 27.8208 20.354 27.5929 20.1305C27.3651 19.9071 27.0946 19.7317 26.7976 19.6149C26.5006 19.4981 26.1831 19.4423 25.8641 19.4507Z" fill="url(#paint1_linear_1_161)"/>
<defs>
<linearGradient id="paint0_linear_1_161" x1="0.905212" y1="0.0577393" x2="58.3326" y2="11.0633" gradientUnits="userSpaceOnUse">
<stop stop-color="#EC9F05"/>
<stop offset="1" stop-color="#FF4E00"/>
</linearGradient>
<linearGradient id="paint1_linear_1_161" x1="20.2892" y1="17.8041" x2="33.3728" y2="19.8604" gradientUnits="userSpaceOnUse">
<stop stop-color="#EC9F05"/>
<stop offset="1" stop-color="#FF4E00"/>
</linearGradient>
</defs>
</svg>
