<svg width="51" height="51" viewBox="0 0 51 51" fill="none" xmlns="http://www.w3.org/2000/svg">
<path d="M41.0868 27.0001C41.3159 26.639 41.5242 26.2622 41.7811 25.9202C42.635 24.7691 44.2438 24.7326 45.0023 25.9445C46.9305 29.0297 48.7876 32.16 50.6568 35.2834C51.0039 35.8702 50.9483 36.4987 50.6568 37.1168C48.8437 41.0139 47.0317 44.9116 45.221 48.8099C44.8582 49.5929 44.2699 50.0478 43.4038 50.0547C42.4978 50.0547 41.8956 49.5773 41.5225 48.7682C40.8959 47.4053 40.2433 46.0528 39.6342 44.683C39.4606 44.2871 39.268 44.15 38.8063 44.15C29.7813 44.1824 20.7564 44.1951 11.7314 44.1882C10.1468 44.1882 9.23394 43.1465 9.23394 41.4954C9.23394 31.0784 9.23856 20.6613 9.24782 10.2443C9.24782 9.49427 9.11592 9.20259 8.27937 9.22863C6.2852 9.29808 4.28757 9.25294 2.2934 9.24947C1.11842 9.24947 0.904942 9.01682 0.892793 7.81886C0.892793 6.86397 0.873702 5.90907 0.892793 4.95418C0.986514 2.27006 3.09697 0.0876884 5.78189 0.0790075C15.876 0.0454415 25.9694 0.0454415 36.0624 0.0790075C38.6241 0.0894245 40.6391 2.10338 40.8525 4.66597C40.8855 5.06876 40.889 5.47503 40.889 5.88129C40.889 12.5945 40.889 19.3077 40.889 26.0209V26.9515L41.0868 27.0001ZM9.57237 1.75268C10.8602 3.27704 10.9088 4.87779 10.907 6.51673C10.8966 18.0275 10.8966 29.5389 10.907 41.0509C10.907 42.4399 11.0615 42.584 12.4552 42.584H37.6087C37.9107 42.584 38.2127 42.5579 38.6293 42.5388C37.8188 40.7888 37.0881 39.1325 36.288 37.5039C35.8072 36.5265 35.8211 35.6618 36.4251 34.7347C37.2599 33.4534 37.9871 32.1079 38.8115 30.8145C39.1054 30.3545 39.2542 29.8167 39.2384 29.271C39.2263 21.4027 39.1864 13.5361 39.2593 5.66948C39.2784 3.501 37.975 1.6867 35.3178 1.71448C27.1363 1.80303 18.9531 1.74747 10.7717 1.74747L9.57237 1.75268ZM48.1975 38.3859L48.0777 38.2991L44.8357 40.5665C43.6416 41.4016 43.1504 41.4016 41.9459 40.5665L38.5182 38.188C38.6449 38.5474 38.6917 38.7088 38.756 38.8616C40.1652 41.893 41.5768 44.9226 42.9907 47.9505C43.0741 48.1241 43.14 48.3533 43.3986 48.3324C43.685 48.3099 43.7318 48.0477 43.8256 47.8446C44.7894 45.782 45.7491 43.7183 46.7049 41.6534C47.2134 40.5735 47.7063 39.4832 48.2027 38.3928L48.1975 38.3859ZM5.96412 7.53934C6.88745 7.53934 7.81251 7.52718 8.74103 7.53934C9.10724 7.53934 9.26171 7.42996 9.24956 7.04626C9.22526 6.32923 9.27906 5.61045 9.22526 4.88299C9.15479 4.01072 8.75092 3.19918 8.09765 2.61713C7.44437 2.03509 6.59196 1.72734 5.71767 1.75789C3.96301 1.82386 2.64225 3.21106 2.59365 5.05661C2.57803 5.69379 2.61274 6.33096 2.58324 6.9664C2.56067 7.42649 2.73944 7.56712 3.18548 7.55496C4.11401 7.52024 5.03907 7.53934 5.96412 7.53934ZM42.5117 28.2137L42.3573 28.172C40.9272 30.5349 39.5075 32.9048 38.06 35.2573C37.8066 35.6688 38.0357 35.8007 38.3064 35.9882C39.4641 36.7956 40.6148 37.6133 41.7776 38.4189C41.9945 38.5682 42.1716 38.8512 42.5117 38.7557V28.2137ZM44.341 28.0279V38.8807C45.8215 37.839 47.1787 36.8789 48.5567 35.9431C48.9351 35.6862 48.8379 35.4709 48.6522 35.1636C47.2464 32.8527 45.8458 30.5332 44.341 28.0279Z" fill="url(#paint0_linear_1_134)"/>
<path d="M24.9374 36.7244C22.5961 36.7244 20.2513 36.7244 17.9153 36.7244C17.2974 36.7244 16.7472 36.5907 16.7455 35.891C16.7438 35.1913 17.313 35.0646 17.9187 35.0524C19.2655 35.0299 19.2621 35.0177 19.2603 33.7034C19.2603 33.2416 19.2603 32.7781 19.2846 32.3145C19.3254 31.7071 19.5969 31.1382 20.0436 30.7247C20.4902 30.3111 21.0781 30.0842 21.6867 30.0905C23.023 30.0783 24.1164 31.0245 24.1911 32.3249C24.2529 33.018 24.2529 33.7152 24.1911 34.4083C24.0765 35.3979 24.7794 35.009 25.2012 35.0663C25.6646 35.1271 26.0881 35.1149 25.9197 34.4083C25.867 34.0634 25.8617 33.7129 25.9041 33.3666C25.9666 31.9603 26.9645 30.9672 28.3339 30.936C28.6588 30.921 28.9835 30.9703 29.2894 31.0811C29.5953 31.1918 29.8764 31.3617 30.1166 31.5812C30.3567 31.8006 30.5513 32.0653 30.6891 32.36C30.827 32.6548 30.9054 32.9738 30.9199 33.2989C30.9563 33.8614 30.7029 34.5871 30.9719 34.9448C31.1819 35.2243 31.9977 35.0316 32.534 35.0785C33.0702 35.1254 33.4156 35.3806 33.367 35.9657C33.3184 36.5508 32.9193 36.7226 32.3986 36.7226L24.9374 36.7244ZM20.8796 33.3232C20.8796 33.5819 20.8692 33.8441 20.8796 34.101C20.9022 34.6219 21.1347 34.9986 21.7005 35.0194C22.2663 35.0403 22.5197 34.6722 22.5683 34.1514C22.5978 33.8649 22.5787 33.575 22.5805 33.2833C22.5805 32.6166 22.6707 31.8718 21.7474 31.7433C21.1452 31.6652 20.8779 32.1843 20.8796 33.3232ZM29.1947 33.7642C29.2589 33.1965 29.1444 32.5853 28.3929 32.5801C27.6414 32.5749 27.5685 33.2121 27.5806 33.8284C27.5893 34.3979 27.5806 34.9951 28.3495 35.0177C29.1565 35.042 29.2329 34.4535 29.1947 33.7642Z" fill="url(#paint1_linear_1_134)"/>
<path d="M25.0189 15.8746C21.5235 15.8746 18.0275 15.8746 14.5309 15.8746C14.0363 15.8746 13.5555 15.8295 13.441 15.26C13.3125 14.6211 13.6405 14.2635 14.2897 14.2513C15.1574 14.2357 16.0252 14.2513 16.893 14.2513H35.1859C35.4756 14.2382 35.7659 14.2499 36.0537 14.2861C36.2437 14.3071 36.4179 14.4021 36.5384 14.5506C36.6589 14.6991 36.7161 14.8891 36.6976 15.0795C36.7054 15.1741 36.6943 15.2693 36.6651 15.3596C36.6358 15.45 36.5889 15.5336 36.527 15.6056C36.4652 15.6776 36.3897 15.7367 36.3048 15.7793C36.22 15.8219 36.1276 15.8472 36.0329 15.8538C35.774 15.8801 35.5136 15.8883 35.2536 15.8781L25.0189 15.8746Z" fill="url(#paint2_linear_1_134)"/>
<path d="M25.0432 20.045H14.727C14.4954 20.0598 14.2628 20.0516 14.0328 20.0206C13.844 19.9906 13.6742 19.8887 13.5587 19.7363C13.4433 19.584 13.3911 19.3929 13.4132 19.2029C13.402 19.0272 13.458 18.8538 13.5698 18.7177C13.6816 18.5817 13.8409 18.4933 14.0154 18.4703C14.3032 18.4337 14.5933 18.4197 14.8832 18.4286H35.2588C35.4028 18.4286 35.5486 18.4286 35.6927 18.4286C36.2429 18.4286 36.6976 18.5762 36.6924 19.229C36.6924 19.8522 36.2845 20.0623 35.71 20.0484C35.1894 20.0363 34.6687 20.0484 34.148 20.0484L25.0432 20.045Z" fill="url(#paint3_linear_1_134)"/>
<path d="M25.0276 24.2239H14.3625C13.8245 24.2239 13.441 23.9964 13.4201 23.4357C13.3976 22.8142 13.8176 22.5885 14.3799 22.5676C14.5535 22.5676 14.727 22.5676 14.9006 22.5676H35.5365C36.1248 22.5676 36.6958 22.651 36.6854 23.4096C36.675 24.1683 36.1127 24.2291 35.5174 24.2291C32.0208 24.2233 28.5242 24.2216 25.0276 24.2239Z" fill="url(#paint4_linear_1_134)"/>
<path d="M25.0693 8.40393C26.6313 8.40393 28.1933 8.41782 29.7553 8.40393C30.3523 8.40393 30.8574 8.56192 30.8886 9.19039C30.9233 9.89699 30.368 10.0758 29.7588 10.0758C26.6348 10.0758 23.5107 10.0758 20.3867 10.0758C19.7949 10.0758 19.2464 9.9699 19.2794 9.1956C19.3107 8.48379 19.8157 8.4074 20.3832 8.40914C21.947 8.40914 23.5073 8.40393 25.0693 8.40393Z" fill="url(#paint5_linear_1_134)"/>
<defs>
<linearGradient id="paint0_linear_1_134" x1="0.884308" y1="0.053833" x2="58.3728" y2="11.0817" gradientUnits="userSpaceOnUse">
<stop stop-color="#EC9F05"/>
<stop offset="1" stop-color="#FF4E00"/>
</linearGradient>
<linearGradient id="paint1_linear_1_134" x1="16.7455" y1="30.0903" x2="32.8417" y2="37.8269" gradientUnits="userSpaceOnUse">
<stop stop-color="#EC9F05"/>
<stop offset="1" stop-color="#FF4E00"/>
</linearGradient>
<linearGradient id="paint2_linear_1_134" x1="13.4135" y1="14.2444" x2="16.7038" y2="23.2162" gradientUnits="userSpaceOnUse">
<stop stop-color="#EC9F05"/>
<stop offset="1" stop-color="#FF4E00"/>
</linearGradient>
<linearGradient id="paint3_linear_1_134" x1="13.4082" y1="18.426" x2="16.6571" y2="27.3479" gradientUnits="userSpaceOnUse">
<stop stop-color="#EC9F05"/>
<stop offset="1" stop-color="#FF4E00"/>
</linearGradient>
<linearGradient id="paint4_linear_1_134" x1="13.4193" y1="22.5676" x2="16.7955" y2="31.6351" gradientUnits="userSpaceOnUse">
<stop stop-color="#EC9F05"/>
<stop offset="1" stop-color="#FF4E00"/>
</linearGradient>
<linearGradient id="paint5_linear_1_134" x1="19.278" y1="8.40393" x2="24.2662" y2="15.0485" gradientUnits="userSpaceOnUse">
<stop stop-color="#EC9F05"/>
<stop offset="1" stop-color="#FF4E00"/>
</linearGradient>
</defs>
</svg>
