<svg width="51" height="51" viewBox="0 0 51 51" fill="none" xmlns="http://www.w3.org/2000/svg">
<path d="M15.2764 36.562C6.83837 36.5153 0.785471 29.3759 0.894516 21.9941C1.01568 13.9941 7.41302 7.5248 15.4114 7.53346C23.3441 7.54211 29.9266 14.1135 29.9197 22.0374C29.9162 30.0737 23.3631 36.5707 15.2764 36.562ZM28.1178 22.0668C28.1233 20.3884 27.7982 18.7253 27.1612 17.1726C26.5242 15.6198 25.5878 14.2078 24.4053 13.0171C23.2228 11.8264 21.8175 10.8804 20.2696 10.2331C18.7217 9.58573 17.0615 9.24974 15.3837 9.24428C11.9954 9.23326 8.74151 10.5692 6.33782 12.9583C3.93413 15.3474 2.57757 18.594 2.56655 21.9837C2.52155 28.5205 7.54976 34.7681 15.2608 34.82C22.9719 34.872 28.1576 28.6694 28.1178 22.0668Z" fill="url(#paint0_linear_1_255)"/>
<path d="M50.8945 23.2945C50.8945 28.9205 46.621 33.4261 40.9869 33.743C35.8895 34.027 31.0776 30.0651 30.3299 25.0122C30.1492 23.8445 30.1574 22.6553 30.3541 21.4902C30.5064 20.5984 30.9219 20.1049 31.4861 20.2642C32.3308 20.5083 32.2079 21.1698 32.0971 21.8226C31.7423 23.7862 32.082 25.8121 33.058 27.5523C34.0341 29.2925 35.5854 30.6383 37.4455 31.3586C41.9285 33.1473 46.8667 30.9308 48.6963 26.3092C50.3752 22.0581 48.087 16.9586 43.739 15.2685C43.1003 15.0192 42.2332 14.8529 42.6192 13.9057C43.0051 12.9586 43.7667 13.4105 44.4002 13.6616C48.3968 15.2581 50.8962 18.9707 50.8945 23.2945Z" fill="url(#paint1_linear_1_255)"/>
<path d="M32.7185 0.0685382C37.9285 0.0685382 41.9026 3.72049 42.3128 8.99668C42.6365 13.1369 39.9622 17.6547 34.6606 18.8062C33.5871 19.0384 32.4785 19.0573 31.3978 18.8616C30.773 18.7491 30.1066 18.5811 30.233 17.7759C30.3593 16.9707 31.0413 17.0053 31.6713 17.1023C35.5087 17.6859 39.012 15.5248 40.2271 11.8209C41.7849 7.06767 38.1968 1.99062 33.2032 1.89018C29.3467 1.81399 26.4077 4.04603 25.4142 7.79841C25.2809 8.30057 25.1753 8.84776 24.4795 8.85988C23.7837 8.872 23.4617 8.29538 23.6902 7.38802C24.5193 4.10836 26.5116 1.83131 29.6635 0.608798C30.6934 0.208798 31.7648 -0.00418911 32.7185 0.0685382Z" fill="url(#paint2_linear_1_255)"/>
<path d="M32.5974 50.0495C25.8037 50.0322 20.4604 44.3699 20.8274 37.7274C20.862 37.1144 21.0333 36.6106 21.7551 36.6313C22.4769 36.6521 22.6206 37.2253 22.5981 37.8019C22.4804 40.3993 23.1641 42.7387 24.8482 44.7093C27.5293 47.8417 30.9859 49.0054 34.9531 47.9993C38.9618 46.9846 41.4231 44.285 42.2938 40.2071C42.5472 38.9285 42.5372 37.6116 42.2643 36.337C42.138 35.6911 42.0566 35.0573 42.8909 34.917C43.7252 34.7768 43.8723 35.4192 43.9918 36.0512C45.2034 42.4841 41.1843 48.5846 34.6052 49.8712C33.9448 50.0064 33.2712 50.0662 32.5974 50.0495Z" fill="url(#paint3_linear_1_255)"/>
<path d="M43.7771 21.3188C43.5677 21.8625 43.9173 22.0893 44.4124 22.3577C46.1 23.2426 46.6227 25.2512 45.6413 26.872C45.4244 27.239 45.1346 27.5576 44.7898 27.8081C44.4449 28.0586 44.0524 28.2357 43.6364 28.3284C43.2205 28.4211 42.7899 28.4274 42.3714 28.3469C41.9529 28.2665 41.5553 28.101 41.2033 27.8608C40.7135 27.5318 40.4157 27.5352 39.9294 27.8608C38.4391 28.872 36.5386 28.4495 35.5295 26.9569C34.555 25.5144 34.9202 23.4642 36.4209 22.5465C37.0907 22.1344 37.3798 21.7984 37.3746 20.924C37.3625 19.0573 38.9081 17.8313 40.8571 17.9144C42.524 17.982 43.8204 19.4677 43.7771 21.3188ZM41.9857 21.0867C41.9904 20.7095 41.8468 20.3455 41.5859 20.0731C41.3249 19.8007 40.9675 19.6418 40.5906 19.6305C40.3962 19.6286 40.2034 19.6656 40.0235 19.7393C39.8436 19.8131 39.6802 19.922 39.543 20.0598C39.4058 20.1975 39.2975 20.3613 39.2244 20.5415C39.1514 20.7218 39.115 20.9148 39.1176 21.1092C39.1248 21.4863 39.2738 21.8467 39.535 22.1185C39.7962 22.3904 40.1503 22.5537 40.5265 22.5759C40.9171 22.5709 41.2897 22.4114 41.5631 22.1324C41.8365 21.8534 41.9884 21.4775 41.9857 21.0867ZM38.2677 26.595C38.4556 26.5881 38.6403 26.5444 38.8112 26.4661C38.9822 26.3879 39.1361 26.2768 39.2641 26.139C39.3921 26.0013 39.4917 25.8397 39.5573 25.6635C39.6229 25.4872 39.6532 25.2998 39.6464 25.1118C39.6395 24.9239 39.5958 24.7391 39.5176 24.5681C39.4394 24.3971 39.3283 24.2431 39.1906 24.1151C39.053 23.987 38.8915 23.8873 38.7153 23.8217C38.5391 23.7561 38.3517 23.7258 38.1639 23.7326C37.977 23.7328 37.792 23.7704 37.6198 23.8433C37.4477 23.9162 37.2919 24.0229 37.1617 24.157C37.0315 24.2912 36.9295 24.4501 36.8617 24.6243C36.7939 24.7986 36.7617 24.9847 36.767 25.1716C36.7722 26.0149 37.4023 26.6123 38.2677 26.595ZM42.8857 23.7309C42.0514 23.7465 41.501 24.3196 41.501 25.1681C41.4911 25.363 41.5233 25.5577 41.5955 25.7389C41.6677 25.9202 41.7782 26.0837 41.9193 26.2183C42.0605 26.353 42.229 26.4555 42.4134 26.519C42.5978 26.5826 42.7938 26.6055 42.9878 26.5863C43.3663 26.5721 43.7237 26.408 43.9812 26.1302C44.2388 25.8524 44.3755 25.4836 44.3613 25.1049C44.3471 24.7263 44.1831 24.3688 43.9054 24.1111C43.6277 23.8534 43.259 23.7167 42.8805 23.7309H42.8857Z" fill="url(#paint4_linear_1_255)"/>
<path d="M36.8397 40.6815C36.8643 40.982 36.7788 41.2811 36.5991 41.5231C35.5727 43.0555 34.5584 44.5967 33.513 46.117C32.8033 47.1473 32.2442 47.1387 31.5415 46.117C30.5151 44.6175 29.5129 43.1023 28.4865 41.6045C28.3352 41.4126 28.2413 41.1818 28.2159 40.9387C28.1905 40.6956 28.2345 40.4503 28.3428 40.2313C29.4056 37.833 30.4476 35.4278 31.4982 33.0244C31.7094 32.5395 31.9292 32.0287 32.5662 32.0443C33.1582 32.0616 33.3485 32.5638 33.5476 33.014C34.5861 35.3897 35.6247 37.7672 36.6632 40.1465C36.7315 40.3216 36.7904 40.5002 36.8397 40.6815ZM32.5229 35.0642C31.7475 36.8391 31.0828 38.3542 30.413 39.8833C30.278 40.1897 30.3905 40.3265 30.6813 40.4737C31.2484 40.7838 31.8844 40.9463 32.5307 40.9463C33.177 40.9463 33.813 40.7838 34.3802 40.4737C34.6883 40.3162 34.7558 40.1846 34.6242 39.8867C33.9544 38.3698 33.2966 36.8443 32.5229 35.0642Z" fill="url(#paint5_linear_1_255)"/>
<path d="M36.3516 7.60273C36.3759 8.04602 36.2512 8.45468 35.732 8.56723C35.1781 8.68498 34.8838 8.35078 34.6935 7.87459C34.3282 6.95511 32.2356 6.47199 31.4671 7.12654C31.3388 7.22555 31.245 7.36252 31.199 7.51797C31.153 7.67341 31.1572 7.83941 31.2109 7.99234C31.2474 8.15035 31.3351 8.29186 31.4603 8.39488C31.5855 8.4979 31.7412 8.55667 31.9033 8.56204C32.4797 8.59494 33.056 8.58281 33.6342 8.60359C35.0431 8.65381 36.1543 9.51961 36.343 10.7092C36.587 12.2365 35.9172 13.3742 34.3957 13.8071C33.8332 13.9681 33.7415 14.2538 33.7622 14.7317C33.7865 15.3239 33.6757 15.8867 32.947 15.9196C32.2183 15.9525 32.0383 15.3776 32.0314 14.801C32.0227 14.1794 31.7613 13.8867 31.1659 13.717C30.0685 13.4001 29.5441 12.5759 29.435 11.4746C29.3848 10.9551 29.577 10.5499 30.1274 10.4356C30.6466 10.3317 30.9253 10.6503 31.1036 11.0919C31.5104 12.1014 33.3711 12.6296 34.2555 11.9819C34.5567 11.762 34.7298 11.4625 34.6138 11.0832C34.4979 10.704 34.2365 10.4287 33.8072 10.4131C33.2585 10.3941 32.7116 10.4131 32.1629 10.3941C30.6951 10.3612 29.6462 9.47632 29.4471 8.11355C29.2481 6.75078 29.9491 5.68931 31.3667 5.24429C31.9015 5.07113 32.1196 4.81658 32.0746 4.26247C32.0279 3.66507 32.175 3.09364 32.8933 3.07978C33.6116 3.06593 33.8142 3.61831 33.7449 4.22437C33.6688 4.90143 34.0236 5.10922 34.5879 5.28238C35.7112 5.62178 36.3672 6.52221 36.3516 7.60273Z" fill="url(#paint6_linear_1_255)"/>
<path d="M10.6757 22.0616C10.6757 20.1568 10.6636 18.2521 10.6757 16.3473C10.6861 15.0988 10.9665 14.7889 12.2076 14.8252C12.9259 14.8408 13.298 14.6677 13.2253 13.8694C13.1786 13.3499 13.4313 12.9516 13.9904 12.9032C14.5494 12.8547 14.8212 13.2166 14.9337 13.7187C14.9681 13.8588 14.9873 14.0022 14.9908 14.1464C14.9908 14.6157 15.2193 14.8097 15.6918 14.8114C16.1644 14.8131 16.3496 14.5742 16.3374 14.1187C16.3219 13.4884 16.4638 12.8962 17.234 12.9066C18.0043 12.917 18.1497 13.5179 18.1254 14.1395C18.1047 14.6763 18.328 14.9482 18.804 15.1958C21.4522 16.5811 21.9888 19.2599 20.1038 21.6287C19.8563 21.9387 19.8477 22.1049 20.1038 22.4218C22.0269 24.846 21.4886 27.4711 18.7538 28.8945C18.2985 29.1317 18.1081 29.414 18.1341 29.8988C18.1463 30.1574 18.1147 30.4162 18.0406 30.6642C17.9968 30.8499 17.8886 31.0142 17.7353 31.1277C17.5819 31.2411 17.3933 31.2966 17.2029 31.2841C17.0127 31.2806 16.8294 31.212 16.6836 31.0897C16.5378 30.9675 16.4382 30.799 16.4015 30.6122C16.3521 30.4166 16.3329 30.2146 16.3444 30.0131C16.3634 29.5387 16.2405 29.2477 15.6762 29.2529C15.112 29.2581 15.0029 29.5594 14.9839 30.0235C14.9809 30.254 14.9387 30.4824 14.8593 30.6988C14.7121 31.078 14.4266 31.3274 13.9938 31.2893C13.5351 31.246 13.1872 30.943 13.2374 30.4997C13.3638 29.4174 12.8653 29.1837 11.8977 29.2339C10.9942 29.2789 10.6861 28.8876 10.6723 27.8486C10.6619 25.9248 10.6775 23.9923 10.6757 22.0616ZM15.2608 16.6261C14.5408 16.6261 13.8207 16.6261 13.1007 16.6261C12.6818 16.6261 12.4551 16.7837 12.4585 17.2339C12.4689 18.3577 12.4585 19.485 12.4585 20.6036C12.4585 20.9343 12.5624 21.1889 12.938 21.1819C14.5166 21.1473 16.1107 21.3638 17.6754 21.0659C18.887 20.8356 19.5638 19.7984 19.434 18.5759C19.3616 18.0451 19.1025 17.5576 18.703 17.2008C18.3036 16.8441 17.7901 16.6415 17.2548 16.6296C16.5919 16.6088 15.929 16.6261 15.2608 16.6261ZM15.0618 27.459C15.7905 27.459 16.3669 27.4677 16.9433 27.459C18.4439 27.4313 19.3925 26.6019 19.4409 25.2824C19.4894 23.9629 18.4924 22.9603 17.0298 22.8928C16.1401 22.8512 15.2453 22.8806 14.3539 22.8789C12.4499 22.8789 12.4378 22.8789 12.4672 24.7317C12.4793 25.5854 12.0968 26.6642 12.6403 27.2374C13.2409 27.8555 14.3487 27.343 15.0687 27.459H15.0618Z" fill="url(#paint7_linear_1_255)"/>
<defs>
<linearGradient id="paint0_linear_1_255" x1="0.893066" y1="7.53345" x2="34.2594" y2="13.9321" gradientUnits="userSpaceOnUse">
<stop stop-color="#EC9F05"/>
<stop offset="1" stop-color="#FF4E00"/>
</linearGradient>
<linearGradient id="paint1_linear_1_255" x1="30.2002" y1="13.3311" x2="53.9661" y2="17.9488" gradientUnits="userSpaceOnUse">
<stop stop-color="#EC9F05"/>
<stop offset="1" stop-color="#FF4E00"/>
</linearGradient>
<linearGradient id="paint2_linear_1_255" x1="23.6174" y1="0.0544434" x2="45.1556" y2="4.13724" gradientUnits="userSpaceOnUse">
<stop stop-color="#EC9F05"/>
<stop offset="1" stop-color="#FF4E00"/>
</linearGradient>
<linearGradient id="paint3_linear_1_255" x1="20.8095" y1="34.8976" x2="46.4462" y2="42.4884" gradientUnits="userSpaceOnUse">
<stop stop-color="#EC9F05"/>
<stop offset="1" stop-color="#FF4E00"/>
</linearGradient>
<linearGradient id="paint4_linear_1_255" x1="34.9876" y1="17.9105" x2="47.7432" y2="20.5068" gradientUnits="userSpaceOnUse">
<stop stop-color="#EC9F05"/>
<stop offset="1" stop-color="#FF4E00"/>
</linearGradient>
<linearGradient id="paint5_linear_1_255" x1="28.2089" y1="32.0439" x2="38.3734" y2="33.178" gradientUnits="userSpaceOnUse">
<stop stop-color="#EC9F05"/>
<stop offset="1" stop-color="#FF4E00"/>
</linearGradient>
<linearGradient id="paint6_linear_1_255" x1="29.4139" y1="3.07953" x2="37.6409" y2="3.93693" gradientUnits="userSpaceOnUse">
<stop stop-color="#EC9F05"/>
<stop offset="1" stop-color="#FF4E00"/>
</linearGradient>
<linearGradient id="paint7_linear_1_255" x1="10.6687" y1="12.8988" x2="23.1242" y2="14.2725" gradientUnits="userSpaceOnUse">
<stop stop-color="#EC9F05"/>
<stop offset="1" stop-color="#FF4E00"/>
</linearGradient>
</defs>
</svg>
