<svg width="40" height="41" viewBox="0 0 40 41" fill="none" xmlns="http://www.w3.org/2000/svg">
<path d="M28.492 28.7302C26.1785 26.5727 26.662 23.6866 28.1183 22.196C29.7537 20.5232 32.4258 20.4097 34.1446 21.9564C36.1302 23.7413 36.0982 26.2757 34.0251 28.7863C34.4808 28.9698 34.9255 29.1407 35.3632 29.3271C37.4975 30.2391 38.8217 31.8292 39.2886 34.1255C39.5206 35.2645 39.7235 36.4105 39.9681 37.5467C40.0834 38.0861 39.8875 38.3873 39.3942 38.5653C33.9695 40.5351 28.5453 40.5351 23.1216 38.5653C22.7047 38.4126 22.4268 38.1688 22.531 37.6826C22.8089 36.2704 23.0298 34.8386 23.4106 33.4516C24.0275 31.203 25.6241 29.8692 27.7361 29.0819C27.9835 28.9852 28.2878 29.0006 28.492 28.7302ZM31.2794 38.7474C33.6322 38.7738 35.9726 38.4021 38.2034 37.6476C38.5841 37.5229 38.6689 37.3674 38.5869 37.0003C38.3965 36.1387 38.2353 35.2701 38.063 34.4043C37.7073 32.6096 36.7124 31.3333 35.0519 30.574C32.9144 29.5615 30.4658 29.4451 28.2433 30.2503C26.0951 30.9914 24.7362 32.4149 24.3916 34.7335C24.285 35.4696 24.1384 36.1992 23.9525 36.9191C23.8358 37.3632 23.9525 37.5201 24.3777 37.6602C26.6023 38.407 28.9349 38.7744 31.2794 38.7474ZM34.3752 25.2838C34.3761 24.6632 34.1946 24.0564 33.8537 23.5398C33.5128 23.0231 33.0277 22.6199 32.4598 22.3809C31.8918 22.1419 31.2664 22.0779 30.6624 22.1969C30.0584 22.3159 29.5029 22.6127 29.0659 23.0497C28.629 23.4867 28.3303 24.0444 28.2074 24.6525C28.0845 25.2605 28.143 25.8916 28.3755 26.4661C28.6079 27.0407 29.004 27.5329 29.5136 27.8808C30.0233 28.2286 30.6237 28.4165 31.2391 28.4206C31.6499 28.4243 32.0573 28.3459 32.4378 28.1899C32.8183 28.0339 33.1644 27.8033 33.456 27.5117C33.7476 27.22 33.979 26.8729 34.1368 26.4905C34.2946 26.1081 34.3756 25.6979 34.3752 25.2838Z" fill="url(#paint0_linear_1_305)"/>
<path d="M6.00133 28.8074C3.93512 26.3178 3.86287 23.8591 5.75539 22.056C6.57359 21.2822 7.65527 20.8549 8.77702 20.8622C9.89877 20.8695 10.9749 21.3109 11.7831 22.0952C13.6339 23.9039 13.545 26.3809 11.5052 28.7864C11.9637 28.9713 12.4084 29.1394 12.8461 29.3272C14.9776 30.2392 16.3074 31.8252 16.7743 34.1228C17.0063 35.2618 17.2106 36.4064 17.4551 37.5427C17.5704 38.0806 17.3815 38.3833 16.8868 38.564C11.4649 40.5347 6.04117 40.5366 0.61557 38.5696C0.198715 38.4183 -0.0791884 38.1773 0.0194673 37.6912C0.29737 36.2775 0.521083 34.8471 0.899031 33.4587C1.47985 31.318 2.95968 29.9786 4.96476 29.1829C5.28018 29.061 5.6081 28.9503 6.00133 28.8074ZM8.7498 38.7545C11.0968 38.7819 13.4319 38.4135 15.6585 37.6645C16.0587 37.5342 16.1656 37.3843 16.0753 36.9752C15.878 36.1346 15.7266 35.294 15.5654 34.4534C15.2152 32.6321 14.2064 31.3348 12.5182 30.5741C11.448 30.0712 10.2895 29.7875 9.10975 29.7394C7.93002 29.6913 6.75257 29.8798 5.64562 30.2939C3.55301 31.042 2.2413 32.4458 1.89392 34.7084C1.77859 35.465 1.61602 36.2173 1.43677 36.9612C1.33951 37.3619 1.42288 37.5216 1.83556 37.6617C4.06524 38.4114 6.40378 38.7789 8.75397 38.7489L8.7498 38.7545ZM8.77064 22.1428C8.1549 22.1385 7.55166 22.3181 7.03707 22.659C6.52247 23 6.11957 23.487 5.87921 24.0586C5.63885 24.6302 5.5718 25.2607 5.68652 25.8707C5.80125 26.4807 6.09261 27.0427 6.52383 27.4859C6.95506 27.9291 7.50682 28.2336 8.10949 28.3609C8.71216 28.4882 9.33874 28.4327 9.91014 28.2013C10.4815 27.9699 10.9722 27.5731 11.3201 27.0608C11.668 26.5486 11.8577 25.9439 11.8651 25.3231C11.8719 24.9084 11.797 24.4964 11.6447 24.1111C11.4924 23.7258 11.2658 23.3748 10.9779 23.0784C10.6901 22.7821 10.3468 22.5463 9.96787 22.3847C9.58897 22.2232 9.18203 22.139 8.77064 22.1372V22.1428Z" fill="url(#paint1_linear_1_305)"/>
<path d="M36.8847 7.69848C36.825 9.50297 36.0037 10.8928 34.7393 12.0416C33.2831 13.3697 31.5434 14.1669 29.6578 14.6292C29.1645 14.7497 28.9533 14.9879 28.8672 15.4922C28.6754 16.6131 28.4156 17.7254 28.1808 18.8406C28.1127 19.1657 28.0418 19.4935 27.643 19.5734C27.2262 19.6574 27.0191 19.387 26.8232 19.0746C26.1576 18.0099 25.4448 16.9731 24.8237 15.8817C24.4944 15.3031 24.0734 15.1182 23.4439 15.0593C20.9428 14.8268 18.6098 14.0786 16.5616 12.5572C16.0759 12.1985 15.6313 11.7864 15.236 11.3285C13.2518 9.02523 13.2449 6.19941 15.2485 3.91717C16.8131 2.14351 18.8307 1.1628 21.072 0.602404C25.071 -0.386703 28.97 -0.123315 32.6634 1.79606C34.5837 2.79357 36.1371 4.19037 36.7305 6.41936C36.8258 6.83918 36.8775 7.26786 36.8847 7.69848ZM27.197 17.3051C27.3999 16.3959 27.6528 15.6338 27.7222 14.8562C27.8056 13.9315 28.2892 13.6569 29.1117 13.4622C31.2377 12.9606 33.1928 12.0752 34.617 10.3085C35.969 8.62734 35.9551 6.6141 34.617 4.92029C33.7138 3.77147 32.5327 3.01773 31.2099 2.46574C28.2419 1.22165 25.1502 1.03251 22.0294 1.65316C19.9451 2.07346 17.9998 2.86222 16.4477 4.42013C14.5316 6.34651 14.5288 8.86831 16.4324 10.8157C16.9889 11.3783 17.6225 11.8576 18.3138 12.2391C20.2105 13.3039 22.2712 13.7676 24.4152 13.8909C24.6214 13.8908 24.8239 13.947 25.001 14.0536C25.1781 14.1601 25.3233 14.3131 25.4212 14.4961C25.9645 15.39 26.5398 16.2656 27.197 17.3051Z" fill="url(#paint2_linear_1_305)"/>
<path d="M13.4533 18.234C14.3593 17.661 15.1541 17.1945 15.9072 16.6663C16.3026 16.3792 16.7944 16.2609 17.2759 16.3371C19.07 16.5667 20.8906 16.466 22.6491 16.0401C22.738 16.019 22.8339 16.0218 22.927 16.0078C23.3161 15.9476 23.644 16.0415 23.7357 16.4632C23.8372 16.9311 23.5259 17.1637 23.1327 17.2463C21.318 17.654 19.481 17.8515 17.6274 17.6372C17.1246 17.559 16.6112 17.68 16.1948 17.9748C15.1596 18.6753 14.0925 19.331 13.0406 20.0077C12.7627 20.1898 12.4765 20.3467 12.1485 20.11C11.8206 19.8732 11.8706 19.5496 11.9401 19.2231C12.0888 18.5226 12.2069 17.8053 12.4112 17.1216C12.5654 16.6019 12.4793 16.3469 11.9568 16.1101C10.988 15.6615 10.1066 15.0418 9.35423 14.2804C6.91285 11.8595 6.88367 8.53629 9.2917 6.08173C10.2663 5.11252 11.4201 4.34567 12.6877 3.82472C13.0962 3.64819 13.4811 3.61037 13.684 4.0825C13.8868 4.55464 13.5825 4.81242 13.181 4.98615C12.111 5.45268 11.1161 6.0397 10.2824 6.86769C8.23428 8.89494 8.24262 11.4308 10.3047 13.4524C11.1152 14.2194 12.0567 14.8322 13.0837 15.2611C13.9563 15.6464 13.9924 15.7262 13.7784 16.6971C13.6812 17.1454 13.5881 17.598 13.4533 18.234Z" fill="url(#paint3_linear_1_305)"/>
<path d="M23.1327 8.26037C22.0475 8.26037 20.9609 8.23656 19.8771 8.27018C19.3212 8.28839 19.3824 7.95075 19.3727 7.5935C19.3629 7.23624 19.3921 6.98126 19.8757 6.98546C22.0452 7.00601 24.2151 7.00601 26.3855 6.98546C26.9414 6.97846 26.8802 7.30489 26.8899 7.66215C26.8997 8.0194 26.8705 8.28279 26.3869 8.27018C25.3031 8.24076 24.2179 8.26037 23.1327 8.26037Z" fill="url(#paint4_linear_1_305)"/>
<path d="M26.5926 10.7822C25.5991 10.7822 24.6042 10.7611 23.6107 10.792C23.1049 10.8074 23.1146 10.5118 23.1271 10.1657C23.1396 9.84769 23.0479 9.50585 23.5787 9.51005C25.5671 9.52826 27.5569 9.53246 29.5453 9.51005C30.1358 9.51005 29.9858 9.88131 30.0136 10.2105C30.0483 10.5958 29.9816 10.8172 29.5064 10.8004C28.5365 10.7583 27.5652 10.7822 26.5926 10.7822Z" fill="url(#paint5_linear_1_305)"/>
<path d="M22.8075 5.73844C22.5298 5.71998 22.2511 5.72279 21.9738 5.74685C21.3194 5.85192 21.1943 5.5381 21.236 4.96229C21.2624 4.61624 21.3249 4.45512 21.7029 4.46773C22.4407 4.49015 23.1813 4.49575 23.9191 4.46773C24.4416 4.44672 24.3791 4.78296 24.3818 5.11079C24.3846 5.43863 24.4277 5.78467 23.9122 5.74545C23.5481 5.71603 23.1771 5.73844 22.8075 5.73844Z" fill="url(#paint6_linear_1_305)"/>
<path d="M29.6801 5.73841C29.4024 5.72002 29.1237 5.72283 28.8464 5.74681C28.1711 5.85469 28.0891 5.49603 28.1169 4.94124C28.1363 4.56997 28.2683 4.45929 28.6171 4.4677C29.3563 4.48591 30.0955 4.49432 30.8334 4.4677C31.3183 4.45089 31.278 4.75911 31.2502 5.06172C31.2224 5.36434 31.417 5.76222 30.8514 5.74261C30.4665 5.7244 30.0733 5.73841 29.6801 5.73841Z" fill="url(#paint7_linear_1_305)"/>
<path d="M29.687 6.99516C29.9648 7.0119 30.2433 7.00956 30.5207 6.98816C31.1349 6.89849 31.3322 7.12826 31.2808 7.7517C31.2488 8.14118 31.153 8.28128 30.7625 8.26727C30.0678 8.24346 29.373 8.23085 28.6782 8.26727C28.1766 8.29529 28.1224 8.05152 28.1224 7.64103C28.1141 7.1913 28.1961 6.92371 28.7213 6.98396C29.0428 7.00581 29.3652 7.00955 29.687 6.99516Z" fill="url(#paint8_linear_1_305)"/>
<path d="M20.6301 10.7834C20.4451 10.772 20.2594 10.772 20.0743 10.7834C19.5616 10.8465 19.3518 10.691 19.3504 10.1109C19.3504 9.50991 19.6408 9.4889 20.0757 9.50851C20.4884 9.53654 20.9025 9.53654 21.3152 9.50851C21.7918 9.46788 21.8807 9.68364 21.8932 10.1151C21.9085 10.6153 21.7848 10.8661 21.2457 10.7876C21.0409 10.7717 20.8352 10.7703 20.6301 10.7834Z" fill="url(#paint9_linear_1_305)"/>
<path d="M26.2952 4.48468C26.8135 4.36419 26.8788 4.64999 26.901 5.09972C26.9274 5.6391 26.7232 5.74278 26.2299 5.75959C25.6435 5.7792 25.6366 5.48779 25.6157 5.04368C25.5921 4.49869 25.852 4.41042 26.2952 4.48468Z" fill="url(#paint10_linear_1_305)"/>
<defs>
<linearGradient id="paint0_linear_1_305" x1="22.509" y1="20.8652" x2="42.7358" y2="24.4033" gradientUnits="userSpaceOnUse">
<stop stop-color="#EC9F05"/>
<stop offset="1" stop-color="#FF4E00"/>
</linearGradient>
<linearGradient id="paint1_linear_1_305" x1="-0.000488281" y1="20.8621" x2="20.2235" y2="24.3984" gradientUnits="userSpaceOnUse">
<stop stop-color="#EC9F05"/>
<stop offset="1" stop-color="#FF4E00"/>
</linearGradient>
<linearGradient id="paint2_linear_1_305" x1="13.7468" y1="0.0393066" x2="39.971" y2="5.99181" gradientUnits="userSpaceOnUse">
<stop stop-color="#EC9F05"/>
<stop offset="1" stop-color="#FF4E00"/>
</linearGradient>
<linearGradient id="paint3_linear_1_305" x1="7.50427" y1="3.70312" x2="26.2066" y2="7.23005" gradientUnits="userSpaceOnUse">
<stop stop-color="#EC9F05"/>
<stop offset="1" stop-color="#FF4E00"/>
</linearGradient>
<linearGradient id="paint4_linear_1_305" x1="19.3713" y1="6.98535" x2="23.3393" y2="11.437" gradientUnits="userSpaceOnUse">
<stop stop-color="#EC9F05"/>
<stop offset="1" stop-color="#FF4E00"/>
</linearGradient>
<linearGradient id="paint5_linear_1_305" x1="23.1234" y1="9.51001" x2="27.1343" y2="13.6192" gradientUnits="userSpaceOnUse">
<stop stop-color="#EC9F05"/>
<stop offset="1" stop-color="#FF4E00"/>
</linearGradient>
<linearGradient id="paint6_linear_1_305" x1="21.2288" y1="4.4668" x2="24.3195" y2="5.90522" gradientUnits="userSpaceOnUse">
<stop stop-color="#EC9F05"/>
<stop offset="1" stop-color="#FF4E00"/>
</linearGradient>
<linearGradient id="paint7_linear_1_305" x1="28.1123" y1="4.46704" x2="31.2005" y2="5.90457" gradientUnits="userSpaceOnUse">
<stop stop-color="#EC9F05"/>
<stop offset="1" stop-color="#FF4E00"/>
</linearGradient>
<linearGradient id="paint8_linear_1_305" x1="28.1219" y1="6.96948" x2="31.2198" y2="8.41676" gradientUnits="userSpaceOnUse">
<stop stop-color="#EC9F05"/>
<stop offset="1" stop-color="#FF4E00"/>
</linearGradient>
<linearGradient id="paint9_linear_1_305" x1="19.3504" y1="9.50366" x2="22.007" y2="10.5022" gradientUnits="userSpaceOnUse">
<stop stop-color="#EC9F05"/>
<stop offset="1" stop-color="#FF4E00"/>
</linearGradient>
<linearGradient id="paint10_linear_1_305" x1="25.6143" y1="4.45703" x2="27.0972" y2="4.73828" gradientUnits="userSpaceOnUse">
<stop stop-color="#EC9F05"/>
<stop offset="1" stop-color="#FF4E00"/>
</linearGradient>
</defs>
</svg>
