<svg width="23" height="20" viewBox="0 0 23 20" fill="none" xmlns="http://www.w3.org/2000/svg">
<path d="M4.0612 0.887695C3.08874 0.887695 2.15611 1.274 1.46847 1.96164C0.78084 2.64927 0.394531 3.5819 0.394531 4.55436V4.92286L11.3945 10.8464L22.3945 4.9247V4.55436C22.3945 3.5819 22.0082 2.64927 21.3206 1.96164C20.633 1.274 19.7003 0.887695 18.7279 0.887695H4.0612ZM22.3945 7.00553L11.829 12.6944C11.6955 12.7662 11.5462 12.8039 11.3945 12.8039C11.2429 12.8039 11.0936 12.7662 10.96 12.6944L0.394531 7.00553V15.5544C0.394531 16.5268 0.78084 17.4595 1.46847 18.1471C2.15611 18.8347 3.08874 19.221 4.0612 19.221H18.7279C19.7003 19.221 20.633 18.8347 21.3206 18.1471C22.0082 17.4595 22.3945 16.5268 22.3945 15.5544V7.00553Z" fill="url(#paint0_linear_1_385)"/>
<defs>
<linearGradient id="paint0_linear_1_385" x1="0.394531" y1="0.887695" x2="25.2949" y2="6.61828" gradientUnits="userSpaceOnUse">
<stop stop-color="#EC9F05"/>
<stop offset="1" stop-color="#FF4E00"/>
</linearGradient>
</defs>
</svg>
