<svg width="46" height="46" viewBox="0 0 46 46" fill="none" xmlns="http://www.w3.org/2000/svg">
<path d="M42.085 43.5984C40.7136 42.4011 39.3423 41.2054 37.9709 40.0113C34.9157 37.3608 31.8372 34.7151 28.7992 32.0347C28.3306 31.6208 28.0354 31.6319 27.5497 31.9746C26.4844 32.7249 25.3442 33.3678 24.2696 34.1165C23.3043 34.7973 22.4249 34.7672 21.4706 34.0959C20.4038 33.3472 19.2839 32.6744 18.1905 31.9573C17.8953 31.7614 17.6954 31.7029 17.383 31.9762C13.0096 35.7955 8.63307 39.6054 4.2534 43.4057C4.17802 43.4809 4.10659 43.5599 4.03942 43.6427C4.31588 43.8575 4.60953 43.7564 4.87505 43.7564C9.42966 43.7648 13.9843 43.7648 18.5389 43.7564C19.1152 43.7564 19.6666 43.818 19.765 44.5462C19.8337 45.0611 19.6197 45.4244 19.0808 45.5049C18.8217 45.5361 18.5607 45.5483 18.2999 45.5413C13.0934 45.5413 7.88698 45.5413 2.68054 45.5413C0.954599 45.5476 0.396988 44.9884 0.396988 43.2478C0.396988 35.666 0.396988 28.0842 0.396988 20.5025C0.382262 20.2429 0.429661 19.9837 0.535164 19.7466C0.640667 19.5096 0.801158 19.3018 1.00302 19.1409C2.74926 17.6498 4.45802 16.105 6.20582 14.6155C6.39943 14.4687 6.55381 14.2755 6.65499 14.0532C6.75616 13.8309 6.80095 13.5866 6.7853 13.3424C6.75562 11.447 6.76812 9.55154 6.77593 7.65609C6.77593 6.26294 7.43819 5.57269 8.82675 5.56005C11.1176 5.5411 13.4084 5.5411 15.6993 5.56005C15.9551 5.57707 16.2118 5.54117 16.4535 5.45454C16.6951 5.3679 16.9168 5.23236 17.105 5.05618C18.5545 3.73569 20.0446 2.46258 21.5206 1.17052C22.4577 0.346003 23.3465 0.349162 24.2961 1.18158C25.8097 2.50839 27.3294 3.8273 28.8258 5.16833C28.9669 5.3003 29.1324 5.40283 29.3128 5.47005C29.4931 5.53727 29.6849 5.56785 29.8769 5.56005C32.1667 5.54268 34.4581 5.54741 36.7494 5.56005C38.3848 5.56005 39.0143 6.19186 39.0174 7.83774C39.0174 9.70633 39.0314 11.5749 39.008 13.4435C38.994 13.649 39.0302 13.8548 39.1136 14.0427C39.197 14.2306 39.3249 14.3948 39.486 14.5208C41.2681 16.0561 43.0237 17.6245 44.8043 19.1614C44.9974 19.3136 45.1516 19.5103 45.2541 19.7351C45.3565 19.9599 45.4042 20.2062 45.3932 20.4535C45.3807 28.1111 45.3807 35.7692 45.3932 43.4278C45.3932 44.9158 44.7856 45.546 43.308 45.5492C37.9475 45.5565 32.5848 45.5565 27.2201 45.5492C26.6219 45.5492 26.0205 45.5207 26.008 44.6915C25.9955 43.9491 26.5 43.7706 27.1014 43.7674C28.6899 43.758 30.2768 43.7674 31.8637 43.7674H42.0069L42.085 43.5984ZM22.9326 7.37336C18.403 7.37336 13.8734 7.38599 9.35156 7.35914C8.72678 7.35914 8.50968 7.4855 8.51436 8.17102C8.5456 13.0908 8.5456 18.0105 8.51436 22.9302C8.51436 23.4594 8.70492 23.72 9.11414 23.9853C13.5219 26.8159 17.9214 29.659 22.3125 32.5148C22.7467 32.7976 23.0372 32.8039 23.4746 32.5148C27.8615 29.6538 32.2604 26.8106 36.6714 23.9853C37.0837 23.7216 37.2727 23.453 37.2696 22.927C37.2467 18.0073 37.2467 13.0876 37.2696 8.16786C37.2696 7.48077 37.0556 7.35282 36.4308 7.35598C31.9356 7.38599 27.4341 7.37336 22.9326 7.37336ZM2.19477 21.6176V42.8513L16.2038 30.6715L2.19477 21.6176ZM43.6204 21.605L29.7785 30.5499L43.6204 42.5733V21.605ZM39.0595 22.4327C40.3325 21.6066 41.5055 20.8452 42.6801 20.087C42.8363 19.9828 42.9097 19.877 42.7363 19.7253L39.0595 16.511V22.4327ZM6.73376 16.511C5.44204 17.6403 4.26902 18.667 3.09445 19.6906C2.90545 19.8485 2.90389 19.9623 3.12413 20.1028C4.2987 20.8531 5.46703 21.6145 6.73376 22.4358V16.511ZM19.2761 5.51108H26.5094C25.2973 4.44332 24.2087 3.48928 23.1263 2.52734C22.9107 2.33622 22.7639 2.44047 22.5936 2.5921C21.5393 3.51929 20.4819 4.44648 19.2761 5.50635V5.51108Z" fill="url(#paint0_linear_75_52)"/>
<path d="M22.8545 45.5002C22.3094 45.4386 21.9986 45.0958 22.0236 44.5698C22.022 44.4572 22.0436 44.3454 22.0869 44.2416C22.1302 44.1378 22.1943 44.0442 22.2751 43.9668C22.356 43.8893 22.4519 43.8296 22.5567 43.7915C22.6615 43.7534 22.773 43.7376 22.8842 43.7453C23.4465 43.7453 23.7729 44.107 23.7667 44.6283C23.7604 45.1495 23.4277 45.4844 22.8545 45.5002Z" fill="url(#paint1_linear_75_52)"/>
<path d="M31.6576 22.0915C31.7044 23.5462 30.661 24.3392 29.2209 23.9095C27.2076 23.303 25.2037 22.6712 23.2013 22.0567C23.0451 22.0125 22.906 21.9572 22.7561 21.9241C21.9189 21.7424 21.7143 21.913 21.8189 22.7344C21.8752 23.2082 21.9626 23.6647 22.0345 24.1307C22.275 25.6944 21.3254 27.0307 19.804 27.274C18.3889 27.5014 17.041 26.4431 16.8098 24.9252C16.7654 24.6932 16.7326 24.4592 16.7114 24.2239C16.6724 23.3788 16.538 22.6301 15.4291 22.7107C15.3897 22.7081 15.3513 22.6972 15.3163 22.6787C15.2813 22.6602 15.2506 22.6345 15.226 22.6033C14.5419 21.6666 13.6188 22.052 12.755 22.1531C11.6258 22.2842 10.9604 21.8609 10.7011 20.7442C10.5457 20.1078 10.4428 19.4596 10.3934 18.8061C10.3262 17.7904 10.9588 17.0544 11.9553 16.8901C12.2852 16.8207 12.6191 16.7722 12.955 16.7448C13.4235 16.7306 13.6984 16.5568 13.8921 16.0972C14.1342 15.5317 14.6512 15.2616 15.2541 15.1684C16.9473 14.9046 18.6373 14.6298 20.3304 14.3786C20.9468 14.3042 21.5323 14.0649 22.0267 13.6852C23.6927 12.3868 25.3802 11.1142 27.0889 9.86747C28.2775 8.99398 29.7005 9.52629 29.9457 10.9731C30.5439 14.516 31.0765 18.0684 31.6326 21.6176C31.6544 21.7756 31.6482 21.9351 31.6576 22.0915ZM28.2213 11.2322C26.347 12.638 24.6445 13.9174 22.9388 15.2079C22.7733 15.3327 22.6093 15.4432 22.6546 15.7133C22.8873 17.0844 23.1028 18.457 23.3231 19.8296C23.3621 20.0728 23.4324 20.2592 23.7136 20.3445C25.7613 20.9653 27.8043 21.6082 29.9441 22.2652C29.3615 18.5644 28.8008 14.9741 28.2166 11.2322H28.2213ZM16.4396 21.0064C18.0234 20.7489 19.6041 20.4804 21.1895 20.2387C21.6581 20.166 21.5175 19.847 21.4816 19.5911C21.3254 18.5565 21.1504 17.5266 21.013 16.4905C20.963 16.1209 20.7849 16.075 20.4835 16.124C18.9007 16.3831 17.318 16.6379 15.7352 16.8885C15.5275 16.9201 15.401 16.9627 15.4447 17.2265C15.6415 18.3859 15.832 19.5469 16.0039 20.711C16.046 21.0127 16.2069 21.03 16.435 21.0064H16.4396ZM20.2914 24.4355C20.2195 23.9427 20.1227 23.4531 20.0836 22.9602C20.0383 22.4011 19.8462 22.2684 19.2496 22.3284C18.4249 22.4121 18.1062 22.6601 18.3686 23.5068C18.4826 23.8764 18.4858 24.2792 18.5576 24.663C18.6638 25.2316 18.9996 25.5617 19.5854 25.4701C20.1383 25.3848 20.3273 24.9741 20.2867 24.4355H20.2914ZM12.7566 20.4188C13.2017 20.1455 14.0171 20.5388 14.0358 19.8928C14.0483 19.5011 14.4076 18.5312 13.4407 18.5075C13.0096 18.4965 12.2583 18.3496 12.2052 18.9988C12.1709 19.4173 12.035 20.1597 12.7566 20.4188Z" fill="url(#paint2_linear_75_52)"/>
<path d="M33.546 11.3569C33.8974 11.3206 34.141 11.5148 34.3269 11.8307C34.409 11.9653 34.4458 12.1232 34.4317 12.2806C34.4176 12.4381 34.3535 12.5867 34.2488 12.7042C33.9828 13.0575 33.6506 13.3544 33.2711 13.5777C33.1253 13.6649 32.9559 13.7029 32.7874 13.6861C32.6189 13.6694 32.46 13.5988 32.3339 13.4845C32.2079 13.3914 32.1108 13.264 32.0538 13.1172C31.9968 12.9703 31.9824 12.8101 32.0121 12.6553C32.0949 12.1703 33.0305 11.3664 33.546 11.3569Z" fill="url(#paint3_linear_75_52)"/>
<path d="M34.3269 14.8082C34.9267 14.7703 35.2734 15.0514 35.2969 15.6596C35.3203 16.2677 34.6518 16.7131 33.6475 16.7147C33.1023 16.7147 32.7572 16.443 32.7103 15.876C32.6713 15.2094 33.2664 14.824 34.3269 14.8082Z" fill="url(#paint4_linear_75_52)"/>
<path d="M35.5812 19.5847C35.5562 20.1012 35.2516 20.406 34.7002 20.4202C33.8724 20.4439 33.0633 19.8943 33.0321 19.3146C33.0008 18.7349 33.3351 18.4285 33.8599 18.3842C34.6784 18.321 35.5671 18.9386 35.5812 19.5847Z" fill="url(#paint5_linear_75_52)"/>
<defs>
<linearGradient id="paint0_linear_75_52" x1="0.394363" y1="0.554688" x2="52.1224" y2="10.4754" gradientUnits="userSpaceOnUse">
<stop stop-color="#EC9F05"/>
<stop offset="1" stop-color="#FF4E00"/>
</linearGradient>
<linearGradient id="paint1_linear_75_52" x1="22.0222" y1="43.7434" x2="24.0286" y2="44.1255" gradientUnits="userSpaceOnUse">
<stop stop-color="#EC9F05"/>
<stop offset="1" stop-color="#FF4E00"/>
</linearGradient>
<linearGradient id="paint2_linear_75_52" x1="10.3885" y1="9.44434" x2="34.4816" y2="14.9472" gradientUnits="userSpaceOnUse">
<stop stop-color="#EC9F05"/>
<stop offset="1" stop-color="#FF4E00"/>
</linearGradient>
<linearGradient id="paint3_linear_75_52" x1="31.9971" y1="11.3525" x2="34.7904" y2="11.9112" gradientUnits="userSpaceOnUse">
<stop stop-color="#EC9F05"/>
<stop offset="1" stop-color="#FF4E00"/>
</linearGradient>
<linearGradient id="paint4_linear_75_52" x1="32.7085" y1="14.8048" x2="35.5986" y2="15.5562" gradientUnits="userSpaceOnUse">
<stop stop-color="#EC9F05"/>
<stop offset="1" stop-color="#FF4E00"/>
</linearGradient>
<linearGradient id="paint5_linear_75_52" x1="33.0301" y1="18.3798" x2="35.9052" y2="19.0689" gradientUnits="userSpaceOnUse">
<stop stop-color="#EC9F05"/>
<stop offset="1" stop-color="#FF4E00"/>
</linearGradient>
</defs>
</svg>
