<svg width="40" height="38" viewBox="0 0 40 38" fill="none" xmlns="http://www.w3.org/2000/svg">
<path d="M20.0007 37.4098C14.1908 37.4098 8.38094 37.4098 2.57104 37.4098C2.13488 37.4098 1.69455 37.4418 1.27367 37.257C0.845874 37.0717 0.491341 36.7501 0.265245 36.3424C0.0391478 35.9347 -0.0458313 35.4636 0.0235315 35.0026C0.105604 34.5196 0.350665 34.0793 0.717901 33.7551C1.08514 33.4308 1.55238 33.2421 2.04181 33.2205C2.52381 33.1941 3.15304 33.4316 3.44891 33.1218C3.79478 32.7579 3.54614 32.1078 3.56837 31.5828C3.59198 31.0272 3.57809 30.4716 3.5767 29.9159C3.5767 29.5409 3.73505 29.2589 4.12537 29.2534C4.54209 29.2534 4.73933 29.5006 4.73516 29.927C4.72544 30.8522 4.74766 31.7786 4.72544 32.7051C4.71711 33.0843 4.81434 33.2344 5.22411 33.2302C7.02801 33.2107 8.83377 33.2107 10.6414 33.2302C11.0581 33.2302 11.1345 33.0718 11.1317 32.7024C11.1178 30.5262 11.1178 28.35 11.1317 26.1739C11.1317 25.7349 11.0122 25.5543 10.5441 25.5599C8.80969 25.5803 7.07385 25.5803 5.33662 25.5599C4.8949 25.5599 4.68932 25.6821 4.72822 26.1489C4.75607 26.4724 4.75607 26.7977 4.72822 27.1212C4.72825 27.1971 4.7123 27.2723 4.68142 27.3417C4.65053 27.4111 4.6054 27.4732 4.54894 27.524C4.49248 27.5748 4.42597 27.6132 4.35371 27.6367C4.28146 27.6601 4.20508 27.6681 4.12954 27.6601C4.05908 27.6634 3.98872 27.6518 3.92302 27.6261C3.85732 27.6004 3.79773 27.5612 3.74812 27.5111C3.6985 27.461 3.65996 27.401 3.63498 27.335C3.61 27.269 3.59913 27.1986 3.60309 27.1281C3.5892 26.5725 3.5517 26.01 3.6406 25.4613C3.67273 25.179 3.80783 24.9185 4.02003 24.7296C4.23223 24.5408 4.50664 24.4368 4.79072 24.4376C6.89512 24.3625 9.00091 24.3431 11.1039 24.4459C11.8748 24.4834 12.2791 25.0487 12.286 25.9627C12.2999 28.1143 12.3138 30.2688 12.2777 32.4204C12.2679 33.0413 12.4166 33.2899 13.0722 33.2274C13.695 33.1704 14.3218 33.1704 14.9446 33.2274C15.5516 33.2802 15.6739 33.0399 15.6614 32.4829C15.6253 30.8869 15.6489 29.2881 15.6489 27.6921C15.6489 24.8214 15.6489 21.9507 15.6489 19.08C15.6489 17.6396 16.0809 17.2048 17.4963 17.202C18.9779 17.202 20.4596 17.202 21.9412 17.202C24.1526 17.202 24.3762 17.4229 24.3762 19.6037C24.3762 23.8625 24.3901 28.1213 24.3609 32.3829C24.3609 33.0329 24.4887 33.3038 25.1874 33.2302C25.8102 33.1712 26.4371 33.1712 27.0599 33.2302C27.6335 33.2774 27.7474 33.0496 27.7433 32.5246C27.7197 29.9784 27.7322 27.4323 27.7322 24.8848C27.7322 21.6215 27.7322 18.3582 27.7322 15.0949C27.7322 14.8629 27.7322 14.6309 27.7516 14.4003C27.7483 14.3302 27.7599 14.2602 27.7855 14.1949C27.8112 14.1295 27.8503 14.0704 27.9004 14.0212C27.9505 13.972 28.0104 13.934 28.0762 13.9096C28.142 13.8851 28.2122 13.8749 28.2822 13.8794C28.3572 13.8717 28.4329 13.8797 28.5046 13.903C28.5762 13.9263 28.6422 13.9644 28.6982 14.0148C28.7542 14.0652 28.7991 14.1268 28.8298 14.1956C28.8606 14.2644 28.8765 14.3389 28.8767 14.4142C28.8962 14.6198 28.8864 14.8309 28.8864 15.0379C28.8864 20.8483 28.8976 26.6572 28.8726 32.4676C28.8726 33.0774 29.0115 33.2469 29.631 33.2302C31.32 33.183 33.0105 33.1996 34.6996 33.2232C35.1469 33.2302 35.2885 33.108 35.2872 32.6454C35.2733 25.3548 35.2733 18.0637 35.2872 10.7722C35.2872 10.3291 35.1594 10.154 34.6982 10.1582C32.9619 10.1758 31.2256 10.1758 29.4893 10.1582C29.049 10.1582 28.842 10.286 28.8851 10.7527C28.9052 11.0529 28.9052 11.354 28.8851 11.6542C28.867 12.0015 28.6864 12.2209 28.3294 12.2348C27.9725 12.2487 27.7599 12.039 27.7544 11.6875C27.7265 11.1611 27.7348 10.6334 27.7794 10.1082C27.8502 9.49979 28.3794 9.06224 29.0378 9.0303C29.662 8.99627 30.2875 8.99627 30.9117 9.0303C31.4089 9.06085 31.534 8.8775 31.5284 8.40106C31.5062 6.13275 31.5353 3.86306 31.5076 1.59475C31.5076 0.950236 31.6909 0.661315 32.3702 0.672427C34.0606 0.700208 35.7497 0.68354 37.4402 0.680762C37.9027 0.680762 38.3041 0.748825 38.5208 1.2461C38.7278 1.71838 38.4889 2.04202 38.2278 2.37539C38.2139 2.39345 38.1986 2.41012 38.1833 2.42818C37.4818 3.29216 37.4888 3.29077 38.1833 4.17837C38.4611 4.52424 38.7473 4.85483 38.5139 5.36045C38.2805 5.86606 37.8527 5.94107 37.3638 5.94107C35.9747 5.94107 34.5857 5.95218 33.1966 5.93412C32.7897 5.93412 32.6132 6.02996 32.641 6.47307C32.6744 7.14259 32.6744 7.81627 32.641 8.48579C32.6174 8.9289 32.791 9.04141 33.1966 9.02474C33.7967 8.99696 34.3996 9.00251 35.0024 9.02474C35.8719 9.05391 36.3651 9.54285 36.4234 10.4138C36.4387 10.6444 36.4317 10.8763 36.4317 11.1083C36.4317 18.1906 36.4317 25.2747 36.4317 32.3607C36.4317 33.3608 36.34 33.2232 37.3346 33.2357C37.7735 33.2427 38.2111 33.2066 38.6361 33.3747C39.0818 33.547 39.4566 33.864 39.7007 34.2748C39.9447 34.6856 40.0438 35.1664 39.9821 35.6402C39.9137 36.1098 39.6845 36.5411 39.3338 36.8608C38.983 37.1804 38.5322 37.3686 38.0583 37.3932C37.7805 37.4126 37.5027 37.4098 37.2249 37.4098H20.0007ZM16.8059 25.7752C16.8059 28.063 16.8059 30.359 16.8059 32.6399C16.8059 33.0052 16.8171 33.2371 17.3032 33.2302C19.109 33.2024 20.9147 33.2066 22.7122 33.2302C23.14 33.2302 23.1941 33.0538 23.1941 32.694C23.1849 28.1167 23.1849 23.5398 23.1941 18.9633C23.1941 18.505 23.033 18.3619 22.5885 18.366C20.8786 18.3827 19.1673 18.3897 17.4574 18.366C16.9254 18.3577 16.7934 18.5536 16.799 19.0606C16.8296 21.29 16.8171 23.5333 16.8171 25.7752H16.8059ZM20.0007 34.4067H2.79189C2.5377 34.4067 2.28211 34.4067 2.02931 34.4303C1.47369 34.4817 1.17921 34.8262 1.19588 35.3513C1.21255 35.8763 1.54314 36.1847 2.07376 36.2555C2.2813 36.2708 2.48957 36.2736 2.69744 36.2639H37.3235C38.3486 36.2639 38.8167 35.9791 38.832 35.3457C38.8473 34.7123 38.3861 34.4067 37.3527 34.4067H20.0007ZM37.0526 1.817C35.6705 1.817 34.3773 1.82533 33.0841 1.817C32.7563 1.817 32.6355 1.91979 32.6452 2.25316C32.6646 2.92407 32.6744 3.59636 32.6452 4.26449C32.6244 4.68954 32.8091 4.7576 33.1758 4.75205C34.2162 4.7326 35.2594 4.75205 36.2984 4.73954C36.5303 4.73954 36.7901 4.82844 37.0096 4.64231C36.0678 3.37828 36.0678 3.37828 37.0526 1.817Z" fill="url(#paint0_linear_1_321)"/>
<path d="M24.4777 5.32717C23.8873 5.18827 23.4567 5.11187 23.0372 4.99241C22.6566 4.88268 22.3233 4.6771 22.4816 4.20344C22.6108 3.81173 22.908 3.72144 23.315 3.82979C24.2054 4.06731 25.1041 4.27984 26.0042 4.47708C26.6112 4.60904 26.8057 4.96047 26.664 5.53692C26.4381 6.45461 26.2079 7.37184 25.9737 8.28861C25.875 8.68449 25.6361 8.89979 25.218 8.79145C24.8208 8.68866 24.7569 8.39001 24.8402 8.02886C24.9624 7.49547 25.0777 6.96069 25.2222 6.30367C24.0207 6.94402 22.9247 7.52464 21.8329 8.10943C15.9165 11.294 9.99782 14.4773 4.0768 17.6591C3.66009 17.8813 3.14475 18.3744 2.78221 17.6688C2.45162 17.0229 3.09753 16.8646 3.50174 16.6479C10.2738 13.0002 17.0472 9.35586 23.822 5.71472C24.0012 5.61887 24.1679 5.50914 24.4777 5.32717Z" fill="url(#paint1_linear_1_321)"/>
<defs>
<linearGradient id="paint0_linear_1_321" x1="0" y1="0.672119" x2="45.6798" y2="10.2101" gradientUnits="userSpaceOnUse">
<stop stop-color="#EC9F05"/>
<stop offset="1" stop-color="#FF4E00"/>
</linearGradient>
<linearGradient id="paint1_linear_1_321" x1="2.69116" y1="3.78735" x2="28.6056" y2="12.1653" gradientUnits="userSpaceOnUse">
<stop stop-color="#EC9F05"/>
<stop offset="1" stop-color="#FF4E00"/>
</linearGradient>
</defs>
</svg>
