<svg width="51" height="51" viewBox="0 0 51 51" fill="none" xmlns="http://www.w3.org/2000/svg">
<path d="M39.7676 17.0309C40.6911 15.441 41.5955 13.8373 42.545 12.2614C43.5761 10.5535 45.3484 9.78289 47.2891 10.1387C49.0962 10.4685 50.5057 11.9333 50.8338 13.8408C51.0403 15.0401 50.6897 16.111 50.0908 17.1385C46.7174 22.9575 43.3493 28.7811 39.9863 34.6093C39.7226 35.0559 39.5902 35.5679 39.6044 36.0863C39.6218 39.5871 39.6148 43.0861 39.6044 46.5869C39.6044 48.8779 38.4292 50.0443 36.1327 50.046C33.9339 50.046 31.7352 50.046 29.5364 50.046C29.0382 50.046 28.632 49.9124 28.4272 49.3986C28.361 49.2383 28.3422 49.0623 28.373 48.8916C28.4037 48.7209 28.4828 48.5625 28.6008 48.4353C28.8472 48.1229 29.1944 48.1264 29.5468 48.1264C31.7166 48.1264 33.8865 48.1264 36.0563 48.1264C37.2923 48.1264 37.5978 47.8261 37.5995 46.5973C37.5995 44.1414 37.5995 41.6855 37.5995 39.1897C37.169 39.2348 37.1082 39.5698 37.011 39.7884C36.5198 40.8906 35.6848 41.6282 34.6902 42.2721C32.9682 43.3847 31.2896 44.5649 29.6023 45.7312C29.1753 46.0263 28.7587 46.2519 28.2432 45.9951C27.7276 45.7382 27.7502 45.2591 27.7832 44.7905C27.9614 42.253 28.1425 39.7167 28.3265 37.1815C28.3678 36.8356 28.4903 36.5043 28.6841 36.2148C29.0312 35.6195 29.3784 35.0189 29.7343 34.3872C29.4183 34.1511 29.0937 34.2518 28.8021 34.2501C22.6687 34.2431 16.5353 34.2431 10.4019 34.2501C10.1121 34.2691 9.821 34.2563 9.53395 34.2119C8.99236 34.0904 8.6556 33.7346 8.71636 33.1583C8.72035 33.0416 8.74758 32.9268 8.79646 32.8208C8.84535 32.7147 8.9149 32.6194 9.00106 32.5406C9.08722 32.4617 9.18824 32.4008 9.29823 32.3614C9.40821 32.3221 9.52493 32.3051 9.64158 32.3114C9.93147 32.3027 10.2196 32.3009 10.5095 32.3009C17.0491 32.3009 23.5876 32.3044 30.1248 32.3114C30.7098 32.3114 31.0501 32.1604 31.3538 31.6171C33.2876 28.1979 35.2613 24.8013 37.2384 21.4081C37.4872 20.9884 37.6134 20.5074 37.603 20.0196C37.5926 14.5524 37.5926 9.08574 37.603 3.61967C37.603 2.23117 37.3356 1.97603 35.9122 1.97603H4.49299C3.1338 1.97603 2.80919 2.29886 2.80919 3.65091C2.80919 15.0482 2.80167 26.4455 2.78663 37.8428C2.78663 38.721 3.05742 38.8963 3.8594 38.8668C5.50674 38.8078 7.15755 38.8321 8.80489 38.8547C10.9504 38.8859 12.0458 39.9985 12.0631 42.1524C12.0787 43.8585 12.0944 45.5664 12.0527 47.2725C12.0371 47.9338 12.1985 48.1663 12.9085 48.1524C15.3387 48.1073 17.7689 48.1524 20.1991 48.1264C20.8935 48.1177 21.4142 48.2809 21.5184 49.0394C21.593 49.6416 21.0393 50.0495 20.1905 50.0512C17.269 50.0512 14.3475 50.0512 11.4261 50.0616C11.1825 50.0664 10.9407 50.0186 10.7173 49.9216C10.4938 49.8246 10.2939 49.6805 10.1311 49.4993C7.23798 46.5857 4.33329 43.682 1.41703 40.7882C1.24088 40.6194 1.10307 40.4147 1.01293 40.188C0.922781 39.9613 0.882404 39.7179 0.89453 39.4743C0.903788 27.3538 0.907839 15.2339 0.906681 3.1146C0.906681 1.29913 2.14088 0.0633656 3.95834 0.0546875C14.8075 0.0546875 25.6561 0.0546875 36.5042 0.0546875C38.3772 0.0633656 39.6044 1.33905 39.6044 3.27602C39.6183 7.52831 39.6044 11.7806 39.6044 16.0329V16.984L39.7676 17.0309ZM42.2221 17.0829C41.8871 17.1072 41.8385 17.3745 41.7309 17.5602C38.1504 23.753 34.5698 29.9434 30.9893 36.1315C30.755 36.5359 30.7463 36.7563 31.1959 36.9993C32.3091 37.6068 33.4085 38.2432 34.494 38.9085C34.9401 39.1827 35.1519 39.1254 35.4192 38.6603C38.9813 32.456 42.5589 26.261 46.1521 20.0752C46.4368 19.5857 46.3153 19.3931 45.8761 19.1536C44.7895 18.56 43.7237 17.9265 42.6474 17.3086L42.2221 17.0829ZM48.9781 14.6079C48.9679 14.0581 48.7884 13.5249 48.4641 13.0808C48.1398 12.6366 47.6865 12.3032 47.1659 12.126C46.6708 11.962 46.1365 11.9594 45.6399 12.1185C45.1433 12.2776 44.71 12.5901 44.4024 13.0112C43.9736 13.6186 43.6438 14.2955 43.2463 14.9204C43.0519 15.2293 43.1716 15.3612 43.4424 15.5139C44.6385 16.196 45.8275 16.8903 47.0235 17.5845C47.185 17.6765 47.395 17.8813 47.5443 17.6158C48.0894 16.6161 48.8584 15.7153 48.9781 14.6079ZM4.48431 40.8159L10.1137 46.4828C10.1137 44.8738 10.1398 43.2962 10.0998 41.7219C10.0842 41.1075 9.64679 40.8229 9.03923 40.8229L4.48431 40.8159ZM33.5983 40.6302L30.2689 38.721C29.986 40.2015 30.0415 41.6057 29.8593 43.1833L33.5983 40.6302Z" fill="url(#paint0_linear_1_169)"/>
<path d="M20.2547 10.4182C23.6107 10.4182 26.9621 10.4182 30.3088 10.4182C30.656 10.4182 31.0032 10.3522 31.3139 10.5744C31.6246 10.7965 31.819 11.0846 31.7618 11.4526C31.741 11.6254 31.6755 11.7898 31.5716 11.9295C31.4678 12.0693 31.3293 12.1795 31.1698 12.2492C30.8704 12.3619 30.5494 12.4058 30.2307 12.3777H10.2144C10.0408 12.3868 9.86668 12.3827 9.69365 12.3655C9.1104 12.2805 8.70594 11.9715 8.73198 11.3502C8.75802 10.7288 9.15032 10.432 9.7735 10.4303C11.0152 10.4303 12.2575 10.4303 13.5004 10.4303L20.2547 10.4182Z" fill="url(#paint1_linear_1_169)"/>
<path d="M20.2686 21.363H30.4043C30.8383 21.363 31.2723 21.3335 31.5691 21.7622C31.6611 21.8833 31.722 22.0251 31.7462 22.1752C31.7705 22.3254 31.7575 22.4792 31.7082 22.6231C31.659 22.767 31.5751 22.8965 31.464 23.0004C31.3528 23.1042 31.2178 23.1791 31.0709 23.2184C30.765 23.2966 30.4488 23.327 30.1335 23.3086C23.5453 23.3086 16.9583 23.3086 10.3724 23.3086C10.1988 23.3086 10.0252 23.3086 9.85163 23.3086C9.19026 23.2722 8.70595 22.9841 8.73373 22.2673C8.75803 21.5973 9.22151 21.3578 9.86378 21.3578C13.3332 21.367 16.8015 21.3688 20.2686 21.363Z" fill="url(#paint2_linear_1_169)"/>
<path d="M23.2977 28.729C20.8987 28.729 18.4997 28.7168 16.099 28.729C15.4255 28.729 14.9533 28.5277 14.87 27.8178C14.8006 27.219 15.3075 26.7764 16.0851 26.7764C20.9143 26.7672 25.7424 26.7672 30.5692 26.7764C31.2497 26.7764 31.7496 27.0975 31.7566 27.7605C31.7635 28.4235 31.2879 28.7359 30.5848 28.7307C28.1477 28.7168 25.7262 28.729 23.2977 28.729Z" fill="url(#paint3_linear_1_169)"/>
<path d="M13.9587 17.7945C12.5995 17.7945 11.2403 17.7824 9.88113 17.7945C9.23886 17.7945 8.77191 17.5585 8.73893 16.8955C8.70595 16.196 9.16942 15.8489 9.84468 15.8489C12.6221 15.8408 15.3995 15.8408 18.1769 15.8489C18.8382 15.8489 19.3225 16.1249 19.3104 16.859C19.2982 17.5932 18.7896 17.7998 18.1282 17.7945C16.7361 17.7859 15.3474 17.7945 13.9587 17.7945Z" fill="url(#paint4_linear_1_169)"/>
<path d="M19.1108 39.6635C17.7828 39.6635 16.4549 39.6496 15.1287 39.6635C14.4343 39.6739 13.9622 39.391 13.9674 38.695C13.9726 37.999 14.4881 37.7126 15.1443 37.7126C17.8303 37.7126 20.5151 37.7126 23.1987 37.7126C23.8601 37.7126 24.3513 37.9886 24.3496 38.7106C24.3479 39.4327 23.8566 39.667 23.1814 39.66C21.8257 39.6513 20.4682 39.6635 19.1108 39.6635Z" fill="url(#paint5_linear_1_169)"/>
<path d="M27.1166 17.7946C25.9344 17.7946 24.7523 17.7842 23.5702 17.7946C22.9245 17.7946 22.4731 17.5429 22.4523 16.8782C22.4297 16.1666 22.9054 15.8541 23.5719 15.8524C25.9084 15.8489 28.2449 15.8489 30.5779 15.8489C31.2566 15.8489 31.7513 16.177 31.7513 16.8382C31.7513 17.4995 31.274 17.8171 30.5744 17.8015C29.4253 17.7755 28.2709 17.7946 27.1166 17.7946Z" fill="url(#paint6_linear_1_169)"/>
<path d="M10.48 28.7256C10.2214 28.7256 9.95924 28.7256 9.70233 28.7256C9.11734 28.7134 8.76843 28.3923 8.73545 27.8317C8.69726 27.2156 9.08263 26.8632 9.67109 26.8025C10.1585 26.7651 10.6479 26.7587 11.1362 26.7834C11.7645 26.799 12.2089 27.0715 12.2159 27.7536C12.2159 28.493 11.7645 28.7551 11.0806 28.7256C10.8793 28.7169 10.6779 28.7256 10.4748 28.7256H10.48Z" fill="url(#paint7_linear_1_169)"/>
<path d="M23.992 48.8866C24.1187 48.3364 24.4989 48.0518 25.1082 48.1438C25.6914 48.2323 25.957 48.6367 25.8859 49.1956C25.8147 49.7544 25.4241 50.079 24.8582 50.0217C24.2541 49.961 23.9556 49.5652 23.992 48.8866Z" fill="url(#paint8_linear_1_169)"/>
<defs>
<linearGradient id="paint0_linear_1_169" x1="0.892426" y1="0.0546875" x2="58.3692" y2="11.0764" gradientUnits="userSpaceOnUse">
<stop stop-color="#EC9F05"/>
<stop offset="1" stop-color="#FF4E00"/>
</linearGradient>
<linearGradient id="paint1_linear_1_169" x1="8.73079" y1="10.409" x2="13.3104" y2="20.6453" gradientUnits="userSpaceOnUse">
<stop stop-color="#EC9F05"/>
<stop offset="1" stop-color="#FF4E00"/>
</linearGradient>
<linearGradient id="paint2_linear_1_169" x1="8.73259" y1="21.3578" x2="13.2337" y2="31.5193" gradientUnits="userSpaceOnUse">
<stop stop-color="#EC9F05"/>
<stop offset="1" stop-color="#FF4E00"/>
</linearGradient>
<linearGradient id="paint3_linear_1_169" x1="14.8637" y1="26.7695" x2="20.2633" y2="35.6887" gradientUnits="userSpaceOnUse">
<stop stop-color="#EC9F05"/>
<stop offset="1" stop-color="#FF4E00"/>
</linearGradient>
<linearGradient id="paint4_linear_1_169" x1="8.73727" y1="15.8428" x2="14.7973" y2="22.1388" gradientUnits="userSpaceOnUse">
<stop stop-color="#EC9F05"/>
<stop offset="1" stop-color="#FF4E00"/>
</linearGradient>
<linearGradient id="paint5_linear_1_169" x1="13.9673" y1="37.7126" x2="20.0284" y2="43.8981" gradientUnits="userSpaceOnUse">
<stop stop-color="#EC9F05"/>
<stop offset="1" stop-color="#FF4E00"/>
</linearGradient>
<linearGradient id="paint6_linear_1_169" x1="22.4515" y1="15.8489" x2="28.4952" y2="21.3678" gradientUnits="userSpaceOnUse">
<stop stop-color="#EC9F05"/>
<stop offset="1" stop-color="#FF4E00"/>
</linearGradient>
<linearGradient id="paint7_linear_1_169" x1="8.73285" y1="26.7687" x2="12.4515" y2="28.0366" gradientUnits="userSpaceOnUse">
<stop stop-color="#EC9F05"/>
<stop offset="1" stop-color="#FF4E00"/>
</linearGradient>
<linearGradient id="paint8_linear_1_169" x1="23.989" y1="48.1267" x2="26.1819" y2="48.5487" gradientUnits="userSpaceOnUse">
<stop stop-color="#EC9F05"/>
<stop offset="1" stop-color="#FF4E00"/>
</linearGradient>
</defs>
</svg>
