<svg width="51" height="51" viewBox="0 0 51 51" fill="none" xmlns="http://www.w3.org/2000/svg">
<path d="M23.6359 0.0546893C26.3605 0.0546893 29.0852 0.0703089 31.8081 0.0546893C32.5329 0.0315942 33.254 0.16848 33.9197 0.455578C34.5855 0.742676 35.1795 1.17291 35.6595 1.71557C36.974 3.14216 38.3163 4.54098 39.6673 5.93112C40.1559 6.42675 40.5397 7.01543 40.7957 7.66213C41.0517 8.30882 41.1747 9.00031 41.1574 9.69544C41.1574 11.6913 41.18 13.6871 41.1453 15.6829C41.1366 16.2591 41.3191 16.4292 41.8808 16.4032C42.778 16.3615 43.6769 16.3858 44.5759 16.3928C48.1056 16.424 50.8163 18.9509 50.8476 22.467C50.9125 29.6405 50.9125 36.8139 50.8476 43.9874C50.8163 47.4983 48.1056 50.0391 44.5793 50.0495C40.0006 50.0611 35.4218 50.0611 30.8431 50.0495C27.3655 50.0373 24.8078 47.5781 24.6235 44.1349C24.6078 43.852 24.7539 43.4615 24.2253 43.4407C23.8376 43.4216 23.5681 43.4771 23.4898 43.9405C23.4345 44.2237 23.3156 44.4907 23.1421 44.7215C22.9195 45.0252 22.9525 45.2265 23.1421 45.5545C24.2549 47.4532 23.1421 49.6243 20.9217 49.6642C16.3748 49.744 11.821 49.7926 7.27408 49.6642C3.77741 49.5618 1.13275 46.8631 0.90671 43.399C0.677192 39.8673 3.18276 36.9915 6.12301 36.4865C6.61161 36.4032 6.74549 36.1533 6.91763 35.6378C7.30363 34.4802 7.21496 33.4702 6.92806 32.2952C6.55944 30.7888 7.90003 29.4195 9.53621 29.4438C10.3465 29.4542 10.4717 29.1852 10.4699 28.4632C10.4438 20.7072 10.4578 12.946 10.4578 5.19527C10.4578 3.85545 10.7116 2.60936 11.6558 1.59235C12.101 1.09592 12.6485 0.701465 13.2607 0.436052C13.873 0.170639 14.5355 0.0405436 15.2029 0.0546893C18.0139 0.0639453 20.8249 0.0639453 23.6359 0.0546893ZM12.0435 16.7156C12.0435 20.6205 12.0679 24.5254 12.0227 28.4285C12.0122 29.2512 12.2713 29.4264 13.0433 29.4126C15.6515 29.3674 18.2596 29.3726 20.8678 29.4021C23.0377 29.4264 24.2792 31.6149 23.1821 33.465C22.9804 33.8034 22.9195 34.0134 23.156 34.3692C23.7715 35.2994 23.7489 36.2782 23.1716 37.2258C23.0447 37.4358 22.8082 37.6024 23.0308 37.9079C23.8045 38.9683 23.7924 40.0512 23.0569 41.1272C22.7839 41.5264 23.0064 41.7225 23.3455 41.8214C24.2253 42.1026 24.6218 41.8058 24.6218 40.8895C24.6218 34.932 24.6218 28.9735 24.6218 23.0137C24.6218 22.3803 24.5731 21.7451 24.74 21.1186C25.5224 18.189 27.8437 16.3893 30.9005 16.3737C33.5364 16.3615 36.1741 16.3737 38.8101 16.3737C39.1579 16.3737 39.5839 16.4969 39.5786 15.8686C39.5578 13.6715 39.5665 11.4726 39.5647 9.27371C39.5647 8.75306 39.3509 8.52744 38.7718 8.54306C37.2383 8.58645 35.7012 8.56215 34.1659 8.55521C33.1869 8.55521 32.9835 8.35389 32.9783 7.39763C32.9783 5.74889 32.94 4.10016 32.9922 2.45316C33.0165 1.75028 32.787 1.59582 32.1228 1.59756C26.6474 1.62359 21.1686 1.61144 15.6949 1.61318C13.1563 1.61318 12.0435 2.71522 12.0435 5.25774C12.0389 9.08512 12.0389 12.9073 12.0435 16.7242V16.7156ZM49.3696 33.2567C49.3696 29.8169 49.3696 26.3772 49.3696 22.9374C49.3696 19.7475 47.5022 17.8853 44.2994 17.8801C39.9258 17.8732 35.5534 17.8732 31.1821 17.8801C27.9567 17.8801 26.051 19.7892 26.0493 22.986C26.0493 29.8065 26.0493 36.6276 26.0493 43.4493C26.0493 46.601 27.9619 48.5604 31.0917 48.5743C35.5221 48.594 39.9525 48.594 44.3829 48.5743C47.4553 48.5587 49.3522 46.634 49.3609 43.576C49.3766 40.1449 49.3696 36.7034 49.3696 33.2654V33.2567ZM10.2561 48.1491C13.212 48.1491 15.4602 45.9051 15.4619 42.9426C15.4619 40.0963 13.1094 37.7239 10.2943 37.7361C7.47925 37.7482 5.07801 40.1068 5.03107 42.9079C5.02508 43.5956 5.15595 44.2777 5.41608 44.9146C5.67622 45.5515 6.06044 46.1305 6.54648 46.6181C7.03252 47.1056 7.61069 47.492 8.24748 47.7548C8.88426 48.0176 9.56699 48.1517 10.2561 48.1491V48.1491ZM15.1803 33.189C17.032 33.189 18.8856 33.2046 20.7443 33.189C21.5302 33.189 22.0606 32.6909 22.0136 32.0609C21.9632 31.3771 21.5268 30.9953 20.8712 30.9919C17.1062 30.971 13.3424 30.971 9.57968 30.9919C8.92591 30.9919 8.4773 31.3615 8.45992 32.0644C8.44253 32.7673 8.90156 33.0884 9.53969 33.1873C9.74135 33.207 9.94423 33.211 10.1465 33.1994L15.1803 33.189ZM15.2307 34.7597C13.3511 34.7597 11.4732 34.751 9.59359 34.7597C8.85288 34.7597 8.39732 35.2265 8.44948 35.8548C8.47209 36.1081 8.53816 36.3268 8.84592 36.3077C10.3882 36.2053 11.8662 36.6739 13.3667 36.8041C15.801 37.0176 18.2753 36.8683 20.7321 36.8579C21.5563 36.8579 22.0275 36.4362 22.0136 35.7801C21.9997 35.1241 21.5337 34.7579 20.6939 34.7562C18.8734 34.7649 17.0512 34.7649 15.2307 34.7649V34.7597ZM14.6673 48.1057C16.7764 48.1057 18.7152 48.1179 20.6522 48.1057C21.5076 48.1057 22.0327 47.6319 22.0153 46.9742C21.998 46.3164 21.4798 45.9155 20.6017 45.9103C19.3585 45.9016 18.1136 45.9103 16.8703 45.9103C16.5834 45.9103 16.2965 45.8739 16.1296 46.2123C15.7993 46.8787 15.2463 47.3976 14.6673 48.1057V48.1057ZM15.2585 38.4476C15.7801 39.1418 16.154 39.6885 16.413 40.3011C16.4566 40.4077 16.5344 40.4968 16.6341 40.5546C16.7338 40.6124 16.8499 40.6355 16.9642 40.6205C18.2648 40.6205 19.5724 40.6344 20.8695 40.6066C21.5337 40.5927 21.9962 40.23 22.0032 39.5445C22.0101 38.8589 21.5424 38.4702 20.8904 38.458C19.0751 38.425 17.2616 38.4476 15.2585 38.4476V38.4476ZM19.0994 44.3327C19.7063 44.3327 20.3166 44.3466 20.9199 44.3327C21.6154 44.3136 22.0067 43.911 21.9997 43.2428C21.9997 42.6111 21.5963 42.2293 20.946 42.2171C19.7915 42.1946 18.6352 42.2171 17.4789 42.1998C17.1311 42.1998 16.9955 42.297 16.9781 42.6909C16.9068 44.3397 16.8877 44.3379 18.5795 44.3379L19.0994 44.3327ZM38.4902 7.0054C37.1252 5.56666 35.9203 4.2928 34.5553 2.85233C34.5553 4.25636 34.5553 5.37923 34.5553 6.4969C34.5553 6.86135 34.6614 7.01755 35.0474 7.00714C36.1098 6.99672 37.1774 7.0054 38.4902 7.0054ZM2.96193 42.3594C3.74612 42.5608 3.62614 41.9134 3.73221 41.5333C3.86261 41.0613 3.45053 41.247 3.24535 41.2053C2.54984 41.0717 2.52724 41.5976 2.45769 42.0384C2.38814 42.4792 2.76197 42.3213 2.96193 42.3594ZM3.27839 45.0339C3.57746 45.0339 3.88 45.0703 3.80002 44.6486C3.72004 44.2269 3.72004 43.7444 3.06626 43.826C2.79327 43.8589 2.43335 43.7496 2.54463 44.2477C2.63331 44.6764 2.68199 45.1415 3.27839 45.0339ZM3.64005 39.6104C4.81894 39.8863 4.79285 38.8121 5.30231 38.3955C4.63619 38.6201 4.05571 39.0444 3.64005 39.6104V39.6104Z" fill="url(#paint0_linear_1_207)"/>
<path d="M22.4066 24.5254C22.3196 25.5754 21.9632 26.5594 20.7339 26.9811C20.5937 27.012 20.4692 27.092 20.383 27.2066C20.2969 27.3212 20.2548 27.4629 20.2644 27.6059C20.2644 28.0137 20.0592 28.3366 19.5828 28.3418C19.1064 28.347 18.8699 28.071 18.8873 27.6371C18.9099 27.146 18.5639 27.0766 18.244 26.9759C17.7378 26.8393 17.2902 26.5413 16.9694 26.1272C16.693 25.7524 16.6895 25.3602 17.0425 25.0408C17.3954 24.7215 17.6858 24.9558 17.931 25.2283C18.1334 25.4565 18.3859 25.635 18.6688 25.7497C18.9517 25.8644 19.2574 25.9122 19.5619 25.8895C20.2209 25.8617 20.7791 25.643 20.953 24.9506C21.1268 24.2251 20.9912 23.5483 20.2679 23.1613C19.7619 22.8888 19.2142 22.6961 18.6856 22.4671C17.7658 22.0627 17.0599 21.5021 16.9886 20.3845C16.9103 19.1696 17.3363 18.2862 18.4961 17.8454C18.8612 17.7066 18.8717 17.474 18.8682 17.1772C18.8682 16.7364 19.082 16.4396 19.5237 16.4119C19.9653 16.3841 20.2383 16.6965 20.247 17.1061C20.247 17.566 20.4957 17.6927 20.8765 17.7621C21.1324 17.8009 21.3809 17.8781 21.6137 17.9912C21.9875 18.189 22.3092 18.4459 22.064 18.9492C21.8189 19.4525 21.4711 19.4178 21.0521 19.1939C20.6639 18.9943 20.2291 18.9026 19.7932 18.9284C19.1707 18.9492 18.5413 18.97 18.3796 19.7597C18.2179 20.5493 18.6143 20.9554 19.289 21.214C19.8002 21.4101 20.3183 21.5976 20.8104 21.8353C21.8902 22.356 22.3822 23.2446 22.4066 24.5254Z" fill="url(#paint1_linear_1_207)"/>
<path d="M28.4818 13.7773C30.4518 13.7773 32.4219 13.7773 34.3936 13.7773C34.9344 13.7773 35.4247 13.8433 35.4369 14.5167C35.449 15.1901 34.8996 15.2525 34.3936 15.2543C30.4257 15.2543 26.4579 15.2543 22.49 15.2543C21.9562 15.2543 21.4311 15.1449 21.4468 14.4993C21.4624 13.8537 21.9336 13.7652 22.4865 13.7652C24.4844 13.786 26.484 13.7773 28.4818 13.7773Z" fill="url(#paint2_linear_1_207)"/>
<path d="M23.3507 11.5715H17.1937C16.6878 11.5715 16.1505 11.5715 16.1505 10.8635C16.1505 10.1554 16.6582 10.1293 17.1937 10.1293C21.3262 10.1293 25.4593 10.1293 29.5929 10.1293C30.1337 10.1293 30.6362 10.2057 30.6483 10.8565C30.6605 11.5073 30.1267 11.5785 29.6051 11.5767C27.5116 11.5681 25.432 11.5715 23.3507 11.5715Z" fill="url(#paint3_linear_1_207)"/>
<path d="M18.0092 15.2734C17.578 15.2508 17.1399 15.2595 16.7173 15.2005C16.6298 15.1942 16.5446 15.1697 16.4671 15.1287C16.3896 15.0877 16.3216 15.031 16.2672 14.9622C16.2129 14.8935 16.1736 14.8142 16.1517 14.7294C16.1298 14.6446 16.1258 14.5562 16.1401 14.4698C16.1627 14.0655 16.3957 13.8103 16.7851 13.7947C17.5902 13.7635 18.3987 13.7687 19.2038 13.7947C19.2988 13.7911 19.3935 13.807 19.4821 13.8414C19.5707 13.8758 19.6513 13.9279 19.7189 13.9946C19.7865 14.0613 19.8397 14.1411 19.8752 14.2291C19.9107 14.3171 19.9278 14.4114 19.9254 14.5063C19.941 14.9401 19.6367 15.2005 19.2177 15.23C18.7986 15.2595 18.4126 15.23 18.0092 15.23V15.2734Z" fill="url(#paint4_linear_1_207)"/>
<path d="M33.8233 11.5507C33.4756 11.5507 33.1278 11.5715 32.7801 11.5507C32.6921 11.5496 32.6053 11.5304 32.5251 11.4942C32.4449 11.4581 32.3731 11.4058 32.3142 11.3406C32.2552 11.2754 32.2104 11.1987 32.1826 11.1154C32.1547 11.0321 32.1445 10.944 32.1524 10.8565C32.1458 10.7617 32.1595 10.6665 32.1927 10.5774C32.2258 10.4882 32.2775 10.4071 32.3445 10.3395C32.4114 10.2719 32.492 10.2192 32.5809 10.1851C32.6698 10.151 32.7649 10.1361 32.86 10.1415C33.4651 10.1224 34.0772 10.1241 34.6788 10.1415C35.1587 10.1536 35.4386 10.4053 35.4247 10.8999C35.4126 11.3615 35.117 11.5542 34.6858 11.5663C34.3971 11.5663 34.1085 11.5663 33.8164 11.5663L33.8233 11.5507Z" fill="url(#paint5_linear_1_207)"/>
<path d="M37.7356 19.5306C39.9368 19.5306 42.1381 19.5306 44.3429 19.5306C46.1755 19.5306 47.1249 20.4799 47.151 22.3074C47.1614 23.1456 47.1805 23.9873 47.1301 24.8221C47.0467 26.2331 46.0556 27.1529 44.6332 27.1581C42.0842 27.1703 39.5369 27.1581 36.9827 27.1581C36.4523 27.1581 35.9394 27.1251 35.929 26.4431C35.9185 25.761 36.4506 25.7124 36.9722 25.7124C39.3775 25.7124 41.7811 25.7124 44.1829 25.7124C45.3705 25.7124 45.6748 25.4035 45.68 24.2321C45.68 23.5674 45.6922 22.9027 45.68 22.238C45.6609 21.3459 45.3322 21.0231 44.3742 21.0231C41.0444 21.0231 37.7147 21.0231 34.3832 21.0231C33.2548 21.0231 32.1228 21.0092 30.9961 21.0231C30.1058 21.037 29.8016 21.3407 29.779 22.238C29.7563 22.9894 29.779 23.7409 29.779 24.4941C29.779 25.3167 30.2223 25.709 31.0274 25.709C31.7507 25.709 32.4758 25.7229 33.1991 25.709C33.7207 25.6986 34.1833 25.8513 34.1885 26.424C34.1937 26.9967 33.7712 27.1755 33.2269 27.1599C32.4167 27.1373 31.6047 27.1599 30.7927 27.1512C29.3703 27.1286 28.3584 26.1255 28.3097 24.6954C28.2854 23.8277 28.2906 22.9599 28.3097 22.0922C28.3393 20.5302 29.353 19.541 30.9717 19.5271C33.2182 19.5149 35.4769 19.5306 37.7356 19.5306Z" fill="url(#paint6_linear_1_207)"/>
<path d="M41.6443 40.8825C41.6443 39.6104 41.6286 38.3365 41.6443 37.0644C41.6651 35.8495 42.3485 35.1328 43.5743 35.0668C44.2116 35.0288 44.8508 35.0369 45.487 35.0911C45.9561 35.1181 46.3973 35.3227 46.7204 35.6633C47.0436 36.0039 47.2243 36.4547 47.2257 36.9238C47.2553 39.5861 47.2344 42.2466 47.2257 44.9071C47.2238 45.0244 47.2075 45.141 47.177 45.2542C46.8397 46.5958 45.5878 47.1633 43.5256 46.903C42.3746 46.7589 41.646 45.9346 41.6286 44.7058C41.6286 43.4285 41.6443 42.1546 41.6443 40.8825ZM45.7269 40.8478C45.7269 40.0095 45.7391 39.1713 45.7269 38.3348C45.6939 36.3025 46.1094 36.5385 43.7638 36.5246C43.277 36.5246 43.0979 36.7676 43.0979 37.2188C43.0979 39.674 43.0979 42.1286 43.0979 44.5826C43.0979 45.1675 43.39 45.4243 43.9551 45.4209C44.2437 45.4209 44.5341 45.4087 44.8245 45.4209C45.4974 45.4556 45.7512 45.1362 45.7373 44.4785C45.7078 43.2688 45.7269 42.054 45.7269 40.8478Z" fill="url(#paint7_linear_1_207)"/>
<path d="M40.5071 31.3164C40.6654 33.7461 40.0603 34.1036 37.7668 34.114C35.3221 34.1244 34.7709 33.7027 34.9153 31.24C34.9361 30.8929 34.9153 30.5458 34.9153 30.1987C34.9344 29.0897 35.5134 28.517 36.6297 28.5066C37.353 28.5066 38.0746 28.5066 38.7979 28.5066C39.9351 28.517 40.4828 29.0585 40.5002 30.19C40.5106 30.5666 40.5054 30.9467 40.5071 31.3164ZM39.0657 31.2209C39.0657 29.9297 39.0657 29.9939 37.2817 29.9054C36.1063 29.8464 36.4123 30.6118 36.4123 31.1966C36.4123 32.7794 36.2176 32.5764 37.6747 32.585C39.3091 32.5798 39.0379 32.7464 39.0657 31.2209Z" fill="url(#paint8_linear_1_207)"/>
<path d="M44.4211 28.5066C47.0432 28.3331 47.3527 29.0064 47.2466 31.3563C47.2309 31.7034 47.2466 32.0505 47.2466 32.3976C47.2136 33.4389 46.5998 34.062 45.5739 34.0828C44.7932 34.1002 44.009 34.1036 43.2335 34.0828C42.2876 34.0568 41.6843 33.4528 41.6547 32.5018C41.6321 31.752 41.6391 31.0023 41.6547 30.2456C41.6721 29.0412 42.2007 28.5101 43.3935 28.5101C43.7273 28.5049 44.0751 28.5066 44.4211 28.5066ZM44.4646 29.9245C43.8508 30.0026 42.9901 29.5479 43.0736 30.853C43.1814 32.5764 43.0996 32.5885 44.275 32.5799C45.9616 32.566 45.7095 32.7638 45.7252 31.391C45.7408 29.9263 45.7287 29.9263 44.4646 29.9245Z" fill="url(#paint9_linear_1_207)"/>
<path d="M40.5071 44.1366C40.681 46.7746 39.9055 46.9742 37.6973 46.929C35.1552 46.877 34.9848 46.6826 34.9013 44.1765C34.804 41.3511 35.5969 41.2262 37.746 41.3147C37.8329 41.3147 37.9198 41.3147 38.005 41.3147C40.2081 41.3147 40.5071 41.6097 40.5071 43.7878V44.1366ZM36.4106 44.0811C36.4106 45.4244 36.4106 45.4244 38.1494 45.4296C39.064 45.4296 38.9753 45.4296 39.0953 43.7808C39.177 42.658 38.5736 42.7551 37.852 42.776C36.2437 42.8176 36.4332 42.5261 36.4106 44.0759V44.0811Z" fill="url(#paint10_linear_1_207)"/>
<path d="M40.5071 37.8888C40.681 40.5441 39.8742 40.7628 37.6903 40.6656C37.4591 40.6552 37.2278 40.6656 36.9948 40.6656C35.416 40.6656 34.9187 40.171 34.917 38.609C34.917 37.9461 34.8996 37.2831 34.917 36.6201C34.9466 35.7524 35.4891 35.1502 36.3602 35.0894C37.1652 35.0339 37.9772 35.0426 38.784 35.0669C39.9855 35.1033 40.4863 35.643 40.4984 36.8527C40.5089 37.1946 40.5071 37.5417 40.5071 37.8888ZM37.7807 36.5316C36.2889 36.5577 36.4106 36.2973 36.4141 37.7274C36.4141 39.3831 36.2211 39.1644 37.6156 39.1679C39.2813 39.1679 39.0501 39.3414 39.064 37.9721C39.0761 36.5264 39.0657 36.5264 37.7807 36.5264V36.5316Z" fill="url(#paint11_linear_1_207)"/>
<path d="M33.8807 37.8471C33.8807 40.4625 33.6877 40.6586 31.0987 40.6586C28.5096 40.6586 28.294 40.4382 28.294 37.8558C28.294 35.2734 28.5062 35.0512 31.0935 35.0512C33.712 35.0512 33.8807 35.2213 33.8807 37.8471ZM32.4619 37.8471C32.441 36.3737 32.6357 36.5333 31.3873 36.5247C29.7633 36.5125 29.7563 36.5247 29.765 37.7395C29.7789 39.331 29.5651 39.1592 31.0204 39.1557C32.714 39.1609 32.4306 39.3535 32.4619 37.8506V37.8471Z" fill="url(#paint12_linear_1_207)"/>
<path d="M31.0813 28.5066C33.6738 28.3626 33.9416 28.9006 33.8929 31.2626C33.839 33.8988 33.6929 34.0845 31.0239 34.0845C30.6762 34.0845 30.3284 34.0845 29.9806 34.0845C28.9374 34.0568 28.3219 33.4632 28.294 32.4219C28.2767 31.7277 28.294 31.0335 28.294 30.3393C28.3045 29.0377 28.8348 28.5083 30.1267 28.5014L31.0813 28.5066ZM31.1665 29.9263C29.6451 29.9558 29.7755 29.6815 29.7755 31.0908C29.7755 32.717 29.5668 32.5816 30.9422 32.5781C32.6983 32.5781 32.4514 32.7517 32.4653 31.3633C32.4723 29.9263 32.4619 29.9263 31.1665 29.9263Z" fill="url(#paint13_linear_1_207)"/>
<path d="M33.8807 44.0915C33.8807 46.7381 33.7068 46.9117 31.0222 46.9117C30.6466 46.9117 30.271 46.9273 29.8972 46.9117C28.9287 46.8596 28.3323 46.2852 28.301 45.3341C28.2732 44.5288 28.2749 43.7218 28.301 42.9148C28.3305 41.9394 28.8835 41.3754 29.8659 41.3303C30.6431 41.2938 31.4308 41.3008 32.2028 41.3303C33.3451 41.365 33.8529 41.9065 33.8737 43.0658C33.8842 43.4007 33.8789 43.7461 33.8807 44.0915ZM31.0987 42.776C29.7076 42.8003 29.7668 42.5417 29.7598 43.845C29.7511 45.4261 29.7598 45.3584 31.549 45.4504C32.6201 45.5042 32.4601 44.8742 32.4601 44.2477C32.4636 42.776 32.4636 42.776 31.1021 42.776H31.0987Z" fill="url(#paint14_linear_1_207)"/>
<path d="M12.1409 40.7541C12.1096 41.24 11.8314 41.4795 11.3532 41.4604C11.188 41.4604 11.0298 41.339 10.8629 41.2869C10.529 41.1949 10.0891 41.0457 9.93959 41.4396C9.76572 41.8978 10.2682 41.9828 10.5708 42.08C12.3095 42.6423 12.6173 44.0672 12.0626 45.1848C11.741 45.8305 11.0194 46.1238 10.6403 46.7468C10.489 47.0002 10.0022 46.9707 9.87004 46.7277C9.56402 46.1619 9.00066 45.9363 8.57118 45.5389C8.48457 45.4716 8.41317 45.3868 8.36167 45.2901C8.31017 45.1934 8.27972 45.0869 8.27234 44.9776C8.26495 44.8683 8.28078 44.7587 8.3188 44.6559C8.35682 44.5532 8.41616 44.4596 8.49294 44.3813C8.84069 43.9648 9.18845 44.1123 9.5362 44.4334C9.63993 44.533 9.76301 44.6104 9.89786 44.6607C10.2091 44.7718 10.569 44.8343 10.7307 44.4716C10.7737 44.3946 10.7988 44.309 10.8041 44.2211C10.8095 44.1332 10.7949 44.0452 10.7615 43.9637C10.7281 43.8822 10.6767 43.8092 10.6112 43.7502C10.5456 43.6912 10.4677 43.6477 10.383 43.6229C10.063 43.491 9.7379 43.3712 9.43013 43.215C8.49294 42.7395 8.15909 41.8544 8.51902 40.886C8.78679 40.1675 9.63183 39.9176 9.89091 39.1783C9.94655 39.0203 10.2995 38.9752 10.4473 39.0897C11.0194 39.5271 11.5601 40.0061 12.1026 40.4781C12.1478 40.5372 12.127 40.6656 12.1409 40.7541Z" fill="url(#paint15_linear_1_207)"/>
<defs>
<linearGradient id="paint0_linear_1_207" x1="0.89209" y1="0.0521851" x2="58.3722" y2="11.0755" gradientUnits="userSpaceOnUse">
<stop stop-color="#EC9F05"/>
<stop offset="1" stop-color="#FF4E00"/>
</linearGradient>
<linearGradient id="paint1_linear_1_207" x1="16.7692" y1="16.4102" x2="23.433" y2="17.014" gradientUnits="userSpaceOnUse">
<stop stop-color="#EC9F05"/>
<stop offset="1" stop-color="#FF4E00"/>
</linearGradient>
<linearGradient id="paint2_linear_1_207" x1="21.4464" y1="13.7652" x2="25.3725" y2="20.8397" gradientUnits="userSpaceOnUse">
<stop stop-color="#EC9F05"/>
<stop offset="1" stop-color="#FF4E00"/>
</linearGradient>
<linearGradient id="paint3_linear_1_207" x1="16.1505" y1="10.1293" x2="19.8345" y2="17.2062" gradientUnits="userSpaceOnUse">
<stop stop-color="#EC9F05"/>
<stop offset="1" stop-color="#FF4E00"/>
</linearGradient>
<linearGradient id="paint4_linear_1_207" x1="16.1317" y1="13.7732" x2="19.7923" y2="15.5488" gradientUnits="userSpaceOnUse">
<stop stop-color="#EC9F05"/>
<stop offset="1" stop-color="#FF4E00"/>
</linearGradient>
<linearGradient id="paint5_linear_1_207" x1="32.1498" y1="10.1278" x2="35.4282" y2="11.5594" gradientUnits="userSpaceOnUse">
<stop stop-color="#EC9F05"/>
<stop offset="1" stop-color="#FF4E00"/>
</linearGradient>
<linearGradient id="paint6_linear_1_207" x1="28.2933" y1="19.5225" x2="46.662" y2="28.2222" gradientUnits="userSpaceOnUse">
<stop stop-color="#EC9F05"/>
<stop offset="1" stop-color="#FF4E00"/>
</linearGradient>
<linearGradient id="paint7_linear_1_207" x1="41.6286" y1="35.0433" x2="48.2633" y2="35.6424" gradientUnits="userSpaceOnUse">
<stop stop-color="#EC9F05"/>
<stop offset="1" stop-color="#FF4E00"/>
</linearGradient>
<linearGradient id="paint8_linear_1_207" x1="34.894" y1="28.5066" x2="41.3711" y2="29.7553" gradientUnits="userSpaceOnUse">
<stop stop-color="#EC9F05"/>
<stop offset="1" stop-color="#FF4E00"/>
</linearGradient>
<linearGradient id="paint9_linear_1_207" x1="41.6403" y1="28.4808" x2="48.1042" y2="29.7221" gradientUnits="userSpaceOnUse">
<stop stop-color="#EC9F05"/>
<stop offset="1" stop-color="#FF4E00"/>
</linearGradient>
<linearGradient id="paint10_linear_1_207" x1="34.8934" y1="41.2963" x2="41.3735" y2="42.539" gradientUnits="userSpaceOnUse">
<stop stop-color="#EC9F05"/>
<stop offset="1" stop-color="#FF4E00"/>
</linearGradient>
<linearGradient id="paint11_linear_1_207" x1="34.9093" y1="35.048" x2="41.3715" y2="36.2841" gradientUnits="userSpaceOnUse">
<stop stop-color="#EC9F05"/>
<stop offset="1" stop-color="#FF4E00"/>
</linearGradient>
<linearGradient id="paint12_linear_1_207" x1="28.294" y1="35.0512" x2="34.7176" y2="36.2786" gradientUnits="userSpaceOnUse">
<stop stop-color="#EC9F05"/>
<stop offset="1" stop-color="#FF4E00"/>
</linearGradient>
<linearGradient id="paint13_linear_1_207" x1="28.2863" y1="28.485" x2="34.7358" y2="29.7245" gradientUnits="userSpaceOnUse">
<stop stop-color="#EC9F05"/>
<stop offset="1" stop-color="#FF4E00"/>
</linearGradient>
<linearGradient id="paint14_linear_1_207" x1="28.2808" y1="41.3055" x2="34.719" y2="42.5373" gradientUnits="userSpaceOnUse">
<stop stop-color="#EC9F05"/>
<stop offset="1" stop-color="#FF4E00"/>
</linearGradient>
<linearGradient id="paint15_linear_1_207" x1="8.27057" y1="39.0258" x2="13.0432" y2="39.4943" gradientUnits="userSpaceOnUse">
<stop stop-color="#EC9F05"/>
<stop offset="1" stop-color="#FF4E00"/>
</linearGradient>
</defs>
</svg>
