<svg width="51" height="51" viewBox="0 0 51 51" fill="none" xmlns="http://www.w3.org/2000/svg">
<path d="M13.3937 28.1564C13.3937 27.3161 13.352 26.474 13.4058 25.6389C13.4562 24.8854 12.9545 25.0868 12.5569 25.0556C12.1073 25.0191 11.7618 25.0452 11.8243 25.6684C11.8548 26.1888 11.8583 26.7103 11.8348 27.231C11.8348 27.8196 11.5622 28.1703 10.9563 28.1772C9.97146 28.1911 8.98773 28.1911 8.00516 28.1772C7.4479 28.1685 7.15973 27.8526 7.14758 27.2987C7.16411 26.8653 7.1589 26.4312 7.13195 25.9983C7.09203 25.6806 7.40798 25.1129 6.83683 25.0938C6.30215 25.0781 5.67719 24.757 5.21195 25.4757C4.3943 26.7379 2.95516 26.981 1.83892 26.1337C1.08203 25.5521 0.762604 24.7691 0.944883 23.8403C1.01512 23.3921 1.22047 22.9761 1.53349 22.6479C1.8465 22.3196 2.25226 22.0948 2.6965 22.0034C3.62352 21.7725 4.51061 22.0034 4.99668 22.8072C5.42027 23.5017 5.94454 23.5017 6.58338 23.5017C8.70823 23.4896 8.73948 23.5017 8.69435 25.632C8.67872 26.382 8.82107 26.724 9.66303 26.6459C10.1613 26.599 10.288 26.4601 10.2776 25.9862C10.2238 23.2465 10.1283 23.4809 12.7357 23.5052C13.1836 23.5052 13.4301 23.4496 13.4058 22.9079C13.3676 21.7239 13.3798 20.5363 13.4058 19.3505C13.4058 18.9356 13.2756 18.7915 12.8607 18.8071C12.109 18.8488 11.3556 18.8488 10.6039 18.8071C10.0831 18.7689 9.99807 19.1543 9.78281 19.4339C9.10577 20.3019 8.06765 20.6058 7.0764 20.2169C6.60763 20.0344 6.21027 19.7054 5.9434 19.279C5.67652 18.8525 5.55439 18.3513 5.59515 17.8498C5.6359 17.3484 5.83738 16.8735 6.16962 16.4958C6.50187 16.118 6.94713 15.8576 7.43922 15.7532C8.40791 15.557 9.24813 15.8521 9.78455 16.6803C10.0953 17.1543 10.4529 17.3088 10.9806 17.2428C11.1252 17.235 11.2701 17.235 11.4146 17.2428C11.9927 17.2428 12.6437 17.4025 13.1315 17.189C13.7322 16.9268 13.3346 16.1699 13.4787 15.6403C13.9422 13.8382 15.3883 12.5933 17.2979 12.5777C17.9402 12.5777 18.1954 12.4215 18.1069 11.7635C18.0722 11.3881 18.0722 11.0103 18.1069 10.6349C18.1468 9.87797 18.0878 9.28072 17.3187 8.74598C16.2442 7.99769 16.291 6.39173 17.2233 5.44726C17.441 5.22401 17.7013 5.04684 17.9889 4.9263C18.2764 4.80576 18.5853 4.74431 18.8971 4.74561C19.2089 4.7469 19.5172 4.81092 19.8038 4.93384C20.0903 5.05677 20.3492 5.2361 20.565 5.46115C21.4869 6.41083 21.5216 8.01679 20.4418 8.75987C19.6432 9.29288 19.6432 9.90401 19.6432 10.6454C19.6571 12.5551 19.6432 12.5551 21.5112 12.5551C22.7854 12.5551 24.0596 12.5204 25.3303 12.5673C26.0056 12.5916 25.9015 12.1784 25.8911 11.786C25.8807 11.3936 26.0473 10.9318 25.3512 10.9874C24.8304 11.029 24.3096 10.9874 23.7888 10.9874C23.1135 11.0013 22.7628 10.6957 22.768 10.0012C22.768 9.10537 22.768 8.20777 22.768 7.31191C22.768 6.63306 23.0683 6.28409 23.7593 6.29451C24.0763 6.32234 24.3953 6.32234 24.7123 6.29451C25.1047 6.23201 25.7383 6.56535 25.839 6.05665C25.9553 5.45941 26.1706 4.7389 25.3286 4.25103C24.4016 3.71456 24.1342 2.65202 24.4606 1.66761C24.6108 1.20326 24.903 0.797797 25.2959 0.508429C25.6889 0.219061 26.1627 0.0604019 26.6507 0.0548389C27.1386 0.049276 27.616 0.197091 28.0155 0.477425C28.4149 0.757759 28.7163 1.15646 28.877 1.61726C29.2242 2.5982 28.9672 3.65379 28.0628 4.22152C27.4795 4.58612 27.4465 5.0219 27.4535 5.58441C27.4864 7.95776 27.6045 7.89526 25.221 7.87095C24.3894 7.86227 24.0717 8.36923 24.3391 9.18523C24.4311 9.46997 24.6273 9.42135 24.8148 9.42309C25.3633 9.43119 25.9131 9.43119 26.4639 9.42309C27.1583 9.42309 27.476 9.75123 27.4587 10.4335C27.4587 10.5499 27.4587 10.6645 27.4587 10.7808C27.4587 12.5499 27.4587 12.5499 29.1947 12.5499C29.9168 12.5499 30.6459 12.4979 31.3629 12.5638C32.0573 12.6263 32.2309 12.3537 32.151 11.7322C32.1171 11.3858 32.1171 11.0369 32.151 10.6905C32.2101 9.89706 32.1267 9.28072 31.3456 8.72341C30.2779 7.96123 30.3404 6.35875 31.2813 5.42469C31.7149 4.98856 32.3036 4.74204 32.9186 4.73911C33.5336 4.73618 34.1246 4.97708 34.5623 5.40906C35.5102 6.33444 35.6039 7.96297 34.5259 8.70779C33.677 9.29461 33.6909 9.96478 33.7117 10.7634C33.7117 10.878 33.7117 10.9943 33.7117 11.1106C33.7117 12.4058 33.7117 12.4058 34.9877 12.5812C35.9295 12.6999 36.7949 13.1606 37.4193 13.8757C38.0438 14.5908 38.3837 15.5104 38.3746 16.4598C38.3746 17.1317 38.5812 17.3279 39.2079 17.248C39.5542 17.2132 39.9031 17.2132 40.2494 17.248C41.0445 17.3088 41.6625 17.2237 42.2163 16.4424C42.9576 15.4007 44.5113 15.4355 45.4574 16.3157C45.6865 16.5272 45.8707 16.7826 45.9993 17.0667C46.1278 17.3508 46.1979 17.6578 46.2055 17.9695C46.2131 18.2812 46.158 18.5913 46.0436 18.8813C45.9291 19.1713 45.7575 19.4354 45.539 19.6578C44.638 20.5832 43.067 20.6995 42.3014 19.6873C41.673 18.8557 40.9924 18.7741 40.1036 18.7967C38.3989 18.8418 38.3971 18.8106 38.3971 20.5207C38.3971 21.8228 38.4423 23.125 38.3798 24.4271C38.3468 25.1372 38.7443 25.0521 39.187 25.0625C39.6592 25.0747 40.0828 25.0781 39.9578 24.4062C39.9561 24.3779 39.9561 24.3495 39.9578 24.3212C39.93 21.6839 39.8328 21.9409 42.4385 21.9287C44.6953 21.9183 44.6728 21.8055 44.6641 24.0694C44.6641 24.3906 44.388 24.9705 44.9106 25.0087C45.4626 25.0504 46.1102 25.3559 46.6032 24.6076C47.5979 23.0816 49.6498 23.1371 50.5595 24.6424C50.8631 25.1423 50.966 25.7388 50.8475 26.3116C50.7289 26.8843 50.3978 27.3909 49.9207 27.7293C48.9277 28.4533 47.5232 28.3508 46.8219 27.3421C46.3896 26.7206 45.9313 26.6008 45.2595 26.6112C43.0895 26.6424 43.0305 26.6199 43.1121 24.4497C43.1468 23.5 42.7406 23.4305 42.008 23.4843C41.6261 23.5121 41.508 23.6354 41.5219 24.0052C41.5428 24.5538 41.5219 25.1042 41.5219 25.6528C41.5219 26.2917 41.2233 26.6251 40.5775 26.6268H40.4039C39.772 26.6459 38.9197 26.4219 38.5638 26.7449C38.0933 27.1702 38.4371 28.0487 38.4058 28.7311C38.3746 29.4134 38.4145 30.12 38.3919 30.8145C38.3815 31.1877 38.5082 31.3353 38.8884 31.3162C39.6696 31.2936 40.4508 31.2902 41.232 31.3162C41.5896 31.3284 41.7146 31.1252 41.8882 30.8752C42.5826 29.8787 43.553 29.5314 44.5912 29.8752C45.0628 30.0264 45.4738 30.3243 45.7644 30.7254C46.055 31.1264 46.2101 31.6098 46.207 32.1051C46.2039 32.6004 46.0428 33.0818 45.7472 33.4792C45.4516 33.8766 45.0368 34.1692 44.5634 34.3146C43.5218 34.6462 42.5687 34.3042 41.8795 33.2729C41.6712 32.9621 41.4681 32.8319 41.1157 32.8666C40.9161 32.8857 40.7112 32.8666 40.5098 32.8666C39.8727 32.8666 39.1419 32.693 38.6263 32.9361C38.0725 33.2069 38.4527 34.0246 38.2791 34.5941C37.7861 36.3303 36.3556 37.5143 34.4599 37.5352C33.8593 37.5352 33.618 37.6897 33.6978 38.3043C33.7257 38.651 33.7257 38.9993 33.6978 39.346C33.6735 40.1481 33.6735 40.8165 34.5172 41.3982C35.5588 42.1204 35.5015 43.6969 34.6109 44.6344C34.3967 44.8599 34.1394 45.0402 33.8543 45.1646C33.5693 45.2891 33.2621 45.3551 32.9511 45.3588C32.6401 45.3625 32.3314 45.3039 32.0434 45.1863C31.7555 45.0687 31.494 44.8947 31.2744 44.6743C30.3595 43.7628 30.2484 42.176 31.2831 41.4416C32.1649 40.8131 32.151 40.0943 32.151 39.2314C32.1302 37.5525 32.151 37.5525 30.4949 37.5525C29.1634 37.5525 27.8319 37.5959 26.5021 37.5352C25.7557 37.5005 25.9084 37.9519 25.8963 38.3668C25.8841 38.7818 25.8268 39.1915 26.4865 39.122C27.0068 39.0924 27.5283 39.089 28.0489 39.1116C28.686 39.1116 29.0211 39.4085 29.0228 40.0544C29.0228 40.9815 29.0228 41.9069 29.0228 42.8322C29.0228 43.4712 28.719 43.801 28.0732 43.801C27.7263 43.775 27.3777 43.7796 27.0316 43.8149C26.6532 43.8826 26.0265 43.5111 25.9397 44.0927C25.8529 44.6743 25.6185 45.3584 26.4344 45.8289C27.3701 46.3688 27.6496 47.414 27.3371 48.4036C27.1921 48.8771 26.8998 49.292 26.5028 49.588C26.1058 49.884 25.6247 50.0457 25.1295 50.0496C24.6344 50.0535 24.1509 49.8993 23.7493 49.6096C23.3477 49.3198 23.049 48.9095 22.8965 48.4383C22.5684 47.4522 22.8357 46.4001 23.7645 45.8584C24.4068 45.4851 24.3304 45.0059 24.3269 44.4695C24.3061 42.1551 24.2037 42.2124 26.5282 42.2315C27.4222 42.2419 27.6826 41.8496 27.4552 40.9572C27.3684 40.6099 27.1358 40.6829 26.9257 40.6794C26.3754 40.669 25.8251 40.6794 25.2765 40.6794C24.6307 40.6794 24.3235 40.3495 24.3287 39.7106C24.3287 39.1898 24.3044 38.6689 24.3287 38.148C24.3547 37.7088 24.228 37.5334 23.7541 37.5456C22.569 37.5768 21.3833 37.5768 20.197 37.5456C19.7109 37.5317 19.6085 37.7331 19.6328 38.1585C19.6624 38.621 19.6624 39.0849 19.6328 39.5474C19.5842 40.2922 19.6918 40.8426 20.4158 41.353C21.4869 42.11 21.4573 43.7055 20.5303 44.6517C20.3136 44.8759 20.0539 45.0541 19.7669 45.1759C19.4798 45.2976 19.1712 45.3603 18.8594 45.3603C18.5476 45.3603 18.239 45.2976 17.952 45.1759C17.6649 45.0541 17.4053 44.8759 17.1885 44.6517C16.2581 43.7073 16.2164 42.1048 17.291 41.353C18.0548 40.8183 18.126 40.221 18.0739 39.4623C18.0739 39.3755 18.0739 39.2887 18.0739 39.2019C18.0739 38.7106 18.2163 38.1376 18.0131 37.7487C17.7718 37.2869 17.1261 37.5977 16.6625 37.5074C14.7825 37.1498 13.4267 35.6462 13.4197 33.6878C13.4197 32.969 13.1767 32.7902 12.5344 32.8614C12.1596 32.8953 11.7825 32.8953 11.4077 32.8614C10.6647 32.8076 10.1109 32.9118 9.60053 33.6375C8.8419 34.7139 7.25174 34.6792 6.30215 33.7607C6.07762 33.5444 5.8988 33.2851 5.77629 32.9984C5.65378 32.7116 5.59007 32.4032 5.58893 32.0914C5.5878 31.7796 5.64927 31.4707 5.76969 31.183C5.89011 30.8954 6.06705 30.6349 6.29 30.4169C7.23264 29.4863 8.8367 29.4429 9.58838 30.5141C10.1231 31.2745 10.715 31.3162 11.4754 31.3075C13.385 31.2832 13.385 31.3075 13.385 29.3665L13.3937 28.1564ZM14.9561 25.0122C14.9561 27.7299 14.9561 30.4499 14.9561 33.1722C14.9561 35.1167 15.8241 35.9969 17.7336 35.9969C23.1731 35.9969 28.6085 35.9969 34.0398 35.9969C35.9251 35.9969 36.8174 35.1167 36.8174 33.2573C36.8174 27.7941 36.8174 22.3298 36.8174 16.8643C36.8295 15.0275 35.9372 14.1177 34.1336 14.1177C28.6397 14.1177 23.147 14.1177 17.6555 14.1177C15.8536 14.1177 14.9647 15.0292 14.9561 16.8574C14.9561 19.5762 14.9561 22.2945 14.9561 25.0122ZM27.4552 2.44194C27.4222 1.97665 27.1896 1.66761 26.7209 1.64331C26.6197 1.62994 26.5169 1.63871 26.4194 1.66899C26.322 1.69927 26.2323 1.75035 26.1565 1.8187C26.0808 1.88704 26.0207 1.97103 25.9806 2.06484C25.9405 2.15866 25.9212 2.26008 25.924 2.36208C25.9107 2.46325 25.9195 2.56611 25.9497 2.66356C25.98 2.761 26.0311 2.85072 26.0994 2.92649C26.1678 3.00227 26.2517 3.0623 26.3455 3.10244C26.4394 3.14258 26.5408 3.16187 26.6428 3.15898C27.108 3.17982 27.3649 2.89161 27.4552 2.43847V2.44194ZM18.8134 6.30493C18.4003 6.39 18.0878 6.62438 18.1034 7.10183C18.1058 7.20169 18.1278 7.30011 18.1683 7.39145C18.2087 7.4828 18.2667 7.56528 18.339 7.6342C18.4113 7.70312 18.4965 7.75713 18.5896 7.79313C18.6828 7.82914 18.7822 7.84644 18.882 7.84404C18.9819 7.84165 19.0803 7.81961 19.1716 7.77918C19.2629 7.73875 19.3454 7.68073 19.4143 7.60842C19.4832 7.53612 19.5372 7.45094 19.5732 7.35777C19.6092 7.26459 19.6265 7.16523 19.6241 7.06537C19.6137 6.59834 19.3082 6.35701 18.8134 6.30493ZM33.7048 7.11398C33.6648 6.65042 33.4287 6.34312 32.96 6.32576C32.8586 6.31417 32.7559 6.32465 32.6589 6.35648C32.5619 6.3883 32.4729 6.44072 32.398 6.51014C32.3232 6.57956 32.2642 6.66434 32.2252 6.75867C32.1862 6.85301 32.168 6.95467 32.1719 7.05669C32.1603 7.15812 32.1708 7.26086 32.2026 7.35787C32.2344 7.45488 32.2868 7.54386 32.3562 7.61872C32.4256 7.69359 32.5104 7.75256 32.6048 7.7916C32.6991 7.83064 32.8007 7.84882 32.9027 7.84491C33.3697 7.86748 33.6232 7.5706 33.7048 7.11398ZM8.7065 18.031C8.65268 17.5709 8.40964 17.2671 7.93919 17.2636C7.74375 17.2705 7.55847 17.3524 7.42183 17.4923C7.28518 17.6322 7.2077 17.8194 7.20546 18.0149C7.20323 18.2105 7.27642 18.3994 7.40982 18.5424C7.54323 18.6854 7.7266 18.7715 7.92183 18.7828C8.38707 18.7897 8.64053 18.4929 8.7065 18.031ZM43.862 18.8054C44.3221 18.7463 44.6241 18.4981 44.6224 18.0293C44.6224 17.8276 44.5423 17.6342 44.3997 17.4916C44.2571 17.349 44.0637 17.2688 43.862 17.2688C43.6604 17.2688 43.467 17.349 43.3244 17.4916C43.1818 17.6342 43.1017 17.8276 43.1017 18.0293C43.0999 18.4929 43.4037 18.7394 43.862 18.8054ZM4.01932 24.3142C3.98634 23.8489 3.75372 23.5399 3.285 23.5156C3.18549 23.5105 3.08594 23.525 2.99204 23.5583C2.89814 23.5917 2.81173 23.6432 2.73774 23.7099C2.58831 23.8447 2.49854 24.0334 2.48818 24.2344C2.47782 24.4354 2.54772 24.6322 2.6825 24.7817C2.81728 24.9311 3.00591 25.0209 3.20688 25.0313C3.67212 25.0556 3.92905 24.7674 4.01932 24.3142ZM48.5666 26.6181C49.0266 26.5487 49.3217 26.2952 49.3096 25.8247C49.2968 25.6289 49.2088 25.4456 49.064 25.3132C48.9192 25.1807 48.7288 25.1094 48.5326 25.1141C48.3364 25.1188 48.1497 25.1992 48.0114 25.3384C47.8731 25.4776 47.794 25.6649 47.7906 25.8612C47.7993 26.3247 48.1135 26.5626 48.5666 26.6181ZM8.7065 32.0454C8.62143 31.594 8.36798 31.2989 7.89405 31.3284C7.69308 31.3385 7.50437 31.4281 7.36942 31.5773C7.23448 31.7266 7.16436 31.9234 7.17449 32.1244C7.18461 32.3254 7.27416 32.5141 7.42343 32.6491C7.5727 32.784 7.76947 32.8542 7.97044 32.844C8.43395 32.8215 8.66831 32.5211 8.7065 32.0454ZM43.902 32.8684C44.3551 32.7833 44.6484 32.5211 44.6207 32.0541C44.6155 31.9546 44.5909 31.857 44.548 31.767C44.5052 31.6771 44.4451 31.5964 44.3711 31.5297C44.2971 31.4629 44.2107 31.4114 44.1168 31.3781C44.0229 31.3447 43.9234 31.3302 43.8238 31.3353C43.7243 31.3404 43.6268 31.3651 43.5368 31.4079C43.4469 31.4508 43.3662 31.5109 43.2995 31.5849C43.2327 31.6589 43.1812 31.7453 43.1479 31.8392C43.1145 31.9331 43.1 32.0327 43.1051 32.1322C43.1277 32.594 43.4385 32.8267 43.902 32.8684ZM18.8134 42.2437C18.4003 42.3287 18.0878 42.5631 18.1034 43.0406C18.1082 43.2423 18.193 43.4338 18.339 43.573C18.4113 43.6419 18.4965 43.6959 18.5896 43.7319C18.6828 43.7679 18.7822 43.7852 18.882 43.7828C18.9819 43.7804 19.0803 43.7584 19.1716 43.7179C19.2629 43.6775 19.3454 43.6195 19.4143 43.5472C19.4832 43.4749 19.5372 43.3897 19.5732 43.2965C19.6092 43.2033 19.6265 43.104 19.6241 43.0041C19.6137 42.5371 19.3082 42.2958 18.8134 42.2437ZM32.9652 43.8062C33.4183 43.7212 33.7117 43.459 33.6839 42.992C33.6788 42.8924 33.6541 42.7949 33.6113 42.7049C33.5685 42.6149 33.5084 42.5343 33.4344 42.4675C33.3604 42.4008 33.274 42.3493 33.1801 42.3159C33.0862 42.2826 32.9866 42.2681 32.8871 42.2732C32.7876 42.2783 32.6901 42.303 32.6001 42.3458C32.5101 42.3887 32.4295 42.4488 32.3627 42.5228C32.296 42.5968 32.2445 42.6832 32.2111 42.7771C32.1778 42.871 32.1633 42.9706 32.1684 43.0701C32.191 43.5319 32.5017 43.7646 32.9652 43.8062ZM25.8928 47.7404C25.8529 47.2768 25.6168 46.9695 25.1481 46.9522C25.0466 46.9454 24.9447 46.959 24.8486 46.9922C24.7524 47.0255 24.6639 47.0777 24.5883 47.1458C24.5127 47.2139 24.4516 47.2964 24.4084 47.3886C24.3653 47.4807 24.3411 47.5806 24.3373 47.6822C24.3334 47.7839 24.35 47.8853 24.3861 47.9805C24.4222 48.0756 24.477 48.1625 24.5472 48.2361C24.6175 48.3097 24.7018 48.3684 24.7952 48.4088C24.8885 48.4492 24.989 48.4705 25.0908 48.4713C25.5578 48.4939 25.8112 48.197 25.8928 47.7404Z" fill="url(#paint0_linear_1_228)"/>
<path d="M35.2672 25.1285C35.2672 27.8184 35.2672 30.5083 35.2672 33.1982C35.2672 34.2208 35.064 34.4292 34.052 34.4309C28.6125 34.4309 23.1731 34.4309 17.7337 34.4309C16.7094 34.4309 16.5046 34.2295 16.5028 33.226C16.5028 27.786 16.5028 22.346 16.5028 16.906C16.5185 15.8851 16.7198 15.6802 17.7337 15.6802C23.1731 15.6802 28.6125 15.6802 34.052 15.6802C35.1022 15.6802 35.2828 15.8747 35.2845 16.9719C35.2729 19.6896 35.2672 22.4085 35.2672 25.1285ZM18.0809 25.0556C18.0809 27.3959 18.0982 29.7432 18.0704 32.0801C18.0704 32.6409 18.1486 32.8857 18.803 32.8822C23.5423 32.8521 28.2827 32.8521 33.0243 32.8822C33.5451 32.8822 33.7187 32.7676 33.7187 32.2155C33.6955 27.4445 33.6955 22.6741 33.7187 17.9043C33.7187 17.3522 33.5451 17.2358 33.0243 17.2393C28.2792 17.2567 23.5388 17.2567 18.803 17.2393C18.1486 17.2393 18.0635 17.4806 18.0704 18.0397C18.1017 20.3679 18.0809 22.7135 18.0809 25.0556Z" fill="url(#paint1_linear_1_228)"/>
<path d="M26.0039 20.3002C26.4865 21.0364 27.4413 20.9947 28.0645 21.5156C28.5089 21.8784 28.127 22.6354 27.483 22.6927C26.7886 22.7534 26.0942 22.7239 25.3998 22.7239C24.8581 22.7239 24.3669 22.8507 24.3582 23.4878C24.3495 24.125 24.8269 24.2761 25.3737 24.2778C25.865 24.2778 26.358 24.2604 26.8459 24.3038C27.3912 24.3397 27.9066 24.5665 28.3014 24.9444C28.6963 25.3223 28.9456 25.8272 29.0054 26.3705C29.0653 26.9138 28.9319 27.4609 28.6288 27.9157C28.3256 28.3705 27.872 28.7041 27.3476 28.8578C26.9691 28.9655 26.6532 29.0557 26.4796 29.4499C26.3957 29.5696 26.2731 29.6567 26.1324 29.6964C25.8286 29.8179 23.6638 28.7085 23.6065 28.396C23.4937 27.7797 23.7905 27.4463 24.3912 27.4185C25.0856 27.3873 25.78 27.4046 26.4744 27.4012C26.9952 27.4012 27.4222 27.2189 27.4326 26.639C27.443 26.0591 27.0264 25.8629 26.5004 25.8525C25.924 25.8386 25.3408 25.8664 24.7644 25.797C24.2681 25.7279 23.8076 25.4998 23.4519 25.1469C23.0962 24.794 22.8644 24.3353 22.7912 23.8396C22.7181 23.3439 22.8076 22.8378 23.0463 22.3972C23.285 21.9566 23.66 21.6052 24.1151 21.3958C24.6012 21.1822 25.1741 21.1423 25.4397 20.5589C25.4953 20.4374 25.74 20.4131 26.0039 20.3002Z" fill="url(#paint2_linear_1_228)"/>
<defs>
<linearGradient id="paint0_linear_1_228" x1="0.894821" y1="0.0546875" x2="58.3703" y2="11.0788" gradientUnits="userSpaceOnUse">
<stop stop-color="#EC9F05"/>
<stop offset="1" stop-color="#FF4E00"/>
</linearGradient>
<linearGradient id="paint1_linear_1_228" x1="16.5028" y1="15.6802" x2="38.0899" y2="19.8271" gradientUnits="userSpaceOnUse">
<stop stop-color="#EC9F05"/>
<stop offset="1" stop-color="#FF4E00"/>
</linearGradient>
<linearGradient id="paint2_linear_1_228" x1="22.7664" y1="20.3002" x2="30.0994" y2="21.2352" gradientUnits="userSpaceOnUse">
<stop stop-color="#EC9F05"/>
<stop offset="1" stop-color="#FF4E00"/>
</linearGradient>
</defs>
</svg>
