<svg width="45" height="44" viewBox="0 0 45 44" fill="none" xmlns="http://www.w3.org/2000/svg">
<path fill-rule="evenodd" clip-rule="evenodd" d="M0.519531 22.0547C0.519531 9.97461 10.3145 0.179688 22.3945 0.179688C34.4746 0.179688 44.2695 9.97461 44.2695 22.0547C44.2695 34.1348 34.4746 43.9297 22.3945 43.9297C10.3145 43.9297 0.519531 34.1348 0.519531 22.0547ZM22.3945 11.0547C19.4065 11.0547 19.0325 11.0667 17.8595 11.1207H17.8585C16.6885 11.1747 15.8885 11.3607 15.1885 11.6317C14.455 11.9081 13.7906 12.3412 13.2415 12.9007C12.6817 13.45 12.2483 14.1148 11.9715 14.8487C11.7005 15.5487 11.5135 16.3487 11.4605 17.5207C11.4075 18.6927 11.3945 19.0667 11.3945 22.0547C11.3945 25.0417 11.4065 25.4157 11.4605 26.5907C11.5145 27.7607 11.7005 28.5607 11.9715 29.2607C12.2478 29.9946 12.6809 30.6594 13.2405 31.2087C13.7904 31.7679 14.4555 32.2007 15.1895 32.4767C15.8895 32.7487 16.6895 32.9357 17.8595 32.9887C19.0325 33.0417 19.4065 33.0547 22.3945 33.0547C25.3825 33.0547 25.7565 33.0427 26.9305 32.9887C28.1005 32.9347 28.9005 32.7487 29.6005 32.4767C30.3335 32.2007 30.9985 31.7687 31.5485 31.2087C32.1078 30.6589 32.5405 29.9938 32.8165 29.2597C33.0885 28.5597 33.2755 27.7597 33.3285 26.5897C33.3815 25.4167 33.3945 25.0427 33.3945 22.0547C33.3945 19.0677 33.3825 18.6937 33.3285 17.5187C33.2745 16.3487 33.0885 15.5487 32.8165 14.8487C32.5405 14.1147 32.1085 13.4507 31.5485 12.9017C30.9985 12.3417 30.3335 11.9087 29.6005 11.6317C28.9005 11.3607 28.1005 11.1737 26.9285 11.1207C25.7565 11.0677 25.3825 11.0547 22.3945 11.0547ZM22.3945 13.0367C25.3315 13.0367 25.6795 13.0477 26.8395 13.1007C27.9125 13.1497 28.4945 13.3287 28.8825 13.4797C29.3602 13.6559 29.7925 13.9368 30.1475 14.3017C30.5325 14.6867 30.7695 15.0537 30.9695 15.5667C31.1205 15.9547 31.2995 16.5367 31.3485 17.6097C31.4015 18.7697 31.4125 19.1177 31.4125 22.0547C31.4125 24.9917 31.4015 25.3397 31.3485 26.4997C31.2995 27.5727 31.1205 28.1547 30.9695 28.5427C30.7935 29.0197 30.5125 29.4527 30.1475 29.8077C29.7625 30.1927 29.3955 30.4297 28.8825 30.6297C28.4945 30.7807 27.9125 30.9597 26.8395 31.0087C25.6795 31.0617 25.3325 31.0727 22.3945 31.0727C19.4565 31.0727 19.1095 31.0617 17.9495 31.0087C16.8765 30.9597 16.2945 30.7807 15.9065 30.6297C15.4295 30.4537 14.9965 30.1727 14.6415 29.8077C14.2765 29.4527 13.9955 29.0197 13.8195 28.5427C13.6685 28.1547 13.4895 27.5727 13.4405 26.4997C13.3875 25.3397 13.3765 24.9917 13.3765 22.0547C13.3765 19.1177 13.3875 18.7697 13.4405 17.6097C13.4895 16.5367 13.6685 15.9547 13.8195 15.5667C13.9957 15.089 14.2766 14.6567 14.6415 14.3017C15.0265 13.9167 15.3935 13.6797 15.9065 13.4797C16.2945 13.3287 16.8765 13.1497 17.9495 13.1007C19.1095 13.0477 19.4575 13.0367 22.3945 13.0367ZM23.4615 25.5704C22.6479 25.8164 21.7742 25.7723 20.9895 25.4457C20.4884 25.2379 20.0395 24.9215 19.6753 24.5194C19.311 24.1173 19.0405 23.6394 18.8831 23.1202C18.7257 22.601 18.6854 22.0533 18.765 21.5166C18.8447 20.98 19.0424 20.4676 19.3438 20.0165C19.6453 19.5654 20.043 19.1868 20.5083 18.9078C20.9737 18.6289 21.4951 18.4566 22.035 18.4033C22.575 18.35 23.12 18.4172 23.6309 18.5998C24.1417 18.7825 24.6058 19.0762 24.9895 19.4597C25.5915 20.0597 25.9666 20.85 26.0506 21.6958C26.1346 22.5416 25.9224 23.3903 25.4501 24.0969C24.9779 24.8036 24.275 25.3244 23.4615 25.5704ZM20.2308 16.831C19.5449 17.1152 18.9216 17.5317 18.3965 18.0567C17.3362 19.117 16.7405 20.5551 16.7405 22.0547C16.7405 23.5542 17.3362 24.9924 18.3965 26.0527C19.4569 27.113 20.895 27.7087 22.3945 27.7087C23.8941 27.7087 25.3322 27.113 26.3925 26.0527C26.9176 25.5277 27.334 24.9044 27.6182 24.2184C27.9023 23.5324 28.0486 22.7972 28.0486 22.0547C28.0486 21.3122 27.9023 20.577 27.6182 19.891C27.334 19.205 26.9176 18.5817 26.3925 18.0567C25.8675 17.5317 25.2442 17.1152 24.5582 16.831C23.8723 16.5469 23.137 16.4007 22.3945 16.4007C21.652 16.4007 20.9168 16.5469 20.2308 16.831ZM29.6088 16.8087C29.5368 16.9724 29.4326 17.12 29.3025 17.2427C29.0495 17.4814 28.7134 17.6121 28.3656 17.607C28.0178 17.6019 27.6857 17.4615 27.4397 17.2155C27.1937 16.9696 27.0533 16.6374 27.0482 16.2896C27.0432 15.9418 27.1738 15.6057 27.4125 15.3527C27.5353 15.2226 27.6828 15.1184 27.8466 15.0464C28.0103 14.9743 28.1868 14.9359 28.3656 14.9333C28.5444 14.9307 28.722 14.964 28.8877 15.0312C29.0535 15.0984 29.204 15.1983 29.3305 15.3247C29.457 15.4512 29.5568 15.6018 29.624 15.7675C29.6913 15.9332 29.7246 16.1108 29.7219 16.2896C29.7193 16.4685 29.6809 16.645 29.6088 16.8087Z" fill="url(#paint0_linear_1_395)"/>
<defs>
<linearGradient id="paint0_linear_1_395" x1="0.519531" y1="0.179688" x2="50.8103" y2="9.82464" gradientUnits="userSpaceOnUse">
<stop stop-color="#EC9F05"/>
<stop offset="1" stop-color="#FF4E00"/>
</linearGradient>
</defs>
</svg>
