<svg width="51" height="51" viewBox="0 0 51 51" fill="none" xmlns="http://www.w3.org/2000/svg">
<path d="M36.9204 50.0495C33.4221 50.0495 29.9238 50.0374 26.4238 50.0495C24.0656 50.0599 21.7663 49.7459 19.5608 48.8838C19.1617 48.7277 18.8997 48.7606 18.6203 49.1388C18.1448 49.7841 17.442 50.0426 16.649 50.0426C12.253 50.0426 7.857 50.0426 3.46099 50.0426C2.37992 50.0426 1.56261 49.5412 1.12879 48.5473C0.694976 47.5533 0.877179 46.6131 1.62681 45.8291C1.89578 45.5463 1.89752 45.3087 1.89752 44.934C1.89752 43.6919 1.69275 42.5679 1.02988 41.4646C0.580448 40.7187 1.41338 39.9034 1.37694 39.1853C1.3405 38.4671 0.682829 37.7542 1.01079 36.9771C1.33702 36.2277 1.30579 35.6084 1.03856 34.833C0.485009 33.2354 1.75002 31.747 3.62237 31.7106C5.35764 31.669 7.09291 31.6742 8.82817 31.7106C9.45461 31.7262 9.71316 31.5372 9.88842 30.9161C11.2419 26.1007 13.8969 22.1301 17.7926 18.992C18.1604 18.6954 18.2836 18.5185 17.9661 18.0415C17.2269 16.8948 17.4455 15.6684 18.5283 14.808C18.9205 14.4958 18.9691 14.2425 18.8372 13.7898C18.1552 11.441 17.449 9.09405 16.8677 6.71929C16.3471 4.60647 17.6694 2.76599 19.8176 2.64976C20.9421 2.58905 21.7264 2.28375 22.5403 1.4355C24.4942 -0.564573 27.8571 -0.351209 29.6306 1.79978C30.1373 2.41385 30.6249 2.60466 31.3762 2.59946C33.4586 2.58385 34.7253 3.64026 35.0463 5.52757C35.147 6.11736 34.9752 6.66898 34.819 7.22408C34.2117 9.4219 33.6008 11.6076 32.9605 13.7898C32.8269 14.2408 32.8772 14.4958 33.2677 14.8098C34.3453 15.6771 34.5518 16.8775 33.8368 18.0449C33.5939 18.4387 33.5644 18.6278 33.9531 18.9365C37.8482 21.9897 40.6537 26.2179 41.9527 30.9925C42.1089 31.5441 42.324 31.7193 42.888 31.7106C44.8541 31.6759 46.8201 31.6898 48.7879 31.7002C50.2698 31.7002 50.8928 32.3368 50.8928 33.8113C50.8928 38.5527 50.8928 43.2941 50.8928 48.0356C50.8928 49.4424 50.2906 50.0495 48.8938 50.0512C44.9015 50.0547 40.9104 50.0541 36.9204 50.0495ZM25.924 19.2124C24.3345 19.2124 22.7433 19.2332 21.1555 19.2002C20.6064 19.1802 20.067 19.3486 19.6267 19.6772C15.6703 22.5325 13.0935 26.373 11.556 30.9526C11.3929 31.4383 11.4103 31.7314 12.0905 31.7089C13.562 31.6586 15.0404 31.6603 16.5119 31.7089C18.7279 31.7713 19.8089 33.5875 18.8476 35.5442C18.7626 35.7177 18.5873 35.8495 18.747 36.0837C19.3127 36.9111 19.4671 37.8184 18.9396 38.6857C18.3531 39.6502 19.6337 40.351 19.1981 41.2547C19.1617 41.3311 19.1704 41.4282 19.1374 41.5063C18.9639 41.9191 19.0437 42.2001 19.3821 42.5471C19.8097 42.986 20.0556 43.5703 20.0704 44.1828C20.0852 44.7953 19.8678 45.3908 19.4619 45.8499C18.8285 46.5871 18.8893 46.8733 19.8089 47.2151C24.423 48.9237 29.0059 48.8734 33.3787 46.5646C38.2843 43.9747 41.2794 39.952 40.7866 34.2276C40.2504 27.9828 36.969 23.1639 31.9228 19.5159C31.5864 19.29 31.1834 19.1842 30.7793 19.2158C29.162 19.2193 27.543 19.2124 25.924 19.2124ZM25.8911 14.2616C27.366 14.2616 28.841 14.2287 30.316 14.2772C30.9285 14.298 31.1645 14.0847 31.319 13.5157C31.9506 11.1808 32.6378 8.8616 33.2902 6.53194C33.6616 5.20319 32.813 4.19708 31.4144 4.23525C31.0014 4.24739 30.8938 4.34453 30.9042 4.77646C30.9476 5.90226 30.9147 7.03153 30.9268 8.15733C30.9268 8.76446 30.6891 9.23282 30.0678 9.23282C29.4466 9.23282 29.2002 8.74364 29.2002 8.14865C29.2002 7.10785 29.2158 6.06705 29.2002 5.02625C29.1568 3.13373 27.7409 1.76682 25.8685 1.77896C25.4416 1.77391 25.018 1.85366 24.6221 2.01358C24.2263 2.17351 23.8662 2.41042 23.5627 2.71058C23.2593 3.01073 23.0184 3.36816 22.8542 3.7621C22.69 4.15604 22.6057 4.57866 22.6062 5.00544C22.5819 6.07399 22.6062 7.14428 22.5941 8.21457C22.5941 8.77487 22.3355 9.22588 21.7577 9.23108C21.1364 9.23108 20.8761 8.78528 20.89 8.17467C20.89 7.19285 20.89 6.2093 20.89 5.22574C20.89 4.20749 20.5568 3.98025 19.5643 4.33759C18.6619 4.66197 18.2351 5.51717 18.5231 6.50766C19.1686 8.8668 19.8662 11.2138 20.5031 13.5851C20.6558 14.1558 20.9299 14.2911 21.4713 14.279C22.9411 14.2408 24.4178 14.2616 25.8911 14.2616ZM33.9757 48.209C34.0624 48.2801 34.1023 48.3391 34.1492 48.3391C37.6718 48.3391 41.1944 48.3391 44.717 48.3669C45.1161 48.3669 45.1751 48.1379 45.2636 47.8465C45.8033 46.1274 46.9225 44.9652 48.6508 44.4396C49.0864 44.3078 49.2269 44.11 49.22 43.659C49.1945 41.8411 49.1945 40.0226 49.22 38.2035C49.22 37.7056 49.1141 37.4541 48.5762 37.298C47.2088 36.9042 46.0392 36.0594 45.6263 34.7168C45.2376 33.4505 44.5348 33.2423 43.4485 33.4002C43.391 33.4089 43.3325 33.4089 43.275 33.4002C42.6919 33.3065 42.501 33.4852 42.5288 34.1322C42.7752 39.73 40.3146 43.9469 35.8029 47.0832C35.2164 47.4909 34.5952 47.8309 33.9757 48.209V48.209ZM10.0706 33.4071C7.9883 33.4071 5.90598 33.4071 3.83581 33.4071C3.21805 33.4071 2.62112 33.4366 2.62112 34.2588C2.635 35.0308 3.23714 35.0603 3.80458 35.062C7.95996 35.062 12.1159 35.062 16.2725 35.062C16.8694 35.062 17.5253 35.0464 17.5323 34.2415C17.5392 33.4366 16.9163 33.4036 16.2968 33.4054C14.2266 33.4123 12.1477 33.4071 10.0706 33.4071ZM10.0862 36.7203H3.76293C3.16947 36.7203 2.61592 36.8123 2.62633 37.5721C2.63674 38.3318 3.20591 38.3908 3.79069 38.3908C7.97847 38.3908 12.1651 38.3908 16.3506 38.3908C16.944 38.3908 17.5236 38.3058 17.5392 37.579C17.5566 36.788 16.9475 36.7117 16.3245 36.7117C14.2439 36.7238 12.1738 36.7203 10.0914 36.7203H10.0862ZM10.0012 41.711C12.1078 41.711 14.2144 41.711 16.3211 41.711C16.9475 41.711 17.5531 41.6555 17.5357 40.8575C17.5236 40.1116 16.9197 40.0544 16.3436 40.0544C12.1582 40.0544 7.97327 40.0544 3.78896 40.0544C3.21632 40.0544 2.62112 40.1012 2.62112 40.8731C2.62112 41.6988 3.23888 41.7092 3.84796 41.7075C5.90251 41.7075 7.95186 41.711 10.0012 41.711V41.711ZM10.9383 45.0294C13.0449 45.0294 15.1532 45.0172 17.2598 45.0294C17.8915 45.0294 18.4103 44.8733 18.393 44.1725C18.3756 43.5063 17.829 43.4092 17.2598 43.4109C13.0177 43.4179 8.77727 43.4213 4.53859 43.4213C3.96248 43.4213 3.45058 43.5202 3.46099 44.2245C3.46967 44.8975 3.93993 45.0433 4.53686 45.0381C6.66603 45.019 8.80214 45.0294 10.9383 45.0294V45.0294ZM10.0914 46.7432C7.98657 46.7432 5.87996 46.7432 3.77508 46.7432C3.18335 46.7432 2.61939 46.7953 2.63327 47.5689C2.64542 48.2628 3.15385 48.3651 3.72649 48.3634C7.96748 48.3634 12.2079 48.3634 16.4477 48.3634C17.0204 48.3634 17.5392 48.2645 17.5514 47.5741C17.5635 46.8213 17.0117 46.738 16.4096 46.7398C14.296 46.7484 12.1911 46.7432 10.0914 46.7432ZM25.8824 17.6008C27.7033 17.6008 29.5241 17.6008 31.345 17.6008C31.9333 17.6008 32.4972 17.5367 32.5198 16.7821C32.5423 15.9651 31.9454 15.8939 31.3277 15.8939C27.7148 15.8939 24.102 15.8939 20.4892 15.8939C19.9079 15.8939 19.3317 15.9546 19.3144 16.7144C19.297 17.5263 19.8784 17.6026 20.5065 17.6008C22.2904 17.5939 24.0777 17.5916 25.8685 17.5939L25.8824 17.6008ZM46.8791 33.4071C46.995 33.8711 47.2118 34.3038 47.5141 34.6744C47.8165 35.045 48.1969 35.3444 48.6283 35.5512C49.0308 35.7645 49.1697 35.6466 49.2061 35.2042C49.3536 33.4002 49.3658 33.4019 47.5836 33.4141L46.8791 33.4071ZM46.8895 48.2801C49.1558 48.5698 49.3189 48.438 49.1992 46.5854C49.1974 46.5571 49.1974 46.5287 49.1992 46.5004C49.2235 46.039 48.9996 46.0459 48.6786 46.2072C48.2496 46.404 47.8681 46.6909 47.56 47.0483C47.2519 47.4057 47.0244 47.8253 46.893 48.2784L46.8895 48.2801Z" fill="url(#paint0_linear_1_236)"/>
<path d="M25.0581 36.5815C25.0581 36.3491 25.0425 36.1166 25.0581 35.8877C25.1466 34.8469 25.0477 34.1183 23.8192 33.591C22.2349 32.9127 21.5859 31.3758 21.7611 29.6359C21.9347 28.0105 22.8248 26.8605 24.3311 26.2186C24.6989 26.0608 25.0061 25.9411 25.2108 25.5092C25.2661 25.3722 25.361 25.2549 25.4835 25.1723C25.6059 25.0897 25.7503 25.0455 25.898 25.0455C26.0457 25.0455 26.1901 25.0897 26.3125 25.1723C26.435 25.2549 26.5299 25.3722 26.5852 25.5092C26.7899 25.9428 27.1057 26.0608 27.4684 26.2186C29.0076 26.883 29.8561 28.0678 30.0488 29.7261C30.1182 30.3194 29.9342 30.8086 29.2922 30.8727C28.6918 30.9317 28.4246 30.4998 28.3829 29.9464C28.3657 29.5563 28.2558 29.1758 28.0624 28.8365C27.869 28.4971 27.5976 28.2087 27.2706 27.9949C26.9409 27.7781 26.75 27.7885 26.75 28.2586C26.75 29.5874 26.7604 30.9161 26.75 32.2483C26.75 32.5762 26.9045 32.6647 27.1821 32.7687C28.9868 33.4401 30.0089 34.7254 30.0592 36.6735C30.1078 38.5244 29.1204 39.8861 27.1977 40.6632C26.8871 40.7898 26.7795 40.9963 26.6286 41.246C26.2381 41.8879 25.5249 41.9052 25.2022 41.2287C25.0043 40.8158 24.7041 40.7222 24.3658 40.5747C22.804 39.893 21.926 38.6978 21.7629 36.9944C21.7073 36.4358 21.8895 35.9848 22.4899 35.9102C23.0903 35.8356 23.3697 36.2433 23.4218 36.8018C23.5033 37.657 23.8556 38.344 24.5966 38.814C24.9176 39.0187 25.0703 38.958 25.0703 38.5677C25.0564 37.9103 25.0581 37.2459 25.0581 36.5815ZM25.0581 32.3975C25.0581 30.9178 25.0581 29.5683 25.0581 28.2204C25.0581 27.681 24.7718 27.8371 24.5098 28.0175C24.1542 28.2441 23.8665 28.5624 23.6768 28.9388C23.4871 29.3152 23.4026 29.7359 23.4322 30.1563C23.4738 31.1607 23.9736 31.8875 25.0581 32.3975ZM26.75 34.4011C26.75 35.8495 26.75 37.1765 26.75 38.5001C26.75 39.0482 26.9843 39.0014 27.3157 38.762C27.6802 38.5221 27.9716 38.1866 28.158 37.7922C28.3444 37.3979 28.4186 36.9598 28.3725 36.526C28.2875 35.5633 27.7912 34.8712 26.75 34.4011Z" fill="url(#paint1_linear_1_236)"/>
<path d="M43.4173 40.8662C43.4173 40.2087 43.6785 39.5782 44.1435 39.1134C44.6086 38.6485 45.2393 38.3873 45.897 38.3873C46.5546 38.3873 47.1853 38.6485 47.6504 39.1134C48.1154 39.5782 48.3767 40.2087 48.3767 40.8662C48.3787 41.1999 48.3145 41.5308 48.1876 41.8395C48.0607 42.1483 47.8738 42.4288 47.6376 42.6647C47.4014 42.9006 47.1207 43.0873 46.8118 43.2139C46.5029 43.3405 46.1718 43.4046 45.838 43.4022C45.1812 43.385 44.5579 43.1085 44.1043 42.6334C43.6507 42.1582 43.4037 41.5228 43.4173 40.8662ZM46.7455 40.8072C46.6154 40.3943 46.3707 40.0717 45.857 40.0925C45.7481 40.0868 45.6393 40.1051 45.5383 40.146C45.4372 40.187 45.3464 40.2497 45.2722 40.3296C45.1981 40.4095 45.1424 40.5047 45.1091 40.6086C45.0758 40.7124 45.0658 40.8222 45.0796 40.9303C45.1091 41.3935 45.4093 41.7352 45.9351 41.6988C46.4609 41.6624 46.6761 41.3397 46.7455 40.8072Z" fill="url(#paint2_linear_1_236)"/>
<defs>
<linearGradient id="paint0_linear_1_236" x1="0.896439" y1="0.0534668" x2="58.3677" y2="11.0747" gradientUnits="userSpaceOnUse">
<stop stop-color="#EC9F05"/>
<stop offset="1" stop-color="#FF4E00"/>
</linearGradient>
<linearGradient id="paint1_linear_1_236" x1="21.7333" y1="25.0455" x2="31.5698" y2="25.9872" gradientUnits="userSpaceOnUse">
<stop stop-color="#EC9F05"/>
<stop offset="1" stop-color="#FF4E00"/>
</linearGradient>
<linearGradient id="paint2_linear_1_236" x1="43.4167" y1="38.3873" x2="49.1227" y2="39.4696" gradientUnits="userSpaceOnUse">
<stop stop-color="#EC9F05"/>
<stop offset="1" stop-color="#FF4E00"/>
</linearGradient>
</defs>
</svg>
