<svg width="43" height="51" viewBox="0 0 43 51" fill="none" xmlns="http://www.w3.org/2000/svg">
<path d="M31.9097 15.8906C31.9143 16.1974 31.8975 16.504 31.8594 16.8084C31.7306 17.3849 32.0049 17.6218 32.5104 17.8232C35.5586 19.0414 38.5918 20.295 41.6344 21.5299C42.0709 21.7071 42.5671 21.8359 42.6268 22.3899C42.6865 22.9439 42.2369 23.1864 41.862 23.4607C40.7837 24.2479 39.7447 25.0967 38.6179 25.8056C37.9165 26.2495 37.9296 26.6637 38.2262 27.3259C38.9892 29.0216 39.6999 30.7397 40.4181 32.4559C40.8434 33.4726 40.7184 33.7618 39.713 34.1535C38.8492 34.4949 37.9874 34.8456 37.1125 35.1571C36.7002 35.3045 36.5529 35.5489 36.51 35.9761C36.2152 38.6903 35.8757 41.3971 35.5884 44.1113C35.5829 44.3276 35.5101 44.5368 35.38 44.7097C35.2499 44.8826 35.0691 45.0106 34.8628 45.0758C30.6443 46.7025 26.4271 48.3316 22.2112 49.9633C22.0554 50.0266 21.8884 50.0574 21.7203 50.0539C21.5522 50.0504 21.3866 50.0126 21.2337 49.9428C17.0799 48.326 12.9224 46.7137 8.76119 45.1056C8.237 44.9042 7.99635 44.6094 7.93479 44.0237C7.65684 41.3411 7.30986 38.6642 7.02445 35.9817C7.0203 35.7841 6.95144 35.5933 6.82845 35.4387C6.70545 35.284 6.53511 35.174 6.34355 35.1254C5.47052 34.812 4.62173 34.4203 3.74123 34.1311C2.86074 33.842 2.73202 33.3327 3.06594 32.5548C3.83451 30.7621 4.55831 28.947 5.36605 27.1692C5.64587 26.5536 5.52835 26.2365 4.99296 25.882C3.83637 25.1004 2.73015 24.2442 1.60155 23.4215C1.24711 23.1641 0.84417 22.9234 0.902 22.4086C0.959829 21.8937 1.38702 21.7426 1.80115 21.5728C4.84372 20.3398 7.8751 19.0787 10.927 17.8699C11.5034 17.6404 11.731 17.4016 11.6732 16.7394C11.4935 14.1435 12.3204 11.578 13.9824 9.57569C15.6443 7.57338 18.0136 6.28805 20.5982 5.98654C23.1829 5.68503 25.7843 6.39052 27.8625 7.95653C29.9407 9.52254 31.336 11.8288 31.7586 14.3964C31.8482 14.9467 31.8724 15.5063 31.9097 15.8906ZM21.7877 24.6098C24.0477 24.5917 26.208 23.6766 27.7933 22.0658C29.3787 20.4549 30.2591 18.2803 30.2411 16.0203C30.223 13.7602 29.3079 11.6 27.6971 10.0147C26.0862 8.42934 23.9116 7.54887 21.6515 7.56693C17.0308 7.60051 13.2066 11.4825 13.2252 16.1163C13.2294 17.2364 13.4542 18.3446 13.8868 19.3777C14.3195 20.4108 14.9514 21.3485 15.7466 22.1373C16.5418 22.926 17.4846 23.5504 18.5211 23.9746C19.5577 24.3989 20.6677 24.6147 21.7877 24.6098ZM20.9651 34.6833L20.7673 34.5863C19.6891 35.8585 18.5903 37.1159 17.5382 38.4086C17.07 38.9813 16.5887 39.0802 15.9115 38.8097C13.8129 37.9665 11.6993 37.1681 9.59132 36.3529C8.65859 35.9947 8.6045 36.0264 8.71642 37.0412C8.94401 39.1082 9.21077 41.1695 9.43463 43.2346C9.4738 43.5816 9.65102 43.6991 9.93084 43.8091C13.4267 45.1597 16.9189 46.5178 20.4073 47.8833C20.8065 48.04 20.9669 48.0008 20.9669 47.5326C20.9619 43.2545 20.9619 38.9739 20.9669 34.6908L20.9651 34.6833ZM22.754 34.5882L22.5675 34.6889C22.5675 38.944 22.5675 43.1991 22.5675 47.4543C22.5675 48.0475 22.7746 48.0344 23.2297 47.8553C26.6603 46.5066 30.0984 45.1784 33.5308 43.839C33.7808 43.742 34.0569 43.6935 34.0905 43.3167C34.3255 41.1266 34.5699 38.9384 34.8366 36.7521C34.9299 35.9854 34.5587 36.1216 34.0905 36.3007C31.9843 37.1177 29.8577 37.8919 27.7703 38.7593C26.9308 39.11 26.4047 38.9459 25.8544 38.2613C24.8639 37.0133 23.7931 35.8156 22.7559 34.5956L22.754 34.5882ZM20.4222 32.4783C16.0384 30.7304 11.759 29.0328 7.49268 27.3054C7.07482 27.1375 7.02258 27.3558 6.91439 27.6113C6.26147 29.1503 5.61976 30.6949 4.94819 32.2265C4.76164 32.6332 4.81947 32.7992 5.26345 32.9727C8.82275 34.322 12.3752 35.69 15.9208 37.0767C16.2734 37.2147 16.4805 37.1793 16.7099 36.8901C17.9001 35.4668 19.1052 34.049 20.4241 32.4858L20.4222 32.4783ZM38.7037 32.5492C38.6758 32.4802 38.6571 32.4224 38.6329 32.3627C37.937 30.7397 37.2244 29.1261 36.5585 27.4901C36.3719 27.0237 36.1219 27.283 35.9111 27.367C31.8258 28.9837 27.7423 30.6091 23.6606 32.2433C23.2614 32.4018 23.1346 32.5455 23.4741 32.9372C24.6176 34.243 25.7294 35.5843 26.8431 36.9181C26.9155 37.035 27.0301 37.1195 27.1631 37.1543C27.2961 37.189 27.4373 37.1712 27.5576 37.1047C31.1318 35.7037 34.7135 34.3251 38.2933 32.9428C38.4967 32.8701 38.7336 32.8495 38.7056 32.5567L38.7037 32.5492ZM34.6706 26.0966C32.6186 25.2758 30.7196 24.5352 28.8373 23.7647C28.4493 23.6062 28.2553 23.8468 28.0277 24.0296C27.0212 24.8047 25.8901 25.4027 24.6829 25.7981C23.9964 26.0443 22.9742 25.7794 22.6589 26.4361C22.3436 27.0927 22.5619 27.9546 22.5656 28.7287C22.5656 29.4078 22.3511 30.4655 22.6775 30.68C23.2129 31.0326 23.9591 30.3647 24.6046 30.1204C27.9064 28.8239 31.1953 27.4938 34.6725 26.104L34.6706 26.0966ZM8.88432 26.119C12.8689 27.7027 16.6838 29.2156 20.4931 30.7416C21.0527 30.9673 20.9613 30.5811 20.9632 30.2883C20.9632 29.169 20.9333 28.0497 20.98 26.9304C21.0024 26.3708 20.8084 26.1525 20.2786 26.0798C18.488 25.8412 16.8008 25.1036 15.4097 23.9513C15.3116 23.8536 15.1864 23.7876 15.0503 23.762C14.9143 23.7364 14.7736 23.7523 14.6467 23.8076C12.7869 24.5594 10.9233 25.3056 8.88618 26.1264L8.88432 26.119ZM40.0693 22.7611C39.986 22.6739 39.8927 22.5969 39.7913 22.5317C37.1797 21.4646 34.568 20.4069 31.9564 19.3324C31.5404 19.1608 31.3669 19.2485 31.2232 19.6831C30.9577 20.4799 30.5625 21.2274 30.0536 21.8955C29.785 22.25 29.7477 22.4291 30.2308 22.6156C32.253 23.3991 34.2621 24.2143 36.273 25.0221C36.5118 25.1191 36.7431 25.1974 36.9782 25.0221L40.0693 22.7611ZM3.35135 22.6828C4.50048 23.5241 5.50223 24.2498 6.49466 24.9866C6.76142 25.1844 7.00766 25.1209 7.28188 25.0109C9.29285 24.2013 11.3038 23.3898 13.3223 22.6007C13.7271 22.4421 13.77 22.2892 13.5088 21.944C12.9827 21.2507 12.5703 20.4781 12.2869 19.6551C12.1601 19.282 12.0258 19.1496 11.6247 19.3137C8.93655 20.4181 6.24095 21.5075 3.35135 22.6828Z" fill="url(#paint0_linear_1_183)"/>
<path d="M7.89189 16.8886C7.42553 16.8886 6.95916 16.9036 6.49466 16.8886C6.03016 16.8737 5.74848 16.6163 5.71303 16.1425C5.69758 16.0407 5.70448 15.9368 5.73324 15.838C5.76199 15.7392 5.81193 15.6478 5.87956 15.5702C5.9472 15.4926 6.03091 15.4307 6.12489 15.3888C6.21887 15.3468 6.32086 15.3258 6.42377 15.3273C7.38449 15.2825 8.34893 15.2843 9.30965 15.3273C9.41325 15.322 9.51676 15.3393 9.61298 15.3781C9.7092 15.4169 9.79582 15.4761 9.86683 15.5517C9.93784 15.6274 9.99153 15.7175 10.0242 15.816C10.0568 15.9145 10.0676 16.0189 10.0558 16.1219C10.0353 16.6499 9.71632 16.8961 9.20518 16.9073C8.76306 16.8961 8.32841 16.8905 7.89189 16.8886Z" fill="url(#paint1_linear_1_183)"/>
<path d="M35.6518 16.8868C35.1873 16.8868 34.7191 16.9036 34.2546 16.8868C34.1525 16.8924 34.0504 16.8765 33.9548 16.8403C33.8592 16.804 33.7723 16.7482 33.6995 16.6763C33.6268 16.6045 33.5699 16.5182 33.5325 16.423C33.4951 16.3279 33.478 16.226 33.4823 16.1238C33.4685 16.0218 33.477 15.918 33.5072 15.8196C33.5374 15.7211 33.5886 15.6304 33.6572 15.5537C33.7258 15.4769 33.8102 15.4159 33.9047 15.3749C33.9991 15.3339 34.1013 15.3138 34.2042 15.3161C35.165 15.2769 36.1294 15.2751 37.0901 15.3161C37.1931 15.313 37.2955 15.3324 37.3902 15.3728C37.485 15.4133 37.5698 15.4738 37.6388 15.5503C37.7079 15.6268 37.7594 15.7174 37.79 15.8158C37.8205 15.9141 37.8293 16.018 37.8158 16.1201C37.7897 16.6518 37.4669 16.8868 36.9577 16.8943C36.523 16.8943 36.0884 16.8943 35.6518 16.8943V16.8868Z" fill="url(#paint2_linear_1_183)"/>
<path d="M30.6207 8.05943C30.0107 8.04264 29.5536 7.38227 29.8857 6.94015C30.5464 6.04777 31.3383 5.26036 32.2343 4.60459C32.516 4.40126 32.8947 4.47961 33.167 4.76502C33.4021 5.02059 33.4786 5.38249 33.2846 5.62314C32.5932 6.49218 31.8025 7.27728 30.9285 7.96243C30.8331 8.01423 30.7286 8.04717 30.6207 8.05943Z" fill="url(#paint3_linear_1_183)"/>
<path d="M13.7364 7.19198C13.7461 7.34274 13.7124 7.49314 13.6394 7.62537C13.5663 7.7576 13.4569 7.86615 13.3241 7.93817C13.1939 8.02535 13.0384 8.06679 12.8821 8.05598C12.7257 8.04518 12.5774 7.98274 12.4604 7.87847C11.7422 7.19385 11.0464 6.48497 10.3655 5.76117C10.1025 5.47949 10.1267 5.13624 10.3655 4.82844C10.6341 4.474 11.0538 4.38819 11.356 4.61764C12.2011 5.29388 12.9687 6.06152 13.645 6.90657C13.6955 6.99406 13.7267 7.09139 13.7364 7.19198Z" fill="url(#paint4_linear_1_183)"/>
<path d="M22.5488 2.24663C22.5488 2.713 22.5731 3.17936 22.5488 3.642C22.5369 3.84205 22.4485 4.02984 22.3018 4.1664C22.1551 4.30297 21.9615 4.37781 21.7611 4.37541C21.5607 4.37301 21.3689 4.29355 21.2256 4.15352C21.0822 4.01348 20.9983 3.82362 20.9912 3.62334C20.9725 2.66263 20.9725 1.70005 20.9912 0.741205C21.0042 0.308418 21.2878 0.0677729 21.7243 0.0547147C22.2 0.0416564 22.5041 0.276705 22.5339 0.75986C22.5637 1.24301 22.5339 1.75042 22.5339 2.25223L22.5488 2.24663Z" fill="url(#paint5_linear_1_183)"/>
<path d="M24.2464 20.4405C24.1713 20.4316 24.0974 20.414 24.0263 20.3883C22.5208 19.6122 21.0415 19.6421 19.4932 20.3528C18.8962 20.6252 18.4896 20.2484 18.4075 19.5954C18.3851 19.4414 18.3851 19.285 18.4075 19.1309C18.6407 17.7374 18.1314 16.6275 17.2304 15.5866C16.4562 14.6911 16.6204 14.1166 17.7565 13.848C18.4196 13.708 19.0453 13.4286 19.5921 13.0281C20.1389 12.6277 20.5942 12.1154 20.9277 11.5255C21.4743 10.6263 22.0918 10.63 22.6421 11.5441C22.9766 12.1318 23.4324 12.6416 23.9792 13.0395C24.526 13.4374 25.1513 13.7143 25.8134 13.8517C26.8954 14.1091 27.0968 14.7247 26.3581 15.5306C25.3358 16.6499 24.9702 17.8811 25.1381 19.3455C25.2034 19.9947 24.959 20.448 24.2464 20.4405ZM22.9667 18.3363C23.4163 18.4575 23.5413 18.2934 23.5133 18.0378C23.4527 17.5765 23.4976 17.1075 23.6447 16.6661C23.7917 16.2247 24.037 15.8224 24.3621 15.4896C24.6325 15.1986 24.4217 15.0605 24.1363 14.9952C23.2596 14.7937 22.5376 14.3815 22.0992 13.5569C21.8996 13.1839 21.6627 13.1391 21.4445 13.5439C21.2453 13.9279 20.9584 14.2597 20.6071 14.5121C20.2557 14.7646 19.8498 14.9308 19.4223 14.9971C19.0623 15.0642 18.8981 15.2303 19.1947 15.5418C19.5074 15.8652 19.7418 16.2561 19.8799 16.6842C20.0179 17.1124 20.0561 17.5665 19.9913 18.0117C19.9596 18.3139 20.1181 18.5172 20.439 18.3736C21.3381 17.9744 22.2261 17.9091 22.9667 18.3363Z" fill="url(#paint6_linear_1_183)"/>
<defs>
<linearGradient id="paint0_linear_1_183" x1="0.896423" y1="5.91833" x2="49.0526" y2="14.6517" gradientUnits="userSpaceOnUse">
<stop stop-color="#EC9F05"/>
<stop offset="1" stop-color="#FF4E00"/>
</linearGradient>
<linearGradient id="paint1_linear_1_183" x1="5.705" y1="15.2944" x2="9.79801" y2="17.4141" gradientUnits="userSpaceOnUse">
<stop stop-color="#EC9F05"/>
<stop offset="1" stop-color="#FF4E00"/>
</linearGradient>
<linearGradient id="paint2_linear_1_183" x1="33.4759" y1="15.286" x2="37.5588" y2="17.402" gradientUnits="userSpaceOnUse">
<stop stop-color="#EC9F05"/>
<stop offset="1" stop-color="#FF4E00"/>
</linearGradient>
<linearGradient id="paint3_linear_1_183" x1="29.7741" y1="4.49072" x2="33.9318" y2="5.29972" gradientUnits="userSpaceOnUse">
<stop stop-color="#EC9F05"/>
<stop offset="1" stop-color="#FF4E00"/>
</linearGradient>
<linearGradient id="paint4_linear_1_183" x1="10.1772" y1="4.49005" x2="14.2709" y2="5.27366" gradientUnits="userSpaceOnUse">
<stop stop-color="#EC9F05"/>
<stop offset="1" stop-color="#FF4E00"/>
</linearGradient>
<linearGradient id="paint5_linear_1_183" x1="20.9772" y1="0.0541992" x2="22.8538" y2="0.185998" gradientUnits="userSpaceOnUse">
<stop stop-color="#EC9F05"/>
<stop offset="1" stop-color="#FF4E00"/>
</linearGradient>
<linearGradient id="paint6_linear_1_183" x1="16.7537" y1="10.8548" x2="28.2589" y2="13.1662" gradientUnits="userSpaceOnUse">
<stop stop-color="#EC9F05"/>
<stop offset="1" stop-color="#FF4E00"/>
</linearGradient>
</defs>
</svg>
