<svg width="45" height="44" viewBox="0 0 45 44" fill="none" xmlns="http://www.w3.org/2000/svg">
<path d="M22.3945 0.179688C10.3132 0.179688 0.519531 9.97331 0.519531 22.0547C0.519531 34.1361 10.3132 43.9297 22.3945 43.9297C34.4759 43.9297 44.2695 34.1361 44.2695 22.0547C44.2695 9.97331 34.4759 0.179688 22.3945 0.179688ZM17.0397 31.1214H12.61V16.8662H17.0397V31.1214ZM14.7975 15.1162C13.3984 15.1162 12.4938 14.125 12.4938 12.8991C12.4938 11.6481 13.4258 10.6865 14.8545 10.6865C16.2832 10.6865 17.1582 11.6481 17.1855 12.8991C17.1855 14.125 16.2832 15.1162 14.7975 15.1162ZM33.2181 31.1214H28.7884V23.2214C28.7884 21.3825 28.1458 20.1338 26.5439 20.1338C25.3203 20.1338 24.5934 20.9792 24.2721 21.7926C24.1536 22.082 24.124 22.4922 24.124 22.9001V31.1191H19.6921V21.4121C19.6921 19.6325 19.6351 18.1445 19.5758 16.8639H23.4245L23.6273 18.8441H23.7161C24.2995 17.9144 25.7282 16.5426 28.1185 16.5426C31.0329 16.5426 33.2181 18.4954 33.2181 22.6927V31.1214Z" fill="url(#paint0_linear_1_393)"/>
<defs>
<linearGradient id="paint0_linear_1_393" x1="0.519531" y1="0.179688" x2="50.8103" y2="9.82464" gradientUnits="userSpaceOnUse">
<stop stop-color="#EC9F05"/>
<stop offset="1" stop-color="#FF4E00"/>
</linearGradient>
</defs>
</svg>
