<svg width="25" height="25" viewBox="0 0 25 25" fill="none" xmlns="http://www.w3.org/2000/svg">
<path d="M12.8945 23.0547C11.3511 21.7382 9.92042 20.2949 8.61755 18.7399C6.66238 16.4047 4.34061 12.9269 4.34061 9.61286C4.33976 7.92037 4.84102 6.26566 5.78095 4.85816C6.72088 3.45065 8.05724 2.35362 9.62088 1.70589C11.1845 1.05817 12.9052 0.888864 14.5651 1.21941C16.225 1.54996 17.7495 2.3655 18.9458 3.56282C19.7422 4.35572 20.3735 5.29869 20.803 6.33718C21.2326 7.37567 21.452 8.48904 21.4484 9.61286C21.4484 12.9269 19.1266 16.4047 17.1714 18.7399C15.8686 20.2948 14.4379 21.7382 12.8945 23.0547ZM12.8945 5.94691C11.9222 5.94691 10.9898 6.33315 10.3023 7.02064C9.61478 7.70814 9.22854 8.64059 9.22854 9.61286C9.22854 10.5851 9.61478 11.5176 10.3023 12.2051C10.9898 12.8926 11.9222 13.2788 12.8945 13.2788C13.8668 13.2788 14.7992 12.8926 15.4867 12.2051C16.1742 11.5176 16.5604 10.5851 16.5604 9.61286C16.5604 8.64059 16.1742 7.70814 15.4867 7.02064C14.7992 6.33315 13.8668 5.94691 12.8945 5.94691Z" fill="url(#paint0_linear_1_380)"/>
<defs>
<linearGradient id="paint0_linear_1_380" x1="4.34061" y1="1.05469" x2="24.2858" y2="4.02924" gradientUnits="userSpaceOnUse">
<stop stop-color="#EC9F05"/>
<stop offset="1" stop-color="#FF4E00"/>
</linearGradient>
</defs>
</svg>
