<svg width="49" height="51" viewBox="0 0 49 51" fill="none" xmlns="http://www.w3.org/2000/svg">
<path d="M18.3727 34.6965C18.3553 35.0453 18.6099 35.2458 18.7651 35.4743C20.6465 38.2645 22.5505 41.0424 24.4197 43.8448C25.3595 45.2399 25.4188 46.7466 24.5557 48.1923C23.7414 49.556 22.4424 50.1541 20.8714 50.0442C19.4765 49.9483 18.4477 49.1584 17.677 48.0301C15.5359 44.8911 13.4028 41.7446 11.2779 38.5906C10.9588 38.1127 10.7548 37.9384 10.141 38.2523C7.06702 39.8217 3.56929 38.6952 1.7594 35.6016C0.0942252 32.7504 0.894554 29.1911 3.63555 27.2729C3.7959 27.1485 3.96553 27.0366 4.14295 26.9381C7.12107 25.468 8.90307 23.0371 10.2056 20.0219C11.7522 16.4348 13.7451 13.0465 15.3144 9.45935C16.5228 6.70579 18.847 6.13206 21.309 6.93075C23.6281 7.68236 25.5565 9.05478 27.2862 10.7149C31.4326 14.6909 34.4526 19.368 35.8911 24.9727C36.4141 26.9869 36.6391 29.0481 35.7899 31.0414C35.1674 32.5045 34.1038 33.3816 32.4177 33.5072C27.8843 33.8455 23.3369 34.2536 18.7982 34.6355C18.657 34.6477 18.5157 34.6756 18.3727 34.6965ZM34.2991 27.6286C34.2885 26.5518 34.1121 25.4831 33.776 24.4601C32.0568 19.1622 29.0281 14.7398 24.7911 11.1457C23.3665 9.93717 21.7973 8.93794 19.9089 8.60137C18.3728 8.32758 17.1714 9.26927 16.9587 10.8213C16.7877 12.2063 16.8986 13.6115 17.2847 14.9525C18.6064 19.8685 21.2585 24.0049 24.805 27.5955C26.4074 29.2173 28.1981 30.5723 30.3724 31.3867C32.6392 32.2359 33.851 30.7223 34.191 29.1911C34.2974 28.6872 34.266 28.1501 34.2991 27.6286ZM15.1052 14.4172C15.0269 14.5222 14.9547 14.6317 14.889 14.745C13.3197 17.9415 11.7609 21.1432 10.1707 24.3362C9.94751 24.7827 10.0469 25.0756 10.2962 25.4384C11.8864 27.7594 13.4766 30.0788 15.0267 32.4243C15.3441 32.9056 15.7032 32.9474 16.1967 32.9038C18.4216 32.7172 20.6482 32.5551 22.8731 32.3807C24.2349 32.2708 25.5949 32.1365 27.0578 32.004C20.9464 27.5066 17.0075 21.7152 15.1052 14.4172ZM2.8265 32.5289C2.93461 34.1943 3.71924 35.5911 5.26759 36.47C6.81594 37.3489 8.3329 37.2112 9.80104 36.259C10.917 35.5283 11.9963 34.7419 13.1139 34.0216C13.5237 33.7583 13.4975 33.5595 13.2517 33.202C11.7731 31.0513 10.3079 28.8924 8.85599 26.7253C8.62932 26.387 8.4689 26.3207 8.12018 26.5684C6.93799 27.4072 5.71222 28.1867 4.54398 29.0429C3.41411 29.8643 2.8945 31.0292 2.8265 32.5289ZM21.1608 48.1051C21.9734 48.1434 22.5557 47.7563 22.9446 47.0797C23.3892 46.3194 23.2741 45.5834 22.7946 44.8754C20.629 41.6807 18.4582 38.4912 16.31 35.2842C15.9456 34.7384 15.5411 34.7279 15.0686 35.0331C14.3136 35.5196 13.5917 36.0585 12.8297 36.5363C12.4531 36.7717 12.481 36.9566 12.7112 37.2862C14.9779 40.5995 17.2132 43.9128 19.4678 47.2174C19.867 47.8051 20.4233 48.1434 21.1608 48.1051Z" fill="url(#paint0_linear_1_244)"/>
<path d="M38.034 13.615C37.4969 13.615 37.1621 13.4406 36.9878 13.0133C36.8134 12.5861 36.9512 12.2757 37.2423 11.9914C37.3704 11.8738 37.5093 11.7687 37.6573 11.6775C39.7131 10.3278 41.7741 8.98674 43.8211 7.62479C44.4087 7.23242 44.9632 7.11209 45.4008 7.75732C45.8385 8.40255 45.481 8.89083 44.9091 9.26576C42.8493 10.6132 40.7901 11.9606 38.7314 13.308C38.4925 13.4824 38.2449 13.6184 38.034 13.615Z" fill="url(#paint1_linear_1_244)"/>
<path d="M47.1462 21.4362L40.911 20.3201C40.3983 20.2277 39.8857 20.1457 39.3766 20.0324C38.7733 19.9103 38.4507 19.5319 38.5501 18.9181C38.6495 18.3042 39.1011 18.0252 39.6956 18.1281C42.2867 18.578 44.876 19.0506 47.4635 19.5232C48.0337 19.6278 48.3458 20.0184 48.2691 20.5695C48.1872 21.1729 47.7774 21.4763 47.1462 21.4362Z" fill="url(#paint2_linear_1_244)"/>
<path d="M32.1056 7.60038C32.3463 5.41184 32.5939 3.22155 32.8205 1.03126C32.8885 0.359871 33.2303 -0.0150596 33.8894 0.065158C34.6182 0.155839 34.7839 0.699924 34.7159 1.35736C34.4834 3.60578 34.2509 5.85478 34.0184 8.10436C33.9504 8.74959 33.6801 9.26926 32.9478 9.21171C32.2155 9.15416 32.0254 8.61357 32.1039 7.9509C32.1161 7.8358 32.1248 7.72071 32.1353 7.60213L32.1056 7.60038Z" fill="url(#paint3_linear_1_244)"/>
<path d="M29.1536 21.2862C29.0787 23.0039 28.43 24.4252 27.0473 25.4837C26.5085 25.8935 25.9715 25.9685 25.5304 25.3826C25.1119 24.8263 25.356 24.3833 25.8355 23.9613C27.3071 22.6517 27.5966 20.92 26.6254 19.4674C25.6263 17.9781 23.9175 17.6049 22.1024 18.5083C21.4938 18.81 20.9585 18.8134 20.6185 18.1717C20.2785 17.53 20.629 17.1254 21.1626 16.8132C22.9062 15.7896 24.7004 15.7669 26.4475 16.7295C28.1946 17.6921 29.063 19.286 29.1536 21.2862Z" fill="url(#paint4_linear_1_244)"/>
<defs>
<linearGradient id="paint0_linear_1_244" x1="0.894531" y1="6.59985" x2="42.1467" y2="13.0557" gradientUnits="userSpaceOnUse">
<stop stop-color="#EC9F05"/>
<stop offset="1" stop-color="#FF4E00"/>
</linearGradient>
<linearGradient id="paint1_linear_1_244" x1="36.9108" y1="7.30194" x2="46.5879" y2="9.85516" gradientUnits="userSpaceOnUse">
<stop stop-color="#EC9F05"/>
<stop offset="1" stop-color="#FF4E00"/>
</linearGradient>
<linearGradient id="paint2_linear_1_244" x1="38.5323" y1="18.1072" x2="47.369" y2="23.0646" gradientUnits="userSpaceOnUse">
<stop stop-color="#EC9F05"/>
<stop offset="1" stop-color="#FF4E00"/>
</linearGradient>
<linearGradient id="paint3_linear_1_244" x1="32.0875" y1="0.0544434" x2="35.227" y2="0.228099" gradientUnits="userSpaceOnUse">
<stop stop-color="#EC9F05"/>
<stop offset="1" stop-color="#FF4E00"/>
</linearGradient>
<linearGradient id="paint4_linear_1_244" x1="20.4841" y1="16.026" x2="30.5261" y2="17.7331" gradientUnits="userSpaceOnUse">
<stop stop-color="#EC9F05"/>
<stop offset="1" stop-color="#FF4E00"/>
</linearGradient>
</defs>
</svg>
