<svg width="51" height="51" viewBox="0 0 51 51" fill="none" xmlns="http://www.w3.org/2000/svg">
<path d="M10.4846 32.7979C8.60176 34.7291 7.60853 36.9732 7.61223 39.6377C7.61223 42.2613 7.64552 44.8832 7.59373 47.505C7.57894 48.2716 7.83788 48.4012 8.52778 48.3975C12.9964 48.3697 17.465 48.3827 21.9336 48.3845C22.2103 48.367 22.4882 48.3794 22.7622 48.4216C22.9434 48.4618 23.1054 48.5628 23.2216 48.7077C23.3377 48.8526 23.401 49.0329 23.401 49.2187C23.401 49.4044 23.3377 49.5847 23.2216 49.7296C23.1054 49.8745 22.9434 49.9755 22.7622 50.0158C22.5178 50.0557 22.2695 50.0675 22.0224 50.0509C17.1222 50.0509 12.222 50.0509 7.32184 50.0509C6.13071 50.0509 5.9476 49.8658 5.94575 48.6437C5.94575 45.8349 5.99754 43.0279 5.93095 40.2209C5.85697 37.0066 6.8243 34.1866 9.05491 31.8888C10.0592 30.8556 10.198 29.7262 10.1073 28.4356C10.0746 28.1285 9.92566 27.8457 9.69117 27.645C8.47784 26.4193 7.2719 25.1917 6.08817 23.94C5.9591 23.7924 5.79193 23.6832 5.60499 23.6244C5.41805 23.5656 5.21854 23.5595 5.02835 23.6067C3.09183 23.89 1.59551 22.2088 2.27986 20.3868C2.64978 19.411 2.0949 18.8815 1.70463 18.2334C0.753944 16.617 0.563436 14.9284 1.54372 13.3268C2.85323 11.1863 4.62144 9.47177 7.01851 8.55338C8.56662 7.96088 10.1425 7.44244 11.7072 6.88696C12.3157 6.67403 12.9113 6.41111 13.5346 6.25928C15.6672 5.73713 17.4188 4.68359 18.7838 2.92644C19.5236 1.97103 20.158 2.14507 20.5797 3.26528C21.0014 4.38548 21.3991 5.45384 21.7875 6.55553C22.2998 8.00532 22.2295 9.40141 21.3269 10.6938C21.0403 11.103 20.8202 11.4344 21.4712 11.7622C21.9207 11.9825 22.1537 12.4584 22.3257 12.9305C22.6827 13.9137 23.0489 14.8932 23.3929 15.8801C23.7869 17.0151 23.6019 18.0409 22.6254 18.7833C22.1944 19.1111 22.3054 19.3129 22.5292 19.6628C23.8239 21.6996 23.8239 21.6996 21.9373 23.2919C21.8031 23.39 21.6942 23.5189 21.6199 23.6677C21.5456 23.8165 21.5079 23.981 21.5101 24.1474C21.4546 26.897 20.0507 28.693 17.539 29.6854C17.2634 29.7947 16.8861 29.7928 16.8084 30.1539C16.7141 30.589 17.1173 30.7205 17.3836 30.8945C19.8639 32.5184 21.7117 34.6236 22.494 37.5602C22.5329 37.7083 22.5736 37.8564 22.605 38.0064C22.7234 38.5452 22.6624 39.0285 22.0501 39.1785C21.4379 39.3285 21.1253 38.9692 21.0051 38.4138C20.5078 36.194 19.2005 34.2401 17.3392 32.935C17.1062 32.7683 16.8972 32.4887 16.7011 33.0572C16.0667 34.8976 14.6777 35.5012 12.841 34.8106C11.9921 34.4792 11.5463 34.0977 10.4846 32.7979ZM19.3719 4.78913C19.1754 4.9411 18.99 5.10693 18.8171 5.28535C17.9792 6.3389 16.8565 6.90178 15.5988 7.32208C13.1518 8.12567 10.7343 9.01998 8.29658 9.84949C6.56886 10.4267 5.04381 11.49 3.9038 12.912C2.25396 14.9469 2.18923 15.7486 3.48394 17.9612C3.81317 18.5167 4.09431 18.6519 4.71762 18.4112C7.14983 17.4743 9.60239 16.5874 12.0586 15.7097C12.5081 15.5486 12.7448 15.3561 12.8503 14.8506C13.0352 13.9526 13.6345 13.3453 14.5149 13.0305C15.669 12.6157 16.8195 12.1899 17.9718 11.7696C19.4219 11.24 20.6944 9.11626 20.3467 7.63685C20.1303 6.69625 19.7252 5.79453 19.3719 4.78913ZM19.3053 26.0082C19.0316 25.8027 18.7098 25.923 18.4138 25.8786C17.9182 25.8045 17.6056 25.5398 17.6185 25.0306C17.6315 24.5214 17.9662 24.264 18.4619 24.2325C18.769 24.2122 19.0778 24.2122 19.3867 24.214C19.6956 24.2159 19.8843 24.1214 19.8491 23.7974C19.7381 22.792 20.4391 22.3162 21.1068 21.8162C21.3713 21.6144 21.8615 21.3922 21.3991 20.9775C20.9663 20.5905 21.0477 19.5166 20.0137 19.9017C19.2739 20.1794 18.51 20.4294 17.7702 20.7275C16.6956 21.1626 15.6912 21.1626 14.7295 20.422C14.0766 19.9184 13.5457 20.6072 12.9557 20.7275C12.4767 20.8238 12.608 21.2441 12.6117 21.5589C12.6413 23.4104 12.6339 25.2528 11.9736 27.0192C11.8922 27.2358 11.8293 27.4265 12.0217 27.608C12.4896 28.0505 12.9206 28.5338 13.5642 28.7467C15.2085 29.2799 18.6506 27.6431 19.3053 26.0082ZM4.69357 21.9921C4.85634 21.9421 5.06349 21.894 5.2688 21.8181C7.88597 20.8423 10.4902 19.8295 13.1259 18.9037C13.8897 18.6352 13.6234 18.2612 13.4847 17.7928C13.3293 17.2669 13.1555 17.0392 12.5247 17.2891C10.4698 18.0983 8.38351 18.8333 6.30827 19.5962C5.64611 19.8406 4.97471 20.0591 4.3255 20.3368C3.93339 20.5035 3.6652 20.8238 3.78912 21.2885C3.83184 21.4935 3.94579 21.6767 4.11072 21.8056C4.27564 21.9344 4.48085 22.0005 4.68987 21.9921H4.69357ZM21.8948 16.654C21.6913 16.0819 21.4379 15.3579 21.1753 14.6377C20.4151 12.562 20.4132 12.562 18.3824 13.3971L18.2104 13.4638C17.6555 13.686 17.4613 14.097 17.6555 14.6506C17.994 15.6394 18.3565 16.6189 18.7227 17.5983C18.8929 18.0575 19.2369 18.339 19.7271 18.1964C20.3146 18.0228 20.8909 17.8132 21.4527 17.5687C21.7579 17.4391 21.8966 17.1595 21.8948 16.654ZM7.283 22.8568L10.5512 25.8582C11.0395 24.5232 10.9415 23.066 10.9211 21.4885L7.283 22.8568ZM15.1049 31.7444C14.8423 31.4315 15.5433 30.6464 14.6462 30.5909C13.8163 30.5687 13.0023 30.3579 12.2658 29.9743C12.0069 29.8299 11.8478 29.7428 11.772 30.1594C11.587 31.1741 12.0235 32.411 12.8632 32.9368C13.3867 33.2682 13.973 33.5552 14.6018 33.2719C15.2307 32.9886 15.055 32.3424 15.1086 31.7481L15.1049 31.7444ZM16.616 19.3314C16.6752 18.9833 17.6777 19.5166 17.3337 18.5704C16.8553 17.2768 16.3898 15.9807 15.9372 14.6821C15.8891 14.5488 15.9206 14.4044 15.6875 14.3896C14.9588 14.3433 14.2893 15.082 14.5149 15.7745C14.8478 16.7929 15.2251 17.7946 15.608 18.7945C15.7523 19.1703 16.0612 19.3759 16.616 19.3314Z" fill="url(#paint0_linear_1_284)"/>
<path d="M30.0552 25.0232C30.2864 25.1306 30.4436 25.0232 30.6101 24.9454C32.2876 24.2622 32.2876 24.2622 31.3647 22.7976C30.3527 21.1616 29.9375 19.2254 30.1897 17.3177C30.4419 15.4101 31.3459 13.6486 32.7482 12.3325C35.7075 9.5792 40.1318 9.28665 43.3297 11.727C44.051 12.2825 44.2841 12.0381 44.5597 11.4123C44.7446 10.9771 45.048 10.5809 45.0924 10.0588C44.5893 10.0199 44.2434 10.3032 43.8698 10.4883C43.3759 10.7346 42.9653 10.6735 42.6879 10.181C42.429 9.72177 42.5954 9.32554 43.0116 9.07002C43.6959 8.65341 44.421 8.29976 45.2311 8.23125C46.2502 8.14423 46.8846 8.74784 46.8476 9.77177C46.8032 10.9605 46.2095 11.9455 45.577 12.8935C45.2588 13.3694 45.281 13.7175 45.577 14.21C46.5148 15.7991 46.8961 17.656 46.6606 19.4866C46.4251 21.3171 45.5862 23.0167 44.2768 24.316C42.9674 25.6154 41.2623 26.4402 39.4317 26.6599C37.6011 26.8795 35.7496 26.4814 34.1705 25.5287C33.6822 25.238 33.3771 25.275 32.9461 25.5657C32.1445 26.1419 31.2415 26.5615 30.2845 26.8026C28.9306 27.1062 28.1113 26.3452 28.3129 24.9714C28.4438 24.2751 28.7076 23.6106 29.0897 23.0142C29.137 22.9159 29.204 22.8284 29.2866 22.7571C29.3692 22.6859 29.4657 22.6326 29.5699 22.6004C29.6741 22.5683 29.7838 22.558 29.8921 22.5703C30.0004 22.5825 30.1051 22.6171 30.1995 22.6717C30.6914 22.9013 30.6896 23.3475 30.5379 23.7827C30.3863 24.2178 30.0737 24.5566 30.0552 25.0232ZM31.7568 18.0742C31.7735 19.9554 32.2747 21.3071 33.1828 22.5328C33.5195 22.9865 33.7377 22.9976 34.189 22.6365C37.2787 20.1422 40.0953 17.3269 42.5917 14.2378C43.019 13.7101 42.9524 13.4546 42.4401 13.0935C40.2427 11.5419 37.9086 11.2419 35.4893 12.4251C33.0238 13.6268 31.8548 15.7116 31.7568 18.0742ZM35.0861 24.0604C36.1562 24.7236 37.396 25.0607 38.6543 25.0305C39.9125 25.0002 41.1348 24.604 42.1719 23.89C42.6676 23.5457 42.7489 23.3161 42.3568 22.7661C41.0621 20.9146 41.8815 18.3335 44.0325 17.7669C45.0646 17.4947 45.0406 17.0485 44.7335 16.3226C44.5615 15.9153 44.4857 15.4469 44.0677 15.0802C41.4051 18.3901 38.3918 21.4011 35.0805 24.0604H35.0861ZM43.9308 22.0237C44.4746 21.3349 44.7113 20.585 44.9056 19.8147C44.9499 19.6407 45.0517 19.4111 44.8593 19.3241C44.7261 19.263 44.5005 19.3426 44.3433 19.4166C43.3593 19.8777 43.1577 20.9775 43.9253 22.0274L43.9308 22.0237Z" fill="url(#paint1_linear_1_284)"/>
<path d="M21.6453 46.7143C20.1046 46.7143 18.6342 46.3681 17.3339 45.5515C15.353 44.3091 13.4257 42.9778 11.4763 41.6836C11.0102 41.3744 10.7475 40.9707 11.0953 40.443C11.4744 39.869 11.9646 39.9968 12.4566 40.3264C14.12 41.4373 15.7846 42.5483 17.4505 43.6592C20.3377 45.5793 23.3248 45.5108 26.1047 43.4444C28.2299 41.8632 30.3347 40.2542 32.471 38.6859C32.9445 38.3359 33.0259 38.1008 32.6411 37.5953C31.5591 36.1918 31.5887 36.1751 30.1276 37.2028C28.5406 38.3137 26.9666 39.458 25.3519 40.5356C23.0196 42.0835 20.6243 42.1094 18.2439 40.6356C17.1194 39.9375 16.0392 39.1691 14.9332 38.4433C14.4227 38.1082 14.0084 37.7027 14.4467 37.0898C14.8851 36.477 15.3919 36.7325 15.8894 37.0695C16.9344 37.7786 17.9831 38.4822 19.0337 39.171C20.8518 40.356 22.6829 40.3486 24.4715 39.1229C26.5061 37.7305 28.5036 36.2918 30.5289 34.8883C30.6845 34.7927 30.8156 34.662 30.9119 34.5068C31.0082 34.3515 31.0671 34.176 31.0838 33.994C31.1948 33.1108 31.3557 32.2331 31.4944 31.3536C31.6479 30.3779 32.0326 29.5743 33.0795 29.3002C34.0431 29.0466 34.881 29.3521 35.4562 30.4278C36.0314 31.5036 36.7879 31.8406 37.9643 31.7406C39.2183 31.6332 40.489 31.7054 41.7522 31.7202C43.0155 31.7351 43.931 32.4479 44.1807 33.5718C44.4304 34.6957 43.8793 35.7456 42.7011 36.2455C40.2467 37.2916 37.8607 38.5266 35.1936 38.9951C34.7723 39.0895 34.3801 39.2845 34.0505 39.5635C31.6757 41.3682 29.2878 43.1636 26.8871 44.9498C25.3751 46.0874 23.5367 46.7062 21.6453 46.7143ZM34.7423 37.3713L35.2047 37.2879C37.6443 36.8195 39.8176 35.64 42.0796 34.6957C42.4329 34.5495 42.6345 34.2791 42.5309 33.894C42.4273 33.5089 42.1295 33.3811 41.7485 33.383C40.5167 33.383 39.2738 33.2756 38.0493 33.4089C36.2478 33.6052 34.8496 33.2237 34.1338 31.3907C34.1105 31.3333 34.078 31.2802 34.0376 31.2333C33.9007 31.0629 33.7564 30.8907 33.5012 30.9685C33.246 31.0463 33.2053 31.2629 33.172 31.4777C33.0166 32.4479 32.8575 33.4163 32.7225 34.3884C32.6559 34.8605 34.2355 37.2676 34.6572 37.3694C34.7164 37.3879 34.7793 37.3694 34.7423 37.3713Z" fill="url(#paint2_linear_1_284)"/>
<path d="M38.382 3.38751C38.3796 3.52648 38.3481 3.66339 38.2894 3.78938C38.2308 3.91537 38.1464 4.02763 38.0417 4.11888C37.3019 4.85952 36.562 5.60015 35.8222 6.34078C35.3061 6.86292 34.8142 6.8333 34.3092 6.31671C33.6008 5.58533 32.8813 4.86877 32.1526 4.15406C31.6384 3.64488 31.6273 3.15051 32.1433 2.63762C32.8832 1.89699 33.623 1.15636 34.3629 0.415729C34.7772 0.00653068 35.2414 -0.0934545 35.6668 0.317596C36.5139 1.12303 37.3314 1.96735 38.1471 2.79686C38.2981 2.95633 38.3822 3.16777 38.382 3.38751ZM36.2679 3.38751C36.2679 3.24124 35.2007 2.15251 35.0675 2.15621C34.9344 2.15992 33.8875 3.27827 33.8912 3.41343C33.8949 3.5486 34.9584 4.64844 35.0897 4.64288C35.2211 4.63733 36.2716 3.51527 36.2679 3.38751Z" fill="url(#paint3_linear_1_284)"/>
<path d="M26.7573 10.0532C27.5249 10.0532 28.2943 10.031 29.0619 10.0532C29.9497 10.0865 30.3104 10.6476 29.8868 11.4049C29.1359 12.7491 28.3498 14.0711 27.5286 15.3709C27.0921 16.0634 26.4188 16.0597 25.9842 15.3709C25.1667 14.0748 24.375 12.7528 23.6241 11.4141C23.2006 10.6587 23.5631 10.0976 24.4527 10.0662C25.2185 10.0347 25.9879 10.0532 26.7573 10.0532ZM26.7703 13.4027L27.7395 11.7567H25.8492C26.0489 12.364 26.3966 12.8084 26.7703 13.4064V13.4027Z" fill="url(#paint4_linear_1_284)"/>
<path d="M47.5875 6.72035C46.818 6.72035 46.0486 6.72035 45.2773 6.72035C44.8871 6.72035 44.5486 6.63888 44.3414 6.26301C44.1343 5.88714 44.273 5.5483 44.5042 5.23909C45.2607 4.22813 46.0042 3.20235 46.7847 2.21731C47.2915 1.57482 47.8168 1.5563 48.3106 2.17658C49.1152 3.18939 49.8957 4.21331 50.6411 5.27612C51.1757 6.03156 50.8261 6.67221 49.9013 6.71294C49.1263 6.75183 48.3569 6.72035 47.5875 6.72035ZM48.4105 5.0132C47.9981 4.64288 47.9352 4.11333 47.5394 4.15221C47.2064 4.18739 47.0067 4.60215 46.8994 5.0132H48.4105Z" fill="url(#paint5_linear_1_284)"/>
<path d="M48.3957 30.0502C47.9042 30.0502 47.4237 29.9048 47.0145 29.6323C46.6052 29.3598 46.2854 28.9724 46.0953 28.5187C45.9052 28.065 45.8531 27.5652 45.9457 27.0819C46.0383 26.5987 46.2714 26.1537 46.6157 25.8026C46.9601 25.4515 47.4003 25.21 47.8812 25.1085C48.3622 25.0069 48.8623 25.0498 49.319 25.2318C49.7756 25.4138 50.1684 25.7267 50.448 26.1313C50.7277 26.5359 50.8817 27.0142 50.8908 27.5062C50.8952 27.8376 50.834 28.1666 50.7108 28.4742C50.5875 28.7819 50.4046 29.062 50.1727 29.2985C49.9407 29.535 49.6643 29.7232 49.3593 29.8523C49.0543 29.9813 48.7268 30.0486 48.3957 30.0502ZM49.2207 27.5747C49.1726 27.0803 48.9155 26.7544 48.4142 26.7415C48.2046 26.7447 48.0044 26.829 47.8554 26.9767C47.7065 27.1244 47.6204 27.324 47.6151 27.5338C47.6099 27.7436 47.6859 27.9473 47.8272 28.1023C47.9686 28.2573 48.1644 28.3515 48.3735 28.3653C48.8766 28.3838 49.1467 28.0635 49.2207 27.5747Z" fill="url(#paint6_linear_1_284)"/>
<path d="M37.5737 17.5317C37.5774 18.0279 37.4333 18.514 37.1599 18.9278C36.8864 19.3417 36.4961 19.6647 36.0385 19.8556C35.581 20.0465 35.077 20.0966 34.5909 19.9996C34.1048 19.9026 33.6586 19.6628 33.3091 19.3109C32.9597 18.959 32.7229 18.5109 32.6289 18.0236C32.5349 17.5364 32.588 17.0322 32.7814 16.5754C32.9748 16.1185 33.2998 15.7297 33.7149 15.4584C34.1299 15.1872 34.6163 15.0459 35.1119 15.0525C35.7634 15.0654 36.3843 15.3312 36.8436 15.7938C37.303 16.2564 37.5648 16.8795 37.5737 17.5317ZM35.9091 17.5984C35.874 17.1003 35.6243 16.7707 35.1249 16.7448C35.0186 16.7393 34.9123 16.7549 34.8121 16.7905C34.7118 16.8262 34.6195 16.8813 34.5405 16.9526C34.4615 17.024 34.3973 17.1102 34.3516 17.2064C34.3059 17.3026 34.2795 17.4068 34.2741 17.5132C34.2686 17.6196 34.2841 17.726 34.3197 17.8264C34.3554 17.9268 34.4104 18.0191 34.4817 18.0982C34.5529 18.1773 34.6391 18.2416 34.7352 18.2873C34.8312 18.3331 34.9354 18.3595 35.0417 18.3649C35.5392 18.3946 35.8129 18.0816 35.9036 17.5984H35.9091Z" fill="url(#paint7_linear_1_284)"/>
<defs>
<linearGradient id="paint0_linear_1_284" x1="0.894104" y1="2.30566" x2="27.7156" y2="4.75008" gradientUnits="userSpaceOnUse">
<stop stop-color="#EC9F05"/>
<stop offset="1" stop-color="#FF4E00"/>
</linearGradient>
<linearGradient id="paint1_linear_1_284" x1="28.2825" y1="8.22296" x2="49.6314" y2="12.2999" gradientUnits="userSpaceOnUse">
<stop stop-color="#EC9F05"/>
<stop offset="1" stop-color="#FF4E00"/>
</linearGradient>
<linearGradient id="paint2_linear_1_284" x1="10.9356" y1="29.2162" x2="45.9603" y2="42.001" gradientUnits="userSpaceOnUse">
<stop stop-color="#EC9F05"/>
<stop offset="1" stop-color="#FF4E00"/>
</linearGradient>
<linearGradient id="paint3_linear_1_284" x1="31.7616" y1="0.0546265" x2="39.3753" y2="1.50528" gradientUnits="userSpaceOnUse">
<stop stop-color="#EC9F05"/>
<stop offset="1" stop-color="#FF4E00"/>
</linearGradient>
<linearGradient id="paint4_linear_1_284" x1="23.4475" y1="10.0433" x2="30.9779" y2="11.678" gradientUnits="userSpaceOnUse">
<stop stop-color="#EC9F05"/>
<stop offset="1" stop-color="#FF4E00"/>
</linearGradient>
<linearGradient id="paint5_linear_1_284" x1="44.2401" y1="1.72314" x2="51.6857" y2="3.61956" gradientUnits="userSpaceOnUse">
<stop stop-color="#EC9F05"/>
<stop offset="1" stop-color="#FF4E00"/>
</linearGradient>
<linearGradient id="paint6_linear_1_284" x1="45.9011" y1="25.0547" x2="51.6375" y2="26.1536" gradientUnits="userSpaceOnUse">
<stop stop-color="#EC9F05"/>
<stop offset="1" stop-color="#FF4E00"/>
</linearGradient>
<linearGradient id="paint7_linear_1_284" x1="32.5836" y1="15.0522" x2="38.3203" y2="16.1513" gradientUnits="userSpaceOnUse">
<stop stop-color="#EC9F05"/>
<stop offset="1" stop-color="#FF4E00"/>
</linearGradient>
</defs>
</svg>
