<svg width="48" height="51" viewBox="0 0 48 51" fill="none" xmlns="http://www.w3.org/2000/svg">
<path d="M0.894533 24.994C0.894533 22.5661 0.880659 20.1383 0.894533 17.7104C0.930951 13.7652 2.68074 10.791 6.08668 8.83314C10.4129 6.34286 14.7582 3.88436 19.1225 1.45766C22.4522 -0.392716 25.8546 -0.422197 29.1912 1.42297C33.6122 3.86702 38.0055 6.35268 42.371 8.87997C45.7093 10.8136 47.4418 13.76 47.466 17.6341C47.4961 22.5766 47.4961 27.5178 47.466 32.4579C47.4418 36.2992 45.7319 39.2403 42.4369 41.1635C38.0269 43.7405 33.5718 46.243 29.0993 48.7107C25.8494 50.5056 22.5094 50.4952 19.2665 48.7107C14.7975 46.2378 10.3424 43.7371 5.93234 41.1549C2.64259 39.2351 0.941356 36.2992 0.906672 32.4493C0.882393 29.9642 0.894533 27.4791 0.894533 24.994ZM2.51946 24.9819C2.51946 27.3508 2.51079 29.7197 2.51946 32.092C2.53507 35.5604 4.00393 38.1825 7.05089 39.8959C11.2707 42.2728 15.49 44.6579 19.7087 47.0511C22.6932 48.7471 25.6656 48.761 28.6571 47.0632C32.8677 44.6712 37.0829 42.2879 41.3028 39.9132C44.348 38.1998 45.8394 35.5777 45.8515 32.1094C45.8666 27.4005 45.8666 22.6922 45.8515 17.9844C45.8411 14.5161 44.3653 11.8922 41.3184 10.1806C37.0754 7.78974 32.8347 5.39194 28.5964 2.98721C25.6639 1.32239 22.7435 1.31546 19.811 2.9768C15.5449 5.3931 11.2788 7.80593 7.01273 10.2153C4.03167 11.8992 2.57149 14.4814 2.5316 17.8752C2.50559 20.2441 2.5264 22.613 2.5264 24.9819H2.51946Z" fill="url(#paint0_linear_1_268)"/>
<path d="M43.2953 25.0634C43.2953 27.6057 43.3162 30.148 43.2953 32.6938C43.2711 34.8008 42.3017 36.4379 40.5068 37.4767C36.0083 40.0756 31.4867 42.6312 26.942 45.1435C25.1246 46.1545 23.2118 46.1355 21.3926 45.1244C16.8837 42.611 12.3899 40.0675 7.91105 37.494C6.11443 36.4535 5.10167 34.8424 5.09126 32.7319C5.06467 27.5895 5.06467 22.4448 5.09126 17.2977C5.10514 15.2271 6.10403 13.623 7.86596 12.6033C12.3621 10.0055 16.8814 7.44696 21.4238 4.92777C23.243 3.91501 25.1558 3.93408 26.9732 4.94338C31.4821 7.45679 35.9759 10.0003 40.4547 12.5738C42.2514 13.6143 43.2503 15.2254 43.2763 17.3359C43.3179 19.9198 43.2936 22.4916 43.2953 25.0634ZM41.6912 25.0408C41.6912 22.6737 41.6791 20.3048 41.6912 17.9307C41.7016 16.0872 40.9282 14.7224 39.3189 13.8155C35.0539 11.4154 30.7907 9.00773 26.5293 6.59259C24.9685 5.70122 23.4285 5.69775 21.8574 6.59259C17.6005 9.02044 13.3356 11.431 9.06254 13.8241C7.44975 14.7311 6.68324 16.0907 6.68671 17.9342C6.69827 22.6743 6.69827 27.4144 6.68671 32.1545C6.68671 33.9962 7.44802 35.3575 9.06081 36.2645C13.3547 38.6819 17.6444 41.1069 21.9302 43.5394C23.4332 44.3926 24.9407 44.3926 26.4529 43.5394C30.7699 41.1 35.0834 38.6576 39.3934 36.2125C40.9403 35.3367 41.6912 34.0031 41.6912 32.2342V25.0408Z" fill="url(#paint1_linear_1_268)"/>
<path d="M11.7072 22.3164C11.7072 25.2264 11.7072 28.1369 11.7072 31.048C11.7232 31.3073 11.7139 31.5675 11.6794 31.825C11.5997 32.2256 11.3638 32.4944 10.9129 32.5186C10.7229 32.5331 10.5342 32.4779 10.3819 32.3633C10.2297 32.2488 10.1244 32.0826 10.0857 31.8961C10.0357 31.7002 10.0152 31.4979 10.025 31.296C10.025 27.134 10.025 22.9754 10.025 18.8203C10.025 18.7041 10.025 18.5879 10.025 18.4735C10.0632 18.0365 10.2296 17.6827 10.6996 17.5838C11.1696 17.485 11.4731 17.6931 11.676 18.1041C12.0956 18.9573 12.5222 19.8071 12.9489 20.6568C14.0183 22.7968 15.0883 24.9356 16.1588 27.0733C16.2856 27.3573 16.4782 27.607 16.7207 27.8016V26.9953C16.7207 24.2206 16.7207 21.4459 16.7207 18.6712C16.7207 18.0954 16.8074 17.596 17.5046 17.57C18.2017 17.544 18.3404 18.0434 18.3404 18.6191C18.3404 22.8968 18.3404 27.171 18.3404 31.4417C18.3404 31.8995 18.2832 32.3383 17.7595 32.4718C17.1612 32.6261 16.8733 32.2412 16.6375 31.766C15.1854 28.8526 13.7287 25.9409 12.2673 23.0309C12.1407 22.7777 12.0107 22.5245 11.8823 22.2713L11.7072 22.3164Z" fill="url(#paint2_linear_1_268)"/>
<path d="M20.8827 25.0443C20.8827 22.9355 20.8827 20.8267 20.8827 18.718C20.8827 17.7347 21.0562 17.5734 22.0603 17.5699C24.0528 17.5699 26.0489 17.5804 28.038 17.5699C28.671 17.5699 29.1895 17.726 29.1721 18.4266C29.1565 19.0926 28.6137 19.2001 28.0432 19.1966C26.4252 19.1862 24.8072 19.2105 23.1875 19.1827C22.6533 19.1741 22.4817 19.3562 22.4938 19.8764C22.5233 21.1181 22.5163 22.3598 22.4938 23.6014C22.4938 24.0471 22.6343 24.2205 23.0904 24.2067C23.9262 24.1807 24.7656 24.2067 25.6032 24.2067C26.1945 24.2067 26.6576 24.4009 26.6437 25.0738C26.6298 25.6998 26.1841 25.8836 25.6309 25.8871C25.3413 25.8871 25.0535 25.875 24.7638 25.8871C24.0476 25.9235 23.1164 25.5801 22.6707 26.0206C22.1868 26.501 22.5285 27.4479 22.5094 28.1884C22.4817 29.2566 22.4973 30.3266 22.5094 31.3949C22.5094 31.9619 22.4192 32.4787 21.7204 32.4995C20.9504 32.5203 20.8775 31.9654 20.8793 31.3689C20.8862 29.2601 20.8827 27.1513 20.8827 25.0443Z" fill="url(#paint3_linear_1_268)"/>
<path d="M33.3689 25.6235C33.3689 23.7159 33.348 21.8083 33.3827 19.9007C33.3931 19.3198 33.2093 19.1377 32.644 19.1724C32.0405 19.2088 31.43 19.1724 30.8265 19.1724C30.3462 19.1602 30.0722 18.9053 30.067 18.4163C30.0618 17.9272 30.3115 17.5821 30.8404 17.5804C33.0648 17.57 35.2892 17.57 37.5136 17.5804C37.6232 17.5716 37.7334 17.5869 37.8365 17.6251C37.9397 17.6633 38.0332 17.7236 38.1106 17.8017C38.1881 17.8798 38.2475 17.9739 38.2849 18.0773C38.3222 18.1807 38.3366 18.2911 38.3269 18.4006C38.3269 18.8984 38.0026 19.181 37.4789 19.1828C36.9881 19.1828 36.4887 19.2435 36.0066 19.1828C35.1308 19.0666 34.966 19.4464 34.9764 20.251C35.0198 23.8026 34.9955 27.3612 34.9955 30.9093C34.9955 31.14 34.9955 31.3706 34.9955 31.603C34.9869 32.1371 34.7649 32.5048 34.1857 32.5117C33.6064 32.5186 33.3793 32.1475 33.3758 31.6117C33.3758 30.5434 33.3758 29.4734 33.3758 28.4052L33.3689 25.6235Z" fill="url(#paint4_linear_1_268)"/>
<defs>
<linearGradient id="paint0_linear_1_268" x1="0.888367" y1="0.0543823" x2="54.7062" y2="9.67423" gradientUnits="userSpaceOnUse">
<stop stop-color="#EC9F05"/>
<stop offset="1" stop-color="#FF4E00"/>
</linearGradient>
<linearGradient id="paint1_linear_1_268" x1="5.07132" y1="4.17725" x2="49.2714" y2="11.9466" gradientUnits="userSpaceOnUse">
<stop stop-color="#EC9F05"/>
<stop offset="1" stop-color="#FF4E00"/>
</linearGradient>
<linearGradient id="paint2_linear_1_268" x1="10.0226" y1="17.5595" x2="19.8242" y2="18.6046" gradientUnits="userSpaceOnUse">
<stop stop-color="#EC9F05"/>
<stop offset="1" stop-color="#FF4E00"/>
</linearGradient>
<linearGradient id="paint3_linear_1_268" x1="20.8792" y1="17.5699" x2="30.6522" y2="18.6111" gradientUnits="userSpaceOnUse">
<stop stop-color="#EC9F05"/>
<stop offset="1" stop-color="#FF4E00"/>
</linearGradient>
<linearGradient id="paint4_linear_1_268" x1="30.0669" y1="17.5726" x2="39.805" y2="18.6055" gradientUnits="userSpaceOnUse">
<stop stop-color="#EC9F05"/>
<stop offset="1" stop-color="#FF4E00"/>
</linearGradient>
</defs>
</svg>
