<svg width="40" height="41" viewBox="0 0 40 41" fill="none" xmlns="http://www.w3.org/2000/svg">
<path d="M18.8738 10.0309C19.8619 9.68232 20.1325 9.89201 19.9618 10.8322C19.9119 11.1099 20.0715 11.1002 20.2075 11.1335C20.5197 11.2127 20.8417 11.2543 21.1567 11.3307C21.4717 11.4071 21.8603 11.4418 21.9588 11.8723C22.0463 12.25 21.8201 12.4722 21.5772 12.7055C20.7445 13.5387 19.9119 14.3719 19.0709 15.2052C18.8433 15.4301 18.6892 15.6148 18.8724 15.9745C19.347 16.9091 19.5663 17.9298 19.7051 18.9602C19.755 19.324 19.8841 19.4199 20.2213 19.4185C21.9089 19.4087 23.5978 19.4032 25.2853 19.4185C25.7267 19.4185 25.8613 19.2449 25.8182 18.8408C25.8071 18.6558 25.8071 18.4703 25.8182 18.2853C25.8363 17.4007 26.3054 16.8716 27.1699 16.8688C30.9863 16.8549 34.8023 16.8549 38.6177 16.8688C39.4823 16.8688 39.9778 17.3979 39.9903 18.2756C40.006 19.456 40.006 20.6364 39.9903 21.8167C39.9778 22.6888 39.4754 23.2054 38.6025 23.2124C34.8092 23.2244 31.016 23.2244 27.2227 23.2124C26.3081 23.2124 25.8349 22.6972 25.8155 21.7793C25.8155 21.5473 25.8044 21.3154 25.8155 21.0849C25.8307 20.7891 25.6989 20.6683 25.4089 20.6683C23.651 20.6683 21.8931 20.6683 20.1353 20.6683C19.848 20.6683 19.7509 20.7766 19.719 21.0696C19.4792 23.1045 18.6324 25.0198 17.2889 26.5661C17.2126 26.6536 17.0225 26.7508 17.1946 26.898C17.6303 27.2688 17.8801 27.8479 18.6323 27.8312C20.8042 27.784 22.9789 27.8006 25.1549 27.8312C25.6517 27.8312 25.9015 27.7354 25.8182 27.1896C25.7974 26.9823 25.7974 26.7734 25.8182 26.5661C25.8543 25.8176 26.3484 25.3163 27.1019 25.3163C30.9637 25.3089 34.8259 25.3089 38.6885 25.3163C39.4393 25.3163 39.9611 25.8065 39.9806 26.5661C40.0111 27.8159 40.0097 29.0657 39.9806 30.3156C39.9611 31.1793 39.4393 31.614 38.454 31.6168C35.3315 31.6265 32.209 31.6168 29.0879 31.6168C28.4634 31.6168 27.8389 31.6307 27.2144 31.6168C26.2804 31.5876 25.8335 31.1182 25.8182 30.1892C25.8002 29.0782 25.8002 29.0782 24.6664 29.0782C22.7235 29.0782 20.7806 29.0324 18.8377 29.0977C17.9329 29.1282 17.2112 28.9463 16.6825 28.1853C16.3633 27.7256 16.0774 27.6965 15.582 28.0714C14.33 29.0338 12.8351 29.6286 11.2646 29.7892C10.7317 29.8448 10.4763 30.0045 10.4985 30.6364C10.5554 32.3028 10.5332 33.9692 10.5083 35.6357C10.5083 36.1175 10.647 36.2689 11.1369 36.2675C15.8322 36.2527 20.5271 36.2527 25.2215 36.2675C25.7322 36.2675 25.8266 36.0787 25.8266 35.6204C25.8266 33.9998 26.1555 33.6873 27.7778 33.6873C31.2695 33.6873 34.7616 33.6873 38.2542 33.6873C39.5628 33.6873 39.9917 34.122 39.993 35.4412C39.993 36.4355 39.993 37.4312 39.993 38.4255C39.993 39.5726 39.5309 40.0475 38.411 40.0475C34.7334 40.0475 31.0562 40.0475 27.3795 40.0475C26.279 40.0475 25.8307 39.5851 25.8169 38.4894C25.803 37.3937 25.9987 37.5173 24.8038 37.5173C20.04 37.5173 15.2753 37.5173 10.5096 37.5173C9.34391 37.5173 9.26064 37.4354 9.26064 36.2439C9.26064 34.3692 9.23427 32.4944 9.27729 30.6197C9.28978 30.0475 9.08717 29.8767 8.56259 29.7976C4.65321 29.2046 1.96091 27.0202 0.605052 23.3401C-1.53629 17.5201 2.24402 11.2668 8.41409 10.3225C9.09133 10.2184 9.2995 9.97256 9.27868 9.28238C9.22456 7.45624 9.25925 5.62733 9.26064 3.79841C9.26064 2.70412 9.36472 2.59858 10.4403 2.59858C15.2739 2.59858 20.1075 2.58608 24.9412 2.61247C25.6087 2.61247 25.8738 2.4986 25.8335 1.75425C25.7627 0.458601 26.229 0.0419922 27.5141 0.0419922C31.1223 0.0419922 34.7306 0.0419922 38.3388 0.0419922C39.5309 0.0419922 39.9847 0.49193 39.9889 1.66538C39.9889 2.75412 40 3.84146 39.9889 4.92881C39.9778 5.87729 39.4796 6.39666 38.5275 6.39944C34.7815 6.41055 31.0345 6.41055 27.2865 6.39944C26.2943 6.39944 25.8252 5.8884 25.8141 4.88438C25.805 4.79202 25.805 4.69899 25.8141 4.60664C25.9376 3.93312 25.6073 3.81508 25.0064 3.82063C22.0685 3.84841 19.1319 3.83313 16.194 3.83313C14.5064 3.83313 12.8175 3.8498 11.13 3.82341C10.6387 3.81508 10.4985 3.98172 10.5055 4.45805C10.5277 6.16984 10.5277 7.88257 10.5055 9.59622C10.5055 10.0406 10.6443 10.1864 11.0786 10.2322C12.0912 10.3335 13.0778 10.6132 13.993 11.0585C14.3288 11.2252 14.4953 11.0877 14.7035 10.8766C15.5362 10.0434 16.3689 9.21016 17.2015 8.37695C17.4513 8.1242 17.7025 7.87007 18.0994 7.98256C18.4963 8.09504 18.531 8.48804 18.6143 8.81577C18.7087 9.19211 18.7753 9.57817 18.8738 10.0309ZM14.1831 14.9649C14.0055 14.1317 13.832 13.4207 13.7057 12.6986C13.6419 12.3278 13.4406 12.1584 13.1117 12.0292C11.4947 11.3741 9.71627 11.2288 8.01441 11.6126C6.87938 11.8697 5.80781 12.3531 4.86376 13.0341C3.91972 13.715 3.12259 14.5795 2.52004 15.5757C1.9175 16.572 1.52191 17.6796 1.35693 18.8323C1.19195 19.9851 1.26096 21.1593 1.55984 22.2847C2.73391 26.8438 7.59808 29.6073 12.2319 28.3325C17.0891 26.9966 19.7939 21.5279 17.894 16.8591C17.8135 16.6577 17.7927 16.3703 17.5235 16.3036C16.7089 16.1203 15.8887 15.9564 14.9866 15.7662C17.1793 19.6754 16.7366 23.068 13.8306 25.2704C12.5673 26.2178 11.0053 26.678 9.43057 26.567C7.85583 26.4559 6.37378 25.7809 5.25583 24.6655C4.13787 23.5502 3.45884 22.0692 3.34307 20.4938C3.2273 18.9184 3.68255 17.3539 4.62545 16.087C6.32965 13.7901 10.2071 12.1681 14.1789 14.9649H14.1831ZM10.0586 14.7483C6.47259 14.7205 3.95238 17.8645 4.72537 21.2043C4.88595 21.9229 5.1944 22.6002 5.63105 23.1929C6.0677 23.7856 6.62298 24.2808 7.26148 24.6469C7.89999 25.013 8.60771 25.2419 9.33953 25.3191C10.0714 25.3963 10.8112 25.3201 11.512 25.0953C12.2127 24.8705 12.859 24.502 13.4095 24.0135C13.9601 23.5249 14.4029 22.9269 14.7097 22.2576C15.0165 21.5882 15.1806 20.8623 15.1915 20.126C15.2023 19.3897 15.0598 18.6593 14.7729 17.9812C14.2095 16.6383 14.1956 16.648 13.1645 17.6395C12.7759 18.0131 12.6468 18.2908 12.8994 18.8547C13.5183 20.2434 12.9799 21.8459 11.7295 22.7111C11.1294 23.1215 10.4093 23.3191 9.68387 23.2725C8.95848 23.2259 8.26954 22.9377 7.72679 22.4539C7.18405 21.97 6.81872 21.3184 6.68901 20.6027C6.5593 19.887 6.67267 19.1484 7.01105 18.5047C7.71604 17.1743 9.31338 16.3342 10.6928 16.9258C11.7808 17.3924 12.2 16.8619 12.8078 16.2647C13.2005 15.8787 13.0423 15.7204 12.6815 15.5107C11.8211 15.0107 10.9176 14.6983 10.0586 14.7483ZM32.9126 5.15239C34.6667 5.15239 36.4223 5.14267 38.1778 5.15934C38.5747 5.15934 38.7635 5.08435 38.7468 4.62885C38.7135 3.68176 38.7191 2.73329 38.7468 1.78619C38.7579 1.37931 38.608 1.28765 38.2278 1.28904C34.6695 1.30015 31.1126 1.30108 27.5571 1.29182C27.1505 1.29182 27.0492 1.43069 27.0575 1.8098C27.0797 2.73328 27.0895 3.65955 27.0575 4.58719C27.0395 5.0538 27.2046 5.17461 27.6487 5.16906C29.4015 5.13989 31.157 5.15239 32.9126 5.15239ZM32.9126 38.7866C34.6681 38.7866 36.4237 38.7713 38.1778 38.7977C38.6413 38.8047 38.7662 38.6589 38.751 38.2103C38.7191 37.3104 38.7163 36.405 38.751 35.5065C38.769 35.0441 38.6122 34.9205 38.1653 34.9219C34.6496 34.9376 31.139 34.9376 27.6335 34.9219C27.163 34.9219 27.0464 35.083 27.0603 35.5218C27.0895 36.423 27.0936 37.3271 27.0603 38.2256C27.0423 38.6908 27.206 38.8033 27.6487 38.7977C29.3973 38.7741 31.1529 38.7866 32.9084 38.7866H32.9126ZM32.9126 21.9667C34.6473 21.9667 36.382 21.9528 38.1168 21.9751C38.5761 21.982 38.7801 21.8917 38.7565 21.3751C38.7149 20.4739 38.7274 19.5698 38.7565 18.6686C38.7676 18.252 38.6566 18.1048 38.2181 18.1131C34.6802 18.1298 31.1418 18.1298 27.6029 18.1131C27.1588 18.1131 27.0575 18.2742 27.0686 18.6783C27.0922 19.5573 27.1047 20.4378 27.0686 21.3168C27.0464 21.8251 27.1797 21.9973 27.7167 21.9862C29.4348 21.9445 31.1709 21.9667 32.9043 21.9667H32.9126ZM32.8487 30.3558C34.6279 30.3558 36.4084 30.3475 38.1875 30.3628C38.5844 30.3628 38.7718 30.2864 38.7551 29.8323C38.7218 28.9074 38.7274 27.9812 38.7551 27.0549C38.7662 26.6577 38.6344 26.5466 38.2444 26.548C34.6852 26.5619 31.1256 26.5619 27.5655 26.548C27.1561 26.548 27.0589 26.6938 27.0673 27.0702C27.0895 27.9728 27.0964 28.8755 27.0673 29.7768C27.0506 30.2295 27.1949 30.3697 27.6501 30.3642C29.3724 30.342 31.1057 30.3558 32.8404 30.3558H32.8487ZM10.9399 18.2825C10.5374 18.1548 10.4111 18.1034 10.2807 18.0756C9.87167 17.9861 9.44478 18.0297 9.06231 18.2C8.67983 18.3704 8.36178 18.6587 8.15458 19.0227C7.9486 19.3992 7.86392 19.8303 7.91211 20.2568C7.9603 20.6834 8.13902 21.0847 8.42381 21.4057C8.72325 21.7147 9.11246 21.9213 9.53604 21.9961C9.95962 22.0709 10.396 22.0101 10.783 21.8223C11.1571 21.6367 11.4628 21.3373 11.6562 20.967C11.8497 20.5968 11.921 20.1748 11.86 19.7615C11.8322 19.5865 11.8697 19.3449 11.6559 19.2838C11.488 19.2352 11.395 19.4393 11.284 19.5462C11.0065 19.824 10.7289 20.1017 10.4514 20.3794C10.153 20.6822 9.80742 20.7961 9.47991 20.4739C9.15239 20.1517 9.24815 19.792 9.55762 19.5018C9.96008 19.1227 10.3861 18.7672 10.9399 18.2825ZM15.3294 13.8748C15.9608 13.1804 16.5354 12.5361 17.1335 11.9126C17.9301 11.0793 17.9481 11.0405 17.4111 9.80175C16.8074 10.453 16.3008 11.1321 15.6708 11.6445C14.9269 12.2472 14.8492 12.8833 15.3294 13.8748ZM16.0122 14.7538C16.72 14.7247 17.2182 15.2329 17.7011 14.7844C18.4255 14.1109 19.1097 13.3957 19.8064 12.6916C19.8924 12.6055 20.0534 12.525 19.9008 12.3625C19.7481 12.2 18.6684 12.1598 18.4922 12.3306C17.7164 13.0818 16.9476 13.8387 16.0122 14.7538Z" fill="url(#paint0_linear_1_328)"/>
<path d="M32.8904 14.7788C31.04 14.7788 29.1896 14.7788 27.3393 14.7788C26.2721 14.7788 25.8127 14.3303 25.8127 13.2818C25.8009 13.1205 25.8009 12.9585 25.8127 12.7971C25.8724 12.3528 25.6628 12.2417 25.2576 12.2625C24.819 12.2882 24.3792 12.2882 23.9406 12.2625C23.5395 12.2403 23.2939 12.0223 23.3147 11.5945C23.3327 11.1988 23.577 11.0252 23.9531 11.021C24.4152 11.0141 24.8773 11.0002 25.3409 11.021C25.7003 11.0391 25.8543 10.9127 25.8155 10.5461C25.805 10.3611 25.805 10.1756 25.8155 9.99059C25.8238 8.93657 26.261 8.48664 27.3323 8.47553C28.6729 8.46303 30.0135 8.47553 31.3569 8.47553C33.6911 8.47553 36.0268 8.47553 38.361 8.47553C39.5726 8.47553 39.9903 8.90324 39.9944 10.0989C39.9944 11.1627 40.0014 12.2264 39.9944 13.2929C39.9847 14.3164 39.5226 14.7774 38.5123 14.7802C36.6374 14.7816 34.7611 14.7788 32.8904 14.7788ZM32.8737 13.529C34.6085 13.529 36.3432 13.5151 38.0751 13.5401C38.5525 13.5401 38.7871 13.4804 38.7524 12.9138C38.6996 12.0375 38.7177 11.1557 38.7524 10.2753C38.7662 9.85867 38.6372 9.7198 38.2097 9.7198C34.6728 9.73461 31.1358 9.73461 27.5988 9.7198C27.1547 9.7198 27.052 9.87533 27.0645 10.285C27.0895 11.1863 27.0922 12.0903 27.0645 12.9902C27.0506 13.4179 27.1824 13.5457 27.6113 13.5373C29.3585 13.5123 31.1154 13.5248 32.8723 13.5248L32.8737 13.529Z" fill="url(#paint1_linear_1_328)"/>
<path d="M32.8404 3.83595C31.8467 3.83595 30.8517 3.83595 29.8581 3.83595C29.4126 3.83595 28.9671 3.79568 28.9546 3.23464C28.9421 2.67361 29.3709 2.58057 29.822 2.58057C31.8787 2.58057 33.9367 2.58057 35.9934 2.58057C36.4098 2.58057 36.8261 2.65972 36.8261 3.1902C36.833 3.76235 36.4098 3.83456 35.9601 3.83178C34.9207 3.83317 33.8798 3.83595 32.8404 3.83595Z" fill="url(#paint2_linear_1_328)"/>
<path d="M32.9084 36.2481C33.9479 36.2481 34.9901 36.2481 36.0281 36.2481C36.4695 36.2481 36.8317 36.3648 36.8275 36.8869C36.8275 37.373 36.4667 37.4966 36.0642 37.4979C33.9604 37.5035 31.8569 37.5035 29.754 37.4979C29.3127 37.4979 28.9421 37.3466 28.9532 36.8453C28.9643 36.3439 29.3515 36.2412 29.7859 36.244C30.8281 36.2523 31.8676 36.2481 32.9084 36.2481Z" fill="url(#paint3_linear_1_328)"/>
<path d="M32.9056 20.6682C31.8648 20.6682 30.824 20.6682 29.7845 20.6682C29.3501 20.6682 28.9616 20.5655 28.9518 20.0544C28.9421 19.5434 29.3099 19.4128 29.7526 19.4128H35.9976C36.4237 19.4128 36.822 19.4948 36.8303 20.0239C36.8372 20.5988 36.4139 20.6668 35.9615 20.6668L32.9056 20.6682Z" fill="url(#paint4_linear_1_328)"/>
<path d="M32.9056 29.0657C31.8454 29.0657 30.7851 29.056 29.7248 29.0657C29.2918 29.0657 28.9643 28.9199 28.9532 28.4741C28.9421 28.002 29.2655 27.8048 29.7318 27.8062C31.8282 27.8117 33.9252 27.8117 36.0226 27.8062C36.4736 27.8062 36.8247 27.945 36.8261 28.445C36.8275 28.9449 36.4639 29.0685 36.017 29.0643C34.9803 29.0657 33.9423 29.0657 32.9056 29.0657Z" fill="url(#paint5_linear_1_328)"/>
<path d="M32.982 11.0127C33.9964 11.0127 35.0109 11.0127 36.024 11.0127C36.475 11.0127 36.8344 11.1321 36.8275 11.639C36.8206 12.1458 36.4639 12.2722 36.0143 12.2708C33.9409 12.2653 31.8671 12.2653 29.7928 12.2708C29.3085 12.2708 28.938 12.1139 28.9602 11.5931C28.9768 11.0946 29.3668 11.0029 29.8081 11.0099C30.8628 11.0252 31.9189 11.0127 32.982 11.0127Z" fill="url(#paint6_linear_1_328)"/>
<defs>
<linearGradient id="paint0_linear_1_328" x1="0.00152588" y1="0.0419922" x2="45.9836" y2="8.85969" gradientUnits="userSpaceOnUse">
<stop stop-color="#EC9F05"/>
<stop offset="1" stop-color="#FF4E00"/>
</linearGradient>
<linearGradient id="paint1_linear_1_328" x1="23.3135" y1="8.46997" x2="39.1308" y2="16.49" gradientUnits="userSpaceOnUse">
<stop stop-color="#EC9F05"/>
<stop offset="1" stop-color="#FF4E00"/>
</linearGradient>
<linearGradient id="paint2_linear_1_328" x1="28.9543" y1="2.58057" x2="32.7895" y2="7.19264" gradientUnits="userSpaceOnUse">
<stop stop-color="#EC9F05"/>
<stop offset="1" stop-color="#FF4E00"/>
</linearGradient>
<linearGradient id="paint3_linear_1_328" x1="28.953" y1="36.2439" x2="32.7982" y2="40.8592" gradientUnits="userSpaceOnUse">
<stop stop-color="#EC9F05"/>
<stop offset="1" stop-color="#FF4E00"/>
</linearGradient>
<linearGradient id="paint4_linear_1_328" x1="28.9517" y1="19.4128" x2="32.7862" y2="24.0282" gradientUnits="userSpaceOnUse">
<stop stop-color="#EC9F05"/>
<stop offset="1" stop-color="#FF4E00"/>
</linearGradient>
<linearGradient id="paint5_linear_1_328" x1="28.9529" y1="27.8062" x2="32.8031" y2="32.4216" gradientUnits="userSpaceOnUse">
<stop stop-color="#EC9F05"/>
<stop offset="1" stop-color="#FF4E00"/>
</linearGradient>
<linearGradient id="paint6_linear_1_328" x1="28.9592" y1="11.0095" x2="32.816" y2="15.6238" gradientUnits="userSpaceOnUse">
<stop stop-color="#EC9F05"/>
<stop offset="1" stop-color="#FF4E00"/>
</linearGradient>
</defs>
</svg>
