<svg width="51" height="51" viewBox="0 0 51 51" fill="none" xmlns="http://www.w3.org/2000/svg">
<path d="M12.9925 26.6893C12.985 25.4466 13.2657 24.2192 13.8124 23.1038C14.3592 21.9883 15.1571 21.0154 16.1432 20.2616C17.1293 19.5078 18.2767 18.9937 19.495 18.76C20.7132 18.5262 21.969 18.5792 23.1633 18.9146C23.7293 19.0743 24.0266 18.9935 24.3973 18.4983C26.7936 15.3063 31.2584 14.4288 34.7437 16.4277C36.4467 17.3984 37.7377 18.9582 38.3748 20.8146C39.0118 22.6709 38.9511 24.6963 38.204 26.511C37.4569 28.3257 36.0747 29.8051 34.3166 30.6716C32.5585 31.5382 30.5453 31.7325 28.6544 31.2181C28.1476 31.0782 27.8037 31.0387 27.4007 31.577C26.3874 32.9218 24.9761 33.9117 23.3681 34.4057C21.7601 34.8996 20.0375 34.8723 18.4459 34.3276C16.8573 33.7802 15.4785 32.7503 14.5011 31.3814C13.5237 30.0125 12.9964 28.3724 12.9925 26.6893ZM14.6151 26.5888C14.5988 27.8676 14.9618 29.1225 15.6581 30.1944C16.3543 31.2663 17.3525 32.1071 18.5262 32.6101C19.6998 33.1131 20.9961 33.2557 22.2507 33.0199C23.5054 32.7841 24.6619 32.1805 25.5738 31.2855C26.4857 30.3906 27.1119 29.2445 27.3731 27.9927C27.6342 26.7408 27.5186 25.4395 27.0408 24.2535C26.5631 23.0676 25.7446 22.0504 24.6893 21.3309C23.6339 20.6114 22.3892 20.2219 21.1127 20.2119C19.4095 20.2027 17.7715 20.8674 16.5548 22.0615C15.3381 23.2556 14.641 24.8826 14.6151 26.5888ZM27.4616 21.6599C27.7303 20.4667 28.3267 19.6754 29.4979 19.4493C29.5572 19.4461 29.6153 19.4312 29.6689 19.4054C29.7224 19.3797 29.7703 19.3436 29.8099 19.2993C29.8495 19.255 29.88 19.2032 29.8996 19.1471C29.9192 19.0909 29.9276 19.0314 29.9242 18.972C29.9439 18.4248 30.3773 18.5791 30.6567 18.6132C30.9361 18.6472 31.4608 18.344 31.5181 18.9236C31.5647 19.3775 31.8423 19.4062 32.17 19.4995C32.5762 19.6049 32.9469 19.8167 33.2444 20.1131C33.5418 20.4095 33.7551 20.7799 33.8625 21.1862C33.9915 21.615 33.9825 21.8752 33.4237 21.8357C32.9115 21.7998 32.3491 21.9667 32.0823 21.2974C32.0669 21.2458 32.0362 21.2001 31.9942 21.1664C31.9523 21.1327 31.9011 21.1125 31.8475 21.1086C31.7939 21.1047 31.7403 21.1173 31.694 21.1446C31.6476 21.1719 31.6107 21.2127 31.588 21.2615C31.2979 21.6994 31.6417 22.5552 32.17 22.7293C33.2751 23.0881 33.9395 23.953 33.961 25.0385C33.9718 26.1582 33.3037 27.0428 32.1378 27.4016C31.8459 27.4914 31.5629 27.5075 31.5396 27.9202C31.5056 28.5249 31.0149 28.2683 30.7158 28.2791C30.4167 28.2898 29.9403 28.4818 29.9278 27.8735C29.9278 27.5147 29.6645 27.4447 29.3797 27.4214C29.0001 27.3891 29.0699 27.7121 29.0126 27.9166C28.9248 28.2306 28.9105 28.5697 28.7887 28.8694C28.5577 29.4292 28.7493 29.6302 29.3099 29.7522C30.784 30.0856 32.3282 29.8897 33.6728 29.1986C35.0174 28.5075 36.0769 27.3652 36.6664 25.9711C37.256 24.5771 37.338 23.0198 36.8982 21.5713C36.4583 20.1228 35.5246 18.8752 34.2601 18.0462C31.5969 16.32 28.2192 16.7453 26.0217 19.0528C25.5292 19.5695 25.3053 19.9302 26.0862 20.4039C26.5751 20.6892 26.9548 21.1844 27.4616 21.6599ZM28.778 24.0445C28.7457 24.6904 29.0717 25.1211 29.3457 25.5697C29.3817 25.6345 29.4368 25.6865 29.5035 25.7186C29.5702 25.7508 29.6452 25.7614 29.7182 25.7491C29.9099 25.706 29.8884 25.5409 29.9134 25.401C30.0872 24.4931 29.9349 24.3065 28.778 24.0445ZM29.9278 21.7927C29.8543 21.5594 30.0603 21.1575 29.6824 21.1341C29.3045 21.1108 29.1451 21.4679 29.1451 21.8124C29.1451 22.1569 29.3242 22.5301 29.6699 22.5122C30.0872 22.4835 29.8418 22.0403 29.9278 21.7927ZM31.5307 25.0224C31.6202 25.2682 31.3677 25.715 31.7957 25.7401C32.1539 25.7616 32.333 25.3956 32.3187 25.0421C32.3044 24.6887 32.1503 24.3424 31.7814 24.3639C31.4125 24.3854 31.6059 24.7873 31.5307 25.0224Z" fill="url(#paint0_linear_1_195)"/>
<path d="M28.3338 12.0639C26.3476 13.6914 24.4313 15.256 22.5257 16.8314C21.9132 17.3356 21.2721 17.7286 20.45 17.7752C19.0029 17.8721 17.7958 17.1867 17.271 15.9396C16.7463 14.6926 17.0597 13.3666 18.1898 12.3941C20.3157 10.5639 22.4666 8.76064 24.6068 6.9466C25.5166 6.17505 26.4515 5.43042 27.3327 4.62478C27.5486 4.42455 27.8026 4.27015 28.0797 4.17086C28.3567 4.07157 28.6508 4.02944 28.9445 4.04701C32.7342 4.06854 36.5221 4.04701 40.3117 4.06316C40.787 4.06756 41.2572 3.96452 41.6872 3.76172C44.1713 2.61157 46.6679 1.48654 49.1591 0.352544C50.4468 -0.234192 50.873 0.0188042 50.8766 1.40042C50.8766 4.00036 50.8587 6.60389 50.8909 9.20204C50.8999 9.91976 50.633 10.345 50.0134 10.6967C47.583 12.0765 45.1724 13.5119 42.76 14.9259C40.5284 16.2411 38.1859 16.512 35.7126 15.753C34.1204 15.2632 32.5318 14.7572 30.9235 14.3319C29.6985 14.009 28.7117 13.4689 28.3338 12.0639ZM35.0893 5.67624C33.3306 5.67624 31.5683 5.7175 29.8113 5.65829C29.4166 5.6304 29.0204 5.68773 28.6496 5.8264C28.2789 5.96508 27.9421 6.18188 27.6622 6.46214C26.7542 7.3234 25.7602 8.09316 24.7967 8.90418C22.9538 10.4616 21.1037 12.0245 19.2715 13.5999C18.5892 14.1866 18.4728 14.9617 18.9134 15.5862C19.3324 16.1819 20.3067 16.3487 21.0124 15.9343C21.1863 15.8192 21.3515 15.6915 21.5067 15.5521C24.0248 13.4958 26.5464 11.4449 29.0574 9.38506C29.382 9.07796 29.8108 8.9055 30.2573 8.90239C32.0769 8.92213 33.8983 8.94545 35.7161 8.90239C36.4325 8.88265 36.368 9.27919 36.3824 9.74392C36.3967 10.2481 36.3627 10.5801 35.6857 10.5549C34.2529 10.4993 32.8202 10.5549 31.3874 10.5334C30.705 10.5334 30.0925 10.6339 29.9707 11.4306C29.849 12.2272 30.4113 12.5071 31.0596 12.7027C32.7736 13.1908 34.475 13.7273 36.1872 14.2297C38.0336 14.768 39.8533 14.7052 41.56 13.7416C43.9707 12.3744 46.3491 10.9533 48.749 9.56987C48.9213 9.48616 49.0641 9.3519 49.1585 9.18492C49.2529 9.01795 49.2943 8.82616 49.2773 8.63504C49.257 6.69241 49.257 4.74978 49.2773 2.80715C49.2773 2.21682 49.0982 2.15402 48.6021 2.39266C47.0422 3.13012 45.4375 3.77787 43.9026 4.56377C42.2746 5.39812 40.6144 5.85567 38.7643 5.69956C37.5429 5.5919 36.3125 5.67624 35.0893 5.67624Z" fill="url(#paint1_linear_1_195)"/>
<path d="M23.4606 38.04C25.5131 36.3552 27.4634 34.7834 29.3833 33.1739C30.3612 32.3557 31.4537 32.1117 32.6429 32.4562C34.912 33.1254 35.5084 36.0035 33.6745 37.6238C31.5074 39.5419 29.2723 41.3918 27.064 43.2561C26.1685 44.0079 25.2731 44.7346 24.4045 45.5151C24.2104 45.6973 23.9819 45.8388 23.7325 45.9312C23.483 46.0236 23.2177 46.0652 22.952 46.0534C19.1337 46.0354 15.3135 46.0534 11.4898 46.039C11.0151 46.0323 10.545 46.1329 10.1144 46.3333C7.60705 47.4978 5.08179 48.639 2.56191 49.7802C1.34406 50.3382 0.912441 50.0637 0.908859 48.7287C0.908859 46.127 0.924978 43.5252 0.894531 40.9271C0.894531 40.2093 1.12736 39.7769 1.75419 39.4199C4.21497 38.0203 6.64709 36.5741 9.09712 35.1458C11.3018 33.8557 13.6211 33.5991 16.064 34.3474C17.6758 34.8444 19.302 35.3486 20.9389 35.7828C22.1317 36.1094 23.0738 36.671 23.4606 38.04ZM2.53684 47.8351C2.9219 47.9141 3.14756 47.7347 3.38396 47.6288C5.39163 46.7227 7.40109 45.8219 9.39263 44.8835C10.0337 44.5718 10.7379 44.4121 11.4504 44.417C15.1201 44.4421 18.7934 44.417 22.4595 44.4385C22.6945 44.4484 22.9292 44.4119 23.1502 44.3309C23.3711 44.2499 23.574 44.1262 23.7472 43.9666C24.8683 42.9833 26.0163 42.0306 27.15 41.0652C28.941 39.5401 30.7516 38.0239 32.5372 36.4826C33.207 35.9048 33.3055 35.1046 32.8506 34.4909C32.4387 33.9347 31.502 33.7732 30.8215 34.1428C30.644 34.2519 30.4768 34.3768 30.3218 34.516C27.781 36.5914 25.2414 38.6704 22.703 40.753C22.399 41.0406 21.9982 41.2033 21.5801 41.2088C19.7318 41.1926 17.8818 41.1765 16.0281 41.2088C15.378 41.2231 15.387 40.8732 15.4013 40.4265C15.4156 39.9797 15.2921 39.5293 16.0389 39.5616C17.4985 39.6154 18.9617 39.5616 20.4249 39.5813C21.1145 39.5813 21.7073 39.4486 21.8129 38.6501C21.915 37.8947 21.3813 37.6076 20.7706 37.4246C19.0065 36.8863 17.2496 36.3319 15.4747 35.8366C13.6999 35.3414 11.9197 35.4042 10.2809 36.3355C7.84524 37.7171 5.44536 39.1489 3.0204 40.5628C2.78937 40.6974 2.53326 40.8158 2.53326 41.146L2.53684 47.8351Z" fill="url(#paint2_linear_1_195)"/>
<path d="M21.0249 31.5106C20.6435 31.5106 20.2226 31.6165 20.2244 30.992C20.2244 30.6744 19.9145 30.687 19.6871 30.6332C19.3349 30.5581 19.0055 30.4008 18.7254 30.1742C18.4453 29.9475 18.2226 29.6578 18.0752 29.3287C17.9409 29.0291 17.6293 28.5195 17.9534 28.3795C18.3851 28.2001 18.9976 28.0727 19.4453 28.4764C19.6513 28.6559 19.7247 29.108 20.0793 28.9501C20.3874 28.8138 20.2118 28.4118 20.2369 28.1337C20.2656 27.7874 20.2083 27.5434 19.7784 27.407C18.4334 26.9764 17.8352 26.2156 17.8299 25.0744C17.8245 23.9333 18.4603 23.133 19.7498 22.7006C19.9181 22.645 20.0901 22.6342 20.2011 22.4583C20.767 21.572 21.367 21.5612 21.89 22.4404C22.0404 22.6916 22.2894 22.6629 22.5096 22.7293C22.8427 22.8164 23.152 22.9774 23.4146 23.2004C23.6771 23.4234 23.8863 23.7027 24.0266 24.0176C24.1609 24.3172 24.4725 24.8286 24.1502 24.9668C23.7167 25.1462 23.106 25.2754 22.6565 24.8717C22.4523 24.6922 22.3789 24.2383 22.0225 24.3962C21.7162 24.5326 21.8918 24.9345 21.8667 25.2144C21.8362 25.5607 21.8971 25.8029 22.3252 25.9321C23.672 26.3627 24.2684 27.1235 24.2737 28.2647C24.2791 29.4059 23.6433 30.2061 22.352 30.635C22.155 30.7014 21.8864 30.705 21.8882 30.9669C21.9007 31.6613 21.4172 31.4998 21.0249 31.5106ZM20.2799 25.0386C20.1169 24.8466 20.4447 24.3747 19.9844 24.3603C19.6262 24.3513 19.4632 24.7192 19.4668 25.0691C19.4668 25.3884 19.6262 25.7132 19.9378 25.7347C20.4393 25.7688 20.1581 25.3095 20.2799 25.0386ZM21.8577 28.3096C21.9598 28.5392 21.6786 28.9986 22.1801 28.9645C22.4899 28.9429 22.6475 28.6182 22.6511 28.3006C22.6511 27.9417 22.472 27.5829 22.1317 27.5918C21.6948 27.608 21.9509 28.0584 21.8577 28.3096Z" fill="url(#paint3_linear_1_195)"/>
<defs>
<linearGradient id="paint0_linear_1_195" x1="12.9923" y1="15.361" x2="41.881" y2="22.7363" gradientUnits="userSpaceOnUse">
<stop stop-color="#EC9F05"/>
<stop offset="1" stop-color="#FF4E00"/>
</linearGradient>
<linearGradient id="paint1_linear_1_195" x1="17.024" y1="0.0563965" x2="52.6095" y2="13.0943" gradientUnits="userSpaceOnUse">
<stop stop-color="#EC9F05"/>
<stop offset="1" stop-color="#FF4E00"/>
</linearGradient>
<linearGradient id="paint2_linear_1_195" x1="0.894531" y1="32.3046" x2="36.486" y2="45.328" gradientUnits="userSpaceOnUse">
<stop stop-color="#EC9F05"/>
<stop offset="1" stop-color="#FF4E00"/>
</linearGradient>
<linearGradient id="paint3_linear_1_195" x1="17.8109" y1="21.7872" x2="25.4104" y2="22.7577" gradientUnits="userSpaceOnUse">
<stop stop-color="#EC9F05"/>
<stop offset="1" stop-color="#FF4E00"/>
</linearGradient>
</defs>
</svg>
