<svg width="51" height="51" viewBox="0 0 51 51" fill="none" xmlns="http://www.w3.org/2000/svg">
<path d="M35.7689 32.383C34.5505 31.7754 33.5128 31.1283 32.6826 30.2178C32.4286 29.9363 32.1333 29.9148 31.7988 29.9166C30.575 29.9238 29.3524 29.9238 28.131 29.9166C27.6336 29.9166 27.0736 30.0313 26.7945 29.4488C26.5404 28.9111 26.9108 28.5526 27.1863 28.1618C27.9628 27.0685 28.7304 25.9679 29.5265 24.8889C29.8192 24.5148 29.9632 24.0455 29.9309 23.5714C29.9062 22.5895 30.0348 21.6098 30.312 20.6677C29.1544 20.9025 28.029 21.1068 26.8804 21.0261C26.5547 21.0064 26.3436 21.2628 26.1039 21.4312C24.9355 22.2558 23.7779 23.0928 22.6132 23.9281C22.2554 24.1808 21.8975 24.3906 21.4628 24.1432C21.0692 23.9173 21.0459 23.5248 21.0548 23.1233C21.0638 22.7218 21.0369 22.3454 21.0548 21.9582C21.1658 20.0439 21.2212 18.1726 19.5144 16.7691C19.1046 16.4339 18.9275 15.8173 18.6377 15.3208C18.346 15.3728 18.2405 15.6435 18.083 15.8424C17.2171 16.9376 16.1722 17.8589 14.8965 18.3769C13.823 18.8089 13.1235 19.5044 12.5474 20.4382C12.1696 21.0453 11.7606 21.6322 11.3218 22.1966C10.853 22.806 10.3395 22.7971 9.85288 22.1966C9.66395 21.9659 9.49061 21.7228 9.33402 21.4689C8.46182 19.9948 7.19412 18.7956 5.67518 18.0077C2.13621 16.1418 0.309473 11.8847 1.06271 8.0525C1.87499 3.91556 4.99172 0.8487 9.06386 0.178329C13.0197 -0.472326 17.0238 1.4886 19.0241 5.03404C19.1673 5.29036 19.3032 5.55026 19.484 5.88007C20.3606 4.80461 21.2642 3.83311 22.4092 3.12689C25.7299 1.08172 29.9541 1.15521 33.0888 3.48537C36.422 5.95176 37.6547 9.31617 36.9444 13.3975C36.8746 13.7937 36.5204 14.2364 37.4006 14.05C42.0024 13.0785 46.3823 15.2222 48.3146 19.3466C50.2469 23.471 49.1233 28.1511 45.5199 31.1104L45.0457 31.4868C46.5182 32.2593 47.8422 33.1502 48.803 34.4838C51.1772 37.7496 51.5673 41.2538 49.7262 44.8297C47.8637 48.4504 44.7362 50.2357 40.6748 50.0278C36.6492 49.8198 33.8187 47.6976 32.2389 43.9944C31.9526 43.3241 31.6073 42.8401 30.9865 42.4959C30.2565 42.0962 29.5462 41.6535 28.852 41.1928C28.1578 40.7322 28.1364 40.1281 28.827 39.6298C28.9493 39.5443 29.0772 39.467 29.2099 39.3986C30.7933 38.5544 32.153 37.5936 32.7882 35.717C33.2784 34.3117 34.4754 33.2864 35.7689 32.383ZM22.6687 21.8793C23.1893 21.5209 23.5489 21.2986 23.8638 21.0297C25.161 19.922 26.5351 19.2373 28.3564 19.3126C29.8003 19.3699 31.194 18.8806 32.0636 17.4359C32.5502 16.6275 33.316 16.002 34.1372 15.4893C34.4616 15.2804 34.7121 14.9743 34.8529 14.6146C35.5805 12.9959 35.745 11.1794 35.3199 9.45598C34.4772 6.01271 31.6413 3.62877 28.0576 3.30971C24.7745 3.01575 21.5111 4.96951 20.1495 8.04712C19.4478 9.59149 19.2549 11.3195 19.5987 12.9811C19.9426 14.6426 20.8054 16.1514 22.0621 17.2889C22.2679 17.4561 22.4309 17.6699 22.538 17.9127C22.645 18.1555 22.6928 18.4203 22.6776 18.6852C22.6454 19.689 22.6687 20.6945 22.6687 21.8793ZM46.0173 46.7189C46.1594 46.6617 46.2959 46.5915 46.4252 46.5092C48.9175 44.2203 49.8246 41.3846 48.8978 38.1565C47.971 34.9283 45.7024 32.9261 42.362 32.4458C38.9501 31.96 36.1232 33.2147 34.3877 36.1973C33.418 37.8661 32.8061 39.6997 30.5464 40.3056C30.8811 40.5469 31.228 40.7706 31.5859 40.976C32.7041 41.5137 33.4502 42.2755 33.8259 43.5409C34.2016 44.8064 35.0676 45.8711 36.3504 46.7781C36.3504 46.0754 36.3665 45.5485 36.3504 45.0215C36.2806 43.1376 36.8693 41.5549 38.4652 40.4562C38.8481 40.1927 38.6692 40.0224 38.5099 39.7392C37.6153 38.2013 37.8801 36.502 39.1505 35.4678C39.7323 34.9913 40.4623 34.7337 41.2138 34.7396C41.9653 34.7455 42.6911 35.0145 43.2655 35.5001C44.4947 36.5433 44.7666 38.2371 43.8756 39.7069C43.6323 40.1084 43.6556 40.2572 44.0313 40.5332C45.3696 41.5155 45.9994 42.8777 46.0191 44.5357C46.0226 45.224 46.0173 45.9069 46.0173 46.7189ZM29.0703 28.3016C30.2118 28.3016 31.1583 28.3321 32.1119 28.2909C32.7882 28.2622 33.2963 28.4379 33.749 28.981C34.3786 29.7044 35.1551 30.285 36.0266 30.6838C36.9426 31.1301 37.8157 31.4366 38.9 31.0244C39.8679 30.6515 40.9504 30.6372 41.9934 30.7824C42.6156 30.8633 43.2456 30.7114 43.7629 30.3558C44.988 29.6185 45.9952 28.5679 46.6809 27.3118C47.3667 26.0556 47.7064 24.6393 47.6651 23.2081C47.6237 21.777 47.2029 20.3826 46.4458 19.1683C45.6887 17.954 44.6226 16.9634 43.357 16.2984C42.0914 15.6333 40.672 15.3177 39.2444 15.384C37.8168 15.4503 36.4325 15.8961 35.2338 16.6756C34.035 17.4551 33.065 18.5402 32.4232 19.8195C31.7815 21.0988 31.4913 22.5262 31.5823 23.955C31.626 24.4894 31.4655 25.0205 31.1332 25.4409C30.4676 26.3246 29.8378 27.228 29.0703 28.3016ZM10.6007 20.4149C11.023 19.8091 11.4202 19.2875 11.7637 18.7354C12.2038 17.9955 12.8878 17.4326 13.6978 17.1437C15.4887 16.4698 16.8002 15.19 17.7127 13.4979C17.9026 13.1954 17.9798 12.8356 17.931 12.4816C17.7365 11.149 17.8591 9.78925 18.2888 8.51315C18.4114 8.14799 18.4114 7.75267 18.2888 7.38751C17.7706 5.69447 16.7097 4.21981 15.2704 3.19185C13.8311 2.16388 12.0936 1.63996 10.3271 1.7012C8.56052 1.76244 6.86338 2.40542 5.49844 3.53059C4.1335 4.65577 3.17689 6.20036 2.77673 7.92524C1.95372 11.5101 3.52281 15.2742 6.8274 16.796C8.34103 17.4968 9.33223 18.5024 10.1642 19.8109C10.2644 19.9794 10.3968 20.1407 10.6007 20.4185V20.4149ZM44.3999 45.8227C44.3999 45.4069 44.4106 44.9892 44.3999 44.568C44.3408 42.6107 43.0133 41.2197 41.2044 41.209C39.3956 41.1982 38.034 42.5927 37.9839 44.5339C37.9607 45.3961 38.0036 46.2619 37.9696 47.124C37.9463 47.6617 38.1718 47.893 38.6853 48.0579C39.9059 48.4493 41.2005 48.5524 42.4676 48.359C44.4178 48.0794 44.4142 48.0615 44.4142 46.088C44.4016 46.0019 44.4016 45.9123 44.3999 45.8227ZM42.7735 37.9916C42.7721 37.6764 42.6773 37.3689 42.5012 37.1078C42.3252 36.8467 42.0757 36.6438 41.7844 36.5248C41.4932 36.4059 41.1732 36.3763 40.8651 36.4397C40.557 36.503 40.2746 36.6566 40.0537 36.8809C39.8328 37.1053 39.6834 37.3902 39.6243 37.6997C39.5652 38.0092 39.5991 38.3293 39.7217 38.6195C39.8444 38.9096 40.0503 39.1568 40.3133 39.3296C40.5762 39.5025 40.8845 39.5932 41.199 39.5904C41.4072 39.589 41.6131 39.5465 41.8049 39.4654C41.9967 39.3843 42.1706 39.2661 42.3168 39.1177C42.463 38.9692 42.5786 38.7933 42.657 38.6001C42.7353 38.4069 42.7749 38.2001 42.7735 37.9916Z" fill="url(#paint0_linear_1_145)"/>
<path d="M13.136 25.8657C13.7989 25.8823 14.4294 26.156 14.8947 26.6293C17.7574 29.4972 20.6201 32.3705 23.4827 35.2491C24.3773 36.1453 24.5151 37.3498 23.9139 38.3626C23.3128 39.3753 22.182 39.7965 20.9743 39.4291C20.6729 39.3211 20.3415 39.334 20.0493 39.4649C18.2995 40.2088 16.5497 40.958 14.7838 41.666C14.2292 41.8901 14.1451 42.0532 14.6049 42.4959C15.7464 43.5893 16.8485 44.7221 17.9649 45.8424C18.8595 46.7386 18.8595 46.9645 17.9399 47.884C17.3495 48.4737 16.7483 49.0544 16.1668 49.6549C15.6408 50.1926 15.1613 50.1675 14.6389 49.637C13.4688 48.445 12.2736 47.2781 11.1035 46.0862C10.8065 45.785 10.5667 45.5215 10.1481 45.9231C10.0586 46.0109 9.80993 46.0772 9.73837 46.0216C8.94934 45.3943 8.48595 46.1077 7.92415 46.4339C7.30532 46.7877 6.58278 46.9145 5.88076 46.7924C5.17874 46.6703 4.54112 46.307 4.07754 45.7649C3.61396 45.2228 3.35339 44.5359 3.34064 43.8221C3.32789 43.1084 3.56375 42.4126 4.00767 41.8542C4.29573 41.4957 4.70366 41.252 4.24384 40.6784C3.94326 40.3056 4.29573 39.9041 4.60167 39.6029C5.63939 38.5723 6.66458 37.5309 7.70587 36.5056C8.09544 36.1359 8.40008 35.6858 8.59867 35.1864C9.14615 33.8026 9.74731 32.4404 10.3216 31.0638C10.6383 30.3038 10.8745 29.594 10.6652 28.6834C10.3252 27.1939 11.6188 25.8406 13.136 25.8657ZM19.0778 38.1206C19.0456 38.0095 19.0456 37.9413 19.0098 37.9001C16.833 35.7062 14.6532 33.5116 12.4704 31.3165C12.1001 30.9401 12.0142 31.1928 11.8836 31.5101C11.3075 32.91 10.7349 34.3099 10.1266 35.6972C9.97096 36.0557 10.0085 36.2815 10.2859 36.5522C11.3916 37.6277 12.4812 38.7354 13.5672 39.8359C13.8141 40.0869 14.0556 40.2536 14.426 40.0941C15.9778 39.4332 17.5284 38.7772 19.0778 38.126V38.1206ZM22.6561 37.0129C22.6561 36.6257 22.3216 36.3532 22.0299 36.0593C19.5251 33.5499 17.0143 31.0405 14.4975 28.5311C14.2176 28.2217 13.9117 27.9368 13.5833 27.6796C13.4152 27.5482 13.202 27.4889 12.9903 27.5148C12.7787 27.5407 12.5859 27.6496 12.4543 27.8177C12.3143 27.9573 12.229 28.1427 12.2139 28.3401C12.1987 28.5375 12.2549 28.7337 12.372 28.8931C12.5081 29.0896 12.666 29.27 12.8426 29.4309C15.4786 32.0729 18.1158 34.7084 20.7543 37.3373C20.9337 37.5369 21.141 37.7096 21.3697 37.8499C21.9405 38.1636 22.6347 37.746 22.6597 37.0182L22.6561 37.0129ZM8.99049 37.5739C8.86627 37.6612 8.74682 37.7551 8.63266 37.8553C7.917 38.5723 7.20133 39.3018 6.47493 40.0062C6.15825 40.3091 6.18687 40.5171 6.48745 40.8092C7.4697 41.7646 8.44301 42.7325 9.39485 43.7219C9.69364 44.032 9.87792 44.0446 10.1785 43.7219C10.8512 43.005 11.5454 42.3041 12.2647 41.6338C12.6064 41.3129 12.6225 41.1139 12.2647 40.7841C11.2949 39.8557 10.3628 38.8895 9.41274 37.9413C9.29107 37.8212 9.15152 37.7155 8.99407 37.5793L8.99049 37.5739ZM16.6123 46.8103C16.4871 46.6687 16.3762 46.5307 16.2545 46.407C15.308 45.4552 14.3329 44.5285 13.4187 43.5391C12.8032 42.8795 12.6332 43.5965 12.3327 43.8385C12.0321 44.0804 11.5723 44.3403 12.143 44.8637C13.1109 45.7474 14.0055 46.7135 14.943 47.633C15.122 47.8015 15.2723 48.1797 15.58 47.9252C15.9629 47.6241 16.3619 47.3032 16.6159 46.8157L16.6123 46.8103ZM6.4141 45.1971C6.65438 45.2254 6.89773 45.1848 7.11593 45.0801C7.33413 44.9754 7.51821 44.8109 7.64683 44.6056C7.93489 44.1217 7.33015 44.0016 7.12082 43.7327C6.82918 43.3617 6.44988 43.0587 6.12962 42.7074C5.86661 42.4206 5.64833 42.4135 5.40322 42.72C5.02571 43.1968 4.86647 43.7022 5.10801 44.2955C5.20715 44.5605 5.385 44.7886 5.61758 44.9492C5.85016 45.1098 6.12628 45.195 6.40873 45.1935L6.4141 45.1971Z" fill="url(#paint1_linear_1_145)"/>
<path d="M33.0995 8.76595C33.0995 9.38254 32.8419 9.66216 32.5502 9.84141C30.9239 10.9169 30.7235 12.2469 31.763 13.8457C31.905 14.1063 32.0201 14.3808 32.1065 14.6649C32.2854 15.113 32.5073 15.5754 32.0403 15.9787C31.5733 16.382 31.1457 16.1221 30.736 15.8676C29.8701 15.3442 28.9808 14.8566 28.1435 14.2938C27.6855 13.9855 27.3455 13.955 26.8732 14.2759C26.0377 14.8423 25.1449 15.3245 24.2789 15.8479C23.8638 16.1006 23.4434 16.3748 22.9728 16.002C22.5023 15.6292 22.683 15.1524 22.8655 14.6989C23.1213 14.0644 23.3056 13.3886 23.6509 12.8079C24.2145 11.8579 24.0087 11.1804 23.1571 10.5638C22.8155 10.2759 22.4955 9.96319 22.1999 9.62811C22.0627 9.51168 21.9637 9.35655 21.9159 9.18293C21.868 9.00932 21.8735 8.82528 21.9315 8.65482C22.0711 8.24793 22.4057 8.14218 22.7832 8.1368C23.438 8.12605 24.0946 8.09916 24.7512 8.1368C25.2451 8.16548 25.5099 7.9719 25.7031 7.53096C25.9876 6.87851 26.3293 6.24757 26.6478 5.60947C26.8267 5.25098 27.0629 4.95523 27.5245 4.96598C27.7063 4.96348 27.8837 5.02192 28.0286 5.13201C28.1735 5.2421 28.2776 5.39753 28.3242 5.57362C28.9325 7.52737 30.0561 8.62076 32.2604 8.15652C32.3562 8.13179 32.4564 8.12855 32.5536 8.14705C32.6509 8.16554 32.7429 8.20531 32.823 8.26352C32.9031 8.32173 32.9695 8.39694 33.0173 8.48379C33.0651 8.57064 33.0931 8.66698 33.0995 8.76595ZM30.2583 9.7966C28.3332 10.2752 28.1757 8.67453 27.4779 7.59728C26.8535 8.76953 26.5834 10.1981 24.694 9.84141C26.5422 10.8362 25.6458 12.1017 25.1896 13.3349C26.1235 13.0194 26.6907 12.1859 27.5495 12.2146C28.3618 12.2415 28.92 13.0588 29.8754 13.3169C29.1383 12.0228 28.6785 10.8398 30.2637 9.7966H30.2583Z" fill="url(#paint2_linear_1_145)"/>
<path d="M46.0101 22.5103C45.8777 24.7975 44.9366 26.6329 43.1188 27.9432C42.158 28.6333 41.081 29.1621 40.0558 29.7607C39.9186 29.8527 39.7579 29.9031 39.593 29.906C39.428 29.9088 39.2656 29.864 39.1254 29.7769C38.0072 29.1047 36.7995 28.5741 35.7761 27.7496C34.9867 27.1353 34.3423 26.3543 33.8886 25.462C33.4349 24.5697 33.1832 23.5882 33.1514 22.5874C33.0691 21.0101 33.7024 19.7769 35.098 19.0473C36.4935 18.3178 37.8855 18.4612 39.0932 19.4793C39.5315 19.8504 39.723 19.7303 40.0915 19.4381C41.301 18.4827 42.6572 18.334 44.0277 19.0312C45.425 19.7482 46.0477 20.9796 46.0101 22.5103ZM44.3999 22.5103C44.4428 21.5872 44.0903 20.8756 43.2655 20.4472C42.4729 20.0368 41.641 20.2017 40.8913 20.8846C40.6927 21.0638 40.5048 21.2556 40.3188 21.4492C39.8339 21.9547 39.349 21.9672 38.857 21.4492C38.6781 21.2556 38.4831 21.0638 38.2863 20.8828C37.5348 20.1981 36.7047 20.0278 35.9138 20.4329C35.0855 20.8559 34.7223 21.5657 34.7724 22.487C34.8779 24.3763 35.7349 25.8371 37.3219 26.8552C39.5745 28.2999 39.5816 28.2891 41.836 26.8552C43.423 25.8658 44.2549 24.3978 44.3909 22.5193L44.3999 22.5103Z" fill="url(#paint3_linear_1_145)"/>
<path d="M10.5829 16.1973C9.31025 16.1973 8.06617 15.8196 7.00762 15.1119C5.94907 14.4042 5.12351 13.3982 4.63513 12.2209C4.14674 11.0436 4.01742 9.74769 4.2635 8.49681C4.50957 7.24594 5.12 6.09612 6.01775 5.19248C6.9155 4.28885 8.06033 3.67189 9.30775 3.41948C10.5552 3.16706 11.8493 3.29051 13.0267 3.77424C14.2042 4.25796 15.2122 5.08029 15.9236 6.13742C16.635 7.19456 17.0178 8.43913 17.0239 9.71405C17.029 10.5643 16.8662 11.4072 16.5447 12.1942C16.2233 12.9811 15.7495 13.6965 15.1508 14.2992C14.552 14.9019 13.8402 15.3799 13.0562 15.7056C12.2722 16.0314 11.4316 16.1985 10.5829 16.1973ZM5.91672 8.9433C7.01527 8.9433 8.11024 8.92179 9.20341 8.95406C9.68828 8.9684 9.76163 8.77481 9.80279 8.33746C9.87793 7.53265 9.62387 7.20464 8.79549 7.32294C8.38178 7.35613 7.96623 7.35973 7.55202 7.33369C6.19941 7.33369 6.09921 7.43049 5.91672 8.9433ZM13.3704 8.9433C13.8731 8.9433 14.3777 8.9433 14.8804 8.9433C15.0361 8.9433 15.2383 9.01679 15.2991 8.7551C15.4154 8.24246 14.7301 7.34803 14.1916 7.34266C13.4759 7.3319 12.7692 7.36237 12.0607 7.3319C11.5884 7.31039 11.4112 7.42152 11.3737 7.95208C11.3164 8.77123 11.583 9.07953 12.3935 8.95764C12.7183 8.92864 13.0448 8.92384 13.3704 8.9433ZM5.91493 10.5565C6.10279 12.0729 6.19941 12.1697 7.55381 12.1697C8.11739 12.1697 8.68277 12.1356 9.24278 12.1697C9.87614 12.2181 9.8171 11.8112 9.77953 11.4258C9.74195 11.0817 10.0479 10.5296 9.29645 10.5475C8.16749 10.5762 7.04389 10.5619 5.91493 10.5619V10.5565ZM15.3116 10.5565C14.1666 10.5565 13.0716 10.5798 11.9784 10.5565C11.4935 10.5422 11.4202 10.7357 11.379 11.1713C11.3039 11.9761 11.558 12.3077 12.3863 12.184C12.7705 12.1562 13.1562 12.1562 13.5404 12.184C14.9592 12.1697 14.9592 12.1697 15.3116 10.5601V10.5565ZM8.13171 5.71692C8.65772 5.71692 9.0567 5.71692 9.4539 5.71692C9.74016 5.71692 9.78668 5.56635 9.7831 5.32617C9.7831 5.01966 9.63103 4.99098 9.38949 5.07881C8.9905 5.22041 8.545 5.2706 8.13171 5.71512V5.71692ZM13.0573 5.71692C12.6315 5.29211 12.2271 5.21503 11.8424 5.10032C11.6635 5.04655 11.4345 4.91211 11.4023 5.27956C11.379 5.55201 11.4202 5.74022 11.7601 5.72588C12.143 5.70258 12.5241 5.71512 13.0609 5.71512L13.0573 5.71692ZM8.12276 13.7829C8.55216 14.2059 8.95472 14.2848 9.33939 14.3995C9.51831 14.4532 9.74732 14.5895 9.77953 14.2202C9.80279 13.9496 9.76163 13.7596 9.42169 13.7739C9.0406 13.8008 8.65772 13.7883 8.12276 13.7883V13.7829ZM13.0573 13.7829C12.5205 13.7829 12.1305 13.7829 11.7333 13.7829C11.3755 13.7721 11.388 14.0105 11.4077 14.2543C11.4309 14.5375 11.6188 14.4766 11.7852 14.421C12.1877 14.2883 12.6297 14.231 13.0609 13.79L13.0573 13.7829Z" fill="url(#paint4_linear_1_145)"/>
<defs>
<linearGradient id="paint0_linear_1_145" x1="0.894974" y1="0.0546875" x2="58.3571" y2="11.0748" gradientUnits="userSpaceOnUse">
<stop stop-color="#EC9F05"/>
<stop offset="1" stop-color="#FF4E00"/>
</linearGradient>
<linearGradient id="paint1_linear_1_145" x1="3.34015" y1="25.8654" x2="27.6256" y2="29.8985" gradientUnits="userSpaceOnUse">
<stop stop-color="#EC9F05"/>
<stop offset="1" stop-color="#FF4E00"/>
</linearGradient>
<linearGradient id="paint2_linear_1_145" x1="21.8836" y1="4.9657" x2="34.7768" y2="7.43703" gradientUnits="userSpaceOnUse">
<stop stop-color="#EC9F05"/>
<stop offset="1" stop-color="#FF4E00"/>
</linearGradient>
<linearGradient id="paint3_linear_1_145" x1="33.1443" y1="18.5902" x2="47.7833" y2="21.7827" gradientUnits="userSpaceOnUse">
<stop stop-color="#EC9F05"/>
<stop offset="1" stop-color="#FF4E00"/>
</linearGradient>
<linearGradient id="paint4_linear_1_145" x1="4.14194" y1="3.29175" x2="18.9518" y2="6.12686" gradientUnits="userSpaceOnUse">
<stop stop-color="#EC9F05"/>
<stop offset="1" stop-color="#FF4E00"/>
</linearGradient>
</defs>
</svg>
