<svg width="39" height="51" viewBox="0 0 39 51" fill="none" xmlns="http://www.w3.org/2000/svg">
<path d="M24.1887 24.6878C24.8542 27.0439 24.8542 27.0439 23.5233 27.3676C23.9254 28.3627 24.3717 29.3277 24.5928 30.3832C24.831 31.402 24.6714 32.4734 24.1465 33.3786C23.1916 35.0713 21.8125 36.3821 20.3972 37.6647C20.0876 37.9462 19.7458 38.0105 19.4101 37.709C17.8319 36.3017 16.3342 34.8261 15.3893 32.8841C14.8666 31.7964 15.0616 30.733 15.3893 29.6675C15.6306 28.9095 15.9402 28.1697 16.2457 27.3535C15.912 27.1525 15.3752 27.3535 15.14 26.8831C14.8867 26.3745 15.2948 25.9945 15.3411 25.5482C15.3752 25.2446 15.7894 24.8908 15.4456 24.6636C15.1018 24.4365 14.7078 24.6998 14.3781 24.9793C13.1015 26.0629 11.8088 27.1263 10.5121 28.1838C10.2367 28.409 9.95729 28.7588 9.55119 28.5859C9.08679 28.3848 9.0486 27.9285 9.05061 27.4701C9.05061 25.3934 9.06669 23.3167 9.05061 21.238C9.05684 20.7577 9.24928 20.2985 9.58738 19.9574C10.7936 18.5159 11.9576 17.0524 13.1759 15.629C13.3646 15.4209 13.5102 15.1775 13.6044 14.9129C13.6986 14.6482 13.7395 14.3676 13.7247 14.0871C13.6644 11.6445 13.6403 9.20588 14.4927 6.84972C15.2968 4.61619 16.3784 2.5636 18.2239 0.999532C19.587 -0.146381 20.3127 -0.162464 21.6315 1.02567C24.1023 3.24713 25.3045 6.13604 25.9217 9.33052C26.2353 10.9609 26.0805 12.5994 26.1046 14.2338C26.0911 14.7312 26.2664 15.2153 26.5951 15.5888C27.8315 17.0423 29.0217 18.534 30.25 19.9956C30.5821 20.3726 30.7576 20.8624 30.7405 21.3646C30.7204 23.375 30.7405 25.3854 30.7405 27.3957C30.7405 27.842 30.7405 28.2843 30.2761 28.5276C29.8117 28.7708 29.5263 28.3748 29.2368 28.1396C27.9582 27.1076 26.6963 26.0602 25.4512 24.9974C25.0492 24.6677 24.6933 24.4465 24.1887 24.6878ZM24.7114 16.5236C24.7114 14.648 24.7999 12.7662 24.6913 10.8946C24.4903 7.6217 23.3564 4.70666 21.0465 2.32035C20.0835 1.32923 19.7337 1.32722 18.7567 2.3304C16.4046 4.74084 15.2365 7.70413 15.0978 11.0031C14.9551 14.3806 15.0656 17.7681 15.0656 21.1515C15.0656 23.2825 15.0656 23.2564 17.1685 23.2323C17.7897 23.2323 17.9726 23.0312 17.9606 22.4281C17.9284 20.6871 17.9485 18.9441 17.9606 17.2011C17.9606 14.1232 17.7234 14.5876 20.6645 14.5233C21.6235 14.4992 21.8708 14.9254 21.8708 15.7898C21.8366 17.5992 21.8708 19.4085 21.8708 21.2179C21.8708 23.2403 21.8708 23.2101 23.849 23.2282C24.5365 23.2282 24.7737 23.0694 24.7536 22.3477C24.6772 20.4097 24.7114 18.4657 24.7114 16.5236ZM29.3353 26.4468C29.3353 24.8948 29.3353 23.5941 29.3353 22.2934C29.3353 21.8612 29.4559 21.3103 29.2428 21.0208C28.308 19.7563 27.2787 18.5642 26.1207 17.1428C26.1207 19.4005 26.1207 21.3405 26.1207 23.2785C26.1064 23.4269 26.1294 23.5766 26.1877 23.7139C26.246 23.8512 26.3377 23.9717 26.4544 24.0645C27.3551 24.7943 28.2436 25.5442 29.3292 26.4468H29.3353ZM13.7046 17.4866L13.4754 17.4102C12.5373 18.5387 11.6045 19.6672 10.677 20.7957C10.5338 20.9365 10.4484 21.1258 10.4378 21.3264C10.4378 22.9749 10.4378 24.6254 10.4378 26.4911L13.4473 23.9781C13.5274 23.9184 13.5924 23.8407 13.6371 23.7514C13.6818 23.662 13.7049 23.5634 13.7046 23.4634V17.4866ZM17.9264 27.5586C16.0407 29.9851 16.0387 31.9693 17.8741 34.1928C18.3405 34.7577 18.8793 35.2724 19.3437 35.8353C19.7076 36.2715 20.0011 36.2635 20.3951 35.8614C21.2337 35.0454 21.9968 34.1552 22.6749 33.2017C23.6801 31.6979 23.278 28.8874 21.8708 27.643C21.7542 27.8923 21.911 28.0933 21.9894 28.3044C22.9403 30.8516 22.6307 31.9914 20.558 33.7485C20.178 34.0702 19.8684 34.1908 19.4161 33.8651C17.4379 32.4458 16.8911 30.6968 17.7616 28.4371C17.9105 28.17 17.9684 27.8616 17.9264 27.5586ZM20.4796 21.3948C20.4796 19.8267 20.4796 18.2586 20.4796 16.6885C20.4796 16.2703 20.5138 15.9004 19.8765 15.9105C19.2392 15.9205 19.3055 16.3125 19.3055 16.7146C19.3055 19.8521 19.3055 22.9897 19.3055 26.1272C19.3055 26.5293 19.3055 26.8288 19.8584 26.8449C20.4615 26.865 20.4776 26.5373 20.4735 26.097C20.4715 24.533 20.4796 22.9729 20.4796 21.3948ZM21.135 30.3912C21.0961 29.7572 20.9183 29.1395 20.6143 28.5819C20.3147 27.9787 19.7016 28.0793 19.3337 28.3667C18.3285 29.1548 18.5737 31.4426 19.6754 32.1865C19.8765 32.3252 20.0232 32.3553 20.1901 32.1865C20.6746 31.6778 21.1792 31.1772 21.135 30.3912ZM17.9505 25.3271C17.9385 24.925 17.9968 24.5511 17.4761 24.5953C16.9554 24.6395 16.9634 25.1039 16.8549 25.4577C16.7162 25.9141 17.066 25.8196 17.3072 25.8437C17.7455 25.89 18.0129 25.7633 17.9505 25.3271ZM22.5241 25.8236C22.6588 25.7653 23.1132 26.0025 22.9644 25.512C22.8538 25.1441 22.9202 24.5832 22.2648 24.5893C21.7883 24.5893 21.8627 24.929 21.8446 25.2185C21.8024 25.6809 21.9632 25.9282 22.5241 25.8236Z" fill="url(#paint0_linear_75_97)" stroke="#F77415" stroke-width="0.3"/>
<path d="M25.2502 44.2326C25.6643 43.2012 25.2502 42.4112 24.5285 41.5447C23.5233 40.3264 23.2559 38.7824 23.2981 37.1983C23.3102 36.7379 23.4188 36.366 23.9294 36.3559C24.44 36.3459 24.6069 36.7198 24.621 37.1601C24.6612 38.4145 24.8723 39.6167 25.5578 40.7003C25.9036 41.2492 26.1468 41.5527 26.7821 40.8793C28.304 39.271 30.2178 38.8689 32.2966 39.5966C34.2808 40.2822 35.4066 41.7739 35.6961 43.8184C35.7886 44.4778 36.062 44.7774 36.5646 45.1071C37.2519 45.5306 37.8224 46.1191 38.2244 46.8192C38.6264 47.5193 38.8471 48.3087 38.8665 49.1157C38.8866 49.558 38.7981 49.9822 38.3076 50.0345C37.7728 50.0928 37.5859 49.7249 37.5477 49.2082C37.5174 48.6543 37.3669 48.1136 37.1065 47.6237C36.8461 47.1338 36.4821 46.7065 36.0399 46.3716C35.6961 46.1042 35.489 46.0962 35.3081 46.5565C35.0463 47.2127 34.6402 47.8015 34.12 48.2794C33.7179 48.6554 33.2636 49.0977 32.7569 48.5468C32.2503 47.996 32.7951 47.6643 33.159 47.3124C34.4818 45.9997 34.7673 44.1903 33.9029 42.6263C33.4949 41.881 32.8522 41.2914 32.0747 40.949C31.2971 40.6066 30.4282 40.5305 29.6031 40.7327C28.7779 40.9349 28.0425 41.4039 27.5113 42.067C26.9801 42.7301 26.6828 43.55 26.6655 44.3994C26.6494 44.9643 26.9148 45.7745 25.9518 45.7202C24.9889 45.6659 25.4191 44.8156 25.2502 44.2326Z" fill="url(#paint1_linear_75_97)" stroke="#F77415" stroke-width="0.3"/>
<path d="M16.5252 37.6888C16.4106 39.4982 15.9221 41.1266 14.5932 42.4092C14.4781 42.501 14.3948 42.6267 14.3551 42.7685C14.3155 42.9103 14.3214 43.061 14.3721 43.1993C14.4766 43.6887 14.5238 44.1886 14.5128 44.689C14.5128 45.1936 14.5309 45.7806 13.783 45.7444C13.0754 45.7102 13.2161 45.1594 13.2161 44.693C13.2161 42.2524 11.3143 40.4491 8.96418 40.6582C7.37398 40.7989 6.28034 41.6633 5.70135 43.1128C5.12236 44.5623 5.43799 45.9273 6.4673 47.1336C6.60714 47.2757 6.7548 47.4099 6.90958 47.5356C7.24129 47.8432 7.40614 48.2051 7.06036 48.581C6.71458 48.957 6.32657 48.8243 5.9828 48.5469C5.32129 48.0261 4.81054 47.3384 4.50317 46.5546C4.32022 46.0781 4.13326 46.1043 3.7935 46.3535C3.3783 46.6628 3.03159 47.0546 2.77522 47.5044C2.51884 47.9542 2.35834 48.4522 2.30382 48.967C2.23948 49.4535 2.23144 50.117 1.5258 50.0144C0.820161 49.9119 0.904597 49.2786 0.970939 48.7379C1.05228 47.9854 1.30657 47.2619 1.71391 46.6241C2.12126 45.9862 2.67062 45.4512 3.31906 45.0609C3.82567 44.7432 4.07898 44.4055 4.15135 43.8285C4.42275 41.6995 5.61289 40.2501 7.61723 39.5685C9.70802 38.8569 11.5958 39.3675 13.1156 40.9537C13.6102 41.4744 13.8172 41.3377 14.1469 40.8733C14.8546 39.8801 15.0496 38.7383 15.1923 37.5682C15.2526 37.0737 15.0938 36.3258 15.8919 36.372C16.7282 36.4183 16.5111 37.1581 16.5252 37.6888Z" fill="url(#paint2_linear_75_97)" stroke="#F77415" stroke-width="0.3"/>
<path d="M4.20965 16.8814C4.20965 14.674 4.20965 12.4673 4.20965 10.2613C4.20965 9.73857 4.20965 9.15758 4.88514 9.12943C5.6732 9.09927 5.61088 9.74863 5.61088 10.2874C5.61088 14.6687 5.61088 19.0493 5.61088 23.4292C5.61088 23.9439 5.63903 24.549 4.95349 24.5651C4.2197 24.5812 4.20563 23.962 4.20764 23.4031C4.21367 21.2299 4.20965 19.0546 4.20965 16.8814Z" fill="url(#paint3_linear_75_97)" stroke="#F77415" stroke-width="0.3"/>
<path d="M16.5634 43.8989C17.6166 43.9968 18.6121 44.4246 19.408 45.1212C19.784 45.4549 20.0252 45.4469 20.4132 45.1212C21.3261 44.3203 22.502 43.8837 23.7163 43.8949C24.1304 43.8949 24.4641 43.9914 24.5204 44.4537C24.5787 44.9664 24.251 45.1272 23.8007 45.2217C20.9641 45.8248 20.1539 46.629 19.7136 49.345C19.6413 49.7853 19.4201 50.0587 19.0221 50.0526C18.5436 50.0526 18.3365 49.6747 18.3566 49.2163C18.3888 48.5469 18.4571 47.8613 18.7889 47.2783C19.1206 46.6953 18.9034 46.3797 18.439 46.056C17.8122 45.6087 17.08 45.3317 16.3141 45.2519C15.8115 45.2016 15.2164 45.1815 15.3089 44.4477C15.3793 43.7843 15.9502 43.915 16.5634 43.8989Z" fill="url(#paint4_linear_75_97)" stroke="#F77415" stroke-width="0.3"/>
<path d="M30.7546 5.9008C30.7546 7.5091 30.7546 9.1174 30.7546 10.7116C30.7546 11.2383 30.7426 11.7992 30.0289 11.7731C29.4077 11.749 29.3534 11.2303 29.3534 10.7378V1.11611C29.3534 0.587382 29.4037 0.0365398 30.0992 0.0546332C30.7385 0.0727265 30.7546 0.597434 30.7546 1.08797C30.7526 2.69224 30.7546 4.29652 30.7546 5.9008Z" fill="url(#paint5_linear_75_97)" stroke="#F77415" stroke-width="0.3"/>
<path d="M35.5614 20.09C35.5614 21.6621 35.5614 23.2362 35.5614 24.8083C35.5614 25.2828 35.5936 25.8135 34.9121 25.8296C34.1883 25.8296 34.1763 25.2969 34.1763 24.7701C34.1763 21.5911 34.1763 18.4127 34.1763 15.2349C34.1763 14.7142 34.1763 14.1554 34.896 14.1654C35.6499 14.1654 35.5554 14.7806 35.5574 15.2711C35.5654 16.8774 35.5614 18.4837 35.5614 20.09Z" fill="url(#paint6_linear_75_97)" stroke="#F77415" stroke-width="0.3"/>
<path d="M35.5715 33.5596C35.5474 34.2773 35.6137 34.8643 34.8699 34.8623C34.2286 34.8623 34.1843 34.3637 34.1723 33.8571C34.1602 33.3163 34.2064 32.7715 34.8819 32.7594C35.5031 32.7554 35.5876 33.264 35.5715 33.5596Z" fill="url(#paint7_linear_75_97)" stroke="#F77415" stroke-width="0.3"/>
<path d="M5.60887 27.9245C5.62093 28.4431 5.60887 29.0101 4.92333 29.0161C4.33831 29.0161 4.20965 28.5497 4.20563 28.033C4.20563 27.4641 4.2579 26.877 4.96354 26.8851C5.54856 26.8931 5.63701 27.4219 5.60887 27.9245Z" fill="url(#paint8_linear_75_97)" stroke="#F77415" stroke-width="0.3"/>
<path d="M34.1763 29.2754C34.1642 28.7467 34.2044 28.2019 34.896 28.2039C35.5433 28.2039 35.5634 28.7266 35.5614 29.209C35.5594 29.6915 35.5735 30.2947 34.8578 30.2806C34.2426 30.2745 34.1501 29.786 34.1763 29.2754Z" fill="url(#paint9_linear_75_97)" stroke="#F77415" stroke-width="0.3"/>
<path d="M30.7566 15.1786C30.7566 15.6571 30.7747 16.1838 30.1153 16.214C29.3996 16.2461 29.3574 15.7033 29.3574 15.1786C29.3574 14.7022 29.3574 14.1734 30.0148 14.1493C30.7466 14.1131 30.7607 14.6519 30.7566 15.1786Z" fill="url(#paint10_linear_75_97)" stroke="#F77415" stroke-width="0.3"/>
<path d="M16.6197 8.93647C16.6192 8.50046 16.7064 8.06881 16.8762 7.6672C17.0459 7.26559 17.2947 6.90224 17.6078 6.59875C17.9208 6.29527 18.2917 6.05786 18.6984 5.90066C19.1051 5.74345 19.5392 5.66967 19.975 5.68369C20.8381 5.69896 21.6607 6.05229 22.2659 6.66771C22.8712 7.28313 23.2108 8.11148 23.2117 8.97467C23.2117 10.784 21.6537 12.336 19.8765 12.3159C18.9965 12.2995 18.1591 11.9343 17.5483 11.3006C16.9376 10.6668 16.6036 9.81646 16.6197 8.93647ZM19.9047 7.05074C19.3812 7.05444 18.8803 7.26445 18.5107 7.63519C18.141 8.00592 17.9326 8.50746 17.9305 9.03096C17.9664 9.53445 18.1873 10.0069 18.5507 10.3572C18.914 10.7076 19.3942 10.9112 19.8986 10.9288C20.4207 10.9203 20.9184 10.7064 21.2838 10.3335C21.6492 9.96053 21.8529 9.45859 21.8507 8.93647C21.8355 8.43071 21.6237 7.95079 21.2604 7.59867C20.897 7.24655 20.4106 7.04999 19.9047 7.05074Z" fill="url(#paint11_linear_75_97)" stroke="#F77415" stroke-width="0.3"/>
<defs>
<linearGradient id="paint0_linear_75_97" x1="9.05054" y1="0.137329" x2="34.5918" y2="2.95046" gradientUnits="userSpaceOnUse">
<stop stop-color="#EC9F05"/>
<stop offset="1" stop-color="#FF4E00"/>
</linearGradient>
<linearGradient id="paint1_linear_75_97" x1="23.2939" y1="36.3557" x2="41.012" y2="40.2231" gradientUnits="userSpaceOnUse">
<stop stop-color="#EC9F05"/>
<stop offset="1" stop-color="#FF4E00"/>
</linearGradient>
<linearGradient id="paint2_linear_75_97" x1="0.928101" y1="36.37" x2="18.6813" y2="40.2628" gradientUnits="userSpaceOnUse">
<stop stop-color="#EC9F05"/>
<stop offset="1" stop-color="#FF4E00"/>
</linearGradient>
<linearGradient id="paint3_linear_75_97" x1="4.20752" y1="9.12842" x2="5.8809" y2="9.15762" gradientUnits="userSpaceOnUse">
<stop stop-color="#EC9F05"/>
<stop offset="1" stop-color="#FF4E00"/>
</linearGradient>
<linearGradient id="paint4_linear_75_97" x1="15.2993" y1="43.8947" x2="25.4579" y2="46.8141" gradientUnits="userSpaceOnUse">
<stop stop-color="#EC9F05"/>
<stop offset="1" stop-color="#FF4E00"/>
</linearGradient>
<linearGradient id="paint5_linear_75_97" x1="29.3534" y1="0.0541992" x2="31.0225" y2="0.0924711" gradientUnits="userSpaceOnUse">
<stop stop-color="#EC9F05"/>
<stop offset="1" stop-color="#FF4E00"/>
</linearGradient>
<linearGradient id="paint6_linear_75_97" x1="34.1763" y1="14.1653" x2="35.8274" y2="14.2029" gradientUnits="userSpaceOnUse">
<stop stop-color="#EC9F05"/>
<stop offset="1" stop-color="#FF4E00"/>
</linearGradient>
<linearGradient id="paint7_linear_75_97" x1="34.1708" y1="32.7594" x2="35.8153" y2="32.9697" gradientUnits="userSpaceOnUse">
<stop stop-color="#EC9F05"/>
<stop offset="1" stop-color="#FF4E00"/>
</linearGradient>
<linearGradient id="paint8_linear_75_97" x1="4.20563" y1="26.885" x2="5.85693" y2="27.0942" gradientUnits="userSpaceOnUse">
<stop stop-color="#EC9F05"/>
<stop offset="1" stop-color="#FF4E00"/>
</linearGradient>
<linearGradient id="paint9_linear_75_97" x1="34.1724" y1="28.2039" x2="35.8011" y2="28.4128" gradientUnits="userSpaceOnUse">
<stop stop-color="#EC9F05"/>
<stop offset="1" stop-color="#FF4E00"/>
</linearGradient>
<linearGradient id="paint10_linear_75_97" x1="29.3574" y1="14.1476" x2="30.9978" y2="14.3605" gradientUnits="userSpaceOnUse">
<stop stop-color="#EC9F05"/>
<stop offset="1" stop-color="#FF4E00"/>
</linearGradient>
<linearGradient id="paint11_linear_75_97" x1="16.6191" y1="5.68201" x2="24.2007" y2="7.12692" gradientUnits="userSpaceOnUse">
<stop stop-color="#EC9F05"/>
<stop offset="1" stop-color="#FF4E00"/>
</linearGradient>
</defs>
</svg>
