<svg width="59" height="51" viewBox="0 0 59 51" fill="none" xmlns="http://www.w3.org/2000/svg">
<path d="M51.8313 13.4131C54.763 13.7882 54.9324 13.9918 54.9324 16.964C54.9324 25.1626 54.9445 33.3611 54.9142 41.5637C54.9142 42.338 55.0695 42.6768 55.8922 42.7877C56.6829 42.885 57.4124 43.263 57.9479 43.8529C58.4833 44.4428 58.7892 45.2053 58.8098 46.0018C58.8522 46.8406 58.8481 47.6834 58.8199 48.5222C58.7856 49.5304 58.2513 50.0204 57.229 50.0547C57.0274 50.0547 56.8257 50.0547 56.6241 50.0547H3.19112C1.34818 50.0607 0.963064 49.6736 0.969113 47.8105C0.952179 47.1057 0.979791 46.4006 1.05178 45.6993C1.12962 44.9584 1.45733 44.266 1.98102 43.736C2.5047 43.2061 3.19316 42.8702 3.93313 42.7836C4.85258 42.6788 5.04817 42.2876 5.02599 41.4407C4.97155 39.2227 4.98364 37.0047 5.02599 34.7867C5.03607 34.1031 4.8667 33.7785 4.13678 33.8753C3.53261 33.9479 2.92007 33.8552 2.36442 33.6071C1.8657 33.3742 1.45604 32.9857 1.19698 32.5C0.937918 32.0144 0.843457 31.4578 0.927786 30.9138C1.01212 30.3699 1.27068 29.868 1.66463 29.4836C2.05858 29.0991 2.56664 28.8529 3.11248 28.7819C3.70327 28.6831 4.49166 29.0239 4.84452 28.5803C5.274 28.048 4.95945 27.2233 5.00582 26.5276C5.03808 26.0276 5.00582 25.5195 5.08244 25.0234C5.24778 23.989 5.8789 23.3821 6.9153 23.366C9.23274 23.3297 11.5509 23.3297 13.8696 23.366C14.9484 23.3841 15.6581 24.114 15.7872 25.1988C15.8111 25.5344 15.8158 25.871 15.8013 26.207C15.8013 27.8766 15.8013 27.8342 17.4587 27.5015C18.0173 27.3906 18.0636 27.1325 18.0636 26.695C18.0515 25.4186 18.0455 24.1403 18.0636 22.8639C18.0838 21.398 18.8419 20.6318 20.3139 20.6156C22.3625 20.5955 24.4131 20.6015 26.4617 20.6156C28.0364 20.6257 28.7664 21.3113 28.7603 22.8699C28.7603 23.6563 28.9136 23.7229 29.6556 23.4547C30.7887 23.0514 31.3574 22.4465 31.1376 21.1863C31.0347 20.5995 31.1073 19.9764 31.1235 19.3715C31.1557 18.1214 31.8877 17.3753 33.1398 17.3552C35.0876 17.339 37.0374 17.3269 38.9872 17.3552C39.5544 17.3735 40.1082 17.1809 40.5418 16.8148C42.5826 15.2243 44.5189 13.5042 46.3388 11.665C46.8045 11.1951 47.3106 10.6568 47.9518 11.2899C48.593 11.923 47.9861 12.4433 47.5385 12.8909C39.2796 21.1607 29.4519 26.5606 18.0556 29.0904C13.6903 30.0261 9.2363 30.4851 4.77193 30.4596C4.40092 30.4596 4.03193 30.4596 3.66294 30.4596C3.07619 30.4434 2.63663 30.6612 2.63259 31.2923C2.62856 31.9235 3.06409 32.1372 3.65488 32.1271C5.4353 32.1009 7.22178 32.1694 8.99616 32.0545C15.0594 31.6906 21.0351 30.4287 26.7278 28.3101C37.9972 24.0757 47.1957 17.095 54.3981 7.46082C54.519 7.29951 54.638 7.13618 54.7509 6.97084C55.2207 6.27519 55.7591 6.00298 56.489 6.6462C56.6241 6.76517 56.7733 6.95269 57.231 6.79541C57.231 5.38395 57.231 3.87571 57.231 2.37956C57.231 1.97628 57.1342 1.85732 56.7048 2.00854C55.2933 2.50861 53.8516 2.96632 52.4241 3.43815C52.4503 3.55309 52.4442 3.63979 52.4785 3.65794C54.0916 4.82945 54.2368 4.91212 52.8314 6.72282C52.1095 7.65036 51.3736 8.56781 50.6396 9.48526C50.2646 9.95507 49.7948 10.2293 49.2604 9.78973C48.7261 9.35016 48.958 8.838 49.327 8.37827C50.0206 7.51526 50.694 6.6341 51.4078 5.78723C51.7264 5.41017 51.6982 5.18232 51.2828 4.91817C50.6215 4.5149 50.1154 3.97249 50.3009 3.10344C50.4864 2.23438 51.2082 2.03879 51.926 1.80691C53.5512 1.28265 55.1643 0.718066 56.7854 0.181711C58.1122 -0.255842 58.9752 0.357135 58.953 1.76255C58.9247 3.64382 58.8582 5.5251 58.7836 7.40839C58.7292 8.81985 57.6565 9.42476 56.4326 8.71298C56.0878 8.51135 55.87 8.33189 55.5333 8.76944C54.3477 10.314 53.1177 11.8162 51.8313 13.4131ZM29.829 48.3609H53.2004C54.2751 48.3609 55.3498 48.3347 56.4265 48.371C57.0012 48.3892 57.233 48.1835 57.1584 47.6169C57.1442 47.3482 57.1442 47.079 57.1584 46.8103C57.1584 45.0117 56.5293 44.3786 54.7529 44.3786C48.9096 44.3786 43.0662 44.3786 37.2229 44.3786C26.4435 44.3786 15.6642 44.3786 4.88484 44.3786C3.41695 44.3786 2.72736 45.0621 2.70115 46.5119C2.71731 46.7469 2.71731 46.9827 2.70115 47.2176C2.54992 48.1472 2.93504 48.3811 3.85248 48.3771C12.5006 48.3468 21.1648 48.3609 29.829 48.3609ZM53.154 29.0037C53.154 24.7411 53.154 20.4778 53.154 16.2139C53.154 15.8731 53.3274 15.4497 52.908 15.2057C52.4422 14.9416 50.0105 15.246 49.6335 15.5969C48.5285 16.6252 47.4356 17.6697 46.3065 18.6719C46.1533 18.7984 46.0327 18.9598 45.9548 19.1426C45.8769 19.3254 45.844 19.5242 45.8589 19.7224C45.8683 27.0741 45.8649 34.4264 45.8488 41.7795C45.8488 42.5235 46.119 42.6647 46.7824 42.6506C48.5971 42.6143 50.4118 42.6001 52.2265 42.6506C52.9927 42.6727 53.1802 42.4288 53.1741 41.6867C53.1379 37.4624 53.154 33.2321 53.154 29.0017V29.0037ZM40.1788 23.5817C40.0216 23.5817 39.9429 23.5575 39.8986 23.5817C37.731 24.9206 35.5594 26.2554 33.2567 27.3544C32.8414 27.556 32.8051 27.8726 32.8051 28.2637C32.8051 32.8006 32.8212 37.3374 32.8051 41.8722C32.8051 42.5296 33.0733 42.6526 33.6459 42.6445C35.5614 42.6203 37.4769 42.6203 39.3925 42.6445C39.9974 42.6445 40.2131 42.463 40.199 41.838C40.1647 40.0898 40.1849 38.3436 40.199 36.5954C40.199 35.9905 40.08 35.2807 41.0055 35.2706C41.8907 35.2706 41.8665 35.934 41.8645 36.5611C41.8645 38.3073 41.8645 40.0555 41.8645 41.8037C41.8645 42.0618 41.7455 42.461 42.0157 42.5437C42.631 42.7266 43.2849 42.7357 43.905 42.5699C44.4091 42.4368 44.1732 41.8743 44.1752 41.5093C44.1887 34.8902 44.1887 28.2705 44.1752 21.65C44.1752 21.3274 44.2821 20.9806 44.0018 20.6197C43.6487 20.9142 43.2754 21.1837 42.8848 21.4262C42.044 21.8799 41.806 22.5272 41.8322 23.4769C41.9028 26.197 41.8645 28.9211 41.8504 31.6412C41.8504 32.3126 42.0681 33.2543 40.9995 33.2301C39.9308 33.2059 40.2071 32.2562 40.203 31.5988C40.1688 28.9392 40.1788 26.2675 40.1788 23.5797V23.5817ZM18.0616 37.6379V34.21C18.0616 32.5788 18.0616 32.6251 16.4788 32.8752C15.8739 32.9679 15.7751 33.2079 15.7953 33.716C15.8235 34.4197 15.8074 35.1275 15.7953 35.8292C15.7953 36.4341 15.5533 36.916 14.8758 36.8999C14.2568 36.8857 14.035 36.4179 14.0168 35.8634C13.9967 35.192 13.9947 34.5205 14.0168 33.8471C14.031 33.4055 13.8777 33.2422 13.4301 33.3168C11.4763 33.6374 9.50024 33.72 7.52625 33.7946C7.06047 33.8148 6.71971 33.8511 6.71971 34.5044C6.75802 36.9866 6.74794 39.4687 6.71971 41.9509C6.71971 42.4892 6.90925 42.6405 7.41938 42.6364C9.39741 42.6143 11.3775 42.6102 13.3575 42.6364C13.9221 42.6364 14.0289 42.3965 14.0108 41.9105C13.9775 41.2064 13.9816 40.5011 14.0229 39.7974C14.0592 39.2913 14.3153 38.8981 14.9081 38.9021C15.5009 38.9062 15.7368 39.2893 15.7791 39.8055C15.8154 40.239 15.7912 40.6785 15.7912 41.1141C15.7912 42.7131 15.7912 42.6808 17.3559 42.6445C17.9608 42.6304 18.0677 42.3783 18.0596 41.8561C18.0435 40.4567 18.0616 39.0473 18.0616 37.6379ZM27.113 36.428C27.113 34.5508 27.1029 32.6735 27.113 30.7963C27.113 30.268 27.113 29.9898 26.4133 30.2418C24.4698 30.9582 22.484 31.5542 20.4671 32.0263C19.9408 32.1533 19.7695 32.3771 19.7735 32.9074C19.7937 35.8917 19.7937 38.8759 19.7735 41.8601C19.7735 42.4913 19.9913 42.6566 20.58 42.6465C22.4915 42.6183 24.403 42.6183 26.3145 42.6465C26.9194 42.6566 27.121 42.4872 27.121 41.8581C27.0868 40.0535 27.1069 38.2407 27.1069 36.43L27.113 36.428ZM31.1214 35.5207C31.1214 33.4055 31.1214 31.2863 31.1214 29.1751C31.1214 28.9533 31.3231 28.5964 30.9017 28.5158C30.1899 28.3766 28.7906 29.5562 28.7906 30.2841C28.7906 33.9136 28.7785 37.5431 28.7906 41.1726C28.7906 42.7453 28.4558 42.6082 30.3149 42.6586C31.0166 42.6788 31.1477 42.3965 31.1396 41.7754C31.1033 39.6885 31.1214 37.6056 31.1214 35.5227V35.5207ZM10.4439 25.0355H9.53855C6.5584 25.0355 6.57454 25.0355 6.71568 28.0439C6.74391 28.5904 6.92739 28.7335 7.43148 28.6952C8.93567 28.5783 10.456 28.5662 11.94 28.3706C14.0753 28.0923 14.0673 28.0399 14.0068 25.8542C14.0016 25.7871 14.0016 25.7196 14.0068 25.6525C14.0572 25.1585 13.8051 25.0174 13.3514 25.0275C12.3876 25.0577 11.4158 25.0416 10.4439 25.0396V25.0355ZM19.7876 24.6544C19.7876 25.1888 19.8037 25.7251 19.7876 26.2675C19.7695 26.7535 19.9207 26.9309 20.4328 26.7878C22.5614 26.2252 24.6497 25.5199 26.6835 24.6766C27.5747 24.2915 27.0182 23.4507 27.0868 22.8296C27.1553 22.2086 26.5665 22.3578 26.2076 22.3537C24.8365 22.3356 23.4634 22.3537 22.0923 22.3537C19.7856 22.3437 19.7856 22.3437 19.7876 24.6544ZM37.4628 18.9844H34.8315C32.5954 18.9844 32.5954 18.9844 32.8152 21.2024C32.8182 21.2359 32.8182 21.2697 32.8152 21.3032C32.8152 21.7428 33.0309 21.7267 33.3233 21.5633C34.7531 20.7888 36.1354 19.9297 37.4628 18.9904V18.9844Z" fill="url(#paint0_linear_1_155)"/>
<defs>
<linearGradient id="paint0_linear_1_155" x1="0.897766" y1="0.0426025" x2="66.8202" y2="14.7188" gradientUnits="userSpaceOnUse">
<stop stop-color="#EC9F05"/>
<stop offset="1" stop-color="#FF4E00"/>
</linearGradient>
</defs>
</svg>
