<svg width="51" height="51" viewBox="0 0 51 51" fill="none" xmlns="http://www.w3.org/2000/svg">
<path d="M29.9295 13.7632C29.9295 9.67452 29.9295 5.58519 29.9295 1.49527C29.9295 0.203436 30.0764 0.0618896 31.3623 0.0618896H49.451C50.7423 0.0618896 50.8838 0.210603 50.8838 1.50423C50.8838 9.68288 50.8838 17.8615 50.8838 26.0402C50.8838 27.332 50.7351 27.4736 49.451 27.4736C43.4238 27.4736 37.3943 27.4736 31.3623 27.4736C30.071 27.4736 29.9295 27.3248 29.9295 26.0294C29.9284 21.9419 29.9284 17.8532 29.9295 13.7632ZM31.5414 13.7901C31.5414 17.4882 31.5575 21.1882 31.5271 24.8863C31.5271 25.5851 31.6524 25.8789 32.4423 25.8735C37.7507 25.8401 43.0585 25.8401 48.3657 25.8735C49.0588 25.8735 49.2809 25.6944 49.2791 24.9777C49.254 17.5181 49.254 10.0603 49.2791 2.60435C49.2791 1.84645 49.0445 1.66011 48.3155 1.6637C43.0394 1.69236 37.762 1.69236 32.4835 1.6637C31.751 1.6637 31.5163 1.84287 31.5235 2.60615C31.5683 6.32578 31.5486 10.0615 31.5486 13.7901H31.5414Z" fill="url(#paint0_linear_75_24)"/>
<path d="M13.8145 2.47717C17.1851 2.47717 20.5563 2.47717 23.9281 2.47717C25.7584 2.47717 26.704 3.39275 26.7076 5.21315C26.7196 11.4519 26.7196 17.6907 26.7076 23.9296C26.7076 25.7499 25.7566 26.6655 23.9298 26.6673C17.1851 26.6673 10.4391 26.6673 3.69201 26.6673C1.86881 26.6655 0.924973 25.7517 0.921391 23.9296C0.903482 17.6884 0.903482 11.4496 0.921391 5.21315C0.921391 3.39096 1.86702 2.48076 3.69917 2.47717C7.06975 2.47359 10.4415 2.47359 13.8145 2.47717ZM13.8145 25.053C17.1242 25.053 20.4345 25.053 23.7454 25.053C24.8916 25.053 25.0832 24.8828 25.085 23.788C25.085 17.6424 25.085 11.4961 25.085 5.34932C25.085 4.28324 24.888 4.09511 23.8313 4.09511C17.1511 4.09511 10.4708 4.09511 3.79051 4.09511C2.73384 4.09511 2.53684 4.28503 2.53684 5.35828C2.53684 11.5039 2.53684 17.6501 2.53684 23.797C2.53684 24.872 2.73205 25.0512 3.79051 25.0512C7.13602 25.0548 10.4791 25.0548 13.8199 25.0512L13.8145 25.053Z" fill="url(#paint1_linear_75_24)"/>
<path d="M38.0372 29.8906C41.3804 29.8906 44.7235 29.8906 48.0666 29.8906C49.9614 29.8906 50.8874 30.7864 50.8927 32.6713C50.9035 37.5377 50.9035 42.4034 50.8927 47.2685C50.8927 49.1624 49.9865 50.0475 48.0666 50.0493C41.3541 50.0565 34.641 50.0565 27.9273 50.0493C25.9805 50.0493 25.1047 49.1534 25.1011 47.1825C25.094 42.3759 25.094 37.5699 25.1011 32.7645C25.1011 30.7703 25.9966 29.8977 28.0168 29.8977C31.3552 29.8918 34.6953 29.8894 38.0372 29.8906ZM38.0874 31.5031C34.7192 31.5031 31.3498 31.5031 27.9792 31.5031C26.9136 31.5031 26.7255 31.6912 26.7255 32.7573C26.7184 37.5592 26.7184 42.361 26.7255 47.1628C26.7255 48.2379 26.9046 48.426 27.9792 48.426C34.6583 48.4332 41.3368 48.4332 48.0147 48.426C49.0892 48.426 49.2683 48.2379 49.2791 47.1718C49.2863 42.3676 49.2863 37.5651 49.2791 32.7645C49.2791 31.6895 49.0821 31.5103 48.0254 31.5103C44.7109 31.5043 41.3983 31.5031 38.0874 31.5067V31.5031Z" fill="url(#paint2_linear_75_24)"/>
<path d="M3.33559 46.4605C3.33559 46.2222 3.31589 45.9803 3.33559 45.7438C3.46096 44.375 3.13501 43.2462 2.26102 42.0672C0.0223199 39.0374 0.593636 35.1332 3.44663 32.3668C7.92403 28.0218 16.4221 28.0093 20.9174 32.3417C24.5603 35.8499 24.2952 40.9975 20.2476 44.1528C16.9272 46.7436 13.1286 47.2955 9.08995 46.482C8.4452 46.3512 8.04582 46.4337 7.60703 46.9049C6.73304 47.8437 5.79637 48.7217 4.89552 49.6337C4.57673 49.9544 4.23645 50.1712 3.78513 49.9544C3.37141 49.7609 3.32127 49.3793 3.32664 48.9689C3.34276 48.1233 3.33559 47.2883 3.33559 46.4605ZM4.94746 47.0536L5.14984 47.17C5.70324 46.5949 6.3068 46.061 6.79573 45.4357C7.44047 44.6097 8.14074 44.5398 9.12398 44.7888C12.5734 45.6847 15.8759 45.2583 18.8435 43.2014C22.8427 40.4314 22.8517 35.5937 18.9098 32.7484C15.1488 30.0322 9.2386 30.0357 5.46505 32.7484C1.97984 35.2568 1.56434 39.1646 4.46748 42.2786C4.62634 42.4331 4.75124 42.619 4.83419 42.8244C4.91715 43.0299 4.95633 43.2504 4.94925 43.4719C4.93492 44.6688 4.95104 45.8549 4.95104 47.0464L4.94746 47.0536Z" fill="url(#paint3_linear_75_24)"/>
<path d="M40.532 11.3427C42.2621 11.3427 43.9922 11.3427 45.7258 11.3427C46.3186 11.3427 46.8541 11.4609 46.8344 12.1848C46.8183 12.8513 46.3079 12.9642 45.7509 12.9642C42.2012 12.9642 38.6509 12.9642 35.1001 12.9642C34.5073 12.9642 33.9736 12.8477 33.9915 12.1221C34.0076 11.4555 34.5198 11.3427 35.075 11.3427C36.8928 11.3427 38.7106 11.3427 40.532 11.3427Z" fill="url(#paint4_linear_75_24)"/>
<path d="M40.3494 20.2171C38.5924 20.2171 36.8355 20.2171 35.0786 20.2171C34.4732 20.2171 33.9664 20.0845 33.9879 19.366C34.0076 18.7031 34.5037 18.592 35.0624 18.5938C38.6348 18.5938 42.2078 18.5938 45.7813 18.5938C46.3562 18.5938 46.8273 18.7425 46.8308 19.3983C46.8344 20.054 46.3741 20.2189 45.7939 20.2153C43.9814 20.2117 42.1654 20.2171 40.3494 20.2171Z" fill="url(#paint5_linear_75_24)"/>
<path d="M38.7303 5.70403C37.4767 5.70403 36.2319 5.70403 34.9818 5.70403C34.3908 5.70403 33.9628 5.49799 33.9861 4.84938C34.0094 4.24736 34.4392 4.08252 34.9818 4.08252C37.5405 4.08969 40.0992 4.08969 42.6579 4.08252C43.2149 4.08252 43.6125 4.29932 43.6125 4.89238C43.6125 5.48544 43.2149 5.70224 42.6579 5.70045C41.3487 5.70045 40.0395 5.70403 38.7303 5.70403Z" fill="url(#paint6_linear_75_24)"/>
<path d="M43.2632 8.11755H45.8565C46.3938 8.11755 46.8255 8.30748 46.8344 8.91308C46.8434 9.51869 46.4314 9.73011 45.8834 9.73011C44.1235 9.73011 42.3642 9.73011 40.6055 9.73011C40.0682 9.73011 39.6455 9.56885 39.6383 8.93817C39.6312 8.30748 40.0359 8.12293 40.5786 8.11935C41.4741 8.11755 42.3678 8.11755 43.2632 8.11755Z" fill="url(#paint7_linear_75_24)"/>
<path d="M37.6092 16.992C36.7137 16.992 35.8182 16.992 34.9228 16.992C34.3604 16.992 33.9718 16.7608 33.9807 16.1678C33.9897 15.5747 34.4016 15.3722 34.955 15.374C36.7161 15.374 38.4766 15.374 40.2365 15.374C40.7935 15.374 41.1857 15.5926 41.175 16.1964C41.1642 16.8003 40.7541 16.9938 40.2043 16.9902C39.3428 16.9884 38.4778 16.992 37.6092 16.992Z" fill="url(#paint8_linear_75_24)"/>
<path d="M36.7674 23.4386C36.112 23.4386 35.4547 23.4475 34.7974 23.4386C34.3049 23.4386 33.9968 23.1644 33.9825 22.6735C33.9646 22.136 34.2798 21.8421 34.8153 21.8368C36.1287 21.8272 37.442 21.8272 38.7554 21.8368C39.2426 21.8368 39.5542 22.0983 39.5685 22.6018C39.5828 23.1393 39.2694 23.426 38.7375 23.4386C38.082 23.4493 37.4301 23.4386 36.7674 23.4386Z" fill="url(#paint9_linear_75_24)"/>
<path d="M35.5854 8.11755C36.2337 8.18922 37.165 7.90613 37.1417 8.95608C37.1185 10.006 36.1943 9.73011 35.5549 9.73011C34.9156 9.73011 33.9861 9.95945 34.0058 8.91308C34.0255 7.86671 34.9621 8.19101 35.5854 8.11755Z" fill="url(#paint10_linear_75_24)"/>
<path d="M45.2512 15.3687C45.8942 15.4332 46.8111 15.1393 46.8183 16.1785C46.8255 17.2177 45.9228 16.9902 45.2745 16.9812C44.6262 16.9723 43.6519 17.2607 43.677 16.1481C43.6984 15.1142 44.6333 15.4457 45.2512 15.3687Z" fill="url(#paint11_linear_75_24)"/>
<path d="M22.6672 20.2117C22.3305 20.2117 22.1299 19.9896 21.915 19.7817C21.2792 19.1546 20.604 18.5562 20.0291 17.8753C19.5653 17.3253 19.2787 17.4166 18.8614 17.9058C18.3779 18.4702 17.8173 18.9683 17.2908 19.495C16.3201 20.468 16.1463 20.4697 15.1971 19.5183C13.87 18.1907 12.5107 16.8845 11.2266 15.5228C10.7555 15.0283 10.4869 14.9566 9.9729 15.4959C8.58132 16.9705 7.11811 18.3752 5.68714 19.8104C5.31641 20.1813 4.90807 20.4249 4.44421 20.0039C3.98035 19.5828 4.09676 19.1188 4.52122 18.6977C6.29666 16.9311 8.06732 15.1597 9.83321 13.3835C10.3705 12.8459 10.8379 12.8656 11.3609 13.3835C12.8277 14.876 14.3267 16.3344 15.7774 17.8287C16.1356 18.1871 16.3416 18.2086 16.689 17.8287C17.3552 17.112 18.0752 16.433 18.7683 15.736C19.1981 15.3024 19.6387 15.2397 20.09 15.6894C21.1324 16.7179 22.155 17.7571 23.1902 18.7873C23.4732 19.0704 23.5752 19.3965 23.3872 19.7602C23.3211 19.8951 23.2187 20.0088 23.0915 20.0886C22.9643 20.1684 22.8174 20.211 22.6672 20.2117Z" fill="url(#paint12_linear_75_24)"/>
<path d="M20.253 9.7767C20.2459 10.4142 20.0501 11.0353 19.6903 11.5615C19.3305 12.0878 18.8229 12.4955 18.2316 12.7332C17.6403 12.971 16.9918 13.028 16.3681 12.8972C15.7444 12.7664 15.1734 12.4536 14.7273 11.9983C14.2812 11.543 13.98 10.9657 13.8617 10.3392C13.7435 9.71275 13.8135 9.06526 14.0629 8.47856C14.3123 7.89187 14.7299 7.39228 15.263 7.04293C15.7961 6.69357 16.4207 6.51012 17.0579 6.51575C17.4827 6.51687 17.9029 6.60246 18.2943 6.76754C18.6856 6.93262 19.0403 7.1739 19.3376 7.47733C19.6349 7.78077 19.8689 8.14031 20.0261 8.53506C20.1832 8.9298 20.2604 9.35186 20.253 9.7767ZM18.6304 9.7767C18.6378 9.46058 18.5512 9.14939 18.3814 8.88266C18.2116 8.61594 17.9664 8.40574 17.677 8.27876C17.3875 8.15178 17.0668 8.11377 16.7557 8.16954C16.4446 8.22532 16.1571 8.37237 15.9297 8.59201C15.7023 8.81165 15.5454 9.09396 15.4787 9.40306C15.4121 9.71217 15.4389 10.0341 15.5556 10.328C15.6723 10.6218 15.8737 10.8743 16.1342 11.0534C16.3947 11.2325 16.7025 11.3301 17.0185 11.3337C17.2267 11.337 17.4334 11.2992 17.6269 11.2224C17.8204 11.1456 17.9968 11.0314 18.146 10.8862C18.2953 10.7411 18.4144 10.5679 18.4966 10.3765C18.5788 10.1852 18.6225 9.97955 18.625 9.77132L18.6304 9.7767Z" fill="url(#paint13_linear_75_24)"/>
<path d="M33.961 37.8603C33.961 36.9339 33.9485 36.0076 33.961 35.0831C33.9861 33.4293 35.272 32.6392 36.7048 33.4293C38.4277 34.3789 40.1339 35.3584 41.8233 36.3677C43.1773 37.1758 43.1773 38.7239 41.8233 39.5337C40.1362 40.5443 38.433 41.5255 36.7137 42.4775C35.281 43.2695 33.9933 42.4775 33.97 40.8202C33.9485 39.8312 33.961 38.8511 33.961 37.8603ZM35.6123 41.2645C37.4641 40.202 39.1655 39.2273 40.8634 38.2473C41.3201 37.9839 41.0729 37.8029 40.7756 37.6327C39.6133 36.9644 38.4617 36.28 37.2886 35.6331C36.7513 35.3375 36.2821 34.9164 35.6123 34.7946V41.2645Z" fill="url(#paint14_linear_75_24)"/>
<path d="M36.2051 44.4036C38.1715 44.4036 40.1416 44.4036 42.1152 44.4036C42.4734 44.4036 42.7797 44.4161 42.9874 43.9861C43.1952 43.5561 43.8202 43.4217 44.0405 43.7621C44.5617 44.5666 45.2852 44.3803 45.9891 44.4018C46.4314 44.4143 46.7431 44.6042 46.8326 45.0468C46.9096 45.4356 46.7753 45.7796 46.392 45.9229C46.135 45.9934 45.8686 46.0243 45.6022 46.0143C45.0649 46.0376 44.5384 45.9122 44.1569 46.5644C43.9116 46.9836 43.2614 46.9371 43.0322 46.473C42.7707 45.9641 42.4036 46.0179 41.9952 46.0179C38.1483 46.0179 34.3019 46.0179 30.4561 46.0179C30.1319 46.0179 29.7934 46.0824 29.4997 45.8799C29.3587 45.7925 29.2502 45.6612 29.191 45.5062C29.1318 45.3511 29.1251 45.1809 29.172 45.0217C29.2938 44.529 29.6663 44.4018 30.1283 44.4036C32.1485 44.4071 34.1759 44.4036 36.2051 44.4036Z" fill="url(#paint15_linear_75_24)"/>
<path d="M7.79508 37.9176C7.81658 38.4873 7.22735 39.1342 6.63992 39.1861C6.05248 39.2381 5.35042 38.611 5.32714 37.9892C5.30386 37.3675 5.95756 36.7135 6.57007 36.7189C7.16288 36.7243 7.77001 37.3227 7.79508 37.9176Z" fill="url(#paint16_linear_75_24)"/>
<path d="M19.0781 37.9748C19.0638 38.5589 18.4513 39.1735 17.8674 39.1878C17.2836 39.2022 16.5959 38.5374 16.6138 37.9336C16.6317 37.3298 17.3158 36.6794 17.9122 36.7206C18.5086 36.7618 19.0907 37.4033 19.0781 37.9748Z" fill="url(#paint17_linear_75_24)"/>
<path d="M13.3703 37.9265C13.3779 38.2387 13.2665 38.5421 13.0586 38.775C12.8507 39.008 12.5619 39.153 12.251 39.1807C11.6456 39.2148 11.0618 38.6575 11.0331 38.0179C11.0027 37.3245 11.5471 36.7117 12.1973 36.7081C12.5107 36.7249 12.806 36.86 13.0238 37.0861C13.2415 37.3122 13.3653 37.6126 13.3703 37.9265Z" fill="url(#paint18_linear_75_24)"/>
<defs>
<linearGradient id="paint0_linear_75_24" x1="29.9286" y1="0.0618896" x2="54.3771" y2="3.6463" gradientUnits="userSpaceOnUse">
<stop stop-color="#EC9F05"/>
<stop offset="1" stop-color="#FF4E00"/>
</linearGradient>
<linearGradient id="paint1_linear_75_24" x1="0.907959" y1="2.47449" x2="30.4305" y2="8.51458" gradientUnits="userSpaceOnUse">
<stop stop-color="#EC9F05"/>
<stop offset="1" stop-color="#FF4E00"/>
</linearGradient>
<linearGradient id="paint2_linear_75_24" x1="25.0958" y1="29.8903" x2="54.1025" y2="37.0094" gradientUnits="userSpaceOnUse">
<stop stop-color="#EC9F05"/>
<stop offset="1" stop-color="#FF4E00"/>
</linearGradient>
<linearGradient id="paint3_linear_75_24" x1="0.887939" y1="29.1002" x2="26.7045" y2="34.4409" gradientUnits="userSpaceOnUse">
<stop stop-color="#EC9F05"/>
<stop offset="1" stop-color="#FF4E00"/>
</linearGradient>
<linearGradient id="paint4_linear_75_24" x1="33.991" y1="11.3427" x2="38.6188" y2="18.3727" gradientUnits="userSpaceOnUse">
<stop stop-color="#EC9F05"/>
<stop offset="1" stop-color="#FF4E00"/>
</linearGradient>
<linearGradient id="paint5_linear_75_24" x1="33.9872" y1="18.5938" x2="38.6222" y2="25.6268" gradientUnits="userSpaceOnUse">
<stop stop-color="#EC9F05"/>
<stop offset="1" stop-color="#FF4E00"/>
</linearGradient>
<linearGradient id="paint6_linear_75_24" x1="33.9852" y1="4.08252" x2="38.9812" y2="9.77132" gradientUnits="userSpaceOnUse">
<stop stop-color="#EC9F05"/>
<stop offset="1" stop-color="#FF4E00"/>
</linearGradient>
<linearGradient id="paint7_linear_75_24" x1="39.6382" y1="8.11755" x2="44.5885" y2="12.3544" gradientUnits="userSpaceOnUse">
<stop stop-color="#EC9F05"/>
<stop offset="1" stop-color="#FF4E00"/>
</linearGradient>
<linearGradient id="paint8_linear_75_24" x1="33.9806" y1="15.374" x2="38.9446" y2="19.6075" gradientUnits="userSpaceOnUse">
<stop stop-color="#EC9F05"/>
<stop offset="1" stop-color="#FF4E00"/>
</linearGradient>
<linearGradient id="paint9_linear_75_24" x1="33.9818" y1="21.8296" x2="38.603" y2="24.8981" gradientUnits="userSpaceOnUse">
<stop stop-color="#EC9F05"/>
<stop offset="1" stop-color="#FF4E00"/>
</linearGradient>
<linearGradient id="paint10_linear_75_24" x1="34.0055" y1="8.11755" x2="37.3029" y2="9.32319" gradientUnits="userSpaceOnUse">
<stop stop-color="#EC9F05"/>
<stop offset="1" stop-color="#FF4E00"/>
</linearGradient>
<linearGradient id="paint11_linear_75_24" x1="43.6765" y1="15.3687" x2="46.9755" y2="16.5809" gradientUnits="userSpaceOnUse">
<stop stop-color="#EC9F05"/>
<stop offset="1" stop-color="#FF4E00"/>
</linearGradient>
<linearGradient id="paint12_linear_75_24" x1="4.14569" y1="12.9877" x2="22.4021" y2="22.3382" gradientUnits="userSpaceOnUse">
<stop stop-color="#EC9F05"/>
<stop offset="1" stop-color="#FF4E00"/>
</linearGradient>
<linearGradient id="paint13_linear_75_24" x1="13.8058" y1="6.51562" x2="21.2177" y2="7.93656" gradientUnits="userSpaceOnUse">
<stop stop-color="#EC9F05"/>
<stop offset="1" stop-color="#FF4E00"/>
</linearGradient>
<linearGradient id="paint14_linear_75_24" x1="33.9554" y1="33.1207" x2="44.2235" y2="34.9305" gradientUnits="userSpaceOnUse">
<stop stop-color="#EC9F05"/>
<stop offset="1" stop-color="#FF4E00"/>
</linearGradient>
<linearGradient id="paint15_linear_75_24" x1="29.1411" y1="43.5698" x2="39.333" y2="54.1182" gradientUnits="userSpaceOnUse">
<stop stop-color="#EC9F05"/>
<stop offset="1" stop-color="#FF4E00"/>
</linearGradient>
<linearGradient id="paint16_linear_75_24" x1="5.32654" y1="36.7189" x2="8.16489" y2="37.263" gradientUnits="userSpaceOnUse">
<stop stop-color="#EC9F05"/>
<stop offset="1" stop-color="#FF4E00"/>
</linearGradient>
<linearGradient id="paint17_linear_75_24" x1="16.6134" y1="36.7188" x2="19.4472" y2="37.2613" gradientUnits="userSpaceOnUse">
<stop stop-color="#EC9F05"/>
<stop offset="1" stop-color="#FF4E00"/>
</linearGradient>
<linearGradient id="paint18_linear_75_24" x1="11.0319" y1="36.7081" x2="13.7305" y2="37.1974" gradientUnits="userSpaceOnUse">
<stop stop-color="#EC9F05"/>
<stop offset="1" stop-color="#FF4E00"/>
</linearGradient>
</defs>
</svg>
