<svg width="45" height="44" viewBox="0 0 45 44" fill="none" xmlns="http://www.w3.org/2000/svg">
<path d="M22.3945 0.179688C10.3145 0.179688 0.519531 9.97461 0.519531 22.0547C0.519531 34.1348 10.3145 43.9297 22.3945 43.9297C34.4746 43.9297 44.2695 34.1348 44.2695 22.0547C44.2695 9.97461 34.4746 0.179688 22.3945 0.179688ZM32.9072 16.6689C32.9219 16.8984 32.9219 17.1377 32.9219 17.3721C32.9219 24.54 27.4629 32.7969 17.4873 32.7969C14.4111 32.7969 11.5596 31.9033 9.15723 30.3652C9.59668 30.4141 10.0166 30.4336 10.4658 30.4336C13.0049 30.4336 15.3389 29.5742 17.1992 28.1191C14.8164 28.0703 12.8145 26.5078 12.1309 24.3594C12.9658 24.4814 13.7178 24.4814 14.5771 24.2617C13.3502 24.0125 12.2474 23.3461 11.4561 22.3759C10.6648 21.4057 10.2338 20.1914 10.2363 18.9395V18.8711C10.9541 19.2764 11.7988 19.5254 12.6826 19.5596C11.9397 19.0644 11.3304 18.3936 10.9087 17.6066C10.4871 16.8196 10.2662 15.9407 10.2656 15.0479C10.2656 14.0371 10.5293 13.1143 11.0029 12.3135C12.3648 13.9899 14.0641 15.361 15.9906 16.3377C17.917 17.3144 20.0274 17.8748 22.1846 17.9824C21.418 14.2959 24.1719 11.3125 27.4824 11.3125C29.0449 11.3125 30.4512 11.9668 31.4424 13.0215C32.668 12.792 33.8398 12.333 34.8848 11.7178C34.4795 12.9727 33.6299 14.0322 32.502 14.7012C33.5957 14.584 34.6504 14.2813 35.627 13.8564C34.8896 14.9404 33.9668 15.9023 32.9072 16.6689V16.6689Z" fill="url(#paint0_linear_1_391)"/>
<defs>
<linearGradient id="paint0_linear_1_391" x1="0.519531" y1="0.179688" x2="50.8103" y2="9.82464" gradientUnits="userSpaceOnUse">
<stop stop-color="#EC9F05"/>
<stop offset="1" stop-color="#FF4E00"/>
</linearGradient>
</defs>
</svg>
