<svg width="43" height="51" viewBox="0 0 43 51" fill="none" xmlns="http://www.w3.org/2000/svg">
<path d="M10.4852 29.3926V25.2455C10.4852 19.9927 10.4852 14.7385 10.4758 9.48434C10.4758 8.94295 10.6111 8.7467 11.189 8.74805C20.5235 8.7643 29.8588 8.7643 39.1951 8.74805C39.8096 8.74805 39.9422 8.94837 39.9409 9.52359C39.9246 15.8145 39.9409 22.1109 39.9341 28.3964C39.9341 35.3397 39.9219 42.2817 39.9436 49.225C39.9436 49.8693 39.7866 50.0588 39.1234 50.0574C29.8295 50.0339 20.5393 50.0339 11.2526 50.0574C10.6111 50.0574 10.4703 49.8639 10.473 49.2589C10.4933 43.1939 10.4866 37.1277 10.4879 31.0614C10.4879 30.4957 10.3851 29.9353 10.4852 29.3926ZM25.1867 9.5087H12.1283C11.2378 9.5087 11.2364 9.50871 11.2364 10.3709C11.2364 17.3142 11.2364 24.2575 11.2364 31.2008C11.2364 36.9305 11.2364 42.6602 11.2364 48.3899C11.2364 49.2737 11.2364 49.2764 12.1053 49.2764H38.291C39.1816 49.2764 39.1829 49.2764 39.1829 48.4075V24.9451C39.1829 20.0509 39.1761 15.1567 39.1964 10.2626C39.1964 9.68466 39.0611 9.48976 38.448 9.49382C34.0275 9.52089 29.6071 9.50735 25.1867 9.5087Z" fill="url(#paint0_linear_1_104)" stroke="url(#paint1_linear_1_104)" stroke-width="0.5"/>
<path d="M6.96215 18.1912C6.75372 14.4312 6.55611 10.6713 6.32602 6.91135C6.29624 6.42275 6.40452 6.25086 6.92831 6.22244C16.2727 5.72255 25.6166 5.20643 34.9601 4.67406C35.5516 4.64023 35.7641 4.77287 35.76 5.37922C35.7532 6.14393 35.8358 6.91 35.8872 7.68013C35.9062 7.97654 35.9021 8.22152 35.4974 8.22828C35.0927 8.23505 35.1482 7.95759 35.132 7.71802C35.0968 7.17663 35.0332 6.63525 35.0454 6.09386C35.0575 5.55247 34.8247 5.42524 34.3091 5.45772C31.3382 5.64856 28.37 5.80692 25.3924 5.9734C19.5616 6.29958 13.7309 6.6366 7.8974 6.93707C7.23014 6.97091 7.09479 7.17934 7.13269 7.81818C7.48188 13.7843 7.79183 19.7518 8.12343 25.7179C8.49789 32.4933 8.87912 39.2684 9.26711 46.043C9.28336 46.3204 9.21298 46.6453 9.66368 46.6913C9.91137 46.717 9.83287 46.9701 9.84234 47.1352C9.85452 47.3301 9.7273 47.3856 9.54864 47.4262C8.76633 47.6062 8.60121 47.502 8.55383 46.6926C8.25968 41.5585 7.96959 36.4252 7.68355 31.2928C7.44083 26.9265 7.20036 22.5593 6.96215 18.1912Z" fill="url(#paint2_linear_1_104)" stroke="url(#paint3_linear_1_104)" stroke-width="0.5"/>
<path d="M42.1673 38.4432C42.1673 34.9242 42.1606 31.4119 42.1673 27.897C42.1782 22.7592 42.1935 17.6214 42.2134 12.4836C42.2134 11.6012 42.2134 11.6025 41.3431 11.5958C41.1631 11.5958 40.9817 11.5958 40.8017 11.5822C40.5973 11.5714 40.5445 11.436 40.5472 11.2574C40.5499 11.0787 40.5242 10.8784 40.7814 10.8513C40.8937 10.8378 41.0061 10.8378 41.1198 10.8351C42.974 10.781 42.974 10.781 42.974 12.6298V25.0046C42.974 32.3946 42.9785 39.7841 42.9876 47.1731C42.9876 47.7944 42.8265 48.0258 42.2025 47.9541C41.7971 47.9265 41.3903 47.9233 40.9844 47.9446C40.7421 47.9446 40.5391 47.9297 40.5405 47.5968C40.5405 47.3044 40.6691 47.1907 40.9465 47.1907C40.9691 47.1921 40.9917 47.1921 41.0142 47.1907C42.212 47.0946 42.212 47.0946 42.212 45.8833V38.4392L42.1673 38.4432Z" fill="url(#paint4_linear_1_104)" stroke="url(#paint5_linear_1_104)" stroke-width="0.5"/>
<path d="M7.15164 3.54934C7.16517 3.65626 7.15164 3.87552 6.79297 3.91342C6.40723 3.95538 6.41399 3.70228 6.38692 3.45189C6.29669 2.48641 6.20646 1.52183 6.11623 0.558161C6.09051 0.279346 6.12706 0.0695576 6.48167 0.0546694C6.81327 0.0411347 6.83357 0.261751 6.85658 0.493195C6.95403 1.45822 7.04471 2.42189 7.15164 3.54934Z" fill="url(#paint6_linear_1_104)" stroke="url(#paint7_linear_1_104)" stroke-width="0.3"/>
<path d="M2.65405 5.87456C3.10205 5.89893 3.54869 5.92735 3.99534 5.9463C4.24302 5.95577 4.4271 5.99638 4.41491 6.32121C4.40273 6.61221 4.27957 6.71507 4.00211 6.69747C3.0858 6.63792 2.1695 6.58784 1.2532 6.54182C1.01228 6.52558 0.894531 6.4349 0.894531 6.17368C0.901299 5.88404 1.038 5.77711 1.31681 5.79606C1.76346 5.82448 2.21011 5.84073 2.65811 5.86238L2.65405 5.87456Z" fill="url(#paint8_linear_1_104)" stroke="url(#paint9_linear_1_104)" stroke-width="0.3"/>
<path d="M5.35014 4.14621C5.33931 4.32893 5.18772 4.40472 5.07268 4.50758C5.0511 4.53417 5.02387 4.5556 4.99296 4.57032C4.96206 4.58504 4.92825 4.59268 4.89402 4.59268C4.85978 4.59268 4.82598 4.58504 4.79507 4.57032C4.76417 4.5556 4.73693 4.53417 4.71536 4.50758C4.09547 3.79566 3.47558 3.08238 2.86922 2.35556C2.72305 2.18096 2.91389 2.07539 3.02487 1.97524C3.13586 1.87508 3.26579 1.71672 3.42009 1.88997C4.0481 2.59648 4.66393 3.31382 5.28382 4.0271C5.30997 4.06441 5.33219 4.10433 5.35014 4.14621V4.14621Z" fill="url(#paint10_linear_1_104)" stroke="url(#paint11_linear_1_104)" stroke-width="0.3"/>
<path d="M16.7302 27.3745C19.5846 27.3745 22.4391 27.4111 25.2922 27.3637C28.2604 27.315 31.2299 27.4625 34.1981 27.3231C34.3558 27.3138 34.514 27.3202 34.6704 27.342C34.8856 27.3732 35.0521 27.4666 35.0589 27.7264C35.0645 27.7772 35.0598 27.8285 35.0452 27.8774C35.0305 27.9263 35.0062 27.9717 34.9736 28.011C34.941 28.0502 34.9008 28.0826 34.8555 28.106C34.8102 28.1294 34.7606 28.1435 34.7097 28.1474C34.5306 28.1751 34.3494 28.1864 34.1683 28.1812C31.9188 28.165 29.668 28.1298 27.4172 28.1311C24.4057 28.1311 21.3929 28.1663 18.38 28.1785C17.4813 28.1785 16.5813 28.1487 15.6812 28.1501C15.374 28.1501 15.2887 27.9985 15.2928 27.7318C15.2968 27.4652 15.4186 27.3258 15.7151 27.3529C16.0507 27.3759 16.3918 27.3529 16.7275 27.3529L16.7302 27.3745Z" fill="url(#paint12_linear_1_104)" stroke="url(#paint13_linear_1_104)" stroke-width="0.3"/>
<path d="M25.188 31.9438H16.1888C16.0088 31.9438 15.8288 31.9438 15.6474 31.9438C15.4065 31.9438 15.355 31.7828 15.355 31.5797C15.355 31.3767 15.3889 31.2116 15.6257 31.194C15.8044 31.1818 15.9858 31.1832 16.1671 31.1832H34.3037C34.4174 31.1832 34.5297 31.1832 34.642 31.1832C34.9127 31.1737 35.0711 31.2603 35.0765 31.5622C35.0819 31.864 34.9412 31.9601 34.661 31.9492C34.324 31.9384 33.9842 31.9492 33.6472 31.9492L25.188 31.9438Z" fill="url(#paint14_linear_1_104)" stroke="url(#paint15_linear_1_104)" stroke-width="0.3"/>
<path d="M25.2381 20.4922H16.251C16.071 20.4922 15.891 20.4922 15.7096 20.4922C15.4579 20.4922 15.3429 20.3771 15.3483 20.1213C15.3537 19.8655 15.4836 19.7545 15.7245 19.7545C15.8599 19.7545 15.9952 19.7545 16.1306 19.7545H34.3091C34.4661 19.7545 34.6244 19.7545 34.7814 19.7653C35.0169 19.7789 35.0684 19.9399 35.0724 20.1389C35.0765 20.3379 34.998 20.4867 34.7665 20.4908C34.5865 20.4908 34.4065 20.5003 34.2252 20.5003L25.2381 20.4922Z" fill="url(#paint16_linear_1_104)" stroke="url(#paint17_linear_1_104)" stroke-width="0.3"/>
<path d="M24.2338 39.5599C21.4849 39.5599 18.736 39.5599 15.9871 39.5599C15.7286 39.5599 15.3483 39.6952 15.355 39.1999C15.355 38.7275 15.7191 38.8236 15.9912 38.8236C21.4673 38.8236 26.9426 38.8236 32.4169 38.8236C32.6876 38.8236 33.0463 38.737 33.0476 39.2066C33.0476 39.7061 32.6687 39.5612 32.4129 39.5612C29.6861 39.5648 26.9597 39.5644 24.2338 39.5599Z" fill="url(#paint18_linear_1_104)" stroke="url(#paint19_linear_1_104)" stroke-width="0.3"/>
<path d="M27.8963 35.0081C30.0826 35.0081 32.2689 35.0081 34.4552 35.0081C34.7259 35.0081 35.09 34.9039 35.0684 35.3925C35.0508 35.8121 34.7341 35.7471 34.4756 35.7485C30.0542 35.7485 25.6365 35.7485 21.2223 35.7485C20.9368 35.7485 20.5957 35.8067 20.6065 35.3425C20.6187 34.9053 20.9571 35.0068 21.202 35.0068C23.4339 35.0054 25.6631 35.0081 27.8963 35.0081Z" fill="url(#paint20_linear_1_104)" stroke="url(#paint21_linear_1_104)" stroke-width="0.3"/>
<path d="M21.267 43.3888C19.5332 43.3888 17.8008 43.3955 16.0683 43.382C15.7976 43.382 15.3794 43.5417 15.3564 43.0206C15.3334 42.4792 15.7624 42.6376 16.0331 42.6362C19.498 42.6263 22.9634 42.6263 26.4292 42.6362C26.6809 42.6362 27.0626 42.4779 27.0707 42.98C27.0788 43.5038 26.6917 43.3861 26.394 43.3861C24.6872 43.3928 22.9764 43.3901 21.267 43.3888Z" fill="url(#paint22_linear_1_104)" stroke="url(#paint23_linear_1_104)" stroke-width="0.3"/>
<path d="M20.8474 24.3251C19.161 24.3251 17.4732 24.317 15.7868 24.3319C15.4971 24.3319 15.2887 24.3319 15.2995 23.9692C15.309 23.6484 15.4795 23.5631 15.7841 23.5631C19.2282 23.5685 22.6733 23.5685 26.1192 23.5631C26.3899 23.5631 26.6105 23.5726 26.6078 23.9434C26.6051 24.3143 26.3885 24.3292 26.1178 24.3278C24.361 24.3278 22.6042 24.3278 20.8474 24.3278V24.3251Z" fill="url(#paint24_linear_1_104)" stroke="url(#paint25_linear_1_104)" stroke-width="0.3"/>
<path d="M31.3815 23.5699C32.4156 23.5699 33.4496 23.5699 34.485 23.5699C34.7381 23.5699 35.0088 23.5375 35.0264 23.8975C35.044 24.2575 34.8126 24.3617 34.5067 24.3604C32.3709 24.3509 30.2338 24.3346 28.098 24.3279C27.8097 24.3279 27.7001 24.2074 27.692 23.9218C27.692 23.6038 27.8733 23.5578 28.1291 23.5591C29.2119 23.5591 30.2947 23.5591 31.3693 23.5591L31.3815 23.5699Z" fill="url(#paint26_linear_1_104)" stroke="url(#paint27_linear_1_104)" stroke-width="0.3"/>
<path d="M17.4353 35.0094H19.0595C19.2788 35.0094 19.4655 35.0351 19.4655 35.3302C19.4655 35.6009 19.3776 35.7538 19.0839 35.7538C17.9794 35.7538 16.8754 35.7538 15.7719 35.7538C15.5012 35.7538 15.3577 35.6401 15.3659 35.3478C15.3659 35.0135 15.5932 35.0094 15.826 35.0081L17.4353 35.0094Z" fill="url(#paint28_linear_1_104)" stroke="url(#paint29_linear_1_104)" stroke-width="0.3"/>
<path d="M16.1766 15.0932C16.2267 14.6262 16.2754 14.1579 16.3295 13.6923C16.3539 13.4771 16.3146 13.1848 16.6449 13.1996C16.9751 13.2145 16.9156 13.5042 16.9481 13.718C16.9982 14.1322 17.036 14.5477 17.2188 14.9592C17.2661 14.5085 17.3094 14.0564 17.3649 13.6057C17.3852 13.4338 17.3825 13.1996 17.6356 13.2132C17.8887 13.2267 17.8414 13.4663 17.8224 13.6382C17.7371 14.4503 17.6411 15.2488 17.5517 16.0555C17.526 16.3032 17.4597 16.4872 17.1552 16.4926C16.8506 16.4981 16.787 16.3059 16.7613 16.0609C16.7451 15.9093 16.7072 15.7604 16.676 15.5885C16.4121 15.732 16.5055 15.9621 16.4798 16.1434C16.4446 16.3965 16.3146 16.4899 16.0737 16.4899C15.8639 16.4899 15.7205 16.4182 15.6948 16.1962C15.5901 15.3011 15.4886 14.406 15.3902 13.5109C15.3699 13.3323 15.4268 13.1915 15.6406 13.1996C15.8545 13.2078 15.8869 13.3594 15.9113 13.5272C15.9682 14.0415 16.0259 14.5549 16.0846 15.0674L16.1766 15.0932Z" fill="url(#paint30_linear_1_104)"/>
<path d="M33.4212 14.7927C33.4212 14.5017 33.4212 14.2093 33.4212 13.9183C33.4212 13.538 33.3373 13.1319 33.9626 13.1644C34.504 13.1928 35.0832 13.2781 34.9655 13.9291C34.8301 14.6654 35.0169 15.3584 34.9993 16.0703C34.9993 16.2476 35.0264 16.4561 34.7638 16.4683C34.5013 16.4804 34.4755 16.3045 34.4728 16.1069C34.4769 16.0397 34.4769 15.9724 34.4728 15.9052C34.439 15.6345 34.577 15.1987 34.1697 15.2204C33.8286 15.2379 34.0221 15.6602 33.972 15.8971C33.9274 16.1136 34.0749 16.4696 33.6838 16.452C33.2926 16.4344 33.4415 16.0879 33.4307 15.866C33.4076 15.5113 33.4212 15.1527 33.4212 14.7927ZM34.4606 14.0888C34.4295 13.9305 34.4471 13.6652 34.1656 13.695C33.8841 13.7248 33.9734 14.0036 33.972 14.1822C33.9707 14.3609 33.9044 14.6505 34.2238 14.6113C34.4823 14.5802 34.4485 14.3216 34.4606 14.0888Z" fill="url(#paint31_linear_1_104)"/>
<path d="M19.9623 14.84C19.9623 15.2691 19.9623 15.6968 19.9623 16.1258C19.9623 16.295 19.9257 16.4507 19.72 16.4656C19.4588 16.4859 19.4425 16.2964 19.4412 16.1055C19.4398 15.9147 19.4412 15.6995 19.4412 15.4965C19.4412 15.2935 19.4412 15.0647 19.1434 15.0783C18.8456 15.0918 18.8727 15.3246 18.8619 15.5236C18.8551 15.6819 18.8619 15.8403 18.8619 15.9973C18.8511 16.1895 18.9133 16.4453 18.6142 16.4656C18.3151 16.4859 18.3435 16.226 18.3435 16.0338C18.3381 15.2217 18.3381 14.4096 18.3435 13.5976C18.3435 13.4216 18.3164 13.2078 18.5844 13.1983C18.8524 13.1888 18.8551 13.3797 18.8551 13.5691C18.8551 13.7952 18.8551 14.0212 18.8632 14.2459C18.8632 14.4435 18.9214 14.6032 19.1691 14.5951C19.4168 14.5869 19.4398 14.4056 19.4398 14.2175C19.4398 13.9928 19.4398 13.7667 19.4398 13.5407C19.4398 13.3783 19.4506 13.2091 19.6686 13.1969C19.9176 13.182 19.9609 13.3566 19.9609 13.5542C19.9636 13.9833 19.9623 14.4124 19.9623 14.84Z" fill="url(#paint32_linear_1_104)"/>
<path d="M29.0265 16.1745C29.0265 16.2665 29.0644 16.4181 28.883 16.4655C28.7016 16.5128 28.6123 16.4181 28.5108 16.2638C28.1792 15.7224 28.1048 15.7319 27.7718 16.2638C27.6933 16.391 27.6134 16.4925 27.4592 16.4533C27.3049 16.414 27.2873 16.2665 27.3089 16.1271C27.4443 15.2582 27.5796 14.3892 27.715 13.5203C27.7163 13.4699 27.7281 13.4203 27.7498 13.3747C27.7714 13.3292 27.8023 13.2886 27.8406 13.2557C27.8788 13.2228 27.9235 13.1983 27.9718 13.1837C28.0201 13.1692 28.0709 13.1649 28.121 13.1711C28.3755 13.1711 28.5541 13.2334 28.5988 13.5244C28.7368 14.4014 28.8803 15.2663 29.0265 16.1745ZM28.0709 14.2498C28.0073 14.7357 27.8611 15.0497 28.0303 15.3705C28.0464 15.3858 28.0658 15.3972 28.087 15.404C28.1081 15.4107 28.1305 15.4126 28.1525 15.4095C28.1745 15.4064 28.1955 15.3983 28.214 15.3859C28.2324 15.3736 28.2478 15.3572 28.2591 15.338C28.3782 15.0132 28.2983 14.7005 28.0709 14.2498Z" fill="url(#paint33_linear_1_104)"/>
<path d="M31.0607 14.0509C31.077 14.702 31.0066 15.1635 30.3732 15.2312C29.9671 15.2758 30.0605 15.5749 30.0158 15.8307C29.9779 16.0554 30.2013 16.4736 29.7587 16.452C29.3594 16.433 29.5286 16.0311 29.5191 15.7956C29.4961 15.1675 29.4934 14.5368 29.5191 13.9088C29.5313 13.6381 29.3323 13.2145 29.8548 13.1834C30.3312 13.1536 30.8306 13.1306 31.0174 13.7247C31.0469 13.8309 31.0615 13.9407 31.0607 14.0509ZM30.0172 14.2066C30.0808 14.392 29.8967 14.7209 30.2459 14.7304C30.5694 14.7398 30.5085 14.4299 30.5166 14.2242C30.5247 14.0184 30.5829 13.7112 30.2676 13.7004C29.9008 13.6882 30.0781 14.0212 30.0172 14.2066Z" fill="url(#paint34_linear_1_104)"/>
<path d="M23.5165 14.7656V14.0225C23.5165 13.2104 23.8955 12.9397 24.6927 13.1793C24.8415 13.2226 24.9363 13.293 24.9282 13.45C24.92 13.607 24.7928 13.6489 24.6453 13.6638C24.4044 13.6896 24.0782 13.5542 24.0579 14.0049C24.0403 14.3852 24.1296 14.6167 24.5641 14.5977C24.6994 14.5977 24.7509 14.7033 24.7414 14.8305C24.7429 14.8588 24.7383 14.887 24.7278 14.9133C24.7174 14.9396 24.7015 14.9633 24.681 14.9828C24.6606 15.0023 24.6362 15.0172 24.6094 15.0265C24.5827 15.0357 24.5543 15.039 24.5262 15.0363C24.043 14.997 24.0592 15.3151 24.0565 15.6507C24.0565 16.0405 24.3272 15.9972 24.5668 16.0013C24.7265 16.0013 24.9079 16.0013 24.9227 16.2111C24.9403 16.4669 24.7441 16.4696 24.556 16.4926C23.5991 16.6036 23.5165 16.5346 23.5151 15.5749C23.5151 15.3051 23.5156 15.0354 23.5165 14.7656Z" fill="url(#paint35_linear_1_104)"/>
<path d="M31.483 14.8224C31.483 14.53 31.483 14.2391 31.483 13.9467C31.483 13.2524 32.0894 12.8964 32.7363 13.2009C32.7899 13.2176 32.8359 13.2524 32.8665 13.2993C32.8972 13.3463 32.9105 13.4024 32.9042 13.4581C32.8852 13.6286 32.7539 13.6462 32.6118 13.6679C32.3804 13.7031 32.0352 13.5244 32.0149 13.986C31.9987 14.3379 32.0231 14.6234 32.4886 14.5964C32.5169 14.5944 32.5453 14.5985 32.5719 14.6084C32.5985 14.6182 32.6227 14.6337 32.6428 14.6537C32.6629 14.6737 32.6786 14.6978 32.6886 14.7243C32.6987 14.7508 32.7029 14.7792 32.7011 14.8075C32.7052 14.8357 32.7029 14.8644 32.6945 14.8916C32.6862 14.9188 32.6719 14.9438 32.6528 14.9649C32.6337 14.9859 32.6102 15.0025 32.5839 15.0135C32.5576 15.0244 32.5293 15.0294 32.5008 15.0281C32.0528 15.0024 32.0082 15.2582 32.0068 15.6223C32.0068 16.1217 32.3574 15.9783 32.6186 16.0067C32.7648 16.0229 32.8893 16.0649 32.8893 16.2327C32.8974 16.4452 32.7377 16.4655 32.5726 16.4926C31.6427 16.6523 31.4735 16.5129 31.4735 15.5668L31.483 14.8224Z" fill="url(#paint36_linear_1_104)"/>
<path d="M25.4777 14.8291C25.4777 14.5381 25.4777 14.2471 25.4777 13.9561C25.4777 13.1928 25.8634 12.941 26.5604 13.2469C26.9881 13.4351 27.0179 13.814 27.0138 14.2065C27.0098 14.599 27.0247 15.0673 26.574 15.154C26.0326 15.2568 25.9419 15.5289 25.9757 15.9864C25.9893 16.1664 26.0542 16.4438 25.7565 16.4614C25.3937 16.4817 25.4858 16.1704 25.4858 15.9715C25.4668 15.5911 25.479 15.2135 25.4777 14.8291ZM25.9757 14.2228C26.0339 14.4096 25.8661 14.7398 26.2248 14.7276C26.5428 14.7168 26.4643 14.4082 26.467 14.2038C26.4698 13.9995 26.5307 13.6895 26.2045 13.7003C25.8566 13.7098 26.0393 14.0374 25.9757 14.2228V14.2228Z" fill="url(#paint37_linear_1_104)"/>
<path d="M22.297 13.1833C22.4757 13.1833 22.6557 13.1833 22.8384 13.1833C22.8951 13.1802 22.9511 13.1981 22.9955 13.2335C23.0399 13.269 23.0698 13.3195 23.0793 13.3755C23.101 13.4974 23.059 13.6273 22.9331 13.6341C22.4716 13.6598 22.565 13.9927 22.5623 14.2688C22.5623 14.8535 22.5623 15.4369 22.5623 16.0283C22.5623 16.2124 22.6286 16.4818 22.3078 16.4655C22.0128 16.452 22.0574 16.1948 22.0547 16.004C22.048 15.4626 22.0642 14.9212 22.0466 14.3879C22.0371 14.0848 22.1982 13.6692 21.6406 13.6395C21.5472 13.6395 21.5052 13.5339 21.5052 13.4351C21.5018 13.4071 21.5041 13.3788 21.5118 13.3517C21.5196 13.3246 21.5327 13.2994 21.5503 13.2774C21.568 13.2555 21.5899 13.2373 21.6147 13.2239C21.6394 13.2105 21.6667 13.2023 21.6947 13.1996C21.895 13.1766 22.1007 13.1779 22.2984 13.1685L22.297 13.1833Z" fill="url(#paint38_linear_1_104)"/>
<path d="M20.5375 14.8279V13.4879C20.5375 13.2998 20.6227 13.1874 20.8204 13.1996C20.8546 13.1993 20.8885 13.2064 20.9198 13.2203C20.9511 13.2343 20.9791 13.2548 21.0018 13.2804C21.0245 13.3061 21.0414 13.3363 21.0515 13.3691C21.0615 13.4018 21.0644 13.4364 21.0599 13.4703C21.0599 14.3862 21.0599 15.3025 21.0599 16.2192C21.0627 16.2529 21.0582 16.2869 21.0467 16.3187C21.0353 16.3505 21.0172 16.3795 20.9936 16.4038C20.97 16.428 20.9415 16.4469 20.9099 16.4592C20.8784 16.4715 20.8447 16.4769 20.8109 16.475C20.6079 16.475 20.5402 16.3532 20.5402 16.1746C20.5361 15.7225 20.5375 15.2745 20.5375 14.8279Z" fill="url(#paint39_linear_1_104)"/>
<defs>
<linearGradient id="paint0_linear_1_104" x1="10.4414" y1="8.74805" x2="44.9541" y2="13.4752" gradientUnits="userSpaceOnUse">
<stop stop-color="#EC9F05"/>
<stop offset="1" stop-color="#FF4E00"/>
</linearGradient>
<linearGradient id="paint1_linear_1_104" x1="10.4414" y1="8.74805" x2="44.9541" y2="13.4752" gradientUnits="userSpaceOnUse">
<stop stop-color="#EC9F05"/>
<stop offset="1" stop-color="#FF4E00"/>
</linearGradient>
<linearGradient id="paint2_linear_1_104" x1="6.3215" y1="4.66919" x2="40.9571" y2="9.25521" gradientUnits="userSpaceOnUse">
<stop stop-color="#EC9F05"/>
<stop offset="1" stop-color="#FF4E00"/>
</linearGradient>
<linearGradient id="paint3_linear_1_104" x1="6.3215" y1="4.66919" x2="40.9571" y2="9.25521" gradientUnits="userSpaceOnUse">
<stop stop-color="#EC9F05"/>
<stop offset="1" stop-color="#FF4E00"/>
</linearGradient>
<linearGradient id="paint4_linear_1_104" x1="40.5405" y1="10.8204" x2="43.4564" y2="10.8573" gradientUnits="userSpaceOnUse">
<stop stop-color="#EC9F05"/>
<stop offset="1" stop-color="#FF4E00"/>
</linearGradient>
<linearGradient id="paint5_linear_1_104" x1="40.5405" y1="10.8204" x2="43.4564" y2="10.8573" gradientUnits="userSpaceOnUse">
<stop stop-color="#EC9F05"/>
<stop offset="1" stop-color="#FF4E00"/>
</linearGradient>
<linearGradient id="paint6_linear_1_104" x1="6.10971" y1="0.0540771" x2="7.35196" y2="0.118519" gradientUnits="userSpaceOnUse">
<stop stop-color="#EC9F05"/>
<stop offset="1" stop-color="#FF4E00"/>
</linearGradient>
<linearGradient id="paint7_linear_1_104" x1="6.10971" y1="0.0540771" x2="7.35196" y2="0.118519" gradientUnits="userSpaceOnUse">
<stop stop-color="#EC9F05"/>
<stop offset="1" stop-color="#FF4E00"/>
</linearGradient>
<linearGradient id="paint8_linear_1_104" x1="0.894531" y1="5.79395" x2="3.59098" y2="7.80493" gradientUnits="userSpaceOnUse">
<stop stop-color="#EC9F05"/>
<stop offset="1" stop-color="#FF4E00"/>
</linearGradient>
<linearGradient id="paint9_linear_1_104" x1="0.894531" y1="5.79395" x2="3.59098" y2="7.80493" gradientUnits="userSpaceOnUse">
<stop stop-color="#EC9F05"/>
<stop offset="1" stop-color="#FF4E00"/>
</linearGradient>
<linearGradient id="paint10_linear_1_104" x1="2.81622" y1="1.81274" x2="5.74655" y2="2.325" gradientUnits="userSpaceOnUse">
<stop stop-color="#EC9F05"/>
<stop offset="1" stop-color="#FF4E00"/>
</linearGradient>
<linearGradient id="paint11_linear_1_104" x1="2.81622" y1="1.81274" x2="5.74655" y2="2.325" gradientUnits="userSpaceOnUse">
<stop stop-color="#EC9F05"/>
<stop offset="1" stop-color="#FF4E00"/>
</linearGradient>
<linearGradient id="paint12_linear_1_104" x1="15.2926" y1="27.319" x2="16.4544" y2="32.4201" gradientUnits="userSpaceOnUse">
<stop stop-color="#EC9F05"/>
<stop offset="1" stop-color="#FF4E00"/>
</linearGradient>
<linearGradient id="paint13_linear_1_104" x1="15.2926" y1="27.319" x2="16.4544" y2="32.4201" gradientUnits="userSpaceOnUse">
<stop stop-color="#EC9F05"/>
<stop offset="1" stop-color="#FF4E00"/>
</linearGradient>
<linearGradient id="paint14_linear_1_104" x1="15.355" y1="31.1825" x2="16.2847" y2="35.7636" gradientUnits="userSpaceOnUse">
<stop stop-color="#EC9F05"/>
<stop offset="1" stop-color="#FF4E00"/>
</linearGradient>
<linearGradient id="paint15_linear_1_104" x1="15.355" y1="31.1825" x2="16.2847" y2="35.7636" gradientUnits="userSpaceOnUse">
<stop stop-color="#EC9F05"/>
<stop offset="1" stop-color="#FF4E00"/>
</linearGradient>
<linearGradient id="paint16_linear_1_104" x1="15.3481" y1="19.7545" x2="16.2275" y2="24.2155" gradientUnits="userSpaceOnUse">
<stop stop-color="#EC9F05"/>
<stop offset="1" stop-color="#FF4E00"/>
</linearGradient>
<linearGradient id="paint17_linear_1_104" x1="15.3481" y1="19.7545" x2="16.2275" y2="24.2155" gradientUnits="userSpaceOnUse">
<stop stop-color="#EC9F05"/>
<stop offset="1" stop-color="#FF4E00"/>
</linearGradient>
<linearGradient id="paint18_linear_1_104" x1="15.3549" y1="38.8156" x2="16.3754" y2="43.3405" gradientUnits="userSpaceOnUse">
<stop stop-color="#EC9F05"/>
<stop offset="1" stop-color="#FF4E00"/>
</linearGradient>
<linearGradient id="paint19_linear_1_104" x1="15.3549" y1="38.8156" x2="16.3754" y2="43.3405" gradientUnits="userSpaceOnUse">
<stop stop-color="#EC9F05"/>
<stop offset="1" stop-color="#FF4E00"/>
</linearGradient>
<linearGradient id="paint20_linear_1_104" x1="20.6063" y1="34.9966" x2="21.7946" y2="39.3637" gradientUnits="userSpaceOnUse">
<stop stop-color="#EC9F05"/>
<stop offset="1" stop-color="#FF4E00"/>
</linearGradient>
<linearGradient id="paint21_linear_1_104" x1="20.6063" y1="34.9966" x2="21.7946" y2="39.3637" gradientUnits="userSpaceOnUse">
<stop stop-color="#EC9F05"/>
<stop offset="1" stop-color="#FF4E00"/>
</linearGradient>
<linearGradient id="paint22_linear_1_104" x1="15.3555" y1="42.6125" x2="16.9004" y2="46.9925" gradientUnits="userSpaceOnUse">
<stop stop-color="#EC9F05"/>
<stop offset="1" stop-color="#FF4E00"/>
</linearGradient>
<linearGradient id="paint23_linear_1_104" x1="15.3555" y1="42.6125" x2="16.9004" y2="46.9925" gradientUnits="userSpaceOnUse">
<stop stop-color="#EC9F05"/>
<stop offset="1" stop-color="#FF4E00"/>
</linearGradient>
<linearGradient id="paint24_linear_1_104" x1="15.2991" y1="23.5631" x2="16.8035" y2="27.8072" gradientUnits="userSpaceOnUse">
<stop stop-color="#EC9F05"/>
<stop offset="1" stop-color="#FF4E00"/>
</linearGradient>
<linearGradient id="paint25_linear_1_104" x1="15.2991" y1="23.5631" x2="16.8035" y2="27.8072" gradientUnits="userSpaceOnUse">
<stop stop-color="#EC9F05"/>
<stop offset="1" stop-color="#FF4E00"/>
</linearGradient>
<linearGradient id="paint26_linear_1_104" x1="27.692" y1="23.5591" x2="29.8334" y2="27.3188" gradientUnits="userSpaceOnUse">
<stop stop-color="#EC9F05"/>
<stop offset="1" stop-color="#FF4E00"/>
</linearGradient>
<linearGradient id="paint27_linear_1_104" x1="27.692" y1="23.5591" x2="29.8334" y2="27.3188" gradientUnits="userSpaceOnUse">
<stop stop-color="#EC9F05"/>
<stop offset="1" stop-color="#FF4E00"/>
</linearGradient>
<linearGradient id="paint28_linear_1_104" x1="15.3655" y1="35.0081" x2="17.6795" y2="37.4478" gradientUnits="userSpaceOnUse">
<stop stop-color="#EC9F05"/>
<stop offset="1" stop-color="#FF4E00"/>
</linearGradient>
<linearGradient id="paint29_linear_1_104" x1="15.3655" y1="35.0081" x2="17.6795" y2="37.4478" gradientUnits="userSpaceOnUse">
<stop stop-color="#EC9F05"/>
<stop offset="1" stop-color="#FF4E00"/>
</linearGradient>
<linearGradient id="paint30_linear_1_104" x1="15.3864" y1="13.1991" x2="18.2506" y2="13.6081" gradientUnits="userSpaceOnUse">
<stop stop-color="#EC9F05"/>
<stop offset="1" stop-color="#FF4E00"/>
</linearGradient>
<linearGradient id="paint31_linear_1_104" x1="33.4116" y1="13.1626" x2="35.2893" y2="13.3357" gradientUnits="userSpaceOnUse">
<stop stop-color="#EC9F05"/>
<stop offset="1" stop-color="#FF4E00"/>
</linearGradient>
<linearGradient id="paint32_linear_1_104" x1="18.3394" y1="13.196" x2="20.2565" y2="13.3785" gradientUnits="userSpaceOnUse">
<stop stop-color="#EC9F05"/>
<stop offset="1" stop-color="#FF4E00"/>
</linearGradient>
<linearGradient id="paint33_linear_1_104" x1="27.3014" y1="13.1683" x2="29.3408" y2="13.3726" gradientUnits="userSpaceOnUse">
<stop stop-color="#EC9F05"/>
<stop offset="1" stop-color="#FF4E00"/>
</linearGradient>
<linearGradient id="paint34_linear_1_104" x1="29.4915" y1="13.1711" x2="31.3484" y2="13.3417" gradientUnits="userSpaceOnUse">
<stop stop-color="#EC9F05"/>
<stop offset="1" stop-color="#FF4E00"/>
</linearGradient>
<linearGradient id="paint35_linear_1_104" x1="23.5151" y1="13.0953" x2="25.1893" y2="13.2274" gradientUnits="userSpaceOnUse">
<stop stop-color="#EC9F05"/>
<stop offset="1" stop-color="#FF4E00"/>
</linearGradient>
<linearGradient id="paint36_linear_1_104" x1="31.4735" y1="13.0913" x2="33.1697" y2="13.226" gradientUnits="userSpaceOnUse">
<stop stop-color="#EC9F05"/>
<stop offset="1" stop-color="#FF4E00"/>
</linearGradient>
<linearGradient id="paint37_linear_1_104" x1="25.475" y1="13.1201" x2="27.2951" y2="13.2809" gradientUnits="userSpaceOnUse">
<stop stop-color="#EC9F05"/>
<stop offset="1" stop-color="#FF4E00"/>
</linearGradient>
<linearGradient id="paint38_linear_1_104" x1="21.5037" y1="13.1685" x2="23.3722" y2="13.3403" gradientUnits="userSpaceOnUse">
<stop stop-color="#EC9F05"/>
<stop offset="1" stop-color="#FF4E00"/>
</linearGradient>
<linearGradient id="paint39_linear_1_104" x1="20.5373" y1="13.1987" x2="21.162" y2="13.2179" gradientUnits="userSpaceOnUse">
<stop stop-color="#EC9F05"/>
<stop offset="1" stop-color="#FF4E00"/>
</linearGradient>
</defs>
</svg>
